<?xml version="1.0" encoding="UTF-8"?>
<svg id="Layer_1" data-name="Layer 1" xmlns="http://www.w3.org/2000/svg" viewBox="0 0 188.18 188.18">
  <defs>
    <style>
      .cls-1 {
        fill: none;
        stroke: #6b7481;
        stroke-linecap: round;
        stroke-linejoin: round;
        stroke-width: 22.14px;
      }
    </style>
  </defs>
  <path class="cls-1" d="m177.11,177.11l-55.35-55.35m18.45-46.12c0,8.48-1.67,16.88-4.92,24.71-3.24,7.83-8,14.95-14,20.95-6,6-13.11,10.75-20.95,14-7.83,3.25-16.23,4.92-24.71,4.92s-16.88-1.67-24.71-4.92c-7.83-3.24-14.95-8-20.95-14-6-6-10.75-13.11-14-20.95-3.25-7.83-4.92-16.23-4.92-24.71,0-17.13,6.8-33.55,18.91-45.66,12.11-12.11,28.53-18.91,45.66-18.91s33.55,6.8,45.66,18.91c12.11,12.11,18.91,28.53,18.91,45.66Z"/>
</svg>