<?xml version="1.0" encoding="utf-8"?>
<!-- Generator: Adobe Illustrator 24.2.0, SVG Export Plug-In . SVG Version: 6.00 Build 0)  -->
<svg version="1.1" id="Layer_1" xmlns="http://www.w3.org/2000/svg" xmlns:xlink="http://www.w3.org/1999/xlink" x="0px" y="0px"
	 viewBox="0 0 200.4 54.7" style="enable-background:new 0 0 200.4 54.7;" xml:space="preserve">
<style type="text/css">
	.st0{display:none;fill:#627590;}
	.st1{display:none;}
	.st2{display:inline;}
	.st3{fill:#4F4F50;}
	.st4{display:none;fill:none;stroke:#6B7481;stroke-width:3;stroke-linecap:round;stroke-linejoin:round;}
	.st5{display:none;fill:none;stroke:#6B7481;stroke-width:2;stroke-linecap:round;stroke-linejoin:round;}
	.st6{display:inline;fill:#BA5933;}
	.st7{fill:#B3522C;}
	.st8{fill:#627590;}
	.st9{fill:#FFFFFF;}
</style>
<rect x="111.2" y="7.8" class="st0" width="38.1" height="38.1"/>
<g class="st1">
	<g class="st2">
		<path class="st3" d="M134.3,57.6l-20.9-20.9c8.7-10.7,8.1-26.5-1.9-36.4c-5.1-5.1-12-8-19.2-8c-7.3,0-14.1,2.8-19.2,8
			c-10.6,10.6-10.6,27.9,0,38.5c5.1,5.1,12,8,19.2,8c6.3,0,12.3-2.2,17.2-6.1l20.9,20.9c0.5,0.5,1.3,0.8,2,0.8s1.4-0.3,2-0.8
			C135.4,60.5,135.4,58.7,134.3,57.6z M77,34.9c-8.4-8.4-8.4-22.2,0-30.6C81.1,0.2,86.5-2,92.3-2s11.2,2.3,15.3,6.3
			c8.4,8.4,8.4,22.2,0,30.6c-4.1,4.1-9.5,6.3-15.3,6.3S81.1,38.9,77,34.9z"/>
	</g>
</g>
<path id="Big_search_bar" class="st4" d="M111.6,38.8l-7.6-7.6L111.6,38.8z M106.6,24.8c0,1.2-0.2,2.3-0.7,3.4
	c-0.4,1.1-1.1,2.1-1.9,2.9c-0.8,0.8-1.8,1.5-2.9,1.9c-1.1,0.4-2.2,0.7-3.4,0.7s-2.3-0.2-3.4-0.7c-1.1-0.4-2.1-1.1-2.9-1.9
	c-0.8-0.8-1.5-1.8-1.9-2.9c-0.4-1.1-0.7-2.2-0.7-3.4c0-2.4,0.9-4.6,2.6-6.3c1.7-1.7,3.9-2.6,6.3-2.6s4.6,0.9,6.3,2.6
	C105.6,20.2,106.6,22.4,106.6,24.8z"/>
<path id="Header_Search_bar" class="st5" d="M107.7,34.9l-5-5L107.7,34.9z M104.4,25.7c0,0.8-0.2,1.5-0.4,2.2
	c-0.3,0.7-0.7,1.4-1.3,1.9c-0.5,0.5-1.2,1-1.9,1.3c-0.7,0.3-1.5,0.4-2.2,0.4s-1.5-0.2-2.2-0.4c-0.7-0.3-1.4-0.7-1.9-1.3
	c-0.5-0.5-1-1.2-1.3-1.9c-0.3-0.7-0.4-1.5-0.4-2.2c0-1.5,0.6-3,1.7-4.1c1.1-1.1,2.6-1.7,4.1-1.7s3,0.6,4.1,1.7
	C103.7,22.7,104.4,24.1,104.4,25.7z"/>
<image style="display:none;overflow:visible;" width="124" height="27" xlink:href="minimal-icons.png"  transform="matrix(0.3972 0 0 0.3972 75.5579 24.4752)">
</image>
<image style="display:none;overflow:visible;" width="124" height="27" xlink:href="minimal-icons.png"  transform="matrix(1 0 0 1 38.1867 13.8589)">
</image>
<g class="st1">
	<circle class="st6" cx="79.5" cy="33.8" r="0.9"/>
	<circle class="st6" cx="85" cy="33.8" r="0.9"/>
	<polygon class="st6" points="79.5,30.4 79.5,31.3 86.1,31.3 85.9,32.4 78.7,32.4 77.5,25.6 87.1,25.6 86.2,30.4 	"/>
	<rect x="76" y="25" class="st6" width="2.4" height="0.9"/>
</g>
<path class="st7" d="M10.5,14.2c0-0.8,0.6-1.4,1.4-1.4h2.6c1.3,0,2.4,0.7,2.9,1.8h23.4c1.5,0,2.6,1.4,2.2,2.9l-2.3,8.6
	c-0.5,1.8-2.1,3-4,3H20.2l0.3,1.6c0.1,0.6,0.7,1.1,1.3,1.1h16.4c0.8,0,1.4,0.6,1.4,1.4s-0.6,1.4-1.4,1.4H21.8c-2,0-3.7-1.4-4-3.3
	l-2.9-15.4c0-0.2-0.2-0.4-0.4-0.4h-2.6C11.1,15.6,10.5,15,10.5,14.2z M17.7,39.1c0-1.5,1.2-2.7,2.7-2.7s2.7,1.2,2.7,2.7
	s-1.2,2.7-2.7,2.7S17.7,40.6,17.7,39.1L17.7,39.1z M36.9,36.4c1.5,0,2.7,1.2,2.7,2.7s-1.2,2.7-2.7,2.7l0,0c-1.5,0-2.7-1.2-2.7-2.7
	S35.4,36.4,36.9,36.4z"/>
<path class="st8" d="M62,14.2c0-0.8,0.6-1.4,1.4-1.4h2.6c1.3,0,2.4,0.7,2.9,1.8h23.4c1.5,0,2.6,1.4,2.2,2.9L92,26.2
	c-0.5,1.8-2.1,3-4,3H71.7l0.3,1.6c0.1,0.6,0.7,1.1,1.3,1.1h16.4c0.8,0,1.4,0.6,1.4,1.4s-0.6,1.4-1.4,1.4H73.3c-2,0-3.7-1.4-4-3.3
	l-2.9-15.4c0-0.2-0.2-0.4-0.4-0.4h-2.6C62.6,15.6,62,15,62,14.2z M69.2,39.1c0-1.5,1.2-2.7,2.7-2.7s2.7,1.2,2.7,2.7
	s-1.2,2.7-2.7,2.7S69.2,40.6,69.2,39.1L69.2,39.1z M88.3,36.4c1.5,0,2.7,1.2,2.7,2.7s-1.2,2.7-2.7,2.7l0,0c-1.5,0-2.7-1.2-2.7-2.7
	S86.8,36.4,88.3,36.4z"/>
<path class="st9" d="M113.4,14.2c0-0.8,0.6-1.4,1.4-1.4h2.6c1.3,0,2.4,0.7,2.9,1.8h23.4c1.5,0,2.6,1.4,2.2,2.9l-2.3,8.6
	c-0.5,1.8-2.1,3-4,3h-16.4l0.3,1.6c0.1,0.6,0.7,1.1,1.3,1.1h16.4c0.8,0,1.4,0.6,1.4,1.4s-0.6,1.4-1.4,1.4h-16.4c-2,0-3.7-1.4-4-3.3
	l-2.9-15.4c0-0.2-0.2-0.4-0.4-0.4h-2.6C114,15.6,113.4,15,113.4,14.2z M120.7,39.1c0-1.5,1.2-2.7,2.7-2.7s2.7,1.2,2.7,2.7
	s-1.2,2.7-2.7,2.7S120.7,40.6,120.7,39.1L120.7,39.1z M139.8,36.4c1.5,0,2.7,1.2,2.7,2.7s-1.2,2.7-2.7,2.7l0,0
	c-1.5,0-2.7-1.2-2.7-2.7S138.3,36.4,139.8,36.4z"/>
<path class="st8" d="M185.2,25c0,2.2-0.7,4.3-2,6l6.2,6.2c0.6,0.6,0.6,1.6,0,2.2c-0.6,0.6-1.6,0.6-2.2,0l-6.2-6.2
	c-1.7,1.2-3.7,1.9-6,1.9c-5.6,0-10.2-4.5-10.2-10.1s4.5-10.1,10.2-10.1S185.2,19.4,185.2,25z M175.1,32c3.9,0,7-3.1,7-7s-3.1-7-7-7
	c-3.9,0-7,3.1-7,7S171.2,32,175.1,32z"/>
</svg>
