<svg xmlns="http://www.w3.org/2000/svg" viewBox="0 0 362.71 50.01"><defs><style>.cls-1{fill:#b3522c;}</style></defs><g id="Layer_2" data-name="Layer 2"><g id="Layer_1-2" data-name="Layer 1"><path class="cls-1" d="M6.78,2.26,21.56,32.47,34.38,2.26H39.9A2.86,2.86,0,0,0,38,3.82a6.13,6.13,0,0,0-.48,2.46V33.37A6.28,6.28,0,0,0,38,35.86a2.86,2.86,0,0,0,1.93,1.58H31.66a2.94,2.94,0,0,0,2-1.56,5.89,5.89,0,0,0,.51-2.51V4.42l-14,33L4.17,4.62V33a3.89,3.89,0,0,0,1,2.86,6.61,6.61,0,0,0,2.64,1.61H0a6.29,6.29,0,0,0,2.61-1.63,4,4,0,0,0,1-2.84V6.48A3.62,3.62,0,0,0,2.54,3.77,6.26,6.26,0,0,0,0,2.26Z"/><path class="cls-1" d="M55.64,12.41a8.29,8.29,0,0,1,4,.93,8.5,8.5,0,0,1,2.84,2.49,11.63,11.63,0,0,1,1.71,3.54,14.67,14.67,0,0,1,.57,4.05H46a17.7,17.7,0,0,0,.2,4.2,11.8,11.8,0,0,0,1.4,4,9.6,9.6,0,0,0,2.87,3.09,9.47,9.47,0,0,0,4.62,1.51,16.59,16.59,0,0,0,2.34,0,8.7,8.7,0,0,0,2.34-.48,11.08,11.08,0,0,0,2.64-1.4,13.26,13.26,0,0,0,2.18-2,19.09,19.09,0,0,0,2.49-3.75q1-2,2-4.14c.17-.41.35-.81.53-1.21s.38-.79.58-1.16V18.6c0-.27,0-.58,0-.93a4,4,0,0,0-.23-1,2,2,0,0,0-.5-.83,1.18,1.18,0,0,0-.88-.33L73,12.36v4.88a13.88,13.88,0,0,1,3-2.92,12.19,12.19,0,0,1,2.11-1.45,5.1,5.1,0,0,1,2.51-.61,2.68,2.68,0,0,1,1.41.4,1.37,1.37,0,0,1,.66,1.26,1.57,1.57,0,0,1-.51,1.28,1.91,1.91,0,0,1-1.3.43,2.66,2.66,0,0,1-1.41-.43,3.4,3.4,0,0,0-1.76-.42,3.57,3.57,0,0,0-1.11.17,10,10,0,0,0-1.1.43,13.57,13.57,0,0,0-3.44,4.15c-.89,1.62-1.76,3.34-2.59,5.15l-1.41,3a30.17,30.17,0,0,1-1.56,2.92.94.94,0,0,0,.18-.25,1.3,1.3,0,0,1,.17-.26,18.7,18.7,0,0,1-2.18,3.07A14.91,14.91,0,0,1,62,35.61a12.88,12.88,0,0,1-3.21,1.61,11.8,11.8,0,0,1-3.7.57,12,12,0,0,1-4.82-.95,11.79,11.79,0,0,1-3.82-2.61,12.44,12.44,0,0,1-2.54-3.92A12.59,12.59,0,0,1,43,25.48a15.52,15.52,0,0,1,.86-5.35A11.44,11.44,0,0,1,46.31,16a11,11,0,0,1,4-2.67A14.44,14.44,0,0,1,55.64,12.41ZM46,22.72H59.1a2.82,2.82,0,0,0,2.42-1.08,4.18,4.18,0,0,0,.8-2.54,5.62,5.62,0,0,0-.63-2.69,5.85,5.85,0,0,0-1.66-2,7.86,7.86,0,0,0-2.36-1.21A8.88,8.88,0,0,0,55,12.82a7.31,7.31,0,0,0-3.49.87A9.85,9.85,0,0,0,48.65,16a11.27,11.27,0,0,0-1.91,3.19A9.59,9.59,0,0,0,46,22.72ZM67.75,37.44a2.86,2.86,0,0,0,1.93-1.58,6.43,6.43,0,0,0,.48-2.54V25.58l.6-1.21c.31-.6.61-1.23.93-1.91s.61-1.28.88-1.83a9.86,9.86,0,0,0,.46-1V33.32a6.09,6.09,0,0,0,.5,2.54,2.89,2.89,0,0,0,1.86,1.58Z"/><path class="cls-1" d="M83.58,37.44a2.84,2.84,0,0,0,1.93-1.58A6.43,6.43,0,0,0,86,33.32V18.6c0-.27,0-.58,0-.93a4,4,0,0,0-.23-1,2,2,0,0,0-.5-.83,1.18,1.18,0,0,0-.88-.33l4.53-3.17v21a6.09,6.09,0,0,0,.5,2.54,2.91,2.91,0,0,0,1.91,1.58Zm10-22.66a4.57,4.57,0,0,0-1.83.37,12.88,12.88,0,0,0-1.69.88l1.38-1.36A14.11,14.11,0,0,1,93,13.47a7.15,7.15,0,0,1,1.66-.88,5.49,5.49,0,0,1,1.94-.33,2.68,2.68,0,0,1,1.4.4,1.37,1.37,0,0,1,.66,1.26,1.55,1.55,0,0,1-.53,1.28,2,2,0,0,1-1.33.43,2.66,2.66,0,0,1-1.41-.43A3.28,3.28,0,0,0,93.63,14.78Z"/><path class="cls-1" d="M101,12.31h7.69a1.88,1.88,0,0,0-1.11.91,2.94,2.94,0,0,0-.35,1.4,6.91,6.91,0,0,0,.5,1.74c.34.89.77,1.94,1.31,3.17s1.12,2.53,1.76,3.94,1.25,2.75,1.83,4,1.12,2.41,1.59,3.39.78,1.69,1,2.09q.3-.6.93-2c.42-.94.9-2,1.46-3.22s1.12-2.46,1.71-3.77,1.11-2.53,1.58-3.67.86-2.14,1.18-3a6.67,6.67,0,0,0,.48-1.71,3.9,3.9,0,0,0-.6-2.11,2.56,2.56,0,0,0-1.81-1.16h7.69a5,5,0,0,0-2.57,1.26,7.39,7.39,0,0,0-1.71,2.31Q120,23.47,116.72,31T110,46.24a11.8,11.8,0,0,1-.7,1.3,7.34,7.34,0,0,1-.93,1.21,4.62,4.62,0,0,1-1.18.9,3,3,0,0,1-1.46.36,1.94,1.94,0,0,1-1.3-.53,1.57,1.57,0,0,1-.61-1.23,1.41,1.41,0,0,1,.53-1.23,2.09,2.09,0,0,1,1.28-.38c.34,0,.7,0,1.08,0a5.08,5.08,0,0,0,1.11,0,3.5,3.5,0,0,0,1-.3,1.48,1.48,0,0,0,.73-.83l3.92-8.89-8.94-20.26A12.89,12.89,0,0,0,103.18,14,5,5,0,0,0,101,12.31Z"/><path class="cls-1" d="M161.13,2.11a25.76,25.76,0,0,1,3,.18,19.46,19.46,0,0,1,3.06.6,21.78,21.78,0,0,1,2.94,1,11,11,0,0,1,2.52,1.54v5a24.88,24.88,0,0,0-2.42-2.91,18,18,0,0,0-3-2.49,14.79,14.79,0,0,0-3.42-1.71,11.27,11.27,0,0,0-3.72-.63,11.06,11.06,0,0,0-5.63,1.39,12.24,12.24,0,0,0-4,3.61,16.62,16.62,0,0,0-2.39,5.08,20.71,20.71,0,0,0-.8,5.71,24.18,24.18,0,0,0,.88,6.33,20.36,20.36,0,0,0,2.63,5.95,14.75,14.75,0,0,0,4.43,4.4,11.26,11.26,0,0,0,6.23,1.71,10.63,10.63,0,0,0,3.67-.65,13.68,13.68,0,0,0,3.26-1.76A18.48,18.48,0,0,0,171.2,32a19,19,0,0,0,2.24-3l.65,3.32a21.16,21.16,0,0,1-2.81,2A27.84,27.84,0,0,1,168,36a22.09,22.09,0,0,1-3.47,1.16,14.65,14.65,0,0,1-3.41.42,17.74,17.74,0,0,1-16.49-10.78,17.25,17.25,0,0,1-1.41-7,17.39,17.39,0,0,1,1.41-7,17.81,17.81,0,0,1,3.82-5.63,17.49,17.49,0,0,1,5.68-3.74A18,18,0,0,1,161.13,2.11Z"/><path class="cls-1" d="M177,37.44a3.36,3.36,0,0,0,2-1.71,6.22,6.22,0,0,0,.53-2.66V6.68a7.43,7.43,0,0,0-.07-1,5.67,5.67,0,0,0-.26-1.08,2.15,2.15,0,0,0-.52-.88,1.29,1.29,0,0,0-1-.35L182.39,0l.05,33.07a6.38,6.38,0,0,0,.52,2.66,3.38,3.38,0,0,0,2,1.71Zm7-21.26a12.17,12.17,0,0,1,3.57-2.89,9.4,9.4,0,0,1,4.48-1.13,6.34,6.34,0,0,1,5.45,2.67,8.12,8.12,0,0,1,1.28,2.79,13.18,13.18,0,0,1,.4,3.29V33.07a6.28,6.28,0,0,0,.56,2.69,3.2,3.2,0,0,0,2.06,1.68h-8.05a3.12,3.12,0,0,0,2-1.71,6.58,6.58,0,0,0,.53-2.66V20.3a11.54,11.54,0,0,0-.28-2.56,6.4,6.4,0,0,0-.93-2.24A4.8,4.8,0,0,0,193.47,14a5.1,5.1,0,0,0-2.54-.58,8.41,8.41,0,0,0-3.67.83A16.65,16.65,0,0,0,184,16.18Z"/><path class="cls-1" d="M206.21,33.32V18.55c0-.27,0-.58-.05-.93a5.31,5.31,0,0,0-.2-1,1.85,1.85,0,0,0-.48-.8,1.18,1.18,0,0,0-.88-.33l4.47-3.17v21a9.12,9.12,0,0,0,.1,1.51,2.86,2.86,0,0,0,.38,1,3.05,3.05,0,0,0,.75.78c.32.23.73.5,1.24.8h-7.75a2.82,2.82,0,0,0,1.94-1.61A6.45,6.45,0,0,0,206.21,33.32Zm14.62-22.16a6,6,0,0,1,1.08.1,3.33,3.33,0,0,1,1.06.37,2.73,2.73,0,0,1,.8.71,1.7,1.7,0,0,1,.33,1.08,1.59,1.59,0,0,1-.63,1.43,2.62,2.62,0,0,1-1.53.43,2.38,2.38,0,0,1-1.38-.33,10.45,10.45,0,0,1-.91-.7,6.09,6.09,0,0,0-1-.71,3.48,3.48,0,0,0-1.64-.32,5.16,5.16,0,0,0-1.56.3,12,12,0,0,0-1.83.8c-.62.34-1.22.7-1.81,1.08a8.93,8.93,0,0,0-1.48,1.19,12.68,12.68,0,0,1,2.41-2.39,16.09,16.09,0,0,1,2.77-1.71,13.74,13.74,0,0,1,2.78-1A11.6,11.6,0,0,1,220.83,11.16Zm-.2,22.16v-9.7c0-.27,0-.58,0-.93a4.62,4.62,0,0,0-.22-1,2.48,2.48,0,0,0-.48-.83,1.1,1.1,0,0,0-.86-.32l4.48-3.17v16a6.12,6.12,0,0,0,.5,2.51,2.9,2.9,0,0,0,2,1.61h-7.69a2.92,2.92,0,0,0,1.91-1.61A6.57,6.57,0,0,0,220.63,33.32Z"/><path class="cls-1" d="M229.53,30.2A11.31,11.31,0,0,0,233,35a8.48,8.48,0,0,0,5.53,1.94,20.75,20.75,0,0,0,2.36-.15,8.75,8.75,0,0,0,2.44-.63,5.17,5.17,0,0,0,1.91-1.36,3.59,3.59,0,0,0-.43-4.92,12.4,12.4,0,0,0-3-1.84q-1.78-.79-3.87-1.5a26.2,26.2,0,0,1-3.87-1.66,10.65,10.65,0,0,1-3-2.34,5.14,5.14,0,0,1-1.2-3.49,6.35,6.35,0,0,1,.7-3.07,6.81,6.81,0,0,1,1.83-2.18,8.22,8.22,0,0,1,2.64-1.34,10.71,10.71,0,0,1,3.07-.45,15.41,15.41,0,0,1,1.91.15c.77.1,1.56.25,2.39.43s1.61.38,2.38.58a11.17,11.17,0,0,1,1.81.6v4.72A7.93,7.93,0,0,0,245.28,16a9,9,0,0,0-2.06-1.88,10.61,10.61,0,0,0-2.56-1.23,8.56,8.56,0,0,0-2.74-.46,8.68,8.68,0,0,0-2.06.28,7.35,7.35,0,0,0-2,.83A5.09,5.09,0,0,0,232.29,15a3.31,3.31,0,0,0-.6,2,4,4,0,0,0,1.2,3,11.3,11.3,0,0,0,3,2,33.7,33.7,0,0,0,3.9,1.56,29.5,29.5,0,0,1,3.89,1.61,10.34,10.34,0,0,1,3,2.21,4.74,4.74,0,0,1,1.21,3.37,6.13,6.13,0,0,1-2.82,5.45,8.31,8.31,0,0,1-2.86,1.18,14.89,14.89,0,0,1-3.27.35,29.31,29.31,0,0,1-4.75-.42,37.41,37.41,0,0,1-4.64-1.08Z"/><path class="cls-1" d="M251.64,13v-.66h2.06V6.89a5.87,5.87,0,0,1,.68-2.79,3.84,3.84,0,0,1,2.19-1.84V12.31h4.52V13h-4.52V31a6.13,6.13,0,0,0,.32,2,5.27,5.27,0,0,0,.93,1.68,4.44,4.44,0,0,0,1.48,1.16,4.58,4.58,0,0,0,2,.43,6.11,6.11,0,0,0,2.56-.61A5.55,5.55,0,0,0,266,34a4,4,0,0,1-1,1.49,7,7,0,0,1-1.54,1.05,7.52,7.52,0,0,1-1.75.66,7.61,7.61,0,0,1-1.79.22,6,6,0,0,1-2.81-.6,5.49,5.49,0,0,1-1.91-1.63A6.6,6.6,0,0,1,254,32.82,12.13,12.13,0,0,1,253.7,30V13Z"/><path class="cls-1" d="M269.38,33.07V19a7.71,7.71,0,0,0-.08-1,5.65,5.65,0,0,0-.25-1.08,2.22,2.22,0,0,0-.52-.88,1.33,1.33,0,0,0-1-.35l4.62-3.37.05,20.76a6.38,6.38,0,0,0,.53,2.66,3.36,3.36,0,0,0,2,1.71h-8a3.36,3.36,0,0,0,2-1.71A6.38,6.38,0,0,0,269.38,33.07Zm4.47-16.89a11.92,11.92,0,0,1,3.57-2.89,9.39,9.39,0,0,1,4.47-1.13,6.34,6.34,0,0,1,5.46,2.67,8.12,8.12,0,0,1,1.28,2.79,13.18,13.18,0,0,1,.4,3.29V33.07a6.28,6.28,0,0,0,.55,2.69,3.25,3.25,0,0,0,2.06,1.68h-8a3.12,3.12,0,0,0,2-1.71,6.58,6.58,0,0,0,.53-2.66V20.3a12.17,12.17,0,0,0-.28-2.56A6.59,6.59,0,0,0,285,15.5,4.89,4.89,0,0,0,283.28,14a5.1,5.1,0,0,0-2.54-.58,8.38,8.38,0,0,0-3.67.83A16.36,16.36,0,0,0,273.85,16.18Zm23.87-4a6.34,6.34,0,0,1,5.46,2.67,8.12,8.12,0,0,1,1.28,2.79,13.18,13.18,0,0,1,.4,3.29V33.07a6.28,6.28,0,0,0,.56,2.69,3.2,3.2,0,0,0,2.06,1.68h-8.05a3.12,3.12,0,0,0,2-1.71,6.58,6.58,0,0,0,.53-2.66V20.3a12.17,12.17,0,0,0-.28-2.56,6.4,6.4,0,0,0-.93-2.24A4.89,4.89,0,0,0,299.11,14a5.1,5.1,0,0,0-2.54-.58,8.41,8.41,0,0,0-3.67.83,16.65,16.65,0,0,0-3.22,2,12,12,0,0,1,3.57-2.89A9.39,9.39,0,0,1,297.72,12.16Z"/><path class="cls-1" d="M310.19,32.11a5.72,5.72,0,0,1,.95-3.36,7.54,7.54,0,0,1,2.42-2.21,15,15,0,0,1,3.21-1.39c1.17-.35,2.31-.64,3.42-.88s2.09-.46,3-.7a4.49,4.49,0,0,0,1.86-.85V19.9a12.37,12.37,0,0,0-.25-2.46,6.88,6.88,0,0,0-.85-2.26,5.22,5.22,0,0,0-1.58-1.66,4.29,4.29,0,0,0-2.44-.65,7.59,7.59,0,0,0-1.53.17,8.74,8.74,0,0,0-1.69.53,4.11,4.11,0,0,0-1.36.93,2,2,0,0,0-.55,1.43,4.11,4.11,0,0,0,.13,1.06A4.44,4.44,0,0,1,315,18a1.66,1.66,0,0,1-1.91,1.86,1.53,1.53,0,0,1-1.3-.58,2.17,2.17,0,0,1-.46-1.38,3.28,3.28,0,0,1,1-2.31,9.28,9.28,0,0,1,2.44-1.81,14.1,14.1,0,0,1,3-1.16,10.93,10.93,0,0,1,2.59-.4c2.65,0,4.56.66,5.73,2s1.76,3.25,1.76,5.83V32.77a4.76,4.76,0,0,0,.48,2.13,1.82,1.82,0,0,0,1.83,1,3,3,0,0,0,2-.7,3,3,0,0,1-1.43,1.68,4.14,4.14,0,0,1-2.14.68,3.59,3.59,0,0,1-1.81-.4,2.87,2.87,0,0,1-1.08-1,4.2,4.2,0,0,1-.5-1.51,13.06,13.06,0,0,1-.13-1.81v-9.2c-1.1.34-2.32.68-3.64,1A18.59,18.59,0,0,0,317.7,26a9,9,0,0,0-2.84,2.24,5.49,5.49,0,0,0-1.15,3.64,4.29,4.29,0,0,0,1.3,3.32,4.86,4.86,0,0,0,3.42,1.21,11.08,11.08,0,0,0,3-.41,8.9,8.9,0,0,0,2.71-1.25,8.75,8.75,0,0,1-3.37,2.18,12.11,12.11,0,0,1-4,.63,9.44,9.44,0,0,1-2.44-.32,6.29,6.29,0,0,1-2.08-1,5.16,5.16,0,0,1-1.46-1.71A4.93,4.93,0,0,1,310.19,32.11Z"/><path class="cls-1" d="M334.31,30.2a11.34,11.34,0,0,0,3.47,4.8,8.46,8.46,0,0,0,5.53,1.94,20.89,20.89,0,0,0,2.36-.15,8.84,8.84,0,0,0,2.44-.63A5.25,5.25,0,0,0,350,34.8a3.59,3.59,0,0,0-.43-4.92,12.4,12.4,0,0,0-3-1.84q-1.78-.79-3.87-1.5a26.2,26.2,0,0,1-3.87-1.66,10.51,10.51,0,0,1-3-2.34,5.15,5.15,0,0,1-1.21-3.49,6.36,6.36,0,0,1,.71-3.07,6.81,6.81,0,0,1,1.83-2.18,8.22,8.22,0,0,1,2.64-1.34,10.71,10.71,0,0,1,3.07-.45,15.41,15.41,0,0,1,1.91.15c.77.1,1.56.25,2.38.43s1.62.38,2.39.58a11.52,11.52,0,0,1,1.81.6v4.72A8.15,8.15,0,0,0,350.07,16,9.21,9.21,0,0,0,348,14.15a10.5,10.5,0,0,0-2.57-1.23,8.5,8.5,0,0,0-2.73-.46,8.83,8.83,0,0,0-2.07.28,7.41,7.41,0,0,0-2,.83A5.09,5.09,0,0,0,337.08,15a3.25,3.25,0,0,0-.61,2,4,4,0,0,0,1.21,3,11.14,11.14,0,0,0,3,2,34.25,34.25,0,0,0,3.89,1.56,29.09,29.09,0,0,1,3.9,1.61,10.34,10.34,0,0,1,3,2.21,4.78,4.78,0,0,1,1.21,3.37,6.13,6.13,0,0,1-2.82,5.45A8.39,8.39,0,0,1,347,37.34a15,15,0,0,1-3.27.35,29.21,29.21,0,0,1-4.75-.42,38,38,0,0,1-4.65-1.08Z"/><path class="cls-1" d="M360.45,33.12a2.23,2.23,0,0,1,1.55.65,2.13,2.13,0,0,1,.71,1.61,2.36,2.36,0,0,1-.66,1.63,2.22,2.22,0,0,1-3.31,0,2.55,2.55,0,0,1-.61-1.61,2.2,2.2,0,0,1,.66-1.61A2.26,2.26,0,0,1,360.45,33.12ZM358.34,4.47a2.61,2.61,0,0,1,.57-1.76,2,2,0,0,1,1.54-.65,1.81,1.81,0,0,1,1.53.7,2.79,2.79,0,0,1,.53,1.71c0,.27,0,.92-.1,1.94s-.15,2.28-.23,3.77-.18,3.14-.3,5-.24,3.61-.38,5.4-.26,3.52-.37,5.18-.23,3.09-.33,4.29h-.71c-.1-1.07-.2-2.4-.32-4s-.24-3.29-.38-5.1-.26-3.64-.38-5.48-.22-3.53-.32-5-.19-2.82-.25-3.9S358.34,4.74,358.34,4.47Z"/></g></g></svg>