<svg xmlns="http://www.w3.org/2000/svg" viewBox="0 0 363.45 56.08"><defs><style>.cls-1{fill:#b3522c;}</style></defs><g id="Layer_2" data-name="Layer 2"><g id="Layer_1-2" data-name="Layer 1"><path class="cls-1" d="M50.26,18.52a2.74,2.74,0,0,0,1.1-.77,4.08,4.08,0,0,0,.74-1.12l6-15.74,5.94,15.69a5.13,5.13,0,0,0,.63,1.17,2,2,0,0,0,1.06.77H61.37a1.4,1.4,0,0,0,.71-.57,1.54,1.54,0,0,0,.29-.87,3.81,3.81,0,0,0-.25-1c-.17-.5-.36-1-.58-1.61s-.44-1.11-.65-1.64l-.46-1.13H54.34l-1.62,4.2a5,5,0,0,0-.16.51,2.48,2.48,0,0,0-.06.54,1.33,1.33,0,0,0,.41,1,2.72,2.72,0,0,0,1,.57Zm10-7.11L57.37,3.65l-3,7.76Z"/><path class="cls-1" d="M73.33,18.52a1.65,1.65,0,0,0,1-.85,3.19,3.19,0,0,0,.26-1.31v-13a3,3,0,0,0,0-.5,2.62,2.62,0,0,0-.12-.54,1.24,1.24,0,0,0-.26-.43.64.64,0,0,0-.48-.17L76,0l0,16.36a3,3,0,0,0,.26,1.31,1.63,1.63,0,0,0,1,.85ZM76.81,8a5.75,5.75,0,0,1,1.77-1.42A4.51,4.51,0,0,1,80.79,6a3.29,3.29,0,0,1,1.6.36,3.25,3.25,0,0,1,1.1,1,4,4,0,0,1,.63,1.38,6.8,6.8,0,0,1,.2,1.63v6a3.16,3.16,0,0,0,.27,1.33,1.61,1.61,0,0,0,1,.83h-4a1.56,1.56,0,0,0,1-.85,3.26,3.26,0,0,0,.26-1.31V10a5.86,5.86,0,0,0-.13-1.26,3.46,3.46,0,0,0-.46-1.11,2.48,2.48,0,0,0-.84-.77,2.54,2.54,0,0,0-1.25-.29A4.28,4.28,0,0,0,78.4,7,8.48,8.48,0,0,0,76.81,8Z"/><path class="cls-1" d="M91.38,12.08l1.53-.38a15.18,15.18,0,0,1,1.55-.31V9.87a6.46,6.46,0,0,0-.12-1.22,3.68,3.68,0,0,0-.43-1.12,2.65,2.65,0,0,0-.78-.82,2.14,2.14,0,0,0-1.2-.32,3.79,3.79,0,0,0-.76.09,3.55,3.55,0,0,0-.84.26,2.1,2.1,0,0,0-.67.46,1,1,0,0,0-.27.7,1.9,1.9,0,0,0,.07.54,1.89,1.89,0,0,1,.08.53.85.85,0,0,1-.26.69,1.11,1.11,0,0,1-.71.21.79.79,0,0,1-.65-.29,1.07,1.07,0,0,1-.22-.68,1.58,1.58,0,0,1,.5-1.14,4.6,4.6,0,0,1,1.2-.9,6.7,6.7,0,0,1,1.46-.57,5.14,5.14,0,0,1,1.26-.2,4.7,4.7,0,0,1,2.07.37,2.49,2.49,0,0,1,1.1,1,4.13,4.13,0,0,1,.45,1.57q.09.91.09,2c.79-.19,1.58-.41,2.35-.67a15,15,0,0,0,2.25-1,5,5,0,0,0,0-.5,4.54,4.54,0,0,0-.12-.53A1.16,1.16,0,0,0,100,8a.64.64,0,0,0-.47-.17l2.26-1.64,0,2.41A11.44,11.44,0,0,0,103,7.66a7.54,7.54,0,0,1,1-.8,5.28,5.28,0,0,1,1.14-.57,4.48,4.48,0,0,1,1.52-.22,3.29,3.29,0,0,1,1.6.36,3,3,0,0,1,1.07,1,4.49,4.49,0,0,1,.61,1.39,6.41,6.41,0,0,1,.2,1.59v6a3.23,3.23,0,0,0,.27,1.33,1.61,1.61,0,0,0,1,.86h-4a1.55,1.55,0,0,0,1-.86,3.22,3.22,0,0,0,.26-1.33V10.07a5.86,5.86,0,0,0-.14-1.26,3.81,3.81,0,0,0-.46-1.09,2.48,2.48,0,0,0-.82-.79A2.55,2.55,0,0,0,106,6.64a3.78,3.78,0,0,0-1.54.29,5.72,5.72,0,0,0-1.32.88,16,16,0,0,1-2.11,1.52A15.13,15.13,0,0,1,99,10.38a17.48,17.48,0,0,1-2.22.73c-.78.2-1.62.39-2.53.57l-1.32.26q-.66.15-1.29.36a4.91,4.91,0,0,0-1.94,1.31,3.09,3.09,0,0,0-.79,2.15,2.12,2.12,0,0,0,.64,1.64,2.39,2.39,0,0,0,1.69.6,5.6,5.6,0,0,0,1.47-.2A4.42,4.42,0,0,0,94,17.18a4.66,4.66,0,0,1-1.69,1.08,5.84,5.84,0,0,1-2,.31,4.42,4.42,0,0,1-1.21-.16,3.18,3.18,0,0,1-1-.5,2.48,2.48,0,0,1-.72-.85,2.45,2.45,0,0,1-.27-1.18,3,3,0,0,1,.38-1.55,3.64,3.64,0,0,1,1-1.06,6.54,6.54,0,0,1,1.37-.7A11.79,11.79,0,0,1,91.38,12.08Zm3.08.08c.23-.07.46-.12.68-.17a4.39,4.39,0,0,0,.69-.18v4.4a2.5,2.5,0,0,0,.23,1,.9.9,0,0,0,.89.5,1.52,1.52,0,0,0,1-.35,1.45,1.45,0,0,1-.71.83,2,2,0,0,1-1,.34,1.82,1.82,0,0,1-.9-.2,1.3,1.3,0,0,1-.52-.52,2.2,2.2,0,0,1-.24-.75,6.33,6.33,0,0,1-.06-.89Zm4.72,6.36a1.6,1.6,0,0,0,1-.87,3.53,3.53,0,0,0,.25-1.32V10.22c.23-.1.47-.22.73-.36a4,4,0,0,0,.66-.46l0,6.93a3.53,3.53,0,0,0,.25,1.32,1.61,1.61,0,0,0,1,.87Z"/><path class="cls-1" d="M118.37,6a6.08,6.08,0,0,1,1.09.09,4.28,4.28,0,0,1,.9.27,4.81,4.81,0,0,1,.82.47c.27.19.55.41.85.66v-4A4.92,4.92,0,0,0,122,3a1.75,1.75,0,0,0-.12-.55,1.09,1.09,0,0,0-.29-.43.65.65,0,0,0-.48-.18L123.42.1V15.41a2.21,2.21,0,0,0,.17.87.81.81,0,0,0,.75.45L122,18.47V9.74a2.73,2.73,0,0,0-.35-1.34,4.06,4.06,0,0,0-.89-1.09,4.56,4.56,0,0,0-1.23-.75,3.7,3.7,0,0,0-1.36-.27,3.17,3.17,0,0,0-1.86.56A4.8,4.8,0,0,0,115,8.25a6.37,6.37,0,0,0-.8,1.87,8,8,0,0,0-.26,1.94A8.26,8.26,0,0,0,114.2,14a6.81,6.81,0,0,0,.76,1.91,4.76,4.76,0,0,0,1.3,1.45,3.07,3.07,0,0,0,1.87.59,3.92,3.92,0,0,0,1.76-.36,6.12,6.12,0,0,0,1.47-1.08A4.5,4.5,0,0,1,119.77,18a4.2,4.2,0,0,1-2.12.56,4.7,4.7,0,0,1-2.18-.49,5.25,5.25,0,0,1-1.66-1.33,6.18,6.18,0,0,1-1-1.9,6.68,6.68,0,0,1-.38-2.22,7.81,7.81,0,0,1,.41-2.51A6.27,6.27,0,0,1,114,8a5.81,5.81,0,0,1,1.89-1.42A5.59,5.59,0,0,1,118.37,6Z"/><path class="cls-1" d="M125.81,12.63a7.47,7.47,0,0,1,.43-2.6,5.75,5.75,0,0,1,1.26-2,5.69,5.69,0,0,1,2-1.34,6.73,6.73,0,0,1,2.6-.49,6.81,6.81,0,0,1,1.36.15,5.53,5.53,0,0,1,1.38.49,3.29,3.29,0,0,1,1.08.87,2,2,0,0,1,.43,1.3,1.11,1.11,0,0,1-.2.67.69.69,0,0,1-.62.3.72.72,0,0,1-.66-.32,1.29,1.29,0,0,1-.21-.72,2.07,2.07,0,0,0-.25-1,2.53,2.53,0,0,0-.66-.8,3.18,3.18,0,0,0-1.95-.71,3.59,3.59,0,0,0-1.84.49,4.9,4.9,0,0,0-1.4,1.25,6.29,6.29,0,0,0-.91,1.72,5.87,5.87,0,0,0-.32,1.86,9.65,9.65,0,0,0,.27,2.27,6.11,6.11,0,0,0,.87,2A4.76,4.76,0,0,0,130,17.38a4.36,4.36,0,0,0,2.23.54,4.55,4.55,0,0,0,2.51-.67,7,7,0,0,0,1.81-1.7,13,13,0,0,0,1.34-2.26c.38-.82.73-1.61,1-2.35V9.22a4.21,4.21,0,0,0,0-.46,1.87,1.87,0,0,0-.11-.51,1.13,1.13,0,0,0-.25-.41.57.57,0,0,0-.43-.16l2.23-1.56V8.53a9.35,9.35,0,0,1,.76-.82,7.77,7.77,0,0,1,.93-.79,5.21,5.21,0,0,1,1.05-.59,2.63,2.63,0,0,1,1.07-.24,1.29,1.29,0,0,1,.69.2.67.67,0,0,1,.33.62.77.77,0,0,1-.26.63,1,1,0,0,1-.66.22,1.25,1.25,0,0,1-.7-.22,1.59,1.59,0,0,0-.84-.21,2.08,2.08,0,0,0-1.37.49,5.13,5.13,0,0,0-1.11,1.29,17.14,17.14,0,0,0-1,1.83c-.31.68-.65,1.37-1,2.07s-.73,1.4-1.13,2.08a9.52,9.52,0,0,1-1.42,1.83,6.67,6.67,0,0,1-1.83,1.29,5.5,5.5,0,0,1-2.36.48,5.28,5.28,0,0,1-2.31-.49,5.81,5.81,0,0,1-1.79-1.33,6.2,6.2,0,0,1-1.17-1.93A6.39,6.39,0,0,1,125.81,12.63Zm13.1,3.85V12.65a13.46,13.46,0,0,0,.77-1.46c.23-.52.45-1,.64-1.5v6.79a3.16,3.16,0,0,0,.25,1.24,1.43,1.43,0,0,0,1,.8h-3.81a1.41,1.41,0,0,0,1-.8A3.15,3.15,0,0,0,138.91,16.48Z"/><path class="cls-1" d="M146.24,15.88a2.85,2.85,0,0,1,.47-1.66,3.8,3.8,0,0,1,1.2-1.09,7.14,7.14,0,0,1,1.59-.69c.58-.17,1.14-.32,1.69-.43l1.46-.35a2.4,2.4,0,0,0,.92-.42V9.84a6.36,6.36,0,0,0-.12-1.21A3.34,3.34,0,0,0,153,7.51a2.48,2.48,0,0,0-.79-.82,2.07,2.07,0,0,0-1.2-.33,3.79,3.79,0,0,0-.76.09,4.46,4.46,0,0,0-.83.26,2,2,0,0,0-.67.46,1,1,0,0,0-.28.71,2.18,2.18,0,0,0,.06.52,1.81,1.81,0,0,1,.07.52c0,.62-.32.92-.95.92a.75.75,0,0,1-.64-.28,1.08,1.08,0,0,1-.23-.69,1.64,1.64,0,0,1,.5-1.14,4.36,4.36,0,0,1,1.2-.89A7.61,7.61,0,0,1,150,6.26a5.27,5.27,0,0,1,1.28-.19,3.68,3.68,0,0,1,2.84,1A4.21,4.21,0,0,1,155,9.92v6.29a2.31,2.31,0,0,0,.23,1.05.91.91,0,0,0,.91.49,1.5,1.5,0,0,0,1-.35,1.48,1.48,0,0,1-.71.83,2,2,0,0,1-1.06.34,1.8,1.8,0,0,1-.89-.2,1.5,1.5,0,0,1-.54-.52,2.2,2.2,0,0,1-.24-.75,5.1,5.1,0,0,1-.07-.89V11.66l-1.8.51a9,9,0,0,0-1.81.68A4.29,4.29,0,0,0,148.55,14a2.7,2.7,0,0,0-.57,1.8,2.12,2.12,0,0,0,.65,1.64,2.38,2.38,0,0,0,1.69.6,5.59,5.59,0,0,0,1.46-.2,4.59,4.59,0,0,0,1.35-.62,4.51,4.51,0,0,1-1.67,1.08,6,6,0,0,1-2,.31,4.4,4.4,0,0,1-1.2-.16,3.24,3.24,0,0,1-1-.5,2.72,2.72,0,0,1-.72-.85A2.45,2.45,0,0,1,146.24,15.88Z"/><path class="cls-1" d="M157.6,6.09h1.54c0-.61,0-1.28.1-2a7.36,7.36,0,0,1,.47-2A3.86,3.86,0,0,1,160.8.61,2.78,2.78,0,0,1,162.7,0a5,5,0,0,1,1.68.36,2.67,2.67,0,0,1,.74.47.89.89,0,0,1,.31.69,1,1,0,0,1-.2.62.66.66,0,0,1-.57.27.72.72,0,0,1-.7-.33c-.11-.23-.21-.47-.31-.73a3.11,3.11,0,0,0-.38-.72,1.07,1.07,0,0,0-.9-.33,1.26,1.26,0,0,0-1.2.71,4.76,4.76,0,0,0-.52,1.66,12.44,12.44,0,0,0-.13,1.93c0,.64,0,1.14,0,1.49h2.22v.35h-2.22v10a3.28,3.28,0,0,0,.25,1.25,1.46,1.46,0,0,0,1,.81H158a1.42,1.42,0,0,0,1-.81,3.47,3.47,0,0,0,.23-1.25v-10H157.6Z"/><path class="cls-1" d="M164.69,6.41V6.09h1V3.41A2.93,2.93,0,0,1,166,2a1.86,1.86,0,0,1,1.08-.91v5h2.24v.32h-2.24v8.9a3.32,3.32,0,0,0,.16,1,2.69,2.69,0,0,0,.46.83,2.19,2.19,0,0,0,1.72.78,3.05,3.05,0,0,0,1.27-.3,2.69,2.69,0,0,0,1-.79,2.08,2.08,0,0,1-.52.73,3.53,3.53,0,0,1-.76.52,3.64,3.64,0,0,1-.87.33,4,4,0,0,1-.88.11,2.94,2.94,0,0,1-1.39-.3,2.67,2.67,0,0,1-.95-.81,3.1,3.1,0,0,1-.53-1.18,5.86,5.86,0,0,1-.16-1.41V6.41Z"/><path class="cls-1" d="M171.55,12.6A7.82,7.82,0,0,1,172,10a5.69,5.69,0,0,1,1.23-2,5.47,5.47,0,0,1,2-1.32,7.08,7.08,0,0,1,2.65-.46,4.06,4.06,0,0,1,2,.46,4.25,4.25,0,0,1,1.4,1.23,5.48,5.48,0,0,1,.85,1.75,7.17,7.17,0,0,1,.29,2H173a9.75,9.75,0,0,0,.25,2.22,5.85,5.85,0,0,0,.8,1.95,4.55,4.55,0,0,0,1.47,1.39,4.24,4.24,0,0,0,2.2.53,8.38,8.38,0,0,0,1.26-.1,6.16,6.16,0,0,0,1.33-.33,5.57,5.57,0,0,0,1.19-.61,2.4,2.4,0,0,0,.82-.92,4.14,4.14,0,0,1-.78,1.26,5.09,5.09,0,0,1-1.17.94,5.46,5.46,0,0,1-1.39.58,5.38,5.38,0,0,1-1.48.2,5.89,5.89,0,0,1-2.39-.47,5.67,5.67,0,0,1-1.89-1.29A5.94,5.94,0,0,1,172,15,6.17,6.17,0,0,1,171.55,12.6Zm1.51-1.36h6.47a1.39,1.39,0,0,0,1.19-.54,2.05,2.05,0,0,0,.4-1.25A2.81,2.81,0,0,0,180,7.15a3.81,3.81,0,0,0-1.17-.6,4.4,4.4,0,0,0-1.33-.21,3.58,3.58,0,0,0-1.73.43,4.81,4.81,0,0,0-1.4,1.13,5.64,5.64,0,0,0-1,1.58A4.84,4.84,0,0,0,173.06,11.24Z"/><path class="cls-1" d="M190.17,6a6,6,0,0,1,1.08.09,4.28,4.28,0,0,1,.9.27,4.46,4.46,0,0,1,.82.47c.27.19.55.41.85.66v-4a4.92,4.92,0,0,0,0-.51,1.75,1.75,0,0,0-.12-.55,1.09,1.09,0,0,0-.29-.43.65.65,0,0,0-.48-.18L195.21.1V15.41a2.05,2.05,0,0,0,.18.87.78.78,0,0,0,.74.45l-2.31,1.74V9.74a2.73,2.73,0,0,0-.35-1.34,4.06,4.06,0,0,0-.89-1.09,4.56,4.56,0,0,0-1.23-.75A3.7,3.7,0,0,0,190,6.29a3.17,3.17,0,0,0-1.86.56,4.8,4.8,0,0,0-1.33,1.4,6.37,6.37,0,0,0-.8,1.87,8,8,0,0,0-.26,1.94A8.26,8.26,0,0,0,186,14a6.81,6.81,0,0,0,.76,1.91,4.76,4.76,0,0,0,1.3,1.45,3.07,3.07,0,0,0,1.87.59,3.92,3.92,0,0,0,1.76-.36,6.12,6.12,0,0,0,1.47-1.08A4.5,4.5,0,0,1,191.56,18a4.2,4.2,0,0,1-2.12.56,4.7,4.7,0,0,1-2.18-.49,5.25,5.25,0,0,1-1.66-1.33,6.39,6.39,0,0,1-1-1.9,6.68,6.68,0,0,1-.38-2.22,7.81,7.81,0,0,1,.41-2.51A6.45,6.45,0,0,1,185.78,8a5.81,5.81,0,0,1,1.89-1.42A5.6,5.6,0,0,1,190.17,6Z"/><path class="cls-1" d="M204.58,18.52a2.74,2.74,0,0,0,1.1-.77,4.08,4.08,0,0,0,.74-1.12l6-15.74,5.94,15.69a5.13,5.13,0,0,0,.63,1.17,2,2,0,0,0,1.06.77h-4.38a1.4,1.4,0,0,0,.71-.57,1.54,1.54,0,0,0,.29-.87,3.81,3.81,0,0,0-.25-1c-.17-.5-.36-1-.58-1.61s-.44-1.11-.65-1.64l-.46-1.13h-6.09L207,15.88a5,5,0,0,0-.16.51,2.48,2.48,0,0,0-.06.54,1.33,1.33,0,0,0,.41,1,2.72,2.72,0,0,0,1,.57Zm10-7.11-2.91-7.76-3,7.76Z"/><path class="cls-1" d="M222.7,16.36v-7a4.6,4.6,0,0,0,0-.5,3.53,3.53,0,0,0-.13-.54,1.1,1.1,0,0,0-.26-.43.61.61,0,0,0-.47-.17l2.29-1.67,0,10.27a3.19,3.19,0,0,0,.26,1.31,1.65,1.65,0,0,0,1,.85h-3.95a1.63,1.63,0,0,0,1-.85A3,3,0,0,0,222.7,16.36ZM224.92,8a5.83,5.83,0,0,1,1.76-1.42A4.57,4.57,0,0,1,228.89,6a3.33,3.33,0,0,1,1.61.36,3.22,3.22,0,0,1,1.09,1,4.17,4.17,0,0,1,.64,1.38,6.79,6.79,0,0,1,.19,1.63v6a3.16,3.16,0,0,0,.28,1.33,1.61,1.61,0,0,0,1,.83h-4a1.59,1.59,0,0,0,1-.85,3.26,3.26,0,0,0,.26-1.31V10a5.86,5.86,0,0,0-.14-1.26,3.07,3.07,0,0,0-.46-1.11,2.36,2.36,0,0,0-.83-.77,2.55,2.55,0,0,0-1.26-.29,4.24,4.24,0,0,0-1.81.41A8.48,8.48,0,0,0,224.92,8Zm11.81-2a3.32,3.32,0,0,1,1.6.36,3.22,3.22,0,0,1,1.09,1,4.17,4.17,0,0,1,.64,1.38,6.79,6.79,0,0,1,.19,1.63v6a3.16,3.16,0,0,0,.28,1.33,1.61,1.61,0,0,0,1,.83h-4a1.59,1.59,0,0,0,1-.85,3.26,3.26,0,0,0,.26-1.31V10a5.86,5.86,0,0,0-.14-1.26,3.07,3.07,0,0,0-.46-1.11,2.36,2.36,0,0,0-.83-.77,2.55,2.55,0,0,0-1.26-.29,4.24,4.24,0,0,0-1.81.41,8.48,8.48,0,0,0-1.59,1,5.83,5.83,0,0,1,1.76-1.42A4.58,4.58,0,0,1,236.73,6Z"/><path class="cls-1" d="M243.11,18.52a1.43,1.43,0,0,0,1-.78,3.22,3.22,0,0,0,.24-1.26V9.2a4.07,4.07,0,0,0,0-.46,2.1,2.1,0,0,0-.11-.51,1.05,1.05,0,0,0-.25-.41.57.57,0,0,0-.43-.16l2.23-1.57V16.48a3.22,3.22,0,0,0,.25,1.26,1.46,1.46,0,0,0,.95.78Zm1.82-16.41a.94.94,0,0,1,.72.28,1,1,0,0,1,.27.72.93.93,0,0,1-1,1,1,1,0,0,1-.73-.27.91.91,0,0,1-.29-.72.91.91,0,0,1,.29-.72A1,1,0,0,1,244.93,2.11Z"/><path class="cls-1" d="M248.71,14.94a5.55,5.55,0,0,0,1.71,2.37,4.18,4.18,0,0,0,2.74,1,10.09,10.09,0,0,0,1.16-.07,4.57,4.57,0,0,0,1.21-.31,2.59,2.59,0,0,0,.94-.68,1.76,1.76,0,0,0-.21-2.43,6.13,6.13,0,0,0-1.48-.91c-.58-.26-1.22-.51-1.91-.74A12.35,12.35,0,0,1,251,12.3a4.9,4.9,0,0,1-1.48-1.15,2.53,2.53,0,0,1-.6-1.73,3.22,3.22,0,0,1,.35-1.52,3.28,3.28,0,0,1,.91-1.08,3.89,3.89,0,0,1,1.3-.66A5.59,5.59,0,0,1,253,5.94a7.57,7.57,0,0,1,.94.08c.38.05.78.12,1.18.21l1.18.28a5.85,5.85,0,0,1,.9.3V9.15a3.9,3.9,0,0,0-.66-1.22,4.3,4.3,0,0,0-1-.93,5.13,5.13,0,0,0-1.27-.61,4.3,4.3,0,0,0-1.35-.23,4.23,4.23,0,0,0-1,.14,3.76,3.76,0,0,0-1,.41,2.49,2.49,0,0,0-.76.68,1.65,1.65,0,0,0-.29,1,2,2,0,0,0,.59,1.48,5.41,5.41,0,0,0,1.48,1,16.51,16.51,0,0,0,1.93.77,15.38,15.38,0,0,1,1.92.8,5.08,5.08,0,0,1,1.48,1.09,2.36,2.36,0,0,1,.6,1.67,3.07,3.07,0,0,1-1.39,2.7,4.38,4.38,0,0,1-1.42.58,8,8,0,0,1-1.62.17,14.11,14.11,0,0,1-2.34-.21,18.21,18.21,0,0,1-2.3-.53Z"/><path class="cls-1" d="M258.87,18.52a1.62,1.62,0,0,0,1-.85,3.19,3.19,0,0,0,.26-1.31v-13a3,3,0,0,0,0-.5,2.62,2.62,0,0,0-.12-.54,1.24,1.24,0,0,0-.26-.43.63.63,0,0,0-.47-.17L261.53,0l0,16.36a3,3,0,0,0,.26,1.31,1.62,1.62,0,0,0,1,.85ZM262.35,8a5.75,5.75,0,0,1,1.77-1.42A4.51,4.51,0,0,1,266.33,6a3.29,3.29,0,0,1,1.6.36,3.25,3.25,0,0,1,1.1,1,4,4,0,0,1,.63,1.38,6.8,6.8,0,0,1,.2,1.63v6a3.16,3.16,0,0,0,.27,1.33,1.64,1.64,0,0,0,1,.83h-4a1.57,1.57,0,0,0,1-.85,3.1,3.1,0,0,0,.26-1.31V10a5.86,5.86,0,0,0-.13-1.26,3.46,3.46,0,0,0-.46-1.11A2.48,2.48,0,0,0,267,6.9a2.51,2.51,0,0,0-1.25-.29,4.28,4.28,0,0,0-1.82.41A8.48,8.48,0,0,0,262.35,8Z"/><path class="cls-1" d="M278.29,9.82A8.7,8.7,0,0,1,279,6.35a8.89,8.89,0,0,1,1.89-2.78,8.54,8.54,0,0,1,2.81-1.85A8.9,8.9,0,0,1,287.14,1a12.56,12.56,0,0,1,1.46.09,9.83,9.83,0,0,1,1.53.29,8.17,8.17,0,0,1,1.46.52,5.75,5.75,0,0,1,1.24.77V5.2a13.25,13.25,0,0,0-1.19-1.45,9.59,9.59,0,0,0-1.47-1.23,7.84,7.84,0,0,0-1.69-.84,5.51,5.51,0,0,0-1.84-.31,5.13,5.13,0,0,0-2.74.74,7,7,0,0,0-2,1.93,9,9,0,0,0-1.24,2.61,9.86,9.86,0,0,0-.42,2.8,9.8,9.8,0,0,0,.51,3.05,9.56,9.56,0,0,0,1.44,2.85,7.76,7.76,0,0,0,2.26,2.09,5.63,5.63,0,0,0,3,.81A5.44,5.44,0,0,0,288.9,18a5.69,5.69,0,0,0,1.49-.66,4.19,4.19,0,0,0,1.16-1.05,2.35,2.35,0,0,0,.46-1.4c0-.18,0-.37,0-.57s0-.39,0-.57,0-.47,0-.71a2.44,2.44,0,0,0-.17-.67,1.79,1.79,0,0,0-.34-.56,1.41,1.41,0,0,0-.62-.37h3.85a1.44,1.44,0,0,0-.87.73,2.47,2.47,0,0,0-.28,1.11v5.34c-.08-.13-.17-.28-.28-.44a4.29,4.29,0,0,0-.36-.48,2.37,2.37,0,0,0-.42-.37.89.89,0,0,0-.5-.15.74.74,0,0,0-.25.05l-.25.1a18.58,18.58,0,0,1-2.11.88,6.91,6.91,0,0,1-2.26.36,8.72,8.72,0,0,1-3.46-.68,9.06,9.06,0,0,1-2.81-1.86A9,9,0,0,1,279,13.26,8.59,8.59,0,0,1,278.29,9.82Z"/><path class="cls-1" d="M296.21,18.52a1.43,1.43,0,0,0,1-.78,3.4,3.4,0,0,0,.23-1.26V9.2c0-.13,0-.29,0-.46a2.71,2.71,0,0,0-.11-.51,1.19,1.19,0,0,0-.25-.41.6.6,0,0,0-.44-.16l2.24-1.57V16.48a3,3,0,0,0,.25,1.26,1.44,1.44,0,0,0,.94.78ZM298,2.11a.94.94,0,0,1,1,1,1,1,0,0,1-.27.72,1,1,0,0,1-.73.27,1,1,0,0,1-.73-.27,1,1,0,0,1-.29-.72,1,1,0,0,1,.29-.72A1,1,0,0,1,298,2.11Z"/><path class="cls-1" d="M300.86,6.09h1.54c0-.61,0-1.28.1-2a6.67,6.67,0,0,1,.47-2A4,4,0,0,1,304.05.61,2.8,2.8,0,0,1,306,0a4.23,4.23,0,0,1,.77.09,4,4,0,0,1,.91.27,2.58,2.58,0,0,1,.75.47.93.93,0,0,1,.31.69,1,1,0,0,1-.2.62.66.66,0,0,1-.57.27.72.72,0,0,1-.7-.33,7,7,0,0,1-.31-.73,3.11,3.11,0,0,0-.38-.72,1.07,1.07,0,0,0-.9-.33,1.25,1.25,0,0,0-1.2.71,4.77,4.77,0,0,0-.53,1.66,12.43,12.43,0,0,0-.12,1.93c0,.64,0,1.14,0,1.49H306v.35h-2.21v10a3.1,3.1,0,0,0,.25,1.25,1.46,1.46,0,0,0,1,.81h-3.8a1.38,1.38,0,0,0,1-.81,3.27,3.27,0,0,0,.24-1.25v-10h-1.54Z"/><path class="cls-1" d="M307.94,6.41V6.09h1V3.41A2.82,2.82,0,0,1,309.3,2a1.86,1.86,0,0,1,1.08-.91v5h2.24v.32h-2.24v8.9a3,3,0,0,0,.16,1,2.69,2.69,0,0,0,.46.83,2.16,2.16,0,0,0,.73.57,2.24,2.24,0,0,0,1,.21,3,3,0,0,0,1.27-.3,2.8,2.8,0,0,0,1-.79,2.08,2.08,0,0,1-.52.73,3.8,3.8,0,0,1-.76.52,3.82,3.82,0,0,1-1.76.44,3,3,0,0,1-1.39-.3,2.72,2.72,0,0,1-.94-.81,3.27,3.27,0,0,1-.54-1.18,6.41,6.41,0,0,1-.16-1.41V6.41Z"/><path class="cls-1" d="M0,48.35a1.43,1.43,0,0,0,1-.78,3.37,3.37,0,0,0,.23-1.26V39c0-.14,0-.29,0-.46a2.71,2.71,0,0,0-.11-.51,1.05,1.05,0,0,0-.25-.41.58.58,0,0,0-.44-.16l2.24-1.57V46.31a3,3,0,0,0,.25,1.26,1.44,1.44,0,0,0,.94.78ZM1.81,31.94a.94.94,0,0,1,1,1,1,1,0,0,1-.27.72,1,1,0,0,1-.73.27,1,1,0,0,1-.73-.27,1,1,0,0,1-.28-.72.94.94,0,0,1,.28-.72A1,1,0,0,1,1.81,31.94Z"/><path class="cls-1" d="M5.59,44.77a5.66,5.66,0,0,0,1.72,2.37,4.17,4.17,0,0,0,2.73,1A10.13,10.13,0,0,0,11.21,48a4.4,4.4,0,0,0,1.21-.32,2.53,2.53,0,0,0,.94-.67,1.76,1.76,0,0,0-.21-2.43,6.33,6.33,0,0,0-1.48-.91c-.59-.26-1.23-.51-1.91-.75a11.92,11.92,0,0,1-1.92-.82A5.19,5.19,0,0,1,6.36,41a2.57,2.57,0,0,1-.59-1.73,3.15,3.15,0,0,1,.34-1.51A3.47,3.47,0,0,1,7,36.65,3.94,3.94,0,0,1,8.33,36a5.51,5.51,0,0,1,1.51-.22,7.71,7.71,0,0,1,.95.08,10.89,10.89,0,0,1,1.18.21l1.18.28a5.34,5.34,0,0,1,.89.3V39a3.68,3.68,0,0,0-.65-1.22,4.3,4.3,0,0,0-1-.93,5.31,5.31,0,0,0-1.27-.61A4.36,4.36,0,0,0,9.74,36a4.37,4.37,0,0,0-1,.14,3.69,3.69,0,0,0-1,.41,2.4,2.4,0,0,0-.76.69,1.61,1.61,0,0,0-.3,1,2,2,0,0,0,.6,1.48,5.41,5.41,0,0,0,1.48,1,17.06,17.06,0,0,0,1.92.77,14.92,14.92,0,0,1,1.93.8,5.22,5.22,0,0,1,1.48,1.09,2.36,2.36,0,0,1,.6,1.67,3.17,3.17,0,0,1-.39,1.63,3.11,3.11,0,0,1-1,1.06,4,4,0,0,1-1.41.59,7.31,7.31,0,0,1-1.62.17,14.31,14.31,0,0,1-2.35-.21,19.06,19.06,0,0,1-2.3-.53Z"/><path class="cls-1" d="M24.44,29.83V44.35a2.92,2.92,0,0,0,.38,1.46,4.46,4.46,0,0,0,1,1.22,4.57,4.57,0,0,0,1.36.82,4,4,0,0,0,1.5.3,2.8,2.8,0,0,0,1.84-.61A4.71,4.71,0,0,0,31.72,46a7,7,0,0,0,.67-2,10.43,10.43,0,0,0,.2-1.91,9.66,9.66,0,0,0-.21-1.94,6.27,6.27,0,0,0-.69-1.86A4.15,4.15,0,0,0,30.46,37a3.13,3.13,0,0,0-1.87-.54,3.82,3.82,0,0,0-1.86.42A7.44,7.44,0,0,0,25.23,38a4.56,4.56,0,0,1,3.85-2.13,4.84,4.84,0,0,1,2.22.48,4.54,4.54,0,0,1,1.57,1.31,5.51,5.51,0,0,1,1,1.87,7.8,7.8,0,0,1,.31,2.23,9.12,9.12,0,0,1-.36,2.57,6.45,6.45,0,0,1-1.08,2.16A5.31,5.31,0,0,1,30.87,48a5.46,5.46,0,0,1-2.56.56A5.16,5.16,0,0,1,26.09,48a8.7,8.7,0,0,1-1.93-1.26L23,48.45V33.23c0-.14,0-.31,0-.5a2,2,0,0,0-.13-.55,1.11,1.11,0,0,0-.28-.44.73.73,0,0,0-.49-.17Z"/><path class="cls-1" d="M36,42.43a7.82,7.82,0,0,1,.43-2.64,5.69,5.69,0,0,1,1.23-2,5.47,5.47,0,0,1,2-1.32A7,7,0,0,1,42.26,36a4.09,4.09,0,0,1,2,.46,4.25,4.25,0,0,1,1.4,1.23,5.7,5.7,0,0,1,.85,1.75,7.16,7.16,0,0,1,.28,2H37.49a10.34,10.34,0,0,0,.24,2.22,6.08,6.08,0,0,0,.81,1.95A4.45,4.45,0,0,0,40,47a4.22,4.22,0,0,0,2.2.53,9.54,9.54,0,0,0,1.25-.09,6.66,6.66,0,0,0,1.33-.34,5.64,5.64,0,0,0,1.2-.61,2.48,2.48,0,0,0,.82-.92A4.17,4.17,0,0,1,46,46.8a5,5,0,0,1-1.16.94,5.52,5.52,0,0,1-1.4.58,5.26,5.26,0,0,1-1.47.2,5.86,5.86,0,0,1-2.39-.47,5.67,5.67,0,0,1-1.89-1.29,6.25,6.25,0,0,1-1.26-1.94A6.36,6.36,0,0,1,36,42.43Zm1.52-1.36H44a1.41,1.41,0,0,0,1.2-.54,2,2,0,0,0,.39-1.25A2.81,2.81,0,0,0,44.43,37a3.87,3.87,0,0,0-1.16-.6,4.4,4.4,0,0,0-1.33-.21,3.58,3.58,0,0,0-1.73.43,4.85,4.85,0,0,0-1.41,1.14,5.51,5.51,0,0,0-.94,1.57A4.84,4.84,0,0,0,37.51,41.07Z"/><path class="cls-1" d="M48,48.35a1.43,1.43,0,0,0,1-.78,3.18,3.18,0,0,0,.23-1.26V39a3.78,3.78,0,0,0,0-.46,2.1,2.1,0,0,0-.11-.51,1.05,1.05,0,0,0-.25-.41.58.58,0,0,0-.44-.16l2.24-1.57V46.31a3,3,0,0,0,.25,1.26,1.47,1.47,0,0,0,.94.78Zm1.82-16.41a.94.94,0,0,1,1,1,1,1,0,0,1-.27.72,1,1,0,0,1-.72.27,1,1,0,0,1-.74-.27,1,1,0,0,1-.28-.72.94.94,0,0,1,.28-.72A1,1,0,0,1,49.82,31.94Z"/><path class="cls-1" d="M53.37,48.35a1.65,1.65,0,0,0,1-.85,3.19,3.19,0,0,0,.26-1.31v-7a3,3,0,0,0,0-.5,3.49,3.49,0,0,0-.12-.54,1.24,1.24,0,0,0-.26-.43.64.64,0,0,0-.48-.17L56,35.92l0,10.27a3,3,0,0,0,.27,1.31,1.63,1.63,0,0,0,1,.85Zm3.48-10.52a5.93,5.93,0,0,1,1.77-1.43,4.61,4.61,0,0,1,2.21-.55,3.29,3.29,0,0,1,1.6.36,3.33,3.33,0,0,1,1.09.95,4,4,0,0,1,.64,1.38,6.74,6.74,0,0,1,.2,1.63v6a3.16,3.16,0,0,0,.27,1.33,1.61,1.61,0,0,0,1,.83h-4a1.56,1.56,0,0,0,1-.85,3.26,3.26,0,0,0,.26-1.31V39.87a6,6,0,0,0-.14-1.27,3.09,3.09,0,0,0-.46-1.1,2.36,2.36,0,0,0-.83-.77,2.54,2.54,0,0,0-1.25-.29,4.28,4.28,0,0,0-1.82.41A8.48,8.48,0,0,0,56.85,37.83Z"/><path class="cls-1" d="M66.79,52.23a3.44,3.44,0,0,1,.36-1.53,3.3,3.3,0,0,1,1-1.21,3.4,3.4,0,0,0-.4,1.64A3.79,3.79,0,0,0,68.22,53a4.79,4.79,0,0,0,1.21,1.44,5.82,5.82,0,0,0,1.68,1,5.31,5.31,0,0,0,1.85.35,4.93,4.93,0,0,0,1.45-.24,6.1,6.1,0,0,0,1.47-.67A4,4,0,0,0,77,53.74a2.31,2.31,0,0,0,.45-1.39,1.39,1.39,0,0,0-.74-1.29,5.33,5.33,0,0,0-1.82-.6c-.73-.11-1.52-.2-2.36-.25a20.37,20.37,0,0,1-2.37-.27,5.19,5.19,0,0,1-1.82-.65,1.51,1.51,0,0,1-.74-1.39,1.62,1.62,0,0,1,.2-.78,2.7,2.7,0,0,1,.52-.65,2.94,2.94,0,0,1,.73-.47,3.5,3.5,0,0,1,.77-.26,3.48,3.48,0,0,0-.39.27,2.73,2.73,0,0,0-.38.38,1.55,1.55,0,0,0-.29.43,1.14,1.14,0,0,0-.11.46.9.9,0,0,0,.68.89,7.51,7.51,0,0,0,1.73.37c.7.07,1.44.14,2.24.19a11,11,0,0,1,2.23.4,4.21,4.21,0,0,1,1.73,1A2.42,2.42,0,0,1,78,52a3.37,3.37,0,0,1-.53,1.93,4,4,0,0,1-1.34,1.27,6.39,6.39,0,0,1-1.81.71,8.94,8.94,0,0,1-2,.22,9.43,9.43,0,0,1-1.86-.2,6.16,6.16,0,0,1-1.79-.65,3.73,3.73,0,0,1-1.34-1.18A3,3,0,0,1,66.79,52.23Zm5.55-16.56A6,6,0,0,1,74.4,36a5.44,5.44,0,0,1,1.75,1,5.11,5.11,0,0,1,1.22,1.58,4.43,4.43,0,0,1,.46,2,4.54,4.54,0,0,1-.47,2,5.42,5.42,0,0,1-1.24,1.6,5.84,5.84,0,0,1-1.77,1,6,6,0,0,1-2.06.37,5.38,5.38,0,0,1-2-.39,5.6,5.6,0,0,1-1.72-1.05,5,5,0,0,1-1.21-1.61,4.65,4.65,0,0,1,0-4,5.31,5.31,0,0,1,1.23-1.59A6,6,0,0,1,70.32,36,5.78,5.78,0,0,1,72.34,35.67Zm.32,9.77a2.81,2.81,0,0,0,1.5-.4,3.64,3.64,0,0,0,1.11-1,4.53,4.53,0,0,0,.67-1.42,5.5,5.5,0,0,0,.23-1.52,5.64,5.64,0,0,0-.3-1.78A5.84,5.84,0,0,0,75,37.64a4.24,4.24,0,0,0-1.31-1.22A3.32,3.32,0,0,0,72,35.94a2.84,2.84,0,0,0-1.49.4,3.66,3.66,0,0,0-1.08,1,5,5,0,0,0-.66,1.42,5.49,5.49,0,0,0-.22,1.53,5.94,5.94,0,0,0,.28,1.78,6.09,6.09,0,0,0,.83,1.65A4.45,4.45,0,0,0,70.92,45,3.29,3.29,0,0,0,72.66,45.44ZM76,35.77a3.47,3.47,0,0,1,.87-.93,2,2,0,0,1,1.19-.41,1.37,1.37,0,0,1,.76.2.7.7,0,0,1,.34.67.75.75,0,0,1-.28.64,1,1,0,0,1-.67.23,1.37,1.37,0,0,1-.79-.25,1.42,1.42,0,0,0-.82-.25A1.89,1.89,0,0,0,76,35.77Z"/><path class="cls-1" d="M86.61,42.46a7.47,7.47,0,0,1,.43-2.6,5.75,5.75,0,0,1,1.26-2,5.69,5.69,0,0,1,2-1.34,6.78,6.78,0,0,1,4-.34,5,5,0,0,1,1.38.49,3.33,3.33,0,0,1,1.09.87,2,2,0,0,1,.43,1.3,1.18,1.18,0,0,1-.2.67.69.69,0,0,1-.62.3.72.72,0,0,1-.66-.32,1.32,1.32,0,0,1-.21-.72,2.07,2.07,0,0,0-.25-1,2.53,2.53,0,0,0-.66-.8,3.18,3.18,0,0,0-2-.71,3.5,3.5,0,0,0-1.84.49,4.78,4.78,0,0,0-1.4,1.25,6.29,6.29,0,0,0-.91,1.72,5.6,5.6,0,0,0-.32,1.86,9.65,9.65,0,0,0,.27,2.27,6.11,6.11,0,0,0,.87,2,4.87,4.87,0,0,0,1.53,1.43,4.35,4.35,0,0,0,2.22.54,4.5,4.5,0,0,0,2.51-.67,6.83,6.83,0,0,0,1.82-1.7,13,13,0,0,0,1.34-2.26c.38-.82.73-1.61,1-2.35V39.05a4.21,4.21,0,0,0,0-.46,2.33,2.33,0,0,0-.11-.51,1.13,1.13,0,0,0-.25-.41.61.61,0,0,0-.43-.16l2.23-1.57v2.42a9.35,9.35,0,0,1,.76-.82,7.77,7.77,0,0,1,.93-.79,5,5,0,0,1,1-.59,2.63,2.63,0,0,1,1.07-.24,1.32,1.32,0,0,1,.69.2.67.67,0,0,1,.33.62.75.75,0,0,1-.27.63,1,1,0,0,1-.65.22,1.25,1.25,0,0,1-.7-.22,1.6,1.6,0,0,0-.85-.21,2,2,0,0,0-1.36.49A5.13,5.13,0,0,0,101,38.94a15.52,15.52,0,0,0-1,1.83c-.32.68-.65,1.37-1,2.07s-.72,1.4-1.13,2.08a9.1,9.1,0,0,1-1.41,1.83A6.89,6.89,0,0,1,94.66,48a5.5,5.5,0,0,1-2.36.48A5.28,5.28,0,0,1,90,48,5.55,5.55,0,0,1,88.2,46.7,6.2,6.2,0,0,1,87,44.77,6.39,6.39,0,0,1,86.61,42.46Zm13.1,3.85V42.48a15.48,15.48,0,0,0,.77-1.46c.23-.52.44-1,.64-1.5v6.79a3.16,3.16,0,0,0,.25,1.24,1.43,1.43,0,0,0,.95.8H98.51a1.41,1.41,0,0,0,1-.8A3.15,3.15,0,0,0,99.71,46.31Z"/><path class="cls-1" d="M106.67,42.43a7.82,7.82,0,0,1,.42-2.64,5.69,5.69,0,0,1,1.23-2,5.47,5.47,0,0,1,2-1.32,7.08,7.08,0,0,1,2.65-.46,4.06,4.06,0,0,1,2,.46,4.25,4.25,0,0,1,1.4,1.23,5.48,5.48,0,0,1,.85,1.75,7.16,7.16,0,0,1,.28,2h-9.29a9.75,9.75,0,0,0,.25,2.22,5.85,5.85,0,0,0,.8,1.95A4.55,4.55,0,0,0,110.68,47a4.24,4.24,0,0,0,2.2.53,9.81,9.81,0,0,0,1.26-.09,7,7,0,0,0,1.33-.34,5.57,5.57,0,0,0,1.19-.61,2.48,2.48,0,0,0,.82-.92,4.14,4.14,0,0,1-.78,1.26,5.09,5.09,0,0,1-1.17.94,5.46,5.46,0,0,1-1.39.58,5.38,5.38,0,0,1-1.48.2,5.89,5.89,0,0,1-2.39-.47,5.67,5.67,0,0,1-1.89-1.29,6,6,0,0,1-1.25-1.94A6.17,6.17,0,0,1,106.67,42.43Zm1.51-1.36h6.47a1.39,1.39,0,0,0,1.19-.54,2.05,2.05,0,0,0,.4-1.25,2.81,2.81,0,0,0-1.13-2.3,3.81,3.81,0,0,0-1.17-.6,4.4,4.4,0,0,0-1.33-.21,3.58,3.58,0,0,0-1.73.43,4.68,4.68,0,0,0-1.4,1.14,5.32,5.32,0,0,0-1,1.57A4.84,4.84,0,0,0,108.18,41.07Z"/><path class="cls-1" d="M119.44,45.71a2.78,2.78,0,0,1,.48-1.66,3.8,3.8,0,0,1,1.19-1.1,7.61,7.61,0,0,1,1.59-.68c.58-.17,1.14-.32,1.69-.43s1-.24,1.47-.35a2.48,2.48,0,0,0,.92-.42v-1.4a5.67,5.67,0,0,0-.13-1.21,3.34,3.34,0,0,0-.42-1.12,2.55,2.55,0,0,0-.78-.82,2.12,2.12,0,0,0-1.21-.33,3.87,3.87,0,0,0-.76.09,4.46,4.46,0,0,0-.83.26A2,2,0,0,0,122,37a1,1,0,0,0-.27.71,2.18,2.18,0,0,0,.06.52,2.24,2.24,0,0,1,.06.52.82.82,0,0,1-.94.92.77.77,0,0,1-.65-.28,1.08,1.08,0,0,1-.23-.69,1.64,1.64,0,0,1,.5-1.14,4.41,4.41,0,0,1,1.21-.89,7.28,7.28,0,0,1,1.46-.58,5.43,5.43,0,0,1,1.28-.2,3.68,3.68,0,0,1,2.84,1,4.21,4.21,0,0,1,.87,2.89V46a2.31,2.31,0,0,0,.24,1.05.89.89,0,0,0,.9.49,1.48,1.48,0,0,0,1-.35,1.45,1.45,0,0,1-.71.83,2,2,0,0,1-1,.34,1.82,1.82,0,0,1-.9-.2,1.39,1.39,0,0,1-.53-.52,2,2,0,0,1-.25-.75,6.33,6.33,0,0,1-.06-.89V41.49L125,42a9,9,0,0,0-1.81.68,4.25,4.25,0,0,0-1.4,1.11,2.65,2.65,0,0,0-.58,1.8,2.12,2.12,0,0,0,.65,1.64,2.38,2.38,0,0,0,1.69.6,5.6,5.6,0,0,0,1.47-.2,4.53,4.53,0,0,0,1.34-.62,4.44,4.44,0,0,1-1.67,1.08,5.94,5.94,0,0,1-2,.31,4.82,4.82,0,0,1-1.2-.16,3.18,3.18,0,0,1-1-.5,2.44,2.44,0,0,1-.72-.84A2.41,2.41,0,0,1,119.44,45.71Z"/><path class="cls-1" d="M130.8,36.24v-.32h1V33.23a2.81,2.81,0,0,1,.34-1.37,1.86,1.86,0,0,1,1.08-.91v5h2.24v.32h-2.24v8.9a3,3,0,0,0,.16,1,2.69,2.69,0,0,0,.46.83,2.16,2.16,0,0,0,.73.57,2.25,2.25,0,0,0,1,.21,3,3,0,0,0,1.26-.3,2.73,2.73,0,0,0,1-.79,2,2,0,0,1-.52.73,3.8,3.8,0,0,1-.76.52,4.12,4.12,0,0,1-.87.33,4,4,0,0,1-.88.11,3,3,0,0,1-1.4-.3,2.72,2.72,0,0,1-.94-.81,3.27,3.27,0,0,1-.54-1.18,6.48,6.48,0,0,1-.16-1.41V36.24Z"/><path class="cls-1" d="M137.66,42.43a7.82,7.82,0,0,1,.43-2.64,5.69,5.69,0,0,1,1.23-2,5.47,5.47,0,0,1,2-1.32,7,7,0,0,1,2.65-.46,4.09,4.09,0,0,1,2,.46,4.25,4.25,0,0,1,1.4,1.23,5.7,5.7,0,0,1,.85,1.75,7.16,7.16,0,0,1,.28,2h-9.29a10.34,10.34,0,0,0,.24,2.22,6.08,6.08,0,0,0,.81,1.95A4.45,4.45,0,0,0,141.68,47a4.22,4.22,0,0,0,2.2.53,9.54,9.54,0,0,0,1.25-.09,6.66,6.66,0,0,0,1.33-.34,5.64,5.64,0,0,0,1.2-.61,2.48,2.48,0,0,0,.82-.92,4.17,4.17,0,0,1-.79,1.26,5,5,0,0,1-1.16.94,5.52,5.52,0,0,1-1.4.58,5.28,5.28,0,0,1-1.48.2,5.85,5.85,0,0,1-2.38-.47,5.67,5.67,0,0,1-1.89-1.29,6.25,6.25,0,0,1-1.26-1.94A6.36,6.36,0,0,1,137.66,42.43Zm1.52-1.36h6.46a1.41,1.41,0,0,0,1.2-.54,2,2,0,0,0,.39-1.25A2.81,2.81,0,0,0,146.1,37a3.87,3.87,0,0,0-1.16-.6,4.4,4.4,0,0,0-1.33-.21,3.58,3.58,0,0,0-1.73.43,4.85,4.85,0,0,0-1.41,1.14,5.51,5.51,0,0,0-.94,1.57A4.84,4.84,0,0,0,139.18,41.07Z"/><path class="cls-1" d="M156.28,35.87a5.89,5.89,0,0,1,1.08.09,4.09,4.09,0,0,1,1.73.74c.27.19.55.41.85.66v-4a4.92,4.92,0,0,0,0-.51,2.08,2.08,0,0,0-.12-.55,1.09,1.09,0,0,0-.29-.43.65.65,0,0,0-.48-.18l2.31-1.76V45.24a2.21,2.21,0,0,0,.17.87.81.81,0,0,0,.75.45l-2.31,1.74V39.57a2.73,2.73,0,0,0-.35-1.34,3.91,3.91,0,0,0-.9-1.09,4.06,4.06,0,0,0-1.23-.75,3.61,3.61,0,0,0-1.35-.27,3.22,3.22,0,0,0-1.87.56,4.77,4.77,0,0,0-1.32,1.4,6.37,6.37,0,0,0-.8,1.87,8,8,0,0,0-.26,1.94,8.12,8.12,0,0,0,.25,1.93,6.76,6.76,0,0,0,.76,1.92,4.64,4.64,0,0,0,1.3,1.45,3.06,3.06,0,0,0,1.86.59,3.93,3.93,0,0,0,1.77-.36,6.12,6.12,0,0,0,1.47-1.08,4.5,4.5,0,0,1-1.59,1.47,4.2,4.2,0,0,1-2.12.56,4.77,4.77,0,0,1-2.19-.49,5.32,5.32,0,0,1-1.65-1.33,6.41,6.41,0,0,1-1.06-1.9,7,7,0,0,1-.37-2.22,7.77,7.77,0,0,1,.41-2.51,6.27,6.27,0,0,1,1.2-2.09,6.05,6.05,0,0,1,1.88-1.43A5.77,5.77,0,0,1,156.28,35.87Z"/><path class="cls-1" d="M170.05,48.35a1.62,1.62,0,0,0,1-.85,3,3,0,0,0,.26-1.31v-7a4.6,4.6,0,0,0,0-.5,3.53,3.53,0,0,0-.13-.54,1.1,1.1,0,0,0-.26-.43.62.62,0,0,0-.47-.17l2.28-1.67,0,10.27A3.19,3.19,0,0,0,173,47.5a1.62,1.62,0,0,0,1,.85Zm3.48-10.52a6.06,6.06,0,0,1,1.77-1.43,4.64,4.64,0,0,1,2.21-.55,3.33,3.33,0,0,1,1.61.36,3.44,3.44,0,0,1,1.09.95,4,4,0,0,1,.63,1.38,6.28,6.28,0,0,1,.2,1.63v6a3,3,0,0,0,.28,1.33,1.62,1.62,0,0,0,1,.83h-4a1.57,1.57,0,0,0,1-.85,3.1,3.1,0,0,0,.26-1.31V39.87a6,6,0,0,0-.13-1.27,3.28,3.28,0,0,0-.46-1.1,2.45,2.45,0,0,0-.83-.77,2.55,2.55,0,0,0-1.26-.29,4.24,4.24,0,0,0-1.81.41A8.89,8.89,0,0,0,173.53,37.83Z"/><path class="cls-1" d="M183.08,42.13a6,6,0,0,1,.5-2.42,6.64,6.64,0,0,1,1.34-2,6.21,6.21,0,0,1,2-1.35,6,6,0,0,1,2.42-.5,6.12,6.12,0,0,1,2.44.5,6.35,6.35,0,0,1,2,1.34,6.27,6.27,0,0,1,1.33,6.85,6.32,6.32,0,0,1-3.3,3.34,6.15,6.15,0,0,1-4.86,0,6.26,6.26,0,0,1-3.33-3.33A6.05,6.05,0,0,1,183.08,42.13Zm1.47-.47a7.27,7.27,0,0,0,.35,2.21,7.08,7.08,0,0,0,1,2.07,5.36,5.36,0,0,0,1.6,1.51,4,4,0,0,0,2.18.6,3.65,3.65,0,0,0,1.9-.48,4.42,4.42,0,0,0,1.35-1.27,5.57,5.57,0,0,0,.82-1.74,6.73,6.73,0,0,0,.28-1.93,7.55,7.55,0,0,0-.35-2.22,7.22,7.22,0,0,0-1-2.07,5.24,5.24,0,0,0-1.6-1.51,4.08,4.08,0,0,0-2.17-.59,3.57,3.57,0,0,0-1.89.49A4.16,4.16,0,0,0,185.64,38a5.8,5.8,0,0,0-.82,1.74A7,7,0,0,0,184.55,41.66Z"/><path class="cls-1" d="M195.51,35.92h3.8a1.12,1.12,0,0,0-.56.46,1.39,1.39,0,0,0-.18.71,3.21,3.21,0,0,0,.25.86c.16.43.38.95.64,1.55l.87,1.91c.32.68.61,1.33.9,2s.53,1.18.77,1.66.39.82.47,1l2.26-5.62-1.09-2.49a7.86,7.86,0,0,0-.66-1.19,2.36,2.36,0,0,0-1.08-.82h3.8a1.12,1.12,0,0,0-.56.46,1.39,1.39,0,0,0-.18.71,3.46,3.46,0,0,0,.24.86c.17.43.39.95.65,1.55s.56,1.23.87,1.91l.9,2c.28.63.53,1.18.76,1.66s.4.82.48,1L212,38.16a1.88,1.88,0,0,0,.13-.65,1.85,1.85,0,0,0-.3-1,1.27,1.27,0,0,0-.9-.56h3.81a2.67,2.67,0,0,0-1.29.62,3,3,0,0,0-.85,1.15L208.26,48.4l-3.33-7.51-3.06,7.51-4.62-10.47a7.86,7.86,0,0,0-.66-1.19A2.36,2.36,0,0,0,195.51,35.92Z"/><path class="cls-1" d="M216.66,47.23a1,1,0,0,1,.33-.78,1.08,1.08,0,0,1,.79-.31,1.17,1.17,0,0,1,.8.31,1,1,0,0,1,.35.78,1.15,1.15,0,0,1-.33.8,1.06,1.06,0,0,1-.82.34A1,1,0,0,1,217,48,1.19,1.19,0,0,1,216.66,47.23Z"/><path class="cls-1" d="M222.06,47.23a1,1,0,0,1,.32-.78,1.1,1.1,0,0,1,.8-.31,1.14,1.14,0,0,1,.79.31,1,1,0,0,1,.35.78,1.18,1.18,0,0,1-.32.8,1.08,1.08,0,0,1-.82.34,1,1,0,0,1-.82-.36A1.19,1.19,0,0,1,222.06,47.23Z"/><path class="cls-1" d="M227.45,47.23a1,1,0,0,1,.32-.78,1.1,1.1,0,0,1,.8-.31,1.17,1.17,0,0,1,.8.31,1,1,0,0,1,.34.78,1.13,1.13,0,0,1-.32.8,1.08,1.08,0,0,1-.82.34,1,1,0,0,1-.82-.36A1.19,1.19,0,0,1,227.45,47.23Z"/><path class="cls-1" d="M239.58,45.24a.74.74,0,0,1,.36.09.51.51,0,0,1,.24.28,1,1,0,0,1,.23.44,3.1,3.1,0,0,1,.1.53c0,.19.06.37.1.56a1.15,1.15,0,0,0,.76.87,2.68,2.68,0,0,0,.95.14,1.8,1.8,0,0,0,1.21-.37,2.34,2.34,0,0,0,.68-1,4.79,4.79,0,0,0,.28-1.24c0-.45.06-.87.06-1.27V32.94a3.16,3.16,0,0,0-.23-1.22,1.42,1.42,0,0,0-1-.77h4.08a1.42,1.42,0,0,0-1,.77,3,3,0,0,0-.24,1.22V43.58a10.08,10.08,0,0,1-.18,2,4.09,4.09,0,0,1-.66,1.56,3.3,3.3,0,0,1-1.27,1,4.81,4.81,0,0,1-2,.37,5.12,5.12,0,0,1-1.12-.14,4.53,4.53,0,0,1-1.1-.41,2.37,2.37,0,0,1-.84-.73,1.88,1.88,0,0,1-.32-1.08.93.93,0,0,1,.23-.62A.69.69,0,0,1,239.58,45.24Z"/><path class="cls-1" d="M250.89,35.92V44.4a5.86,5.86,0,0,0,.14,1.26,3.07,3.07,0,0,0,.46,1.11,2.36,2.36,0,0,0,.83.77,2.55,2.55,0,0,0,1.26.29,4.24,4.24,0,0,0,1.81-.41,8.48,8.48,0,0,0,1.59-1,5.83,5.83,0,0,1-1.76,1.42,4.52,4.52,0,0,1-2.19.56,3.4,3.4,0,0,1-1.62-.36,3.23,3.23,0,0,1-1.09-1,4.13,4.13,0,0,1-.62-1.38,6.33,6.33,0,0,1-.2-1.63V39a2.22,2.22,0,0,0-.17-.85.77.77,0,0,0-.73-.42Zm8.4,0V45a4.77,4.77,0,0,0,0,.5,3.16,3.16,0,0,0,.13.53,1,1,0,0,0,.26.44.61.61,0,0,0,.47.17l-2.29,1.67V39a2.16,2.16,0,0,0-.17-.86.76.76,0,0,0-.72-.41Z"/><path class="cls-1" d="M261.55,44.77a5.66,5.66,0,0,0,1.72,2.37,4.17,4.17,0,0,0,2.73,1,10.13,10.13,0,0,0,1.17-.07,4.31,4.31,0,0,0,1.21-.32,2.45,2.45,0,0,0,.94-.67,1.76,1.76,0,0,0-.21-2.43,6.33,6.33,0,0,0-1.48-.91c-.59-.26-1.22-.51-1.91-.75a11.92,11.92,0,0,1-1.92-.82A5.15,5.15,0,0,1,262.33,41a2.53,2.53,0,0,1-.6-1.73,3.15,3.15,0,0,1,.35-1.51,3.31,3.31,0,0,1,.9-1.09,4,4,0,0,1,1.31-.66,5.59,5.59,0,0,1,1.52-.22,7.72,7.72,0,0,1,.94.08,10.89,10.89,0,0,1,1.18.21l1.18.28a5.85,5.85,0,0,1,.9.3V39a3.9,3.9,0,0,0-.66-1.22,4.3,4.3,0,0,0-1-.93,5.13,5.13,0,0,0-1.27-.61,4.3,4.3,0,0,0-1.35-.23,4.23,4.23,0,0,0-1,.14,3.76,3.76,0,0,0-1,.41,2.4,2.4,0,0,0-.76.69,1.61,1.61,0,0,0-.3,1,2,2,0,0,0,.6,1.48,5.41,5.41,0,0,0,1.48,1,16.51,16.51,0,0,0,1.93.77,15.38,15.38,0,0,1,1.92.8A5.22,5.22,0,0,1,270,43.35a2.36,2.36,0,0,1,.6,1.67,3.17,3.17,0,0,1-.39,1.63,3.08,3.08,0,0,1-1,1.06,4.18,4.18,0,0,1-1.42.59,7.31,7.31,0,0,1-1.62.17,14.31,14.31,0,0,1-2.35-.21,19.06,19.06,0,0,1-2.3-.53Z"/><path class="cls-1" d="M272.49,36.24v-.32h1V33.23a2.81,2.81,0,0,1,.34-1.37,1.86,1.86,0,0,1,1.08-.91v5h2.24v.32h-2.24v8.9a3,3,0,0,0,.16,1,2.69,2.69,0,0,0,.46.83,2.16,2.16,0,0,0,.73.57,2.24,2.24,0,0,0,1,.21,3,3,0,0,0,1.27-.3,2.8,2.8,0,0,0,1.05-.79,2,2,0,0,1-.52.73,3.8,3.8,0,0,1-.76.52,4.58,4.58,0,0,1-.87.33,4,4,0,0,1-.89.11,3,3,0,0,1-1.39-.3,2.72,2.72,0,0,1-.94-.81,3.27,3.27,0,0,1-.54-1.18,6.48,6.48,0,0,1-.16-1.41V36.24Z"/><path class="cls-1" d="M286.61,35.92h1.54c0-.61,0-1.28.1-2a6.85,6.85,0,0,1,.48-2,3.78,3.78,0,0,1,1.08-1.52,2.78,2.78,0,0,1,1.9-.61,4.33,4.33,0,0,1,.77.09,4.14,4.14,0,0,1,.91.27,2.4,2.4,0,0,1,.74.47.89.89,0,0,1,.31.69,1,1,0,0,1-.2.62.66.66,0,0,1-.57.27.69.69,0,0,1-.69-.33,5.34,5.34,0,0,1-.31-.73,3.16,3.16,0,0,0-.39-.72,1.05,1.05,0,0,0-.89-.33,1.28,1.28,0,0,0-1.21.71,4.76,4.76,0,0,0-.52,1.66,12.44,12.44,0,0,0-.13,1.93c0,.65,0,1.14,0,1.49h2.21v.35h-2.21v10a3.27,3.27,0,0,0,.24,1.25,1.46,1.46,0,0,0,1,.81H287a1.42,1.42,0,0,0,1-.81,3.47,3.47,0,0,0,.23-1.25v-10h-1.54Z"/><path class="cls-1" d="M292.63,42.13a5.83,5.83,0,0,1,.5-2.42,6.46,6.46,0,0,1,1.34-2,6.28,6.28,0,0,1,2-1.35,6.15,6.15,0,0,1,4.86,0,6.28,6.28,0,0,1,2,1.34,6.27,6.27,0,0,1,1.33,6.85,6.32,6.32,0,0,1-3.3,3.34,6.15,6.15,0,0,1-4.86,0,6.26,6.26,0,0,1-3.33-3.33A5.89,5.89,0,0,1,292.63,42.13Zm1.46-.47a7.59,7.59,0,0,0,.35,2.21,7.1,7.1,0,0,0,1,2.07,5.36,5.36,0,0,0,1.6,1.51,4,4,0,0,0,2.17.6,3.69,3.69,0,0,0,1.91-.48,4.42,4.42,0,0,0,1.35-1.27,5.57,5.57,0,0,0,.82-1.74,7.08,7.08,0,0,0,.27-1.93,7.53,7.53,0,0,0-.34-2.22,7.78,7.78,0,0,0-1-2.07,5.24,5.24,0,0,0-1.6-1.51,4.08,4.08,0,0,0-2.17-.59,3.55,3.55,0,0,0-1.89.49A4.16,4.16,0,0,0,295.19,38a5.57,5.57,0,0,0-.82,1.74A7,7,0,0,0,294.09,41.66Z"/><path class="cls-1" d="M306.45,48.35a1.43,1.43,0,0,0,1-.78,3.37,3.37,0,0,0,.23-1.26V39c0-.14,0-.29,0-.46a2.71,2.71,0,0,0-.11-.51,1.19,1.19,0,0,0-.25-.41.6.6,0,0,0-.44-.16l2.24-1.57V46.31a3,3,0,0,0,.25,1.26,1.44,1.44,0,0,0,.94.78Zm5-11.21a2.38,2.38,0,0,0-.91.18,6.59,6.59,0,0,0-.83.44l.68-.67a6,6,0,0,1,.73-.6,3.21,3.21,0,0,1,.82-.43,2.63,2.63,0,0,1,.95-.17,1.35,1.35,0,0,1,.7.2.7.7,0,0,1,.32.63.77.77,0,0,1-.26.63,1,1,0,0,1-.66.21,1.32,1.32,0,0,1-.69-.21A1.65,1.65,0,0,0,311.42,37.14Z"/><path class="cls-1" d="M321.54,31h4.12a.84.84,0,0,0-.47.42A1.44,1.44,0,0,0,325,32a2.17,2.17,0,0,0,.25.94l3.76,7.14,3.4-6.54c.08-.18.16-.37.22-.55a1.56,1.56,0,0,0,.1-.57,1.61,1.61,0,0,0-.28-.92,1.43,1.43,0,0,0-.76-.57h3.53a1.93,1.93,0,0,0-.66.35,4.82,4.82,0,0,0-.65.57,5.75,5.75,0,0,0-.55.67,4.42,4.42,0,0,0-.4.65l-3.71,7.15v6a3,3,0,0,0,.25,1.22,1.48,1.48,0,0,0,.95.77h-4.08a1.41,1.41,0,0,0,1-.8,3.34,3.34,0,0,0,.23-1.24V40.77l-4.2-7.88c-.1-.18-.21-.38-.33-.57a4.67,4.67,0,0,0-.44-.58,3.89,3.89,0,0,0-.52-.48A1.77,1.77,0,0,0,321.54,31Z"/><path class="cls-1" d="M333.15,42.13a5.83,5.83,0,0,1,.5-2.42,6.46,6.46,0,0,1,1.34-2,6.28,6.28,0,0,1,2-1.35,6.15,6.15,0,0,1,4.86,0,6.28,6.28,0,0,1,2,1.34,6.27,6.27,0,0,1,1.33,6.85,6.32,6.32,0,0,1-3.3,3.34,6.15,6.15,0,0,1-4.86,0,6.26,6.26,0,0,1-3.33-3.33A5.89,5.89,0,0,1,333.15,42.13Zm1.46-.47a7.59,7.59,0,0,0,.35,2.21,7.1,7.1,0,0,0,1,2.07,5.36,5.36,0,0,0,1.6,1.51,4,4,0,0,0,2.17.6,3.69,3.69,0,0,0,1.91-.48A4.42,4.42,0,0,0,343,46.3a5.57,5.57,0,0,0,.82-1.74,7.08,7.08,0,0,0,.27-1.93,7.53,7.53,0,0,0-.34-2.22,7.78,7.78,0,0,0-1-2.07,5.24,5.24,0,0,0-1.6-1.51,4.08,4.08,0,0,0-2.17-.59,3.61,3.61,0,0,0-1.9.49A4.23,4.23,0,0,0,335.71,38a5.57,5.57,0,0,0-.82,1.74A7,7,0,0,0,334.61,41.66Z"/><path class="cls-1" d="M349.5,35.92V44.4a5.86,5.86,0,0,0,.14,1.26,3.25,3.25,0,0,0,.46,1.11,2.45,2.45,0,0,0,.83.77,2.55,2.55,0,0,0,1.26.29,4.24,4.24,0,0,0,1.81-.41,8.89,8.89,0,0,0,1.6-1,5.87,5.87,0,0,1-1.77,1.42,4.52,4.52,0,0,1-2.19.56,3.33,3.33,0,0,1-1.61-.36,3.18,3.18,0,0,1-1.1-1,4.13,4.13,0,0,1-.62-1.38,6.8,6.8,0,0,1-.2-1.63V39a2.22,2.22,0,0,0-.17-.85.76.76,0,0,0-.72-.42Zm8.41,0V45a4.6,4.6,0,0,0,0,.5,3.16,3.16,0,0,0,.13.53,1.07,1.07,0,0,0,.26.44.61.61,0,0,0,.47.17l-2.28,1.67V39a2,2,0,0,0-.18-.86.75.75,0,0,0-.72-.41Z"/><path class="cls-1" d="M362.33,46.21a1.13,1.13,0,0,1,.77.32,1.08,1.08,0,0,1,.35.8,1.2,1.2,0,0,1-.32.81,1.1,1.1,0,0,1-1.64,0,1.27,1.27,0,0,1-.3-.8,1.13,1.13,0,0,1,.32-.8A1.14,1.14,0,0,1,362.33,46.21Zm-1-14.17a1.28,1.28,0,0,1,.28-.87,1,1,0,0,1,.76-.32.88.88,0,0,1,.76.35,1.38,1.38,0,0,1,.26.84c0,.13,0,.45-.05,1s-.07,1.13-.11,1.86-.09,1.56-.15,2.45-.12,1.79-.19,2.67-.13,1.74-.18,2.57-.11,1.52-.16,2.12h-.35c-.05-.53-.11-1.19-.16-2s-.12-1.62-.19-2.52-.13-1.8-.19-2.71-.11-1.74-.16-2.5-.09-1.39-.12-1.92S361.29,32.17,361.29,32Z"/></g></g></svg>