<svg width="26" height="26" viewBox="0 0 26 26" fill="none" xmlns="http://www.w3.org/2000/svg">
<path d="M9.54276 2.16602L5.62109 6.09852" stroke="white" stroke-width="1.5" stroke-miterlimit="10" stroke-linecap="round" stroke-linejoin="round"/>
<path d="M16.457 2.16602L20.3787 6.09852" stroke="white" stroke-width="1.5" stroke-miterlimit="10" stroke-linecap="round" stroke-linejoin="round"/>
<path d="M2.16797 8.50456C2.16797 6.50039 3.24047 6.33789 4.57297 6.33789H21.4296C22.7621 6.33789 23.8346 6.50039 23.8346 8.50456C23.8346 10.8337 22.7621 10.6712 21.4296 10.6712H4.57297C3.24047 10.6712 2.16797 10.8337 2.16797 8.50456Z" stroke="white" stroke-width="1.5"/>
<path d="M10.5742 15.166V19.0118" stroke="white" stroke-width="1.5" stroke-linecap="round"/>
<path d="M15.5586 15.166V19.0118" stroke="white" stroke-width="1.5" stroke-linecap="round"/>
<path d="M3.79297 10.834L5.32047 20.194C5.66714 22.2957 6.5013 23.834 9.59964 23.834H16.1321C19.5013 23.834 19.9996 22.3607 20.3896 20.324L22.2096 10.834" stroke="white" stroke-width="1.5" stroke-linecap="round"/>
</svg>
