<svg width="26" height="26" viewBox="0 0 26 26" fill="none" xmlns="http://www.w3.org/2000/svg">
<path d="M21.6654 7.52982V18.4715C21.492 18.439 21.3079 18.4173 21.1237 18.4173C19.6287 18.4173 18.4154 19.6306 18.4154 21.1256C18.4154 21.3098 18.437 21.494 18.4695 21.6673H7.52786C7.56036 21.494 7.58203 21.3098 7.58203 21.1256C7.58203 19.6306 6.3687 18.4173 4.8737 18.4173C4.68953 18.4173 4.50536 18.439 4.33203 18.4715V7.52982C4.50536 7.56232 4.68953 7.58398 4.8737 7.58398C6.3687 7.58398 7.58203 6.37065 7.58203 4.87565C7.58203 4.69148 7.56036 4.50732 7.52786 4.33398H18.4695C18.437 4.50732 18.4154 4.69148 18.4154 4.87565C18.4154 6.37065 19.6287 7.58398 21.1237 7.58398C21.3079 7.58398 21.492 7.56232 21.6654 7.52982Z" stroke="white" stroke-width="1.5" stroke-linecap="round" stroke-linejoin="round"/>
<path d="M7.58464 4.87435C7.58464 6.36935 6.3713 7.58268 4.8763 7.58268C4.69214 7.58268 4.50797 7.56102 4.33464 7.52852C3.09964 7.27935 2.16797 6.18518 2.16797 4.87435C2.16797 3.37935 3.3813 2.16602 4.8763 2.16602C6.18714 2.16602 7.2813 3.09768 7.53047 4.33268C7.56297 4.50602 7.58464 4.69018 7.58464 4.87435Z" stroke="white" stroke-width="1.5" stroke-linecap="round" stroke-linejoin="round"/>
<path d="M23.8346 4.87435C23.8346 6.18518 22.903 7.27935 21.668 7.52852C21.4946 7.56102 21.3105 7.58268 21.1263 7.58268C19.6313 7.58268 18.418 6.36935 18.418 4.87435C18.418 4.69018 18.4396 4.50602 18.4721 4.33268C18.7213 3.09768 19.8155 2.16602 21.1263 2.16602C22.6213 2.16602 23.8346 3.37935 23.8346 4.87435Z" stroke="white" stroke-width="1.5" stroke-linecap="round" stroke-linejoin="round"/>
<path d="M7.58464 21.1243C7.58464 21.3085 7.56297 21.4927 7.53047 21.666C7.2813 22.901 6.18714 23.8327 4.8763 23.8327C3.3813 23.8327 2.16797 22.6194 2.16797 21.1243C2.16797 19.8135 3.09964 18.7193 4.33464 18.4702C4.50797 18.4377 4.69214 18.416 4.8763 18.416C6.3713 18.416 7.58464 19.6293 7.58464 21.1243Z" stroke="white" stroke-width="1.5" stroke-linecap="round" stroke-linejoin="round"/>
<path d="M23.8346 21.1243C23.8346 22.6194 22.6213 23.8327 21.1263 23.8327C19.8155 23.8327 18.7213 22.901 18.4721 21.666C18.4396 21.4927 18.418 21.3085 18.418 21.1243C18.418 19.6293 19.6313 18.416 21.1263 18.416C21.3105 18.416 21.4946 18.4377 21.668 18.4702C22.903 18.7193 23.8346 19.8135 23.8346 21.1243Z" stroke="white" stroke-width="1.5" stroke-linecap="round" stroke-linejoin="round"/>
</svg>
