<svg width="26" height="26" viewBox="0 0 26 26" fill="none" xmlns="http://www.w3.org/2000/svg">
<path d="M14.0959 3.16367L20.4876 6.002C22.3293 6.8145 22.3293 8.15784 20.4876 8.97034L14.0959 11.8087C13.3701 12.1337 12.1784 12.1337 11.4526 11.8087L5.06094 8.97034C3.21927 8.15784 3.21927 6.8145 5.06094 6.002L11.4526 3.16367C12.1784 2.83867 13.3701 2.83867 14.0959 3.16367Z" stroke="white" stroke-width="1.5" stroke-linecap="round" stroke-linejoin="round"/>
<path d="M3.25 11.916C3.25 12.826 3.9325 13.8768 4.76667 14.2452L12.1225 17.5168C12.6858 17.766 13.325 17.766 13.8775 17.5168L21.2333 14.2452C22.0675 13.8768 22.75 12.826 22.75 11.916" stroke="white" stroke-width="1.5" stroke-linecap="round" stroke-linejoin="round"/>
<path d="M3.25 17.334C3.25 18.3415 3.84583 19.2515 4.76667 19.6632L12.1225 22.9348C12.6858 23.184 13.325 23.184 13.8775 22.9348L21.2333 19.6632C22.1542 19.2515 22.75 18.3415 22.75 17.334" stroke="white" stroke-width="1.5" stroke-linecap="round" stroke-linejoin="round"/>
</svg>
