<svg width="26" height="26" viewBox="0 0 26 26" fill="none" xmlns="http://www.w3.org/2000/svg">
<path d="M23.8322 12.6213H17.5489C15.8914 12.6213 14.7539 11.3646 14.7539 9.82629V6.33792C14.7539 4.79959 15.8914 3.54297 17.5489 3.54297H21.0372C22.5756 3.54297 23.8322 4.79959 23.8322 6.33792V12.6213Z" stroke="white" stroke-width="1.5" stroke-linecap="round" stroke-linejoin="round"/>
<path d="M23.8333 12.6211C23.8333 19.1753 22.6091 20.2585 18.9258 22.4469" stroke="white" stroke-width="1.5" stroke-linecap="round" stroke-linejoin="round"/>
<path d="M11.2346 12.6213H4.95125C3.29375 12.6213 2.15625 11.3646 2.15625 9.82629V6.33792C2.15625 4.79959 3.29375 3.54297 4.95125 3.54297H8.45042C9.98875 3.54297 11.2454 4.79959 11.2454 6.33792V12.6213" stroke="white" stroke-width="1.5" stroke-linecap="round" stroke-linejoin="round"/>
<path d="M11.2356 12.6211C11.2356 19.1753 10.0115 20.2585 6.32812 22.4469" stroke="white" stroke-width="1.5" stroke-linecap="round" stroke-linejoin="round"/>
</svg>
