<?xml version="1.0" encoding="utf-8"?>
<!-- Generator: Adobe Illustrator 24.2.0, SVG Export Plug-In . SVG Version: 6.00 Build 0)  -->
<svg version="1.1" id="Layer_1" xmlns="http://www.w3.org/2000/svg" xmlns:xlink="http://www.w3.org/1999/xlink" x="0px" y="0px"
	 viewBox="0 0 332.7 67.1" style="enable-background:new 0 0 332.7 67.1;" xml:space="preserve">
<style type="text/css">
	.st0{display:none;fill:none;}
	.st1{fill-rule:evenodd;clip-rule:evenodd;fill:#627590;}
</style>
<rect y="5.6" class="st0" width="350" height="56"/>
<g>
	<path class="st1" d="M65.9,67.1V0H0v67.1H65.9z M3.7,63.3V3.8h58.4v59.5H3.7z"/>
	<path class="st1" d="M108.8,41.3V53h-1.9l-2.6-2.2c-1.2,1.1-2.5,1.8-4,2.3c-1.7,0.6-3.4,0.8-5.2,0.8c-2.5,0-5-0.5-7.2-1.5
		c-2.3-1.2-4.4-2.8-6.1-4.8c-1.8-1.9-3.2-4.2-4.2-6.6c-0.9-2.4-1.4-5-1.4-7.6c0-2.6,0.5-5.1,1.4-7.5c1-2.5,2.4-4.7,4.2-6.6
		c1.7-2,3.8-3.6,6.2-4.7c2.3-1,4.8-1.6,7.3-1.5c1.5,0,3.1,0.2,4.5,0.7c1.5,0.5,2.9,1.2,4.1,2.1l2.1-2h1.9l0.2,10.8h-2.1
		c-0.9-2.8-2.4-5.4-4.5-7.5c-1.8-1.6-4.2-2.4-6.5-2.3c-3,0-5,1-6,3c-1.1,2-1.6,6.9-1.6,14.9c0,4.2,0,7.3,0.2,9.4
		c0,1.5,0.2,3,0.5,4.5c0.3,1.6,1.1,3.1,2.4,4.2c1.4,0.9,3,1.4,4.6,1.3c2.7,0,5.3-1.1,7.3-3.1c2.2-2.1,3.6-4.8,4.2-7.8L108.8,41.3z
		 M129.9,49.5c-1,1.3-2.4,2.4-3.9,3.1c-1.6,0.7-3.3,1-5,1c-1.6,0.1-3.3-0.5-4.5-1.5c-0.6-0.6-1-1.2-1.3-2c-0.3-0.7-0.4-1.6-0.3-2.4
		c0-1.3,0.4-2.6,1.1-3.7c0.7-1.1,1.7-1.9,2.9-2.5c3.4-1.7,7.1-2.5,10.9-2.3v-5.7c0.1-0.5,0-0.9-0.1-1.4c-0.1-0.5-0.4-0.9-0.7-1.2
		c-1-0.5-2-0.8-3.1-0.7c-0.8,0-1.5,0.1-2.3,0.4c-0.2,0.1-0.4,0.2-0.5,0.4c-0.1,0.2-0.2,0.4-0.2,0.6c0.1,0.4,0.3,0.8,0.5,1.2
		c0.3,0.6,0.5,1.3,0.5,2c0,0.5,0,1-0.2,1.4c-0.2,0.5-0.5,0.9-0.8,1.2c-0.8,0.7-1.9,1-2.9,0.9c-0.5,0-0.9,0-1.4-0.2
		c-0.4-0.2-0.9-0.4-1.2-0.7c-0.3-0.4-0.6-0.8-0.7-1.3c-0.2-0.5-0.2-1-0.2-1.5c0-0.9,0.3-1.8,0.8-2.6c0.5-0.8,1.2-1.4,2.1-1.8
		c2.5-1.2,5.3-1.7,8.1-1.5c1.4,0,2.8,0.1,4.2,0.3c1,0.2,2.1,0.5,3,1c0.8,0.4,1.5,1,1.9,1.7c0.4,1.2,0.6,2.5,0.5,3.7v12.1
		c0,0.5,0.1,1.1,0.4,1.5c0.2,0.2,0.4,0.3,0.7,0.4c0.2,0.1,0.5,0.1,0.8,0.1c0.3,0,0.6-0.1,0.8-0.3c0.2-0.1,0.4-0.2,0.6-0.3
		c0.1,0,0.1,0,0.2,0c0.1,0,0.1,0.1,0.2,0.1c0.1,0.1,0.1,0.1,0.1,0.2c0,0.1,0,0.2,0,0.2c0,0.7-0.6,1.5-1.7,2.4
		c-1.1,0.9-2.5,1.3-3.9,1.3c-1.2,0-2.4-0.4-3.4-1.1C131,51.7,130.2,50.6,129.9,49.5z M129.7,41H129c-1.7-0.1-3.5,0.2-5,1
		c-0.5,0.4-0.9,1-1.2,1.6c-0.3,0.6-0.3,1.3-0.3,1.9c-0.1,1.3,0.2,2.5,0.8,3.6c0.3,0.4,0.7,0.7,1.1,0.9c0.4,0.2,0.9,0.3,1.4,0.2
		c0.5,0,1-0.1,1.5-0.3c0.5-0.2,0.9-0.5,1.3-0.9c0.7-0.8,1.1-1.9,1.1-3.1V41L129.7,41z M153.5,43.5c-0.1,2.2,0.5,4.4,1.7,6.1
		c0.5,0.7,1.2,1.3,1.9,1.7c0.8,0.4,1.6,0.6,2.5,0.6c0.5,0.1,0.9,0,1.3-0.1s0.8-0.4,1.2-0.7c0.6-0.9,0.8-1.9,0.7-3V34.5
		c0.1-1.1-0.1-2.1-0.6-3.1c-0.3-0.3-0.6-0.6-1-0.7c-0.4-0.2-0.8-0.2-1.2-0.2c-0.9,0-1.8,0.2-2.7,0.6c-0.8,0.4-1.6,1-2.1,1.7
		c-1.3,1.8-1.9,3.9-1.8,6.1V43.5L153.5,43.5z M142.3,53v-1.8h3.2V15.8h-3.2V14c1.8,0,3.7-0.2,5.5-0.3c1.9-0.1,3.8-0.3,5.7-0.4v20.1
		c0.8-1.4,1.9-2.5,3.2-3.4c1.3-0.8,2.8-1.2,4.3-1.1c1.5,0,2.9,0.3,4.3,0.9c1.3,0.6,2.5,1.5,3.5,2.7c2.1,2.5,3.2,5.7,3,9
		c0.1,3.2-1,6.4-3.1,8.8c-1,1.1-2.1,2-3.5,2.7c-1.3,0.6-2.8,0.9-4.3,0.9c-1.5,0-3-0.3-4.3-1.1c-1.3-0.8-2.4-2-3.2-3.4V53L142.3,53z
		 M178,19.4c0-0.5,0.1-1.1,0.3-1.6c0.2-0.5,0.5-1,0.9-1.3c0.4-0.4,0.8-0.7,1.3-0.9c0.5-0.2,1-0.3,1.6-0.3c0.5,0,1.1,0.1,1.5,0.3
		c0.5,0.2,0.9,0.5,1.3,0.9c0.4,0.4,0.7,0.9,0.9,1.4c0.2,0.5,0.3,1.1,0.3,1.6c0,0.6-0.1,1.1-0.3,1.6c-0.2,0.5-0.5,1-0.9,1.4
		c-0.4,0.4-0.8,0.7-1.3,0.9c-0.5,0.2-1,0.3-1.6,0.3c-0.5,0-1.1-0.1-1.6-0.3c-0.5-0.2-1-0.5-1.3-0.9c-0.4-0.4-0.7-0.9-0.9-1.4
		C178.1,20.5,178,19.9,178,19.4z M174.7,53v-1.8h3.5V31.4h-3.8v-1.8c2.1,0,4.2-0.2,6.2-0.3c2-0.1,3.9-0.3,5.8-0.4v22.4h3.7V53
		L174.7,53z M191.1,51.2h3.5v-20h-3.9v-1.9c2.1,0,4.1,0,6-0.1c1.9-0.1,4-0.2,5.9-0.3v5.9c0.9-1.8,2.3-3.4,3.9-4.6
		c1.7-1,3.5-1.5,5.5-1.4c0.9-0.1,1.9,0,2.8,0.2c0.9,0.3,1.8,0.7,2.5,1.3c1,1.1,1.5,3.4,1.5,6.9v13.8h3.4v1.8H208v-1.8h3V34.6
		c0.1-0.8-0.1-1.7-0.6-2.4c-0.2-0.3-0.5-0.5-0.8-0.6c-0.3-0.1-0.7-0.2-1-0.1c-0.8,0.1-1.6,0.3-2.3,0.8c-0.7,0.5-1.3,1.1-1.7,1.8
		c-1.2,1.7-1.8,3.8-1.8,5.9v11.2h3V53h-14.6v-1.8L191.1,51.2z M223.3,51.2h3.6V31.4h-3.8v-1.8h3.9v-1.2c-0.2-4.1,1.1-8,3.7-11.1
		c1.3-1.4,2.9-2.5,4.6-3.2c1.7-0.7,3.6-1,5.5-0.9c2.2-0.1,4.4,0.4,6.3,1.5c0.7,0.4,1.3,1,1.7,1.7c0.4,0.7,0.6,1.5,0.6,2.3
		c0,0.5-0.1,1-0.3,1.4c-0.2,0.5-0.5,0.9-0.8,1.2c-0.4,0.4-0.8,0.6-1.2,0.8c-0.5,0.2-1,0.3-1.5,0.3c-0.5,0-1,0-1.4-0.2
		c-0.4-0.2-0.9-0.4-1.2-0.8c-0.3-0.3-0.6-0.8-0.8-1.2c-0.2-0.5-0.2-0.9-0.2-1.4c0-0.6,0.1-1.2,0.3-1.7c0.2-0.4,0.3-0.8,0.3-1.3
		c0-0.2,0-0.3-0.1-0.4c-0.1-0.1-0.2-0.2-0.4-0.3c-0.4-0.2-0.9-0.2-1.4-0.2c-0.9-0.1-1.7,0.1-2.5,0.5c-0.8,0.4-1.4,1-1.8,1.8
		c-1.1,2.4-1.5,5-1.3,7.7c0,0.6,0,1.1,0,1.7c0,0.6,0,0.9,0,0.9v2.2h6.1c2.1,0,4.1,0,5.7-0.2c1.7-0.2,3.2-0.3,4.5-0.5v22.4h3.3v1.8
		h-14.5v-1.8h3.2V31.4h-8.4v19.8h2.9V53h-14.6L223.3,51.2L223.3,51.2z M266.9,38.4h7.8v-4.6c0-0.5,0-1-0.2-1.5
		c-0.2-0.5-0.4-0.9-0.8-1.3c-0.9-0.7-1.9-1-3-0.8c-1-0.1-2.1,0.2-2.9,0.9c-0.3,0.4-0.6,0.8-0.8,1.3c-0.2,0.5-0.2,1-0.2,1.5
		L266.9,38.4L266.9,38.4z M281.3,45.1l1.4,0.5c-0.8,2.5-2.3,4.6-4.3,6.1c-2.2,1.4-4.7,2.1-7.3,2c-3.6,0.2-7.1-1-9.8-3.3
		c-1.2-1.1-2.2-2.5-2.8-4c-0.6-1.5-0.9-3.2-0.9-4.8c0-1.7,0.3-3.4,0.9-5c0.7-1.6,1.6-3,2.9-4.1c2.6-2.4,6-3.7,9.5-3.6
		c1.5-0.1,3,0.1,4.5,0.6c1.4,0.5,2.8,1.3,3.9,2.3c1,1.1,1.8,2.3,2.4,3.7c0.5,1.4,0.7,2.9,0.7,4.4v0.3h-15.4v5.9
		c-0.2,1.6,0.2,3.3,1.1,4.7c0.5,0.5,1.1,0.8,1.7,1.1c0.6,0.2,1.3,0.3,2,0.2c2.1,0.1,4.2-0.5,6-1.8C279.3,49,280.6,47.2,281.3,45.1
		L281.3,45.1z M284.9,51.2h3.4V15.8h-3.8V14c2.1,0,4.2-0.2,6.2-0.3c2-0.1,3.9-0.3,5.8-0.4v38h3.7V53H285L284.9,51.2L284.9,51.2z
		 M321.6,43.5V39c0.1-2.2-0.5-4.4-1.8-6.1c-0.6-0.7-1.3-1.3-2.1-1.7c-0.8-0.4-1.7-0.6-2.6-0.6c-0.4,0-0.9,0-1.3,0.2
		c-0.4,0.2-0.8,0.4-1,0.7c-0.5,1.1-0.7,2.3-0.6,3.5v12.5c-0.1,1.2,0.1,2.5,0.6,3.6c0.3,0.3,0.6,0.6,1,0.8c0.4,0.2,0.8,0.2,1.3,0.2
		c0.9,0,1.8-0.2,2.6-0.6c0.8-0.4,1.5-1,2.1-1.7C321,47.9,321.7,45.8,321.6,43.5L321.6,43.5z M321.6,53v-3.7
		c-0.8,1.4-1.9,2.5-3.2,3.4c-1.3,0.8-2.8,1.1-4.4,1.1c-1.5,0-2.9-0.3-4.3-0.9c-1.3-0.6-2.5-1.5-3.5-2.7c-2.1-2.4-3.2-5.6-3.1-8.8
		c-0.1-3.3,1-6.5,3.1-9c1-1.1,2.2-2,3.5-2.7s2.8-0.9,4.3-0.9c1.5,0,3,0.4,4.4,1.1c1.3,0.8,2.4,2,3.2,3.4V15.8h-4.5V14
		c2.4,0,4.7-0.2,6.8-0.3c2.1-0.1,4-0.3,5.7-0.4v38h3.2V53L321.6,53z"/>
	<path class="st1" d="M44.1,65.2c0,0,0-0.1,0.1-0.2c1.2-3.1,16-3.2,20.1-17.2c1.8-3.9,1.8-10.9,1.3-15.2c-0.5-4.3-1.9-10.6-4.5-13.8
		c-0.5-0.6-1-1.3-1.5-1.9c-1.5-1.8-1.5-2.3-1.1-4.6c0-0.3,0-0.6,0-0.9c0-2.8-1.9-5.5-3.8-7.4c-1.8-1.9-4.2-3.3-6.7-3.9
		c-0.3,0-0.5,0-0.8,0c-22.9,1.2-33.1,0.6-38.3,2C7.5,2.7,6.2,3.6,5.1,4.7c-1.4,1.2-3.7,3.7-3.5,6.5C2,11.4,2.1,14.9,2.4,15
		c1.6-4.3,4.3-8.1,7.8-11c3.5-2.7,8.6-1.9,14.1-2.1C33.3,1.5,43,1.7,47.2,4h0.2c1.8,0.5,3.4,1.5,4.7,2.9c1.1,1.1,2.7,3,2.7,4.6
		c0,0.1,0,0.1,0,0.2v0.1c-0.6,4.2-0.7,4.3,1.9,7.6l1.4,1.8c2.1,2.8,3.3,8.5,3.7,12c3.6,27.3-19.9,26-24.1,31c0,0.2,0.6,0.7,1.1,1.2
		L44.1,65.2z"/>
	<path class="st1" d="M2,36.5l0.6,3.1c2.1-1.1,4.1-2.5,5.7-4.3c2.3-2.3,4.2-4.9,5.8-7.8c0.8-1.8,2-3.5,3.5-4.7c2-1.3,5-1.2,7.3-1
		c3.2,0.1,6.4,0.8,9.5,1.9c0.9,0.4,1.7,1.1,2.3,2c0.5,0.9,0.8,1.9,0.7,3c0.1,2.1,0.6,4.1,1.6,5.9c0.4,0.7,0.7,1.5,0.8,2.3
		c0.5,3.1-2.8,5.6-5,7.1c-3.5,2.5-6.7,5.3-9.7,8.3c-1.1,1.2-2.3,2.2-3.6,3.3c-0.9,0.8-2,1.2-3.1,1.1c-0.4-0.1-0.7-0.2-1.1-0.4
		c-2.7-1.7-5.6-3.1-8.6-4.1c-1.2-0.5-2.4-0.8-3.6-1.2c-0.5-0.1-1-0.3-1.5-0.6H1.5v1.7c1.9,1.2,4,2.2,6.1,3c2.8,0.9,5.4,2.2,8,3.7
		c1.1,0.9,2.5,1.3,3.8,1.3c2.7-0.3,5.9-3.7,7.8-5.5c2.9-2.9,6-5.6,9.4-8c2.8-1.9,7.1-5.2,6.7-9.2c-0.3-1.5-0.8-2.9-1.5-4.2
		c-0.8-1.4-1.2-3-1.3-4.6c0.1-1.6-0.3-3.3-1.2-4.7c-0.9-1.4-2.1-2.5-3.7-3.1c-3.3-1.3-6.9-2-10.5-2.2c-3-0.3-6.5-0.3-9.2,1.5
		c-2,1.5-3.6,3.6-4.5,5.9c-1.4,2.6-3.2,4.9-5.3,7C4.9,34.3,3.5,35.5,2,36.5z"/>
	<path class="st1" d="M17.7,33.6c-0.8,1.7-1.8,3.3-3,4.7c-1,1.3-2.9,3.6-2.8,5.4c0,0.4,0.1,0.8,0.3,1.1c0.9,1.7,4.2,1.5,5.7,1.5
		c3.5-0.2,4.3-1.1,6.3-3.8c1.1-1.6,2.3-3,3.7-4.3c0.6-0.4,1.1-0.9,1.4-1.6c0.3-0.6,0.5-1.4,0.4-2.1c-0.1-0.7-0.3-1.4-0.7-2
		c-0.4-0.6-1-1-1.6-1.3c-1-0.5-2.2-0.9-3.3-0.9c-1.3-0.2-2.5,0-3.7,0.6C19.2,31.6,18.3,32.5,17.7,33.6L17.7,33.6z M23.8,33
		c0.8,0,1.5,0.3,2.2,0.6c0.4,0.2,0.7,0.5,0.9,0.9c0.2,0.6-0.5,1.3-0.9,1.7c-1.5,1.4-2.9,3-4.1,4.7c-1.3,1.8-2,2.6-4.3,2.7
		c-0.6,0-1.2,0.1-1.7,0.3c-0.4,0.2-0.9,0.4-1.3,0.1c-0.1-0.1-0.2-0.3-0.2-0.5c0-0.8,1.8-3,2.3-3.6c1.4-1.6,2.5-3.4,3.4-5.3
		C20.7,33.2,22.5,32.9,23.8,33z"/>
	<path class="st1" d="M11.9,33.7c1-1.2,2-2.4,2.9-3.7c2.9-4.1,4.7-6.5,12.1-4.6c0.7,0.2,1.5,0.4,2.2,0.7c0.8,0.4,1.5,0.9,2.1,1.5
		l0.5,0.4c2.1,1.7,5.7,4.7,4.8,8.4c-1.2,4.5-4.4,6.9-7.9,9.5c-0.9,0.6-1.8,1.3-2.5,2l-0.3,0.2c-0.2,0.4-0.4,0.9-2.7,2.6
		c-1.4,1.1-2.9,2-4.5,2.7c-0.8,0.3-1.6,0.4-2.4,0.3c-0.8-0.1-1.5-0.5-2.2-1.1c-1.8-1.4-3.7-2.7-5.7-3.9c-0.3-0.2-0.5-0.3-0.7-0.6
		c-0.6-0.6-1.1-1.3-1.3-2.1c-0.3-0.8-0.3-1.7-0.2-2.5c0.3-1.9,1.1-3.7,2.1-5.3C9.3,36.7,10.5,35.2,11.9,33.7L11.9,33.7z M17.3,31.9
		c-1,1.4-2,2.7-3.1,3.9c-1.2,1.3-2.3,2.7-3.2,4.2c-0.8,1.2-1.4,2.5-1.7,4c-0.1,0.3-0.1,0.7,0,1c0.1,0.3,0.2,0.6,0.5,0.9L10,46
		c2.1,1.3,4.2,2.7,6.2,4.2c0.2,0.2,0.5,0.3,0.7,0.3s0.5,0,0.8-0.1c1.3-0.6,2.5-1.3,3.6-2.2c1.6-1.2,1.7-1.3,1.7-1.4
		c0.2-0.5,0.6-1,1.1-1.3c1-0.8,1.8-1.4,2.6-2c3-2.3,5.8-4.4,6.7-7.8c0.5-1.7-2.2-3.8-3.7-5.1l-0.5-0.4c-0.5-0.4-1-0.8-1.5-1.2
		c-0.5-0.2-1-0.4-1.5-0.5C20.7,27.1,19.4,28.9,17.3,31.9L17.3,31.9z"/>
	<path class="st1" d="M1.5,27.9c2-2.2,3.5-4.1,4.9-5.7c6.7-8.1,8.2-9.9,24.8-8.6c4.3,0.3,6.8,0.7,9.1,2.3c2.2,1.6,3.6,4,5.8,8.4
		c0.4,0.6,0.8,1.2,1.3,1.7c1.5,1.5,2.8,3.1,1.9,6.4c-0.8,2.7-0.9,5.6-0.1,8.3c0.9,3.3,1.3,5.1-5,10.2c-1,0.7-2.1,1.3-3.2,1.6
		c-2,0.6-3.8,1.6-5.4,2.9c-1.4,1.3-2.7,2.8-3.9,4.4c-1.4,2-3,3.8-4.8,5.4h-7.4c1.9-0.3,3.6-1,5.1-2.2c1.8-1.5,3.3-3.2,4.7-5.1
		c1.3-1.8,2.7-3.4,4.4-4.9c1.9-1.5,4-2.7,6.3-3.4c0.8-0.3,1.6-0.6,2.4-1.1c4.7-3.9,4.4-4.9,3.9-6.9c-1-3.2-0.9-6.7,0.1-9.9
		c0.2-0.6,0.1-1.3-0.1-1.9c-0.2-0.6-0.6-1.1-1.1-1.5c-0.7-0.7-1.4-1.6-1.9-2.5c-2-3.9-3.2-6.1-4.8-7.2c-1.6-1.1-3.7-1.4-7.4-1.7
		c-15-1.1-16.3,0.5-22.2,7.5c-1.4,1.7-3,3.6-5.1,5.9C3,31,2.2,31.8,1.6,32.6L1.5,27.9L1.5,27.9z M10.2,65.2h7.5
		c-0.5-0.1-1-0.1-1.5-0.3c-2.5-0.9-4.7-2.3-6.6-4.1c-2.5-1.8-5.3-3-8.2-3.5v3.2c2.2,0.4,4.3,1.4,6.2,2.7
		C8.5,63.8,9.3,64.5,10.2,65.2z"/>
	<path class="st1" d="M1.5,18C9.1,7.9,15.6,2.9,31.9,6.9c1.8,0.4,3.6,0.6,5.4,0.6c3,0.2,5.9,0.3,8.1,1.7c1.4,1.2,2.3,2.8,2.5,4.6
		c0.1,0.7,0.4,1.3,0.7,1.9c0.9,1.2,2,2.2,3.2,3.1c2.9,2.4,5.6,4.6,5.4,10.9c-0.1,3.4,0.2,6.7,1,10c1.1,5.2,1.5,6.7-7.4,13.8
		c-1.2,0.9-2.6,1.5-4,2c-2.6,0.8-5,2.1-7.1,3.8c-1.9,1.7-3.6,3.7-5,5.7l-0.1,0.2h-4c0.6-0.7,1.1-1.4,1.7-2.1
		c1.6-2.2,3.5-4.3,5.5-6.1c2.4-1.9,5.1-3.4,8-4.3c1.1-0.4,2.2-0.9,3.2-1.5c7.3-5.9,7.1-7,6.3-10.8c-0.8-3.5-1.2-7.1-1.1-10.8
		c0.1-4.7-2-6.5-4.3-8.3c-1.4-1.1-2.7-2.3-3.8-3.7c-0.6-0.9-1-1.9-1.2-3c-0.3-1.2-0.7-2.4-1.2-2.7c-1.5-1-4-1.1-6.6-1.2
		c-2,0-4-0.3-6-0.7C15,5.9,9.5,11.9,1.5,23.3v-5.4L1.5,18z M1.5,65.2h2.7c-0.9-0.5-1.8-0.9-2.7-1.2V65.2z"/>
</g>
</svg>
