<?xml version="1.0" encoding="utf-8"?>
<!-- Generator: Adobe Illustrator 27.0.0, SVG Export Plug-In . SVG Version: 6.00 Build 0)  -->
<svg version="1.1" id="Layer_1" xmlns="http://www.w3.org/2000/svg" xmlns:xlink="http://www.w3.org/1999/xlink" x="0px" y="0px"
	 viewBox="0 0 122.2 203.9" style="enable-background:new 0 0 122.2 203.9;" xml:space="preserve">
<style type="text/css">
	.st0{fill-rule:evenodd;clip-rule:evenodd;fill:#627590;}
	.st1{fill:none;stroke:#627590;stroke-width:3;stroke-linecap:round;stroke-linejoin:round;}
	.st2{fill:none;stroke:#B3522C;stroke-width:3;stroke-linecap:round;stroke-linejoin:round;}
	.st3{fill:none;stroke:#121212;stroke-width:3;stroke-linecap:round;stroke-linejoin:round;}
	.st4{fill-rule:evenodd;clip-rule:evenodd;fill:#B3522C;}
	.st5{fill-rule:evenodd;clip-rule:evenodd;fill:#121212;}
	.st6{clip-path:url(#SVGID_00000096033559443193794270000008252339557680273556_);}
	.st7{fill:#627590;}
	.st8{clip-path:url(#SVGID_00000145016386800571378270000002068871493332783801_);}
	.st9{clip-path:url(#SVGID_00000025437763589815958650000015767872149250771123_);fill:#B3522C;}
	.st10{clip-path:url(#SVGID_00000085943106701395096250000012799623599849388726_);}
	.st11{clip-path:url(#SVGID_00000114037485243362374250000011173009407476601257_);}
	.st12{fill:none;stroke:#627590;stroke-width:1.5;stroke-linecap:round;stroke-linejoin:round;}
	.st13{fill:none;stroke:#B3522C;stroke-width:1.5;stroke-linecap:round;stroke-linejoin:round;}
	.st14{fill:none;stroke:#000000;stroke-width:1.5;stroke-linecap:round;stroke-linejoin:round;}
</style>
<path class="st0" d="M29.6,6.4H11.3C9.4,6.4,7.9,8,7.9,9.9v19c0,1.9,1.5,3.5,3.4,3.5h9v-9.3H18c-0.3,0-0.5-0.3-0.5-0.6v-3
	c0-0.3,0.2-0.6,0.5-0.6h2.3V16c0-3.4,2-5.2,4.8-5.2h2.4c0.3,0,0.5,0.3,0.5,0.6v2.5c0,0.3-0.2,0.6-0.5,0.6H26c-1.6,0-1.9,0.8-1.9,1.9
	v2.5h3.4c0.3,0,0.6,0.3,0.5,0.6l-0.3,3c0,0.3-0.3,0.5-0.5,0.5h-3.1v9.3h5.4c1.9,0,3.4-1.6,3.4-3.5v-19C32.9,8,31.4,6.4,29.6,6.4"/>
<path class="st0" d="M32.8,54.6c0.2-7.4-5.6-13.5-12.7-13.4c-6.8,0.1-12.4,6-12.3,13.1c0,5.1,2.9,9.5,7,11.6
	c0.2,0.1,0.5-0.1,0.5-0.3c0-0.8,0-1.7,0.2-2.4s0.8-3.4,1.2-5.2c0.2-0.9,0.2-1.8,0.1-2.7c-0.1-0.3-0.1-0.6-0.1-1
	c0-1.9,1.1-3.4,2.4-3.4c1.1,0,1.7,0.9,1.7,1.9c0,1.2-0.7,3-1.1,4.6c-0.3,1.4,0.7,2.5,2,2.5c2.4,0,4.2-2.6,4.2-6.3
	c0-3.3-2.3-5.6-5.5-5.6c-3.8,0-6,2.9-6,6c0,1.2,0.4,2.5,1,3.2c0.1,0.1,0.1,0.3,0.1,0.4c-0.1,0.4-0.3,1.4-0.4,1.6
	c-0.1,0.3-0.2,0.3-0.4,0.2C13,58.6,12,56.1,12,54c0-4.4,3-8.4,8.8-8.4c4.6,0,8.2,3.4,8.2,8c0,4.8-2.9,8.6-6.9,8.6
	c-1.1,0-2.1-0.5-2.7-1.1c-0.2-0.2-0.5-0.1-0.6,0.2c-0.2,0.8-0.5,2.2-0.7,2.6c-0.2,0.8-0.6,1.7-1,2.5c-0.1,0.2,0,0.5,0.2,0.5
	c1,0.3,2.1,0.4,3.2,0.4C27,67.1,32.6,61.4,32.8,54.6z"/>
<path class="st0" d="M19.5,75.7c-1,0-2.1,0-3.1,0c-0.7,0-1.5,0-2.3,0.2c-1.2,0.2-2.2,0.6-3,1.2c-1.7,1.2-2.7,2.9-3,5.1
	c-0.1,1-0.2,2.1-0.2,2.9c0,1.7,0,3.6,0,6c0,1.3,0,2.6,0.2,3.9c0.1,1,0.4,2,0.9,2.8c1,1.9,2.7,3.1,4.9,3.6c1,0.2,2.1,0.3,3.1,0.3
	c1.6,0,3.3,0,4.8,0h1.5c0.6,0,1.3,0,1.9,0c0.8,0,1.7-0.1,2.6-0.2c1.8-0.4,3.3-1.3,4.3-2.7c0.8-1.1,1.3-2.5,1.4-4.1
	c0.1-1.2,0.1-2.5,0.1-3.6c0-0.7,0-1.4,0-2.1v-0.1c0-0.8,0-1.6,0-2.4v-0.2c0-1.3,0-2.5-0.2-3.8c-0.1-1-0.4-1.9-0.9-2.8
	c-1-1.9-2.6-3.1-4.8-3.5c-1-0.2-2-0.2-3.1-0.3C24.3,75.7,19.5,75.7,19.5,75.7z M19.4,98.5c-1.2,0-2.4,0-3.7-0.1
	c-0.7,0-1.3-0.1-1.9-0.3c-1.3-0.4-2.2-1.3-2.6-2.7c-0.2-0.6-0.2-1.3-0.3-2.2c0-2.1-0.1-4-0.1-6c0-1.2,0-2.4,0.1-3.5v-0.2
	c0-0.7,0.1-1.3,0.3-1.8c0.4-1.4,1.3-2.2,2.7-2.6c0.6-0.2,1.3-0.2,2.1-0.3c2.3,0,4.1-0.1,6.1-0.1l0,0c1.1,0,2.3,0,3.3,0.1h0.2
	c0.7,0,1.3,0.1,1.8,0.3c1.4,0.4,2.2,1.3,2.6,2.7c0.2,0.7,0.2,1.5,0.3,2.1c0,1.1,0,2.2,0.1,3.3v1.2v0.1c0,0.3,0,0.6,0,1
	c0,0.7,0,1.5,0,2.2c0,1.1-0.1,1.9-0.2,2.8c-0.1,1.2-0.6,2.2-1.5,2.9c-0.5,0.4-1.1,0.7-1.9,0.8c-0.7,0.1-1.4,0.2-2,0.2h-0.7
	C22.6,98.4,21,98.4,19.4,98.5L19.4,98.5z M27.5,80c-1.1,0-1.9,0.9-1.9,1.9c0,0.5,0.2,1,0.6,1.4s0.8,0.6,1.4,0.6l0,0
	c0.5,0,1-0.2,1.4-0.6c0.3-0.4,0.5-0.9,0.5-1.3c0-0.5-0.2-1-0.5-1.3C28.5,80.3,28,80,27.5,80L27.5,80z M14,88.6c0,1.8,0.7,3.6,2,4.9
	s3,2.1,4.9,2.1l0,0c3.8,0,6.8-3.1,6.9-6.8c0-1.8-0.7-3.6-2-4.9s-3-2-4.8-2h-0.1C17.1,81.8,14,84.9,14,88.6z M17.1,88.7
	c0-2.1,1.7-3.7,3.7-3.7l0,0c1,0,1.9,0.4,2.6,1.1s1.1,1.7,1.1,2.7c0,2.1-1.7,3.7-3.7,3.7C18.8,92.4,17.1,90.7,17.1,88.7z"/>
<g>
	<path class="st1" d="M11.6,111.2h18.2c1.3,0,2.3,1.2,2.3,2.6v15.6c0,1.4-1,2.6-2.3,2.6H11.6c-1.3,0-2.3-1.2-2.3-2.6v-15.6
		C9.4,112.4,10.4,111.2,11.6,111.2z"/>
	<path class="st1" d="M32.2,113.8l-11.4,9.1l-11.4-9.1"/>
</g>
<g>
	<path class="st2" d="M49.3,111.2h18.2c1.3,0,2.3,1.2,2.3,2.6v15.6c0,1.4-1,2.6-2.3,2.6H49.3c-1.3,0-2.3-1.2-2.3-2.6v-15.6
		C47,112.4,48,111.2,49.3,111.2z"/>
	<path class="st2" d="M69.8,113.8l-11.4,9.1L47,113.8"/>
</g>
<g>
	<path class="st3" d="M87.3,111.2h18.2c1.3,0,2.3,1.2,2.3,2.6v15.6c0,1.4-1,2.6-2.3,2.6H87.3c-1.3,0-2.3-1.2-2.3-2.6v-15.6
		C85,112.4,86,111.2,87.3,111.2z"/>
	<path class="st3" d="M107.8,113.8l-11.4,9.1L85,113.8"/>
</g>
<path class="st4" d="M67,6.4H48.8c-1.9,0-3.4,1.6-3.4,3.5v19c0,1.9,1.5,3.5,3.4,3.5h9v-9.3h-2.3c-0.3,0-0.5-0.3-0.5-0.6v-3
	c0-0.3,0.2-0.6,0.5-0.6h2.3V16c0-3.4,2-5.2,4.8-5.2H65c0.3,0,0.5,0.3,0.5,0.6v2.5c0,0.3-0.2,0.6-0.5,0.6h-1.4
	c-1.6,0-1.9,0.8-1.9,1.9v2.5h3.4c0.3,0,0.6,0.3,0.5,0.6l-0.3,3c0,0.3-0.3,0.5-0.5,0.5h-3.1v9.3h5.4c1.9,0,3.4-1.6,3.4-3.5v-19
	C70.4,8,68.9,6.4,67,6.4"/>
<path class="st4" d="M70.3,54.6c0.2-7.4-5.6-13.5-12.7-13.4c-6.8,0.1-12.4,6-12.3,13.1c0,5.1,2.9,9.5,7,11.6
	c0.2,0.1,0.5-0.1,0.5-0.3c0-0.8,0-1.7,0.2-2.4s0.8-3.4,1.2-5.2c0.2-0.9,0.2-1.8,0.1-2.7c-0.1-0.3-0.1-0.6-0.1-1
	c0-1.9,1.1-3.4,2.4-3.4c1.1,0,1.7,0.9,1.7,1.9c0,1.2-0.7,3-1.1,4.6c-0.3,1.4,0.7,2.5,2,2.5c2.4,0,4.2-2.6,4.2-6.3
	c0-3.3-2.3-5.6-5.5-5.6c-3.8,0-6,2.9-6,6c0,1.2,0.4,2.5,1,3.2c0.1,0.1,0.1,0.3,0.1,0.4c-0.1,0.4-0.3,1.4-0.4,1.6
	c-0.1,0.3-0.2,0.3-0.4,0.2c-1.7-0.8-2.7-3.3-2.7-5.4c0-4.4,3-8.4,8.8-8.4c4.6,0,8.2,3.4,8.2,8c0,4.8-2.9,8.6-6.9,8.6
	c-1.1,0-2.1-0.5-2.7-1.1c-0.2-0.2-0.5-0.1-0.6,0.2c-0.2,0.8-0.5,2.2-0.7,2.6c-0.2,0.8-0.6,1.7-1,2.5c-0.1,0.2,0,0.5,0.2,0.5
	c1,0.3,2.1,0.4,3.2,0.4C64.5,67.1,70.1,61.4,70.3,54.6z"/>
<path class="st4" d="M56.9,75.7c-1,0-2.1,0-3.1,0c-0.7,0-1.5,0-2.3,0.2c-1.2,0.2-2.2,0.6-3,1.2c-1.7,1.2-2.7,2.9-3,5.1
	c-0.1,1-0.2,2.1-0.2,2.9c0,1.7,0,3.6,0,6c0,1.3,0,2.6,0.2,3.9c0.1,1,0.4,2,0.9,2.8c1,1.9,2.7,3.1,4.9,3.6c1,0.2,2.1,0.3,3.1,0.3
	c1.6,0,3.3,0,4.8,0h1.6c0.6,0,1.3,0,1.9,0c0.8,0,1.7-0.1,2.6-0.2c1.8-0.4,3.3-1.3,4.3-2.7c0.8-1.1,1.3-2.5,1.4-4.1
	c0.1-1.2,0.1-2.5,0.1-3.6c0-0.7,0-1.4,0-2.1v-0.1c0-0.8,0-1.6,0-2.4v-0.2c0-1.3,0-2.5-0.2-3.8c-0.1-1-0.4-1.9-0.9-2.8
	c-1-1.9-2.6-3.1-4.8-3.5c-1-0.2-2-0.2-3.1-0.3C61.7,75.7,56.9,75.7,56.9,75.7z M56.8,98.5c-1.2,0-2.4,0-3.7-0.1
	c-0.7,0-1.3-0.1-1.9-0.3c-1.3-0.4-2.2-1.3-2.6-2.7c-0.2-0.6-0.2-1.3-0.3-2.2c0-2.1-0.1-4-0.1-6c0-1.2,0-2.4,0.1-3.5v-0.2
	c0-0.7,0.1-1.3,0.3-1.8c0.4-1.4,1.3-2.2,2.7-2.6c0.6-0.2,1.3-0.2,2.1-0.3c2.3,0,4.1-0.1,6.1-0.1l0,0c1.1,0,2.3,0,3.3,0.1H63
	c0.7,0,1.3,0.1,1.8,0.3c1.4,0.4,2.2,1.3,2.6,2.7c0.2,0.7,0.2,1.5,0.3,2.1c0,1.1,0,2.2,0.1,3.3v1.2v0.1c0,0.3,0,0.6,0,1
	c0,0.7,0,1.5,0,2.2c0,1.1-0.1,1.9-0.2,2.8c-0.1,1.2-0.6,2.2-1.5,2.9c-0.5,0.4-1.1,0.7-1.9,0.8c-0.7,0.1-1.4,0.2-2,0.2h-0.7
	c-1.5,0-3.1,0-4.6,0L56.8,98.5z M64.9,80c-1.1,0-1.9,0.9-1.9,1.9c0,0.5,0.2,1,0.6,1.4c0.4,0.4,0.8,0.6,1.4,0.6l0,0
	c0.5,0,1-0.2,1.4-0.6c0.3-0.4,0.5-0.9,0.5-1.3c0-0.5-0.2-1-0.5-1.3C65.9,80.3,65.4,80,64.9,80L64.9,80z M51.4,88.6
	c0,1.8,0.7,3.6,2,4.9s3,2.1,4.9,2.1l0,0c3.8,0,6.8-3.1,6.9-6.8c0-1.8-0.7-3.6-2-4.9c-1.3-1.3-3-2-4.8-2h-0.1
	C54.4,81.8,51.4,84.9,51.4,88.6z M54.5,88.7c0-2.1,1.7-3.7,3.7-3.7l0,0c1,0,1.9,0.4,2.6,1.1c0.7,0.7,1.1,1.7,1.1,2.7
	c0,2.1-1.7,3.7-3.7,3.7C56.1,92.4,54.5,90.7,54.5,88.7z"/>
<path class="st5" d="M104.9,6.5H86.7c-1.9,0-3.4,1.6-3.4,3.5v19c0,1.9,1.5,3.5,3.4,3.5h9v-9.3h-2.3c-0.3,0-0.5-0.3-0.5-0.6v-3
	c0-0.3,0.2-0.6,0.5-0.6h2.3v-2.9c0-3.4,2-5.2,4.8-5.2h2.4c0.3,0,0.5,0.3,0.5,0.6V14c0,0.3-0.2,0.6-0.5,0.6h-1.5
	c-1.6,0-1.9,0.8-1.9,1.9V19h3.4c0.3,0,0.6,0.3,0.5,0.6l-0.3,3c0,0.3-0.3,0.5-0.5,0.5h-3.1v9.3h5.4c1.9,0,3.4-1.6,3.4-3.5v-19
	C108.3,8.1,106.8,6.5,104.9,6.5"/>
<path class="st5" d="M108.3,54.6c0.2-7.4-5.6-13.5-12.7-13.4c-6.8,0.1-12.4,6-12.3,13.1c0,5.1,2.9,9.5,7,11.6
	c0.2,0.1,0.5-0.1,0.5-0.3c0-0.8,0-1.7,0.2-2.4s0.8-3.4,1.2-5.2c0.2-0.9,0.2-1.8,0.1-2.7c-0.1-0.3-0.1-0.6-0.1-1
	c0-1.9,1.1-3.4,2.4-3.4c1.1,0,1.7,0.9,1.7,1.9c0,1.2-0.7,3-1.1,4.6c-0.3,1.4,0.7,2.5,2,2.5c2.4,0,4.2-2.6,4.2-6.3
	c0-3.3-2.3-5.6-5.5-5.6c-3.8,0-6,2.9-6,6c0,1.2,0.4,2.5,1,3.2c0.1,0.1,0.1,0.3,0.1,0.4c-0.1,0.4-0.3,1.4-0.4,1.6
	c-0.1,0.3-0.2,0.3-0.4,0.2c-1.7-0.8-2.7-3.3-2.7-5.4c0-4.4,3-8.4,8.8-8.4c4.6,0,8.2,3.4,8.2,8c0,4.8-2.9,8.6-6.9,8.6
	c-1.1,0-2.1-0.5-2.7-1.1c-0.2-0.2-0.5-0.1-0.6,0.2c-0.2,0.8-0.5,2.2-0.7,2.6c-0.2,0.8-0.6,1.7-1,2.5c-0.1,0.2,0,0.5,0.2,0.5
	c1,0.3,2.1,0.4,3.2,0.4C102.5,67.1,108.1,61.4,108.3,54.6z"/>
<path class="st5" d="M95,75.7c-1,0-2.1,0-3.1,0c-0.7,0-1.5,0-2.3,0.2c-1.2,0.2-2.2,0.6-3,1.2c-1.7,1.2-2.7,2.9-3,5.1
	c-0.1,1-0.2,2.1-0.2,2.9c0,1.7,0,3.6,0,6c0,1.3,0,2.6,0.2,3.9c0.1,1,0.4,2,0.9,2.8c1,1.9,2.7,3.1,4.9,3.6c1,0.2,2.1,0.3,3.1,0.3
	c1.6,0,3.3,0,4.8,0h1.6c0.6,0,1.3,0,1.9,0c0.8,0,1.7-0.1,2.6-0.2c1.8-0.4,3.3-1.3,4.3-2.7c0.8-1.1,1.3-2.5,1.4-4.1
	c0.1-1.2,0.1-2.5,0.1-3.6c0-0.7,0-1.4,0-2.1v-0.1c0-0.8,0-1.6,0-2.4v-0.2c0-1.3,0-2.5-0.2-3.8c-0.1-1-0.4-1.9-0.9-2.8
	c-1-1.9-2.6-3.1-4.8-3.5c-1-0.2-2-0.2-3.1-0.3C99.8,75.7,95,75.7,95,75.7z M94.9,98.5c-1.2,0-2.4,0-3.7-0.1c-0.7,0-1.3-0.1-1.9-0.3
	c-1.3-0.4-2.2-1.3-2.6-2.7c-0.2-0.6-0.2-1.3-0.3-2.2c0-2.1-0.1-4-0.1-6c0-1.2,0-2.4,0.1-3.5v-0.2c0-0.7,0.1-1.3,0.3-1.8
	c0.4-1.4,1.3-2.2,2.7-2.6c0.6-0.2,1.3-0.2,2.1-0.3c2.3,0,4.1-0.1,6.1-0.1l0,0c1.1,0,2.3,0,3.3,0.1h0.2c0.7,0,1.3,0.1,1.8,0.3
	c1.4,0.4,2.2,1.3,2.6,2.7c0.2,0.7,0.2,1.5,0.3,2.1c0,1.1,0,2.2,0.1,3.3v1.2v0.1c0,0.3,0,0.6,0,1c0,0.7,0,1.5,0,2.2
	c0,1.1-0.1,1.9-0.2,2.8c-0.1,1.2-0.6,2.2-1.5,2.9c-0.5,0.4-1.1,0.7-1.9,0.8c-0.7,0.1-1.4,0.2-2,0.2h-0.7c-1.5,0-3.1,0-4.6,0
	L94.9,98.5z M102.9,80c-1.1,0-1.9,0.9-1.9,1.9c0,0.5,0.2,1,0.6,1.4s0.8,0.6,1.4,0.6l0,0c0.5,0,1-0.2,1.4-0.6
	c0.3-0.4,0.5-0.9,0.5-1.3c0-0.5-0.2-1-0.5-1.3C104,80.3,103.5,80,102.9,80L102.9,80z M89.4,88.6c0,1.8,0.7,3.6,2,4.9s3,2.1,4.9,2.1
	l0,0c3.8,0,6.8-3.1,6.9-6.8c0-1.8-0.7-3.6-2-4.9s-3-2-4.8-2h-0.1C92.5,81.8,89.5,84.9,89.4,88.6z M92.5,88.7c0-2.1,1.7-3.7,3.7-3.7
	l0,0c1,0,1.9,0.4,2.6,1.1s1.1,1.7,1.1,2.7c0,2.1-1.7,3.7-3.7,3.7C94.2,92.4,92.5,90.7,92.5,88.7z"/>
<g>
	<defs>
		<rect id="SVGID_1_" x="7.8" y="141.9" width="33.1" height="23.9"/>
	</defs>
	<clipPath id="SVGID_00000100344949504400809570000010702845115296403605_">
		<use xlink:href="#SVGID_1_"  style="overflow:visible;"/>
	</clipPath>
	<g style="clip-path:url(#SVGID_00000100344949504400809570000010702845115296403605_);">
		<path class="st7" d="M36.5,142H12.2c-2.4,0-4.3,1.9-4.3,4.3v15.1c0,2.4,1.9,4.3,4.3,4.3h24.3c2.4,0,4.3-1.9,4.3-4.3v-15.1
			C40.8,143.9,38.9,142,36.5,142z M28.2,154.9l-6.8,3.4c-0.8,0.4-1.7-0.2-1.7-1v-6.7c0-0.9,0.9-1.4,1.7-1l6.8,3.4
			C29.1,153.3,29.1,154.5,28.2,154.9z"/>
	</g>
</g>
<g>
	<defs>
		<rect id="SVGID_00000044857066044270050760000005059804946466159023_" x="45.5" y="141.9" width="33.1" height="23.9"/>
	</defs>
	<defs>
		<path id="SVGID_00000159463038026597893100000010962118695913089932_" d="M74.2,142H49.9c-2.4,0-4.3,1.9-4.3,4.3v15.1
			c0,2.4,1.9,4.3,4.3,4.3h24.3c2.4,0,4.3-1.9,4.3-4.3v-15.1C78.6,143.9,76.6,142,74.2,142z M66,154.9l-6.8,3.4
			c-0.8,0.4-1.7-0.2-1.7-1v-6.7c0-0.9,0.9-1.4,1.7-1l6.8,3.4C66.8,153.3,66.8,154.5,66,154.9z"/>
	</defs>
	<clipPath id="SVGID_00000048493943309197496500000007354532762744847033_">
		<use xlink:href="#SVGID_00000044857066044270050760000005059804946466159023_"  style="overflow:visible;"/>
	</clipPath>
	
		<clipPath id="SVGID_00000072270906157482833350000004486589325663307931_" style="clip-path:url(#SVGID_00000048493943309197496500000007354532762744847033_);">
		<use xlink:href="#SVGID_00000159463038026597893100000010962118695913089932_"  style="overflow:visible;"/>
	</clipPath>
	
		<rect x="43.6" y="140" style="clip-path:url(#SVGID_00000072270906157482833350000004486589325663307931_);fill:#B3522C;" width="37.3" height="26.2"/>
</g>
<g>
	<defs>
		<rect id="SVGID_00000066484444271532568360000004674205312150740154_" x="83.4" y="141.9" width="33.1" height="23.9"/>
	</defs>
	<defs>
		<path id="SVGID_00000135666585138253161720000010955118947476456097_" d="M112.1,142H87.8c-2.4,0-4.3,1.9-4.3,4.3v15.1
			c0,2.4,1.9,4.3,4.3,4.3h24.3c2.4,0,4.3-1.9,4.3-4.3v-15.1C116.5,143.9,114.5,142,112.1,142z M103.9,154.9l-6.8,3.4
			c-0.8,0.4-1.7-0.2-1.7-1v-6.7c0-0.9,0.9-1.4,1.7-1l6.8,3.4C104.8,153.3,104.8,154.5,103.9,154.9z"/>
	</defs>
	<clipPath id="SVGID_00000111171479480417483540000011252480233178896513_">
		<use xlink:href="#SVGID_00000066484444271532568360000004674205312150740154_"  style="overflow:visible;"/>
	</clipPath>
	
		<clipPath id="SVGID_00000133530577546181361230000008379463697551350158_" style="clip-path:url(#SVGID_00000111171479480417483540000011252480233178896513_);">
		<use xlink:href="#SVGID_00000135666585138253161720000010955118947476456097_"  style="overflow:visible;"/>
	</clipPath>
	
		<rect x="82.6" y="140.4" style="clip-path:url(#SVGID_00000133530577546181361230000008379463697551350158_);" width="36.9" height="27.6"/>
</g>
<g>
	<path class="st12" d="M11.2,174.5h21.3c1.5,0,2.7,1.2,2.7,2.7v16c0,1.5-1.2,2.7-2.7,2.7H11.2c-1.5,0-2.7-1.2-2.7-2.7v-16
		C8.6,175.7,9.7,174.5,11.2,174.5z"/>
	<path class="st12" d="M35.2,177.1l-13.3,9.3l-13.3-9.3"/>
</g>
<g>
	<path class="st13" d="M49,174.5h21.3c1.5,0,2.7,1.2,2.7,2.7v16c0,1.5-1.2,2.7-2.7,2.7H49c-1.5,0-2.7-1.2-2.7-2.7v-16
		C46.3,175.7,47.5,174.5,49,174.5z"/>
	<path class="st13" d="M73,177.1l-13.3,9.3l-13.3-9.3"/>
</g>
<g>
	<path class="st14" d="M86.8,174.5h21.3c1.5,0,2.7,1.2,2.7,2.7v16c0,1.5-1.2,2.7-2.7,2.7H86.8c-1.5,0-2.7-1.2-2.7-2.7v-16
		C84.2,175.7,85.4,174.5,86.8,174.5z"/>
	<path class="st14" d="M110.8,177.1l-13.3,9.3l-13.3-9.3"/>
</g>
</svg>
