<svg width="350" height="56" viewBox="0 0 350 56" fill="none" xmlns="http://www.w3.org/2000/svg">
<g clip-path="url(#clip0_1126_8420)">
<path fill-rule="evenodd" clip-rule="evenodd" d="M39.859 48.2967V7.69531H0V48.2967H39.859ZM2.26255 45.992V9.99997H37.5964V45.992H2.26255Z" fill="#B3522C"/>
<path fill-rule="evenodd" clip-rule="evenodd" d="M65.8236 32.6817V39.7724H64.665L63.0958 38.462C62.3873 39.0977 61.5582 39.5785 60.6599 39.8746C59.6533 40.2104 58.5989 40.3737 57.5398 40.3578C56.0339 40.3781 54.542 40.0608 53.1698 39.4285C51.7604 38.7313 50.5037 37.7514 49.475 36.5477C48.4012 35.3779 47.5477 34.0171 46.957 32.533C46.3891 31.0788 46.104 29.5259 46.1177 27.9609C46.1051 26.414 46.3902 24.8796 46.957 23.4444C47.5657 21.9613 48.4309 20.6015 49.5115 19.4298C50.5529 18.2378 51.8186 17.2708 53.2337 16.5861C54.62 15.9576 56.1229 15.6407 57.6402 15.6568C58.5687 15.6538 59.4921 15.7981 60.3771 16.0843C61.2696 16.3754 62.1127 16.8048 62.8769 17.3575L64.1359 16.1308H65.3127L65.4587 22.6359H64.2088C63.6737 20.9193 62.734 19.3623 61.4719 18.1009C60.3677 17.1518 58.9564 16.6549 57.5124 16.707C55.6878 16.707 54.5109 17.311 53.8632 18.5005C53.2154 19.6901 52.9052 22.701 52.9052 27.5055C52.9052 30.0425 52.9052 31.929 52.9965 33.1836C53.0033 34.0989 53.1011 35.0112 53.2884 35.9064C53.4656 36.8998 53.971 37.8016 54.7208 38.462C55.5372 39.0304 56.5164 39.3051 57.5033 39.2426C59.1544 39.2348 60.7366 38.5675 61.9098 37.384C63.2256 36.1196 64.1082 34.4583 64.4278 32.6446L65.8236 32.6817ZM78.5322 37.6257C77.8986 38.414 77.1008 39.0489 76.1966 39.4843C75.2423 39.8956 74.2128 40.0952 73.1769 40.0697C72.1821 40.1225 71.2046 39.7906 70.4399 39.1404C70.104 38.7972 69.8433 38.3854 69.675 37.9321C69.5068 37.4787 69.4348 36.9942 69.4638 36.5105C69.479 35.7198 69.7154 34.9501 70.1453 34.2916C70.5751 33.6331 71.1806 33.1133 71.8905 32.7933C73.9331 31.7836 76.1912 31.3108 78.4592 31.4179V27.9795C78.4966 27.6954 78.4718 27.4065 78.3866 27.1333C78.3014 26.8602 78.158 26.6096 77.9665 26.3996C77.3901 26.078 76.7325 25.9388 76.078 26C75.6125 25.9783 75.1473 26.051 74.7096 26.2138C74.5791 26.2571 74.4646 26.3399 74.3815 26.4511C74.2984 26.5624 74.2505 26.6968 74.2443 26.8364C74.3207 27.0864 74.4312 27.3241 74.5727 27.5427C74.7776 27.9081 74.8875 28.3207 74.892 28.7415C74.9091 29.0351 74.8624 29.3289 74.7552 29.602C74.6479 29.8751 74.4828 30.1207 74.2716 30.3213C73.7692 30.7221 73.1381 30.9176 72.5018 30.8696C72.2175 30.889 71.9323 30.8487 71.6639 30.7511C71.3956 30.6536 71.1498 30.501 70.9417 30.3027C70.7477 30.0775 70.5994 29.8154 70.5055 29.5314C70.4115 29.2475 70.3737 28.9474 70.3943 28.6486C70.3997 28.0846 70.5654 27.5343 70.8714 27.0642C71.1774 26.5942 71.6107 26.2245 72.1186 26C73.6501 25.3 75.3231 24.9815 76.9995 25.0707C77.8461 25.0627 78.6918 25.1311 79.5266 25.2752C80.1607 25.3788 80.7758 25.5794 81.3512 25.8699C81.8302 26.0893 82.2292 26.4567 82.4916 26.9201C82.7545 27.6411 82.8633 28.411 82.8109 29.1783V36.5198C82.7865 36.8519 82.8804 37.1818 83.0755 37.4491C83.1912 37.5552 83.3269 37.6363 83.4743 37.6875C83.6217 37.7386 83.7778 37.7587 83.933 37.7465C84.115 37.7385 84.2915 37.6807 84.4439 37.5792C84.5558 37.4974 84.6832 37.4404 84.818 37.4119C84.8631 37.4118 84.9077 37.4217 84.9487 37.441C84.9896 37.4603 85.026 37.4884 85.0552 37.5234C85.0912 37.5578 85.1196 37.5997 85.1385 37.6461C85.1574 37.6926 85.1663 37.7427 85.1647 37.7929C85.1647 38.239 84.8271 38.7222 84.152 39.2519C83.48 39.7689 82.6584 40.0435 81.8165 40.0326C81.0851 40.0496 80.3691 39.8174 79.782 39.3728C79.1994 38.9347 78.763 38.3248 78.5322 37.6257ZM78.4227 32.468H78.003C76.9547 32.3778 75.9032 32.5972 74.9741 33.0999C74.6684 33.3542 74.4293 33.6816 74.278 34.053C74.1268 34.4243 74.0682 34.828 74.1074 35.2281C74.0444 35.993 74.2064 36.7597 74.5727 37.4305C74.7475 37.6627 74.9773 37.8459 75.2406 37.9629C75.5039 38.0799 75.792 38.127 76.078 38.0996C76.3927 38.1124 76.7063 38.056 76.9976 37.9341C77.2889 37.8122 77.5509 37.6278 77.7658 37.3933C78.2127 36.8838 78.4482 36.2175 78.4227 35.5347V32.4866V32.468ZM92.8099 34.0199C92.7397 35.3439 93.1093 36.6533 93.859 37.7372C94.16 38.1782 94.5631 38.5369 95.0324 38.7816C95.5018 39.0264 96.0231 39.1496 96.5504 39.1404C96.8241 39.1723 97.1013 39.1466 97.3649 39.0651C97.6285 38.9836 97.8729 38.8479 98.083 38.6665C98.4306 38.1428 98.5857 37.5109 98.5209 36.8822V28.5649C98.5782 27.9192 98.4414 27.271 98.1286 26.7063C97.9642 26.5162 97.7574 26.369 97.5257 26.2768C97.294 26.1847 97.0441 26.1503 96.7967 26.1766C96.2393 26.1584 95.6856 26.2752 95.1812 26.5176C94.6768 26.7599 94.2362 27.1208 93.8955 27.5706C93.1289 28.6477 92.7459 29.959 92.8099 31.2878V34.0014V34.0199ZM86.0314 39.7352V38.6479H87.9563V17.2367H86.0314V16.1494C87.1353 16.1494 88.2483 16.0564 89.3796 15.9821C90.5108 15.9078 91.6512 15.8241 92.8099 15.7126V27.8772C93.2744 27.0394 93.9438 26.3383 94.7531 25.8421C95.5493 25.3781 96.4544 25.1436 97.3714 25.1637C98.2624 25.1435 99.1467 25.3247 99.9607 25.6943C100.775 26.0639 101.498 26.6126 102.079 27.3011C103.334 28.8091 103.986 30.7435 103.904 32.7189C103.961 34.6766 103.286 36.5833 102.015 38.0531C101.439 38.7408 100.72 39.2905 99.9113 39.6632C99.1023 40.0358 98.2227 40.2222 97.3349 40.2091C96.4161 40.23 95.5086 39.9989 94.7075 39.54C93.8987 39.0502 93.2315 38.3513 92.7734 37.5141V39.7724L86.0314 39.7352ZM107.626 19.402C107.62 19.0694 107.682 18.7393 107.808 18.4323C107.934 18.1252 108.12 17.8479 108.356 17.6177C108.586 17.3789 108.862 17.1899 109.166 17.0622C109.47 16.9344 109.797 16.8705 110.126 16.8743C110.446 16.8676 110.764 16.9294 111.06 17.0559C111.355 17.1824 111.621 17.3706 111.841 17.6084C112.071 17.8434 112.252 18.1235 112.372 18.4318C112.493 18.7401 112.551 19.0702 112.543 19.402C112.549 19.7371 112.489 20.0699 112.367 20.3811C112.245 20.6923 112.063 20.9755 111.832 21.2141C111.61 21.4555 111.342 21.6465 111.043 21.7746C110.744 21.9028 110.422 21.9651 110.098 21.9576C109.77 21.965 109.444 21.9027 109.141 21.7747C108.838 21.6467 108.564 21.4558 108.337 21.2141C108.106 20.9755 107.924 20.6923 107.802 20.3811C107.68 20.0699 107.62 19.7371 107.626 19.402ZM105.628 39.7352V38.6479H107.726V26.6877H105.409V25.6004C106.695 25.6004 107.945 25.5075 109.14 25.4332C110.335 25.3588 111.512 25.2659 112.634 25.1637V38.6851H114.842V39.7724L105.628 39.7352ZM115.572 38.6479H117.716V26.5669H115.362V25.4425C116.612 25.4425 117.835 25.4425 119.012 25.3774C120.188 25.3124 121.402 25.2752 122.588 25.1915V28.7879C123.136 27.6704 123.952 26.7116 124.96 26C125.959 25.4014 127.104 25.1049 128.262 25.1451C128.83 25.0773 129.405 25.1244 129.955 25.2839C130.504 25.4434 131.017 25.7121 131.465 26.0744C132.067 26.7342 132.377 28.1096 132.377 30.2284V38.5921H134.448V39.6794H125.79V38.5921H127.615V28.6392C127.659 28.1333 127.537 27.6267 127.268 27.1988C127.129 27.0423 126.956 26.9213 126.763 26.8454C126.569 26.7695 126.361 26.741 126.155 26.7621C125.661 26.8011 125.184 26.9641 124.767 27.2366C124.35 27.509 124.006 27.8823 123.765 28.3233C123.05 29.366 122.673 30.6107 122.688 31.8825V38.6851H124.513V39.7724H115.663V38.6851L115.572 38.6479ZM135.05 38.6479H137.221V26.6877H134.913V25.6004H137.267V24.8941C137.138 22.4397 137.938 20.0282 139.502 18.1567C140.28 17.3201 141.227 16.6652 142.278 16.2369C143.328 15.8086 144.457 15.617 145.587 15.6754C146.916 15.6089 148.237 15.9314 149.392 16.6047C149.817 16.8464 150.172 17.1995 150.419 17.6275C150.666 18.0555 150.796 18.543 150.797 19.0395C150.803 19.3371 150.749 19.6329 150.638 19.9081C150.526 20.1833 150.36 20.4318 150.149 20.6379C149.933 20.8549 149.676 21.0246 149.394 21.1365C149.111 21.2484 148.809 21.3001 148.507 21.2885C148.217 21.3061 147.927 21.2609 147.656 21.156C147.384 21.051 147.138 20.8887 146.933 20.6797C146.728 20.4707 146.568 20.2198 146.465 19.9435C146.362 19.6672 146.318 19.3718 146.335 19.0767C146.347 18.7249 146.411 18.3769 146.527 18.0452C146.62 17.7997 146.684 17.5439 146.718 17.2831C146.719 17.1887 146.692 17.0964 146.639 17.0184C146.587 16.9403 146.513 16.8804 146.427 16.8464C146.159 16.7438 145.873 16.6964 145.587 16.707C145.065 16.6706 144.543 16.7836 144.08 17.0332C143.618 17.2827 143.233 17.659 142.969 18.1195C142.323 19.5755 142.044 21.1725 142.157 22.7661C142.157 23.1006 142.157 23.4351 142.157 23.7883C142.157 24.1414 142.157 24.318 142.157 24.3459V25.6562H145.861C147.156 25.6562 148.315 25.6562 149.319 25.5447C150.322 25.4332 151.262 25.3588 152.056 25.2194V38.7408H154.072V39.8281H145.286V38.7408H147.22V26.6877H142.148V38.6851H143.899V39.7724H135.086V38.6851L135.05 38.6479ZM161.425 30.9346H166.133V28.1467C166.16 27.843 166.123 27.5369 166.026 27.2485C165.928 26.9602 165.772 26.6962 165.567 26.474C165.041 26.0803 164.392 25.8983 163.742 25.9629C163.11 25.911 162.481 26.1034 161.981 26.5019C161.774 26.7175 161.615 26.976 161.514 27.2598C161.414 27.5435 161.374 27.846 161.398 28.1467V30.9346H161.425ZM170.128 34.9399L170.95 35.2188C170.492 36.7075 169.581 38.0093 168.349 38.936C167.031 39.7921 165.486 40.2139 163.925 40.1441C161.771 40.2557 159.654 39.5393 157.995 38.1368C157.263 37.4663 156.686 36.6399 156.305 35.7162C155.923 34.7926 155.746 33.7945 155.787 32.7933C155.761 31.7657 155.952 30.7444 156.347 29.7986C156.742 28.8527 157.332 28.0042 158.077 27.3103C159.648 25.8439 161.722 25.0633 163.852 25.1358C164.771 25.0828 165.691 25.2148 166.559 25.5241C167.428 25.8334 168.229 26.3141 168.915 26.9386C169.539 27.5848 170.024 28.3567 170.338 29.2049C170.653 30.0531 170.789 30.9588 170.74 31.8639V32.0498H161.425V35.6183C161.325 36.6149 161.55 37.6173 162.064 38.4713C162.354 38.759 162.704 38.9774 163.087 39.1108C163.47 39.2442 163.878 39.2892 164.281 39.2426C165.564 39.2885 166.828 38.9104 167.884 38.1646C168.931 37.3498 169.714 36.2326 170.128 34.9585V34.9399ZM172.309 38.6572H174.38V17.2367H172.099V16.1494C173.376 16.1494 174.617 16.0472 175.821 15.9728C177.026 15.8985 178.193 15.8056 179.306 15.7126V38.6851H181.551V39.7724H172.318V38.6851L172.309 38.6572ZM194.469 34.0106V31.2971C194.535 29.9666 194.148 28.6537 193.374 27.5799C193.041 27.1332 192.608 26.7738 192.112 26.5314C191.615 26.289 191.069 26.1705 190.519 26.1859C190.263 26.1566 190.004 26.1894 189.763 26.2814C189.522 26.3735 189.306 26.5222 189.132 26.7156C188.816 27.376 188.687 28.1127 188.758 28.8437V36.399C188.688 37.1529 188.823 37.9119 189.15 38.5921C189.313 38.7958 189.524 38.9543 189.763 39.0534C190.003 39.1524 190.262 39.1887 190.519 39.159C191.069 39.1744 191.615 39.0559 192.112 38.8135C192.608 38.5711 193.041 38.2117 193.374 37.765C194.147 36.6905 194.533 35.3781 194.469 34.0478V34.0106ZM194.469 39.7259V37.4677C193.994 38.298 193.323 38.9944 192.517 39.4936C191.709 39.9523 190.796 40.1833 189.871 40.1627C188.983 40.1758 188.104 39.9894 187.295 39.6167C186.486 39.2441 185.767 38.6944 185.191 38.0067C183.913 36.5402 183.235 34.632 183.293 32.6725C183.224 30.691 183.892 28.7562 185.163 27.2546C185.744 26.5661 186.468 26.0174 187.282 25.6478C188.096 25.2782 188.98 25.097 189.871 25.1172C190.797 25.0972 191.711 25.3315 192.517 25.7956C193.325 26.2958 193.997 26.9958 194.469 27.8308V17.2367H191.732V16.1494C193.21 16.1494 194.588 16.0564 195.847 15.9821C197.106 15.9078 198.255 15.8148 199.286 15.7126V38.6851H201.211V39.7724L194.469 39.7259Z" fill="#B3522C"/>
<path d="M223.352 0H221.09V56H223.352V0Z" fill="#B3522C"/>
<path fill-rule="evenodd" clip-rule="evenodd" d="M252.518 17.5999C252.168 17.2885 251.767 17.0431 251.332 16.8751C250.916 16.7141 250.473 16.6322 250.028 16.6335C249.63 16.6182 249.233 16.6871 248.862 16.8359C248.492 16.9846 248.155 17.21 247.875 17.4977C247.348 18.115 247.058 18.9054 247.058 19.7234C247.058 20.5414 247.348 21.3318 247.875 21.9491C248.137 22.2301 248.455 22.4521 248.807 22.6009C249.159 22.7498 249.537 22.8221 249.918 22.8133C250.387 22.8168 250.851 22.7285 251.287 22.5531C251.739 22.3636 252.158 22.0999 252.527 21.7725V23.2873C252.182 23.5486 251.792 23.7438 251.378 23.8635C250.94 23.9971 250.485 24.0628 250.028 24.0586C249.442 24.0653 248.861 23.9613 248.313 23.7519C247.795 23.5452 247.325 23.2335 246.93 22.8357C246.534 22.4379 246.223 21.9623 246.014 21.4379C245.803 20.8969 245.698 20.3193 245.703 19.7373C245.699 19.1524 245.804 18.572 246.014 18.0274C246.222 17.505 246.533 17.0308 246.926 16.6335C247.318 16.2274 247.791 15.9106 248.313 15.7041C248.846 15.4881 249.417 15.3808 249.991 15.3882C250.452 15.3874 250.911 15.4595 251.351 15.6019C251.796 15.7549 252.217 15.9741 252.6 16.2524L252.527 17.5999H252.518ZM256.651 23.8356V15.1094H257.846V23.8356H256.651ZM267.042 23.8356H265.847V23.1479C265.654 23.4337 265.398 23.6693 265.099 23.8356C264.793 23.9887 264.455 24.0652 264.114 24.0586C263.784 24.073 263.455 24.0111 263.151 23.8775C262.848 23.744 262.578 23.5422 262.362 23.2873C261.91 22.6765 261.684 21.923 261.724 21.1592C261.689 20.4159 261.923 19.6854 262.38 19.1054C262.585 18.8499 262.844 18.6457 263.138 18.5087C263.433 18.3718 263.754 18.3056 264.077 18.3155C264.462 18.3054 264.843 18.3983 265.181 18.585C265.48 18.7689 265.714 19.0458 265.847 19.3749V18.5014H267.042V23.8356ZM265.884 21.1499C265.911 20.6894 265.775 20.2343 265.501 19.8674C265.372 19.7109 265.21 19.5873 265.026 19.5066C264.842 19.4259 264.642 19.3904 264.442 19.4028C264.24 19.3922 264.039 19.4295 263.854 19.5117C263.669 19.594 263.505 19.7189 263.375 19.8767C263.093 20.2545 262.954 20.7228 262.983 21.1963C262.954 21.6641 263.086 22.1274 263.357 22.5067C263.485 22.6632 263.648 22.7868 263.831 22.8675C264.015 22.9482 264.215 22.9838 264.415 22.9713C264.617 22.9771 264.818 22.9348 265.002 22.8477C265.186 22.7606 265.347 22.6311 265.473 22.4695C265.761 22.0939 265.906 21.6256 265.884 21.1499ZM270.646 22.8691L271.64 22.3208C271.702 22.5656 271.848 22.7798 272.051 22.9248C272.279 23.0738 272.546 23.1484 272.817 23.1386C273.046 23.1527 273.272 23.0836 273.456 22.9434C273.529 22.8815 273.588 22.8032 273.628 22.7147C273.667 22.6261 273.687 22.5296 273.684 22.4323C273.684 22.1442 273.41 21.8933 272.863 21.6889C272.68 21.6145 272.534 21.5681 272.443 21.5216C272.007 21.3627 271.607 21.1162 271.266 20.7968C271.15 20.674 271.06 20.528 271.002 20.3681C270.944 20.2081 270.919 20.0377 270.929 19.8674C270.924 19.6449 270.971 19.4244 271.066 19.224C271.161 19.0236 271.302 18.8492 271.476 18.7151C271.841 18.4677 272.261 18.3177 272.698 18.2787C273.135 18.2397 273.574 18.3131 273.976 18.4921C274.251 18.6313 274.473 18.8603 274.605 19.1426L273.757 19.7466C273.696 19.5767 273.58 19.4327 273.429 19.3377C273.267 19.2359 273.08 19.1842 272.89 19.189C272.692 19.1816 272.496 19.2403 272.334 19.3563C272.268 19.4092 272.216 19.4772 272.181 19.5547C272.146 19.6323 272.129 19.7172 272.133 19.8024C272.133 20.0719 272.443 20.3321 273.045 20.5551L273.502 20.7317C273.892 20.8654 274.245 21.0915 274.532 21.3915C274.748 21.6505 274.862 21.9815 274.852 22.3208C274.863 22.5617 274.817 22.8018 274.716 23.0204C274.616 23.239 274.466 23.4294 274.277 23.5754C273.82 23.905 273.267 24.0657 272.708 24.0307C272.264 24.046 271.824 23.9435 271.431 23.7333C271.077 23.5164 270.799 23.1912 270.637 22.804L270.646 22.8691ZM278.017 22.8691L279.012 22.3208C279.074 22.5656 279.219 22.7798 279.422 22.9248C279.651 23.0738 279.918 23.1484 280.189 23.1386C280.415 23.1513 280.638 23.0822 280.818 22.9434C280.893 22.8829 280.953 22.8049 280.993 22.716C281.033 22.6271 281.051 22.5299 281.046 22.4323C281.046 22.1442 280.773 21.8933 280.234 21.6889L279.806 21.5216C279.372 21.3582 278.972 21.1122 278.629 20.7968C278.516 20.6722 278.428 20.5258 278.372 20.3661C278.315 20.2065 278.291 20.0369 278.3 19.8674C278.295 19.6449 278.342 19.4244 278.437 19.224C278.533 19.0236 278.673 18.8492 278.848 18.7151C279.269 18.3989 279.785 18.2413 280.307 18.269C280.666 18.2596 281.023 18.336 281.347 18.4921C281.619 18.6368 281.839 18.8642 281.977 19.1426L281.128 19.7466C281.067 19.5767 280.951 19.4327 280.8 19.3377C280.636 19.2347 280.445 19.183 280.253 19.189C280.057 19.1786 279.863 19.2378 279.705 19.3563C279.638 19.4087 279.585 19.4764 279.548 19.5539C279.512 19.6314 279.494 19.7165 279.495 19.8024C279.495 20.0719 279.806 20.3321 280.408 20.5551L280.855 20.7317C281.246 20.8687 281.602 21.0943 281.895 21.3915C282.108 21.6514 282.218 21.9826 282.205 22.3208C282.216 22.5607 282.17 22.7998 282.072 23.018C281.973 23.2363 281.825 23.4274 281.639 23.5754C281.182 23.9037 280.629 24.0642 280.07 24.0307C279.626 24.046 279.186 23.9435 278.793 23.7333C278.439 23.5164 278.161 23.1912 277.999 22.804L278.017 22.8691ZM285.882 16.1967C285.88 16.0955 285.9 15.9952 285.939 15.9023C285.978 15.8094 286.036 15.726 286.11 15.6577C286.178 15.5852 286.26 15.5279 286.351 15.4895C286.442 15.4511 286.54 15.4325 286.639 15.4346C286.738 15.4307 286.837 15.4478 286.93 15.4847C287.022 15.5216 287.106 15.5776 287.176 15.6491C287.247 15.7207 287.302 15.8063 287.338 15.9005C287.374 15.9947 287.391 16.0956 287.387 16.1967C287.389 16.2984 287.37 16.3994 287.333 16.4937C287.295 16.5879 287.239 16.6734 287.168 16.745C287.1 16.8179 287.018 16.8755 286.927 16.9139C286.836 16.9523 286.737 16.9707 286.639 16.968C286.439 16.9633 286.25 16.8805 286.109 16.7369C285.968 16.5932 285.886 16.3998 285.882 16.1967ZM286.037 23.8356V18.5014H287.268V23.8356H286.037ZM295.415 20.0254C295.236 19.8253 295.019 19.6641 294.777 19.5515C294.527 19.4392 294.256 19.3822 293.983 19.3842C293.762 19.3755 293.542 19.415 293.338 19.4999C293.133 19.5849 292.949 19.7133 292.797 19.8767C292.51 20.2437 292.353 20.6992 292.353 21.1685C292.353 21.6378 292.51 22.0932 292.797 22.4602C292.956 22.6265 293.148 22.7558 293.361 22.8393C293.573 22.9227 293.801 22.9582 294.029 22.9434C294.296 22.9485 294.561 22.8912 294.804 22.7762C295.04 22.6581 295.246 22.4864 295.406 22.2743V23.6869C295.183 23.8164 294.944 23.9134 294.695 23.975C294.431 24.0355 294.162 24.0666 293.892 24.0679C293.522 24.08 293.153 24.0153 292.808 23.878C292.463 23.7406 292.149 23.5333 291.885 23.2687C291.623 22.9957 291.419 22.6709 291.286 22.3144C291.153 21.958 291.092 21.5774 291.109 21.1963C291.095 20.8117 291.159 20.4282 291.297 20.0699C291.435 19.7116 291.644 19.3864 291.912 19.1147C292.192 18.8472 292.523 18.6396 292.883 18.504C293.243 18.3683 293.627 18.3074 294.01 18.3248C294.265 18.3225 294.519 18.3506 294.768 18.4084C294.99 18.4627 295.205 18.5471 295.406 18.6593V20.0347L295.415 20.0254ZM304.42 20.6016H306.673L305.843 18.743C305.787 18.6095 305.738 18.473 305.697 18.3341C305.636 18.1636 305.584 17.9899 305.542 17.8137C305.542 17.9902 305.451 18.1575 305.396 18.3155C305.341 18.4735 305.296 18.6129 305.25 18.743L304.42 20.6016ZM308.069 23.8356L307.157 21.7168H303.945L303.033 23.8356H301.656L305.515 15.3231L309.428 23.882L308.069 23.8356ZM313.862 23.8356H312.667V18.5014H313.798V19.3749C314.001 19.0404 314.28 18.7601 314.61 18.5571C314.943 18.3819 315.313 18.2956 315.687 18.3062C316.042 18.2906 316.394 18.381 316.7 18.5664C316.983 18.7587 317.197 19.0391 317.311 19.3656C317.554 19.0323 317.865 18.7565 318.223 18.5571C318.553 18.385 318.92 18.2987 319.291 18.3062C319.605 18.2971 319.918 18.3639 320.203 18.5014C320.454 18.6256 320.664 18.8228 320.805 19.0682C320.878 19.1974 320.928 19.3392 320.951 19.4864C320.974 19.715 320.974 19.9455 320.951 20.1741V23.8356H319.747V21.0477C319.789 20.5648 319.71 20.0789 319.519 19.6351C319.424 19.5156 319.303 19.4216 319.164 19.3616C319.026 19.3016 318.875 19.2774 318.725 19.2913C318.531 19.2735 318.336 19.3069 318.159 19.3883C317.981 19.4697 317.828 19.5963 317.712 19.7559C317.47 20.2538 317.366 20.8098 317.411 21.3636V23.7891H316.198V21.0012C316.236 20.5335 316.157 20.0637 315.97 19.6351C315.879 19.5043 315.756 19.3995 315.614 19.3312C315.472 19.2628 315.315 19.233 315.158 19.2448C314.931 19.2415 314.708 19.2992 314.51 19.4121C314.322 19.5204 314.162 19.6734 314.045 19.8581C313.97 20.0007 313.918 20.1544 313.89 20.3135C313.868 20.6477 313.868 20.983 313.89 21.3172V23.7426L313.862 23.8356ZM325.02 16.1967C325.019 16.0964 325.038 15.997 325.075 15.9044C325.113 15.8118 325.169 15.7278 325.239 15.6577C325.309 15.5858 325.393 15.529 325.486 15.4907C325.578 15.4524 325.677 15.4334 325.777 15.4346C325.875 15.4323 325.972 15.4501 326.063 15.4868C326.154 15.5235 326.237 15.5785 326.306 15.6484C326.378 15.7193 326.435 15.8047 326.472 15.8991C326.51 15.9935 326.528 16.0948 326.525 16.1967C326.527 16.2984 326.508 16.3994 326.471 16.4937C326.433 16.5879 326.377 16.6734 326.306 16.745C326.238 16.8174 326.156 16.8747 326.065 16.9131C325.974 16.9515 325.876 16.9702 325.777 16.968C325.676 16.9697 325.576 16.9499 325.484 16.9099C325.391 16.8699 325.308 16.8105 325.239 16.7357C325.168 16.6662 325.111 16.5824 325.074 16.4896C325.036 16.3968 325.018 16.2971 325.02 16.1967ZM325.175 23.8356V18.5014H326.379V23.8356H325.175ZM330.038 22.9063L331.032 22.358C331.094 22.6028 331.239 22.817 331.443 22.962C331.67 23.1121 331.938 23.1868 332.209 23.1758C332.435 23.1885 332.658 23.1193 332.838 22.9806C332.914 22.9201 332.974 22.8421 333.013 22.7532C333.053 22.6643 333.071 22.567 333.067 22.4695C333.067 22.1814 332.793 21.9305 332.255 21.7261L331.826 21.5588C331.392 21.3953 330.993 21.1493 330.649 20.8339C330.536 20.7094 330.448 20.5629 330.392 20.4033C330.335 20.2436 330.311 20.074 330.32 19.9046C330.315 19.6821 330.362 19.4615 330.458 19.2611C330.553 19.0608 330.693 18.8864 330.868 18.7523C331.286 18.4375 331.799 18.2799 332.318 18.3062C332.68 18.296 333.04 18.3724 333.368 18.5292C333.639 18.6739 333.859 18.9014 333.997 19.1797L333.149 19.7838C333.087 19.6139 332.972 19.4699 332.82 19.3749C332.656 19.2728 332.465 19.2212 332.273 19.2262C332.077 19.2158 331.883 19.2749 331.725 19.3935C331.659 19.4459 331.605 19.5136 331.568 19.591C331.532 19.6685 331.514 19.7536 331.516 19.8395C331.516 20.109 331.826 20.3693 332.428 20.5923L332.875 20.7688C333.266 20.9059 333.622 21.1315 333.915 21.4287C334.128 21.6886 334.238 22.0198 334.225 22.358C334.236 22.5979 334.19 22.8369 334.092 23.0552C333.993 23.2734 333.845 23.4646 333.659 23.6126C333.202 23.9408 332.649 24.1014 332.09 24.0679C331.646 24.0831 331.206 23.9807 330.813 23.7705C330.459 23.5536 330.181 23.2284 330.019 22.8412L330.038 22.9063ZM338.002 23.8356V15.1094H339.133V19.3749C339.344 19.0393 339.632 18.7616 339.973 18.5664C340.343 18.3895 340.75 18.3036 341.159 18.3155C341.502 18.3083 341.843 18.3716 342.162 18.5014C342.425 18.6219 342.648 18.8191 342.801 19.0682C342.896 19.2254 342.964 19.3984 343.002 19.5793C343.051 19.9176 343.073 20.2596 343.065 20.6016V23.8356H341.852V21.0477C341.9 20.5676 341.812 20.0837 341.597 19.6537C341.484 19.5243 341.342 19.4253 341.183 19.3653C341.024 19.3053 340.852 19.2863 340.684 19.3099C340.426 19.3029 340.17 19.357 339.936 19.4678C339.728 19.5606 339.551 19.7122 339.425 19.9046C339.326 20.0555 339.261 20.2268 339.234 20.4064C339.195 20.7145 339.18 21.0252 339.188 21.3357V23.7612L338.002 23.8356ZM252.537 32.1343C252.187 31.8229 251.785 31.5774 251.351 31.4094C250.935 31.2446 250.492 31.1625 250.046 31.1678C249.648 31.1525 249.251 31.2214 248.881 31.3702C248.51 31.5189 248.174 31.7443 247.893 32.0321C247.367 32.6478 247.077 33.4367 247.077 34.2531C247.077 35.0695 247.367 35.8584 247.893 36.4741C248.155 36.7568 248.472 36.9806 248.824 37.131C249.176 37.2815 249.555 37.3553 249.936 37.3477C250.404 37.3468 250.868 37.2586 251.305 37.0875C251.76 36.8981 252.179 36.6309 252.546 36.2976V37.8123C252.198 38.073 251.809 38.271 251.396 38.3978C250.958 38.5314 250.503 38.5972 250.046 38.593C249.46 38.5967 248.878 38.4895 248.331 38.277C247.81 38.0698 247.337 37.7531 246.944 37.3477C246.549 36.9517 246.239 36.4772 246.032 35.9537C245.821 35.4094 245.716 34.8288 245.722 34.2438C245.716 33.6618 245.821 33.0843 246.032 32.5432C246.241 32.0207 246.551 31.5466 246.944 31.1492C247.337 30.7431 247.809 30.4264 248.331 30.2199C248.865 30.0039 249.435 29.8966 250.009 29.9039C250.471 29.9032 250.929 29.9753 251.369 30.1177C251.817 30.267 252.241 30.483 252.628 30.7589L252.555 32.1064L252.537 32.1343ZM257.81 33.8814C257.909 33.5796 258.085 33.3102 258.321 33.1008C258.55 32.9287 258.83 32.8403 259.114 32.8498C259.283 32.8495 259.451 32.8682 259.616 32.9056C259.783 32.9511 259.945 33.0134 260.1 33.0915L259.671 34.123C259.569 34.0498 259.454 33.9962 259.333 33.965C259.203 33.9264 259.068 33.9076 258.932 33.9093C258.759 33.8983 258.586 33.938 258.434 34.0236C258.282 34.1092 258.157 34.2372 258.074 34.3925C257.865 34.9099 257.774 35.4694 257.81 36.0281V38.3699H256.615V32.9799H257.81V33.9093V33.8814ZM268.265 38.3699H267.061V37.6822C266.87 37.9676 266.613 38.2006 266.313 38.3606C265.859 38.5828 265.348 38.6495 264.854 38.5507C264.361 38.4518 263.912 38.1928 263.576 37.8123C263.156 37.1987 262.932 36.469 262.932 35.7214C262.932 34.9738 263.156 34.2442 263.576 33.6305C263.783 33.377 264.045 33.175 264.34 33.0397C264.636 32.9045 264.958 32.8395 265.282 32.8498C265.664 32.8349 266.043 32.9282 266.376 33.1193C266.678 33.2966 266.912 33.5714 267.042 33.9V33.0357H268.247V38.3699H268.265ZM267.097 35.6842C267.124 35.2209 266.988 34.763 266.714 34.3925C266.585 34.2371 266.422 34.1143 266.238 34.0337C266.055 33.9531 265.855 33.9168 265.656 33.9278C265.453 33.9212 265.252 33.9612 265.068 34.0449C264.883 34.1286 264.719 34.2538 264.588 34.4111C264.309 34.7903 264.17 35.2575 264.196 35.7307C264.166 36.2 264.302 36.6648 264.579 37.041C264.711 37.1933 264.873 37.3153 265.055 37.3988C265.236 37.4823 265.433 37.5255 265.633 37.5255C265.832 37.5255 266.029 37.4823 266.211 37.3988C266.393 37.3153 266.555 37.1933 266.687 37.041C266.974 36.6654 267.12 36.1972 267.097 35.7214V35.6842ZM272.635 38.3699V34.1044H271.723V33.0357H272.635V31.6046C272.589 31.0442 272.744 30.486 273.073 30.034C273.245 29.8534 273.455 29.7139 273.687 29.6255C273.919 29.5372 274.167 29.5021 274.414 29.5229C274.547 29.5096 274.682 29.5096 274.815 29.5229C274.954 29.5373 275.092 29.5653 275.226 29.6066V30.7124C275.134 30.6575 275.036 30.6138 274.934 30.5823C274.837 30.5682 274.739 30.5682 274.642 30.5823C274.524 30.5708 274.405 30.5904 274.296 30.6392C274.187 30.688 274.093 30.7644 274.022 30.8611C273.867 31.144 273.8 31.4681 273.83 31.7904V33.0636H275.098V34.1323H273.83V38.3978L272.635 38.3699ZM278.766 38.3699V34.1044H277.853V33.0357H278.766V31.0098H279.97V33.0357H280.882V34.1044H279.97V38.3699H278.766ZM283.856 37.4406L284.851 36.883C284.913 37.1299 285.059 37.3467 285.261 37.4964C285.49 37.6421 285.758 37.7134 286.028 37.7008C286.255 37.713 286.48 37.6476 286.666 37.515C286.74 37.4511 286.799 37.3712 286.838 37.2811C286.878 37.1911 286.897 37.0931 286.894 36.9946C286.894 36.7065 286.621 36.4648 286.073 36.2511C285.93 36.2033 285.79 36.1474 285.654 36.0838C285.217 35.9313 284.816 35.6876 284.477 35.3683C284.361 35.2455 284.271 35.0995 284.212 34.9396C284.154 34.7796 284.129 34.6092 284.139 34.439C284.134 34.2151 284.181 33.9932 284.276 33.7914C284.371 33.5895 284.512 33.4134 284.686 33.2773C285.109 32.9639 285.624 32.8066 286.146 32.8313C286.506 32.8226 286.863 32.9023 287.186 33.0636C287.464 33.1998 287.686 33.4297 287.816 33.7141L286.967 34.3088C286.904 34.1427 286.788 34.0024 286.639 33.9093C286.477 33.8074 286.29 33.7557 286.101 33.7606C285.906 33.7524 285.714 33.8078 285.553 33.9186C285.485 33.9699 285.431 34.0374 285.394 34.1151C285.357 34.1928 285.34 34.2785 285.343 34.3646C285.343 34.6434 285.654 34.8943 286.256 35.1266L286.712 35.3032C287.105 35.4363 287.461 35.6624 287.752 35.963C287.963 36.2238 288.074 36.5544 288.062 36.8923C288.072 37.133 288.025 37.3726 287.925 37.5909C287.825 37.8092 287.675 37.9999 287.487 38.1469C287.029 38.4738 286.477 38.6342 285.918 38.6022C285.477 38.6176 285.04 38.5151 284.65 38.3049C284.291 38.0915 284.009 37.7655 283.847 37.3756L283.856 37.4406ZM292.979 38.3699H291.83V33.0357H292.952V33.9093C293.156 33.572 293.438 33.2911 293.773 33.0915C294.104 32.9131 294.475 32.8235 294.85 32.8313C295.206 32.8184 295.558 32.9121 295.862 33.1008C296.15 33.2884 296.365 33.5703 296.474 33.9C296.717 33.5666 297.028 33.2908 297.386 33.0915C297.715 32.9164 298.082 32.8271 298.453 32.8313C298.768 32.8288 299.079 32.8954 299.366 33.0264C299.615 33.1537 299.824 33.3503 299.968 33.5933C300.038 33.7239 300.087 33.865 300.114 34.0115C300.148 34.2421 300.163 34.4752 300.159 34.7084V38.3699H298.955V35.6285C298.998 35.1464 298.923 34.661 298.736 34.2159C298.641 34.095 298.518 34.0002 298.378 33.9401C298.237 33.8801 298.085 33.8567 297.933 33.8721C297.741 33.855 297.547 33.8888 297.372 33.9702C297.196 34.0516 297.044 34.1779 296.93 34.3367C296.687 34.8313 296.583 35.3843 296.629 35.9351V38.3699H295.415V35.6285C295.453 35.1578 295.374 34.6852 295.187 34.2531C295.095 34.1239 294.972 34.0211 294.83 33.9543C294.688 33.8876 294.531 33.8593 294.375 33.8721C294.149 33.8687 293.925 33.9265 293.728 34.0394C293.538 34.1452 293.377 34.2987 293.262 34.4854C293.184 34.6262 293.131 34.7806 293.107 34.9408C293.07 35.2708 293.055 35.603 293.062 35.9351V38.3699H292.979ZM309.164 38.3699H307.969V37.6822C307.778 37.9676 307.521 38.2006 307.221 38.3606C306.768 38.5828 306.256 38.6495 305.763 38.5507C305.269 38.4518 304.82 38.1928 304.484 37.8123C304.023 37.2091 303.793 36.4564 303.836 35.6935C303.803 34.9476 304.037 34.2149 304.493 33.6305C304.7 33.377 304.962 33.175 305.257 33.0397C305.553 32.9045 305.875 32.8395 306.199 32.8498C306.581 32.8349 306.96 32.9282 307.294 33.1193C307.593 33.2993 307.826 33.5732 307.96 33.9V33.0357H309.164V38.3699ZM308.005 35.6842C308.032 35.2209 307.897 34.763 307.622 34.3925C307.486 34.2436 307.322 34.1248 307.139 34.0436C306.956 33.9624 306.759 33.9205 306.559 33.9205C306.36 33.9205 306.162 33.9624 305.979 34.0436C305.797 34.1248 305.632 34.2436 305.496 34.3925C305.213 34.7695 305.074 35.2384 305.104 35.7121C305.075 36.1799 305.208 36.6432 305.478 37.0224C305.61 37.1775 305.774 37.2999 305.959 37.3804C306.144 37.4609 306.345 37.4974 306.546 37.4871C306.747 37.4914 306.946 37.4484 307.128 37.3614C307.31 37.2743 307.47 37.1456 307.595 36.9853C307.882 36.6097 308.028 36.1414 308.005 35.6657V35.6842ZM313.37 38.3699V33.0357H314.501V33.9093C314.706 33.5695 314.996 33.2907 315.34 33.1008C315.711 32.9238 316.117 32.8379 316.526 32.8498C316.87 32.8427 317.211 32.9059 317.53 33.0357C317.789 33.1585 318.01 33.3514 318.168 33.5933C318.264 33.7538 318.332 33.9298 318.369 34.1137C318.42 34.4519 318.441 34.794 318.433 35.1359V38.3699H317.22V35.6285C317.269 35.1484 317.18 34.6641 316.964 34.2345C316.852 34.1041 316.71 34.0037 316.551 33.9422C316.392 33.8806 316.221 33.8597 316.052 33.8814C315.794 33.8797 315.539 33.9335 315.304 34.0394C315.097 34.1385 314.921 34.2926 314.793 34.4854C314.695 34.6337 314.63 34.8017 314.601 34.9779C314.578 35.2873 314.578 35.5979 314.601 35.9073V38.342L313.37 38.3699ZM321.973 37.4406L322.967 36.883C323.026 37.1316 323.172 37.3496 323.378 37.4964C323.607 37.6421 323.874 37.7134 324.144 37.7008C324.368 37.7131 324.59 37.6476 324.774 37.515C324.849 37.4525 324.909 37.3728 324.948 37.2824C324.988 37.192 325.006 37.0934 325.002 36.9946C325.002 36.7065 324.737 36.4648 324.19 36.2511L323.761 36.0838C323.326 35.9266 322.926 35.6834 322.584 35.3683C322.471 35.2438 322.383 35.0973 322.327 34.9376C322.271 34.778 322.246 34.6084 322.256 34.439C322.251 34.2151 322.298 33.9932 322.393 33.7914C322.488 33.5895 322.628 33.4134 322.803 33.2773C323.167 33.0282 323.588 32.8778 324.026 32.8404C324.463 32.803 324.903 32.8798 325.303 33.0636C325.578 33.2028 325.799 33.4318 325.932 33.7141L325.084 34.3088C325.02 34.1427 324.905 34.0024 324.755 33.9093C324.591 33.8062 324.401 33.7545 324.208 33.7606C324.014 33.7524 323.822 33.8078 323.661 33.9186C323.594 33.9715 323.541 34.0392 323.504 34.1166C323.468 34.194 323.45 34.2788 323.451 34.3646C323.451 34.6434 323.761 34.8943 324.363 35.1266L324.81 35.3032C325.203 35.4363 325.56 35.6624 325.85 35.963C326.065 36.2216 326.176 36.5537 326.16 36.8923C326.17 37.132 326.123 37.3706 326.025 37.5886C325.927 37.8066 325.779 37.9979 325.595 38.1469C325.135 38.4712 324.584 38.6314 324.025 38.6022C323.582 38.6175 323.142 38.515 322.748 38.3049C322.394 38.088 322.116 37.7628 321.955 37.3756L321.973 37.4406ZM329.937 38.3699V29.6437H331.059V33.9093C331.266 33.5668 331.559 33.2875 331.908 33.1008C332.598 32.79 333.381 32.7666 334.088 33.0357C334.349 33.1555 334.571 33.3491 334.727 33.5933C334.826 33.7519 334.894 33.9286 334.928 34.1137C334.983 34.4514 335.004 34.7939 334.991 35.1359V38.3699H333.796V35.6285C333.842 35.1496 333.757 34.667 333.55 34.2345C333.437 34.1048 333.296 34.0048 333.137 33.9433C332.978 33.8818 332.806 33.8605 332.638 33.8814C332.377 33.8783 332.119 33.9322 331.881 34.0394C331.676 34.1411 331.5 34.2946 331.37 34.4854C331.271 34.6324 331.209 34.8013 331.187 34.9779C331.145 35.2857 331.126 35.5965 331.132 35.9073V38.342L329.937 38.3699ZM339.06 30.7217C339.058 30.6236 339.076 30.526 339.112 30.4349C339.148 30.3439 339.202 30.2612 339.27 30.192C339.341 30.1202 339.425 30.0634 339.517 30.0251C339.61 29.9868 339.709 29.9677 339.809 29.969C339.907 29.9645 340.004 29.9812 340.096 30.018C340.187 30.0549 340.269 30.111 340.338 30.1827C340.409 30.2519 340.466 30.3356 340.503 30.4285C340.541 30.5213 340.559 30.6213 340.557 30.7217C340.56 30.825 340.542 30.9278 340.504 31.0237C340.466 31.1196 340.41 31.2067 340.338 31.2793C340.269 31.3518 340.187 31.4091 340.096 31.4474C340.005 31.4858 339.907 31.5045 339.809 31.5024C339.708 31.5019 339.609 31.4811 339.516 31.4412C339.424 31.4014 339.34 31.3432 339.27 31.27C339.199 31.1985 339.143 31.113 339.106 31.0187C339.068 30.9245 339.05 30.8235 339.051 30.7217H339.06ZM339.215 38.3699V33.0357H340.42V38.3699H339.215ZM345.839 35.6842C345.818 36.1612 345.96 36.6308 346.24 37.0131C346.371 37.1729 346.536 37.3002 346.723 37.3856C346.909 37.4709 347.113 37.5119 347.317 37.5057C347.515 37.5159 347.713 37.4793 347.895 37.3987C348.077 37.3181 348.238 37.1957 348.366 37.041C348.636 36.6618 348.769 36.1985 348.74 35.7307C348.77 35.2569 348.631 34.7881 348.348 34.4111C348.212 34.2622 348.048 34.1434 347.865 34.0622C347.682 33.981 347.484 33.9391 347.285 33.9391C347.085 33.9391 346.888 33.981 346.705 34.0622C346.522 34.1434 346.358 34.2622 346.222 34.4111C345.948 34.7816 345.812 35.2395 345.839 35.7028V35.6842ZM344.68 40.879V33.0357H345.875V33.9093C346.009 33.58 346.247 33.3054 346.55 33.1286C346.889 32.9419 347.27 32.849 347.654 32.8591C347.976 32.8489 348.295 32.914 348.587 33.0493C348.88 33.1847 349.138 33.3867 349.342 33.6397C349.798 34.2242 350.032 34.9569 349.999 35.7028C350.04 36.464 349.814 37.2151 349.36 37.8216C349.023 38.2008 348.574 38.4589 348.081 38.5577C347.588 38.6565 347.077 38.5906 346.623 38.3699C346.323 38.2099 346.066 37.9769 345.875 37.6915V40.8884L344.68 40.879Z" fill="#B3522C"/>
<path fill-rule="evenodd" clip-rule="evenodd" d="M26.6835 47.1252C26.6835 47.1252 26.6835 47.0601 26.7291 47.0322C27.4681 45.1736 36.3905 45.0714 38.9085 36.6426C40.0033 34.2543 40.0033 30.0352 39.7205 27.4425C39.4376 24.8497 38.5527 21.0489 36.9835 19.0787C36.6916 18.6884 36.3996 18.3167 36.0712 17.945C35.1589 16.8298 35.1589 16.5789 35.4143 15.1571C35.4279 14.9808 35.4279 14.8036 35.4143 14.6273C35.4143 12.9546 34.2374 11.2725 33.097 10.1574C31.9824 9.00365 30.5781 8.18394 29.0373 7.78766C28.8794 7.7739 28.7207 7.7739 28.5628 7.78766C14.7048 8.51252 8.55581 8.14079 5.39921 8.99575C4.53672 9.33791 3.75599 9.86387 3.1093 10.5384C2.25173 11.2447 0.892387 12.7966 1.02011 14.4508C1.19345 14.5716 1.25731 16.7183 1.47627 16.7369C2.45998 14.1375 4.09574 11.8465 6.2203 10.0923C8.34599 8.47533 11.4387 8.94928 14.7322 8.81918C20.1331 8.60544 26.0084 8.74483 28.5628 10.0923H28.7088C29.787 10.4087 30.7632 11.0117 31.537 11.8394C32.2212 12.5178 33.1609 13.6237 33.1609 14.6273C33.1609 14.6738 33.1609 14.711 33.1609 14.7575V14.8132C32.7777 17.3781 32.7413 17.4246 34.3104 19.3947L35.1589 20.4913C36.4452 22.1919 37.1569 25.6396 37.3849 27.7398C39.5471 44.2536 25.3789 43.473 22.7879 46.4654C22.7879 46.5769 23.1255 46.8743 23.4539 47.1716L26.6835 47.1252Z" fill="#B3522C"/>
<path fill-rule="evenodd" clip-rule="evenodd" d="M1.18644 29.7648L1.56049 31.6234C2.85043 30.9684 4.01519 30.0841 4.99992 29.012C6.37294 27.6148 7.55165 26.0327 8.5032 24.3097C8.97293 23.1965 9.70267 22.2171 10.6289 21.4568C11.8514 20.6575 13.6395 20.7226 15.0262 20.862C16.9809 20.9488 18.9106 21.3438 20.7464 22.0329C21.3164 22.2791 21.7977 22.6988 22.1243 23.2345C22.451 23.7702 22.607 24.3957 22.5711 25.0253C22.6166 26.2776 22.9544 27.5009 23.5564 28.5938C23.7865 29.0324 23.9554 29.5016 24.0581 29.9878C24.3592 31.8464 22.3704 33.3705 21.0384 34.2905C18.9452 35.7962 16.9771 37.4746 15.154 39.3087C14.4728 40.0091 13.7507 40.667 12.9918 41.2788C12.4735 41.7548 11.7911 42.0022 11.0942 41.9665C10.8626 41.9274 10.6419 41.8387 10.4464 41.7063C8.81553 40.6847 7.07737 39.8524 5.26448 39.2251C4.55288 38.9463 3.83215 38.714 3.1023 38.4909C2.78665 38.4153 2.48054 38.3031 2.18999 38.1564H0.921875V39.2065C2.07386 39.9591 3.31553 40.5587 4.61673 40.9908C6.29665 41.5634 7.90912 42.3239 9.42463 43.2583C10.084 43.7907 10.9106 44.0615 11.751 44.0203C13.3841 43.8437 15.3182 41.7807 16.4494 40.6748C18.2032 38.9133 20.0949 37.3002 22.1058 35.8517C23.7936 34.6808 26.421 32.7106 26.1382 30.2759C25.9683 29.3891 25.6603 28.5358 25.2259 27.7481C24.753 26.8934 24.4784 25.9397 24.4231 24.9602C24.488 23.9625 24.2403 22.9696 23.7157 22.1245C23.191 21.2794 22.4164 20.6258 21.5037 20.2579C19.4783 19.4764 17.3447 19.0248 15.1813 18.9197C13.3567 18.7339 11.231 18.7432 9.59797 19.8026C8.39235 20.7251 7.44804 21.9563 6.86103 23.3711C5.9959 24.9288 4.92453 26.3578 3.67705 27.6181C2.95127 28.4506 2.11262 29.1734 1.18644 29.7648Z" fill="#B3522C"/>
<path fill-rule="evenodd" clip-rule="evenodd" d="M10.6751 28.0171C10.1826 29.0399 9.56991 29.9979 8.85048 30.8701C8.23923 31.66 7.07147 33.0632 7.13533 34.1227C7.14835 34.3623 7.2105 34.5966 7.31779 34.8103C7.88342 35.8233 9.8449 35.7396 10.7846 35.7396C12.8829 35.6095 13.3938 35.0613 14.5707 33.4536C15.235 32.512 15.9899 31.6403 16.8241 30.8515C17.1861 30.6181 17.4788 30.2884 17.6705 29.8981C17.8621 29.5078 17.9456 29.0715 17.9118 28.6364C17.878 28.2013 17.7282 27.7839 17.4787 27.4291C17.2291 27.0743 16.8892 26.7957 16.4957 26.6231C15.8761 26.2949 15.195 26.1048 14.4977 26.0656C13.7412 25.9486 12.9678 26.0767 12.2868 26.4319C11.6057 26.7871 11.0515 27.3514 10.7025 28.045L10.6751 28.0171ZM14.37 27.664C14.8344 27.693 15.2879 27.8196 15.702 28.0357C15.951 28.1417 16.1503 28.3414 16.2585 28.5933C16.3771 28.9836 15.9574 29.3832 15.702 29.6155C14.7961 30.4775 13.9742 31.4267 13.2478 32.4499C12.4815 33.5093 12.0344 33.9925 10.666 34.0762C10.3124 34.0943 9.96268 34.16 9.62594 34.2713C9.37962 34.3643 9.09681 34.5408 8.85048 34.3271C8.77085 34.2483 8.72218 34.1425 8.71363 34.0297C8.71363 33.5744 9.79928 32.2454 10.0821 31.8737C10.9112 30.8929 11.6105 29.8057 12.1622 28.6397C12.5089 27.7941 13.5763 27.6082 14.37 27.664Z" fill="#B3522C"/>
<path fill-rule="evenodd" clip-rule="evenodd" d="M7.19 28.0461C7.81313 27.3445 8.39499 26.6059 8.93252 25.8343C10.7115 23.3717 11.7881 21.8848 16.231 23.0464C16.6844 23.1428 17.1253 23.2925 17.5448 23.4925C18.0101 23.7508 18.4447 24.0626 18.8402 24.4218L19.1595 24.6913C20.4368 25.7414 22.6263 27.5536 22.0425 29.756C21.3217 32.4696 19.4059 33.91 17.2802 35.5084C16.7602 35.8987 16.2219 36.3076 15.7566 36.6886L15.6015 36.8188C15.4738 37.0883 15.337 37.3856 13.9776 38.4079C13.1505 39.0867 12.2279 39.6349 11.2407 40.0341C10.7871 40.2266 10.2893 40.2843 9.80491 40.2004C9.32051 40.1165 8.86936 39.8945 8.50373 39.5602C7.40593 38.7022 6.25727 37.9139 5.0643 37.1998C4.91217 37.1011 4.76871 36.9891 4.63551 36.8652C4.26301 36.5181 3.98369 36.0798 3.82403 35.5919C3.66437 35.104 3.62967 34.5827 3.7232 34.0773C3.93287 32.9346 4.37409 31.849 5.01868 30.8898C5.6518 29.8958 6.37246 28.9627 7.17174 28.1019L7.19 28.0461ZM10.447 26.9774C9.86672 27.8017 9.24236 28.5928 8.57672 29.3471C7.85003 30.1283 7.19357 30.9742 6.61523 31.8748C6.12212 32.5961 5.77763 33.4118 5.60256 34.2725C5.55807 34.4678 5.56056 34.6712 5.6098 34.8653C5.65904 35.0595 5.75359 35.2387 5.88539 35.3876L6.02223 35.4991C7.31016 36.2774 8.55297 37.1307 9.74448 38.0547C9.86957 38.1611 10.0218 38.2289 10.1834 38.2503C10.345 38.2717 10.5092 38.2458 10.6568 38.1755C11.4397 37.8336 12.1707 37.3799 12.8281 36.8281C13.8043 36.0939 13.8408 36.0288 13.8681 35.9638C14.0168 35.6339 14.254 35.3536 14.5524 35.1553C15.1271 34.6906 15.638 34.3096 16.1398 33.9286C17.9644 32.5439 19.6431 31.2894 20.1905 29.217C20.4642 28.2134 18.8676 26.9031 17.9462 26.141L17.6269 25.8715C17.3513 25.6027 17.045 25.3687 16.7146 25.1745C16.4211 25.0442 16.1154 24.9446 15.8022 24.8772C12.5179 24.0687 11.7516 25.156 10.4105 26.9774H10.447Z" fill="#B3522C"/>
<path fill-rule="evenodd" clip-rule="evenodd" d="M0.921924 24.5409C2.11705 23.2212 3.06586 22.0782 3.86869 21.1024C7.91024 16.2236 8.82256 15.127 18.8398 15.8797C21.4399 16.0749 22.9725 16.3258 24.3136 17.2644C25.6547 18.203 26.4941 19.662 27.826 22.3384C28.0456 22.7265 28.3191 23.0802 28.638 23.3885C29.5503 24.3178 30.3532 25.2471 29.8058 27.2637C29.2926 28.8901 29.2767 30.6369 29.7601 32.2727C30.2893 34.2521 30.5721 35.3394 26.7495 38.4526C26.1497 38.8801 25.4879 39.2093 24.7881 39.4283C23.5994 39.8146 22.4874 40.4124 21.5037 41.194C20.6377 42.0048 19.8495 42.8979 19.1499 43.8611C18.2942 45.0545 17.3121 46.1484 16.2214 47.123H11.7511C12.8786 46.9681 13.944 46.5057 14.8347 45.7848C15.8983 44.8682 16.8481 43.8227 17.6629 42.6716C18.4397 41.5941 19.3232 40.6007 20.2995 39.7071C21.4451 38.789 22.7428 38.0872 24.1312 37.6348C24.6334 37.4714 25.1143 37.2467 25.5635 36.9657C28.4282 34.6331 28.2457 33.9733 27.9264 32.7652C27.3471 30.8078 27.3662 28.7173 27.9811 26.7712C28.0786 26.3934 28.062 25.9944 27.9334 25.6263C27.8049 25.2583 27.5703 24.9383 27.2604 24.7081C26.812 24.2721 26.4334 23.7673 26.1383 23.2119C24.9431 20.8236 24.1768 19.4947 23.2189 18.8349C22.2609 18.1751 20.9928 17.9707 18.7394 17.7941C9.66189 17.1157 8.86817 18.0729 5.33752 22.3477C4.49819 23.3606 3.51289 24.5408 2.27214 25.9162C1.80686 26.4273 1.35983 26.9292 0.949292 27.4217V24.5409H0.921924ZM6.17685 47.123H10.7384C10.4298 47.0919 10.1244 47.0328 9.8261 46.9464C8.34177 46.3985 6.9845 45.5443 5.83929 44.4373C4.35252 43.3681 2.65641 42.639 0.867188 42.2999V44.2607C2.2157 44.5325 3.49312 45.0897 4.61678 45.8963C5.14593 46.3052 5.6477 46.7234 6.17685 47.123Z" fill="#B3522C"/>
<path fill-rule="evenodd" clip-rule="evenodd" d="M0.9219 18.5951C5.48347 12.4524 9.43378 9.42285 19.2868 11.8483C20.3685 12.0732 21.4675 12.2007 22.5711 12.2294C24.3957 12.3223 26.12 12.4245 27.452 13.2609C28.2806 13.9651 28.8208 14.9595 28.9664 16.0488C29.0525 16.4468 29.1906 16.8312 29.377 17.1918C29.9502 17.8941 30.6094 18.5188 31.3384 19.0505C33.0992 20.4816 34.7322 21.8384 34.6228 25.6299C34.5484 27.659 34.7511 29.6888 35.2249 31.6611C35.9091 34.8022 36.1372 35.6943 30.7637 40.0249C30.0228 40.5539 29.2035 40.9586 28.3369 41.2237C26.784 41.7319 25.33 42.5118 24.0399 43.5284C22.9137 44.5779 21.893 45.739 20.9928 46.9947L20.9198 47.0876H18.5022C18.8489 46.6601 19.1864 46.2327 19.5148 45.7959C20.5011 44.4475 21.6166 43.2023 22.8448 42.0787C24.2912 40.9198 25.9284 40.0325 27.68 39.458C28.3573 39.2388 29.0019 38.9261 29.5959 38.5287C34.0115 34.9323 33.8747 34.2911 33.382 32.0236C32.8746 29.8957 32.6597 27.7065 32.7434 25.5184C32.8255 22.6562 31.5483 21.6153 30.1615 20.4909C29.3063 19.8484 28.5366 19.0956 27.8717 18.2512C27.5285 17.7063 27.2872 17.1013 27.16 16.467C26.9593 15.7607 26.7495 14.9987 26.4576 14.8221C25.5452 14.2366 24.0399 14.153 22.4707 14.0694C21.2441 14.0405 20.0226 13.8974 18.8215 13.6419C9.09623 11.2443 5.72067 14.8965 0.894531 21.7826V18.5207L0.9219 18.5951ZM0.9219 47.1248H2.57318C2.03919 46.8434 1.48756 46.5981 0.9219 46.3906V47.1248Z" fill="#B3522C"/>
</g>
<defs>
<clipPath id="clip0_1126_8420">
<rect width="350" height="56" fill="white"/>
</clipPath>
</defs>
</svg>
