<svg width="189" height="52" viewBox="0 0 189 52" fill="none" xmlns="http://www.w3.org/2000/svg">
<g clip-path="url(#clip0_589_2967)">
<path fill-rule="evenodd" clip-rule="evenodd" d="M37.4793 44.8458V7.14453H0V44.8458H37.4793ZM2.12747 42.7058V9.28457H35.3519V42.7058H2.12747Z" fill="#627590"/>
<path fill-rule="evenodd" clip-rule="evenodd" d="M61.8937 30.3484V36.9326H60.8042L59.3287 35.7159C58.6625 36.3062 57.883 36.7526 57.0383 37.0275C56.0917 37.3394 55.1003 37.491 54.1044 37.4762C52.6884 37.4951 51.2856 37.2005 49.9953 36.6133C48.6701 35.9659 47.4884 35.056 46.5211 33.9382C45.5114 32.8521 44.7089 31.5884 44.1534 30.2104C43.6194 28.86 43.3514 27.4181 43.3642 25.9648C43.3524 24.5284 43.6205 23.1036 44.1534 21.7709C44.7258 20.3937 45.5394 19.1311 46.5554 18.0431C47.5347 16.9362 48.7248 16.0383 50.0554 15.4025C51.3589 14.8189 52.7721 14.5246 54.1988 14.5396C55.0719 14.5368 55.9402 14.6708 56.7723 14.9366C57.6115 15.2069 58.4044 15.6056 59.1229 16.1188L60.3067 14.9797H61.4133L61.5506 21.0202H60.3753C59.8721 19.4262 58.9885 17.9804 57.8018 16.8091C56.7635 15.9278 55.4364 15.4664 54.0787 15.5147C52.363 15.5147 51.2564 16.0756 50.6473 17.1802C50.0382 18.2847 49.7466 21.0806 49.7466 25.5419C49.7466 27.8977 49.7466 29.6495 49.8324 30.8144C49.8388 31.6644 49.9308 32.5115 50.1069 33.3428C50.2734 34.2653 50.7487 35.1026 51.4537 35.7159C52.2214 36.2436 53.1421 36.4987 54.0701 36.4407C55.6226 36.4334 57.1104 35.8138 58.2135 34.7149C59.4508 33.5407 60.2807 31.9981 60.5812 30.3139L61.8937 30.3484ZM73.8435 34.9392C73.2478 35.6712 72.4977 36.2608 71.6474 36.6651C70.75 37.047 69.7821 37.2323 68.8079 37.2087C67.8726 37.2577 66.9534 36.9495 66.2344 36.3458C65.9185 36.0271 65.6734 35.6447 65.5152 35.2237C65.357 34.8028 65.2893 34.3529 65.3165 33.9037C65.3308 33.1695 65.5531 32.4548 65.9573 31.8433C66.3615 31.2319 66.9309 30.7492 67.5984 30.452C69.519 29.5145 71.6424 29.0754 73.7749 29.1749V25.982C73.81 25.7183 73.7867 25.45 73.7067 25.1963C73.6266 24.9427 73.4917 24.7101 73.3116 24.5151C72.7696 24.2164 72.1513 24.0872 71.5359 24.144C71.0982 24.1239 70.6608 24.1913 70.2491 24.3425C70.1264 24.3827 70.0188 24.4596 69.9407 24.5629C69.8625 24.6662 69.8175 24.791 69.8116 24.9207C69.8834 25.1528 69.9874 25.3735 70.1204 25.5765C70.3131 25.9158 70.4164 26.2989 70.4207 26.6896C70.4368 26.9623 70.3929 27.2351 70.292 27.4887C70.1912 27.7423 70.0359 27.9704 69.8374 28.1566C69.3649 28.5288 68.7715 28.7103 68.1731 28.6658C67.9058 28.6838 67.6377 28.6463 67.3853 28.5558C67.133 28.4652 66.9019 28.3235 66.7062 28.1394C66.5238 27.9302 66.3844 27.6868 66.296 27.4232C66.2077 27.1595 66.1722 26.8809 66.1915 26.6033C66.1966 26.0796 66.3524 25.5686 66.6401 25.1322C66.9279 24.6957 67.3352 24.3525 67.8129 24.144C69.2529 23.494 70.8261 23.1982 72.4023 23.2811C73.1984 23.2736 73.9936 23.3372 74.7786 23.4709C75.3748 23.5672 75.9532 23.7534 76.4943 24.0232C76.9446 24.2269 77.3198 24.568 77.5666 24.9983C77.8137 25.6679 77.9161 26.3827 77.8668 27.0952V33.9123C77.8439 34.2207 77.9322 34.5271 78.1156 34.7753C78.2244 34.8738 78.352 34.9491 78.4906 34.9966C78.6292 35.0441 78.776 35.0627 78.922 35.0514C79.0931 35.044 79.259 34.9904 79.4024 34.8961C79.5075 34.8202 79.6273 34.7672 79.7541 34.7407C79.7965 34.7406 79.8384 34.7499 79.877 34.7678C79.9155 34.7856 79.9497 34.8118 79.9771 34.8443C80.011 34.8762 80.0377 34.9151 80.0555 34.9582C80.0732 35.0014 80.0816 35.0479 80.0801 35.0945C80.0801 35.5088 79.7626 35.9575 79.1278 36.4493C78.496 36.9293 77.7234 37.1843 76.9317 37.1742C76.244 37.19 75.5708 36.9744 75.0188 36.5615C74.4709 36.1548 74.0606 35.5884 73.8435 34.9392ZM73.7406 30.15H73.346C72.3603 30.0662 71.3715 30.2699 70.4979 30.7368C70.2104 30.9729 69.9856 31.2769 69.8434 31.6217C69.7012 31.9665 69.646 32.3414 69.683 32.7129C69.6237 33.4232 69.776 34.1351 70.1204 34.758C70.2848 34.9736 70.5009 35.1437 70.7485 35.2524C70.996 35.3611 71.267 35.4047 71.5359 35.3793C71.8318 35.3912 72.1267 35.3388 72.4006 35.2256C72.6744 35.1124 72.9208 34.9412 73.1229 34.7235C73.5431 34.2503 73.7645 33.6317 73.7406 32.9976V30.1672V30.15ZM87.2688 31.5911C87.2028 32.8204 87.5504 34.0364 88.2553 35.0428C88.5384 35.4523 88.9173 35.7854 89.3587 36.0126C89.8001 36.2399 90.2903 36.3543 90.786 36.3458C91.0434 36.3754 91.304 36.3516 91.5519 36.2759C91.7998 36.2002 92.0296 36.0742 92.2272 35.9057C92.554 35.4194 92.6998 34.8327 92.6389 34.2489V26.5257C92.6928 25.9261 92.5642 25.3242 92.2701 24.7998C92.1154 24.6233 91.921 24.4866 91.7031 24.401C91.4853 24.3155 91.2502 24.2836 91.0176 24.308C90.4935 24.291 89.9729 24.3995 89.4986 24.6246C89.0243 24.8496 88.61 25.1847 88.2897 25.6023C87.5688 26.6025 87.2087 27.8201 87.2688 29.0541V31.5738V31.5911ZM80.895 36.8981V35.8885H82.7051V16.0066H80.895V14.997C81.933 14.997 82.9796 14.9107 84.0433 14.8416C85.107 14.7726 86.1794 14.695 87.2688 14.5914V25.8871C87.7056 25.1091 88.3351 24.4581 89.096 23.9973C89.8447 23.5665 90.6958 23.3487 91.5581 23.3674C92.3958 23.3486 93.2273 23.5169 93.9927 23.8601C94.7581 24.2033 95.4384 24.7128 95.9846 25.3521C97.165 26.7524 97.7776 28.5487 97.7002 30.383C97.7542 32.2008 97.1194 33.9713 95.9245 35.3362C95.3823 35.9747 94.7069 36.4852 93.9463 36.8312C93.1856 37.1773 92.3585 37.3503 91.5237 37.3382C90.6597 37.3576 89.8064 37.143 89.0531 36.7169C88.2927 36.262 87.6653 35.613 87.2345 34.8357V36.9326L80.895 36.8981ZM101.2 18.0172C101.195 17.7084 101.253 17.4019 101.372 17.1168C101.49 16.8317 101.665 16.5742 101.887 16.3604C102.104 16.1386 102.363 15.9632 102.649 15.8446C102.935 15.7259 103.241 15.6666 103.551 15.6701C103.852 15.6639 104.151 15.7213 104.429 15.8387C104.707 15.9562 104.957 16.1309 105.164 16.3518C105.38 16.57 105.55 16.8301 105.664 17.1164C105.777 17.4027 105.832 17.7091 105.824 18.0172C105.829 18.3284 105.773 18.6375 105.658 18.9264C105.543 19.2154 105.372 19.4783 105.155 19.6999C104.947 19.9241 104.694 20.1015 104.413 20.2204C104.132 20.3394 103.83 20.3973 103.525 20.3903C103.217 20.3972 102.91 20.3393 102.625 20.2205C102.34 20.1016 102.083 19.9243 101.869 19.6999C101.652 19.4783 101.481 19.2154 101.366 18.9264C101.251 18.6375 101.195 18.3284 101.2 18.0172ZM99.3216 36.8981V35.8885H101.295V24.7826H99.1157V23.7729C100.325 23.7729 101.501 23.6867 102.624 23.6176C103.748 23.5486 104.855 23.4623 105.91 23.3674V35.923H107.986V36.9326L99.3216 36.8981ZM108.672 35.8885H110.688V24.6704H108.475V23.6263C109.65 23.6263 110.8 23.6263 111.906 23.5658C113.013 23.5054 114.154 23.4709 115.269 23.3933V26.7328C115.784 25.695 116.551 24.8047 117.499 24.144C118.439 23.5882 119.516 23.3128 120.605 23.3501C121.138 23.2871 121.679 23.331 122.196 23.479C122.713 23.6271 123.195 23.8766 123.616 24.213C124.182 24.8257 124.474 26.1029 124.474 28.0703V35.8367H126.421V36.8463H118.28V35.8367H119.996V26.5947C120.037 26.1249 119.923 25.6545 119.67 25.2572C119.539 25.1119 119.376 24.9994 119.194 24.929C119.013 24.8586 118.817 24.832 118.623 24.8516C118.159 24.8879 117.71 25.0392 117.318 25.2922C116.926 25.5452 116.602 25.8918 116.376 26.3013C115.703 27.2695 115.349 28.4253 115.363 29.6063V35.923H117.079V36.9326H108.758V35.923L108.672 35.8885ZM126.987 35.8885H129.029V24.7826H126.858V23.7729H129.072V23.1171C128.95 20.8379 129.702 18.5987 131.173 16.8609C131.905 16.0841 132.796 15.476 133.783 15.0782C134.771 14.6805 135.833 14.5027 136.895 14.5569C138.145 14.4951 139.386 14.7945 140.472 15.4198C140.873 15.6442 141.206 15.972 141.439 16.3695C141.671 16.767 141.793 17.2196 141.794 17.6807C141.8 17.957 141.749 18.2317 141.644 18.4872C141.539 18.7427 141.383 18.9735 141.185 19.1649C140.982 19.3664 140.74 19.524 140.475 19.6279C140.209 19.7318 139.925 19.7798 139.64 19.769C139.368 19.7853 139.095 19.7434 138.84 19.6459C138.585 19.5485 138.354 19.3978 138.161 19.2037C137.968 19.0097 137.818 18.7766 137.721 18.5201C137.624 18.2635 137.582 17.9892 137.599 17.7152C137.609 17.3885 137.67 17.0654 137.779 16.7573C137.866 16.5294 137.927 16.2919 137.959 16.0497C137.96 15.9621 137.934 15.8763 137.885 15.8039C137.836 15.7314 137.766 15.6757 137.684 15.6442C137.433 15.5489 137.164 15.5049 136.895 15.5147C136.404 15.4809 135.913 15.5859 135.478 15.8176C135.043 16.0494 134.681 16.3988 134.433 16.8264C133.826 18.1784 133.564 19.6613 133.67 21.141C133.67 21.4517 133.67 21.7623 133.67 22.0902C133.67 22.4181 133.67 22.5821 133.67 22.608V23.8247H137.153C138.371 23.8247 139.46 23.8247 140.404 23.7212C141.348 23.6176 142.231 23.5486 142.977 23.4191V35.9747H144.873V36.9844H136.612V35.9747H138.431V24.7826H133.661V35.923H135.308V36.9326H127.021V35.923L126.987 35.8885ZM151.788 28.7261H156.214V26.1374C156.24 25.8553 156.205 25.5711 156.114 25.3033C156.022 25.0356 155.875 24.7904 155.682 24.5841C155.188 24.2185 154.577 24.0495 153.966 24.1095C153.372 24.0613 152.781 24.24 152.311 24.61C152.116 24.8103 151.966 25.0503 151.871 25.3137C151.777 25.5772 151.739 25.8581 151.762 26.1374V28.7261H151.788ZM159.971 32.4454L160.743 32.7042C160.313 34.0866 159.457 35.2955 158.299 36.156C157.059 36.9509 155.606 37.3426 154.138 37.2778C152.113 37.3814 150.123 36.7162 148.562 35.4138C147.874 34.7913 147.332 34.0238 146.973 33.1662C146.614 32.3085 146.448 31.3817 146.486 30.452C146.462 29.4978 146.642 28.5495 147.013 27.6712C147.385 26.7929 147.939 26.005 148.639 25.3607C150.117 23.9991 152.066 23.2742 154.069 23.3415C154.933 23.2923 155.799 23.4148 156.615 23.7021C157.432 23.9893 158.185 24.4357 158.83 25.0156C159.417 25.6155 159.873 26.3323 160.169 27.1199C160.464 27.9075 160.593 28.7486 160.546 29.5891V29.7617H151.788V33.0753C151.694 34.0007 151.905 34.9314 152.388 35.7245C152.661 35.9916 152.99 36.1944 153.35 36.3183C153.711 36.4422 154.094 36.484 154.473 36.4407C155.68 36.4833 156.868 36.1322 157.861 35.4397C158.846 34.6831 159.581 33.6457 159.971 32.4626V32.4454ZM162.022 35.8971H163.969V16.0066H161.824V14.997C163.025 14.997 164.192 14.9021 165.324 14.833C166.457 14.764 167.555 14.6777 168.601 14.5914V35.923H170.712V36.9326H162.03V35.923L162.022 35.8971ZM182.859 31.5824V29.0627C182.921 27.8273 182.557 26.6082 181.829 25.611C181.516 25.1962 181.109 24.8625 180.642 24.6374C180.175 24.4123 179.662 24.3023 179.144 24.3166C178.904 24.2894 178.66 24.3198 178.434 24.4053C178.207 24.4908 178.004 24.6289 177.84 24.8085C177.544 25.4217 177.422 26.1058 177.489 26.7846V33.8002C177.423 34.5002 177.55 35.205 177.857 35.8367C178.011 36.0257 178.209 36.173 178.434 36.265C178.659 36.3569 178.903 36.3907 179.144 36.3631C179.662 36.3773 180.175 36.2673 180.642 36.0422C181.109 35.8172 181.516 35.4834 181.829 35.0687C182.556 34.0709 182.919 32.8522 182.859 31.6169V31.5824ZM182.859 36.8894V34.7925C182.412 35.5636 181.781 36.2102 181.023 36.6737C180.263 37.0997 179.405 37.3141 178.535 37.295C177.7 37.3072 176.873 37.1341 176.113 36.7881C175.352 36.4421 174.677 35.9316 174.134 35.293C172.933 33.9313 172.295 32.1594 172.35 30.3398C172.285 28.4999 172.914 26.7033 174.109 25.309C174.655 24.6697 175.335 24.1601 176.101 23.8169C176.866 23.4737 177.697 23.3055 178.535 23.3242C179.406 23.3056 180.265 23.5232 181.023 23.9542C181.783 24.4186 182.415 25.0686 182.859 25.844V16.0066H180.285V14.997C181.675 14.997 182.97 14.9107 184.154 14.8416C185.338 14.7726 186.419 14.6863 187.388 14.5914V35.923H189.198V36.9326L182.859 36.8894Z" fill="#627590"/>
<path fill-rule="evenodd" clip-rule="evenodd" d="M25.0903 43.7599C25.0903 43.7599 25.0903 43.6995 25.1332 43.6736C25.8281 41.9478 34.2178 41.8529 36.5854 34.0261C37.6149 31.8084 37.6149 27.8907 37.3489 25.4831C37.083 23.0756 36.2509 19.5462 34.7754 17.7168C34.5009 17.3544 34.2264 17.0092 33.9175 16.664C33.0597 15.6285 33.0597 15.3955 33.2999 14.0752C33.3127 13.9115 33.3127 13.7471 33.2999 13.5834C33.2999 12.0301 32.1933 10.4682 31.121 9.43269C30.0728 8.36137 28.7523 7.60021 27.3036 7.23224C27.1551 7.21946 27.0059 7.21946 26.8575 7.23224C13.8268 7.90532 8.04487 7.56014 5.07672 8.35403C4.26573 8.67175 3.53161 9.16015 2.92353 9.78649C2.11715 10.4423 0.838965 11.8834 0.959063 13.4194C1.12205 13.5316 1.1821 15.5249 1.38799 15.5422C2.31297 13.1286 3.85107 11.0011 5.84879 9.37228C7.84757 7.87079 10.7557 8.31088 13.8525 8.19007C18.931 7.9916 24.4555 8.12103 26.8575 9.37228H26.9947C28.0086 9.66608 28.9264 10.226 29.654 10.9946C30.2974 11.6245 31.181 12.6514 31.181 13.5834C31.181 13.6265 31.181 13.661 31.181 13.7042V13.756C30.8207 16.1376 30.7864 16.1808 32.2619 18.0102L33.0597 19.0284C34.2693 20.6076 34.9384 23.809 35.1529 25.7593C37.1859 41.0935 23.8636 40.3686 21.4273 43.1473C21.4273 43.2508 21.7447 43.5269 22.0535 43.8031L25.0903 43.7599Z" fill="#627590"/>
<path fill-rule="evenodd" clip-rule="evenodd" d="M1.11547 27.6398L1.46719 29.3657C2.68011 28.7575 3.77534 27.9363 4.70128 26.9408C5.99233 25.6435 7.10066 24.1743 7.99541 22.5744C8.43709 21.5407 9.12327 20.6313 9.99419 19.9252C11.1437 19.1831 12.8251 19.2435 14.129 19.373C15.967 19.4536 17.7814 19.8204 19.5077 20.4603C20.0436 20.6889 20.4962 21.0786 20.8033 21.576C21.1105 22.0735 21.2572 22.6543 21.2234 23.2389C21.2662 24.4018 21.5838 25.5377 22.1499 26.5525C22.3663 26.9598 22.5251 27.3955 22.6217 27.8469C22.9048 29.5728 21.0347 30.988 19.7822 31.8423C17.814 33.2404 15.9634 34.7989 14.2491 36.5021C13.6086 37.1524 12.9297 37.7633 12.216 38.3315C11.7287 38.7735 11.087 39.0031 10.4317 38.9701C10.214 38.9337 10.0064 38.8514 9.82263 38.7284C8.2891 37.7797 6.6547 37.0069 4.95005 36.4244C4.28093 36.1655 3.60323 35.9498 2.91695 35.7427C2.62014 35.6725 2.33231 35.5682 2.05911 35.432H0.866699V36.4072C1.94991 37.106 3.11745 37.6628 4.34097 38.064C5.9206 38.5957 7.4368 39.3019 8.86183 40.1695C9.48182 40.6639 10.2591 40.9154 11.0493 40.8771C12.5849 40.7132 14.4035 38.7975 15.4672 37.7706C17.1163 36.1349 18.895 34.6371 20.7859 33.292C22.3729 32.2047 24.8435 30.3753 24.5776 28.1144C24.4178 27.291 24.1282 26.4986 23.7197 25.7673C23.2751 24.9735 23.0169 24.088 22.9648 23.1785C23.0259 22.252 22.793 21.33 22.2997 20.5453C21.8063 19.7605 21.078 19.1536 20.2197 18.8121C18.3153 18.0863 16.309 17.667 14.2748 17.5694C12.5591 17.3969 10.5604 17.4055 9.02482 18.3892C7.89118 19.2458 7.00324 20.3891 6.45128 21.7029C5.6378 23.1493 4.63039 24.4762 3.45739 25.6465C2.77493 26.4195 1.98635 27.0907 1.11547 27.6398Z" fill="#627590"/>
<path fill-rule="evenodd" clip-rule="evenodd" d="M10.0378 26.0173C9.57475 26.967 8.99863 27.8566 8.32215 28.6665C7.7474 29.4 6.64935 30.703 6.7094 31.6867C6.72164 31.9093 6.78008 32.1268 6.88096 32.3253C7.41283 33.2659 9.2572 33.1882 10.1408 33.1882C12.1138 33.0674 12.5942 32.5583 13.7008 31.0654C14.3255 30.1911 15.0353 29.3817 15.8197 28.6492C16.1602 28.4325 16.4353 28.1264 16.6156 27.7639C16.7958 27.4015 16.8743 26.9964 16.8425 26.5923C16.8107 26.1883 16.6699 25.8007 16.4352 25.4713C16.2006 25.1418 15.881 24.8831 15.5109 24.7229C14.9283 24.4181 14.2879 24.2416 13.6322 24.2051C12.9209 24.0965 12.1937 24.2155 11.5533 24.5453C10.9129 24.8752 10.3918 25.3991 10.0636 26.0432L10.0378 26.0173ZM13.5121 25.6894C13.9488 25.7164 14.3752 25.8339 14.7646 26.0345C14.9987 26.133 15.1861 26.3184 15.2879 26.5523C15.3994 26.9147 15.0048 27.2858 14.7646 27.5015C13.9128 28.3019 13.14 29.1833 12.457 30.1334C11.7364 31.1172 11.316 31.5659 10.0293 31.6436C9.69677 31.6604 9.36795 31.7214 9.05132 31.8248C8.8197 31.9111 8.55377 32.075 8.32215 31.8766C8.24727 31.8033 8.20151 31.7052 8.19347 31.6004C8.19347 31.1776 9.21431 29.9436 9.48024 29.5984C10.2598 28.6877 10.9174 27.6781 11.4361 26.5954C11.7621 25.8102 12.7658 25.6376 13.5121 25.6894Z" fill="#627590"/>
<path fill-rule="evenodd" clip-rule="evenodd" d="M6.76072 26.0431C7.34666 25.3916 7.89378 24.7058 8.39921 23.9893C10.072 21.7026 11.0843 20.3219 15.262 21.4005C15.6883 21.4901 16.1028 21.6291 16.4973 21.8147C16.9348 22.0546 17.3435 22.3441 17.7154 22.6777L18.0157 22.9279C19.2167 23.903 21.2755 25.5857 20.7265 27.6309C20.0488 30.1506 18.2473 31.4882 16.2485 32.9724C15.7595 33.3348 15.2534 33.7145 14.8159 34.0683L14.6701 34.1891C14.55 34.4394 14.4213 34.7155 13.1431 35.6647C12.3654 36.295 11.4978 36.8041 10.5696 37.1748C10.1431 37.3536 9.67499 37.4071 9.21952 37.3292C8.76404 37.2513 8.33982 37.0452 7.99602 36.7347C6.96376 35.938 5.88368 35.206 4.76193 34.5429C4.61889 34.4513 4.48399 34.3473 4.35875 34.2323C4.00848 33.9099 3.74583 33.5029 3.59571 33.0499C3.44558 32.5969 3.41295 32.1128 3.5009 31.6435C3.69805 30.5824 4.11292 29.5744 4.71904 28.6836C5.31436 27.7607 5.99199 26.8942 6.74356 26.0949L6.76072 26.0431ZM9.82324 25.0507C9.27764 25.8161 8.69056 26.5507 8.06465 27.2512C7.38135 27.9765 6.76408 28.7621 6.22027 29.5983C5.7566 30.2681 5.43268 31.0255 5.26806 31.8247C5.22623 32.0061 5.22857 32.1949 5.27487 32.3752C5.32117 32.5555 5.41007 32.7219 5.534 32.8602L5.66268 32.9638C6.87371 33.6865 8.04232 34.4788 9.16269 35.3368C9.28032 35.4355 9.42348 35.4985 9.5754 35.5184C9.72732 35.5383 9.88173 35.5142 10.0205 35.449C10.7567 35.1315 11.4441 34.7102 12.0622 34.1978C12.9801 33.516 13.0144 33.4556 13.0402 33.3952C13.1799 33.0889 13.403 32.8287 13.6836 32.6445C14.224 32.213 14.7044 31.8592 15.1762 31.5054C16.8919 30.2196 18.4703 29.0547 18.985 27.1304C19.2424 26.1984 17.7412 24.9817 16.8747 24.2741L16.5745 24.0238C16.3154 23.7743 16.0274 23.557 15.7166 23.3766C15.4407 23.2556 15.1533 23.1631 14.8588 23.1005C11.7705 22.3498 11.05 23.3594 9.78892 25.0507H9.82324Z" fill="#627590"/>
<path fill-rule="evenodd" clip-rule="evenodd" d="M0.866898 22.7896C1.99068 21.5643 2.88284 20.5028 3.63774 19.5968C7.438 15.0664 8.29585 14.0482 17.715 14.7471C20.1599 14.9283 21.6011 15.1613 22.8621 16.0329C24.1231 16.9044 24.9123 18.2592 26.1648 20.7445C26.3712 21.1048 26.6284 21.4332 26.9283 21.7196C27.7861 22.5825 28.541 23.4454 28.0263 25.318C27.5438 26.8282 27.5288 28.4502 27.9834 29.9692C28.481 31.8072 28.7469 32.8168 25.1525 35.7076C24.5885 36.1046 23.9662 36.4103 23.3082 36.6137C22.1905 36.9723 21.1449 37.5274 20.2199 38.2533C19.4056 39.0061 18.6645 39.8354 18.0067 40.7299C17.202 41.838 16.2785 42.8538 15.253 43.7587H11.0495C12.1097 43.6149 13.1115 43.1856 13.9491 42.5161C14.9492 41.665 15.8422 40.6942 16.6084 39.6253C17.3389 38.6247 18.1696 37.7023 19.0876 36.8726C20.1648 36.02 21.385 35.3683 22.6905 34.9483C23.1627 34.7965 23.6149 34.5879 24.0374 34.327C26.731 32.161 26.5594 31.5483 26.2592 30.4265C25.7145 28.6089 25.7324 26.6677 26.3106 24.8606C26.4023 24.5098 26.3867 24.1393 26.2658 23.7975C26.1449 23.4558 25.9243 23.1587 25.6329 22.9449C25.2113 22.5401 24.8553 22.0713 24.5778 21.5556C23.454 19.3379 22.7334 18.1039 21.8327 17.4912C20.9319 16.8785 19.7395 16.6887 17.6207 16.5248C9.08507 15.8948 8.33874 16.7836 5.01888 20.7531C4.22966 21.6937 3.30318 22.7896 2.13651 24.0667C1.69901 24.5413 1.27866 25.0073 0.892633 25.4647V22.7896H0.866898ZM5.80809 43.7587H10.0973C9.8071 43.7299 9.52001 43.675 9.23948 43.5948C7.84377 43.086 6.56753 42.2928 5.49069 41.2649C4.09268 40.2721 2.49783 39.5951 0.81543 39.2801V41.1009C2.08343 41.3533 3.28459 41.8707 4.34117 42.6197C4.83872 42.9994 5.31054 43.3877 5.80809 43.7587Z" fill="#627590"/>
<path fill-rule="evenodd" clip-rule="evenodd" d="M0.867043 17.2663C5.15628 11.5624 8.87075 8.74923 18.1355 11.0015C19.1526 11.2102 20.186 11.3286 21.2238 11.3553C22.9394 11.4416 24.5608 11.5365 25.8132 12.3131C26.5924 12.9671 27.1003 13.8904 27.2373 14.9019C27.3182 15.2714 27.4481 15.6284 27.6233 15.9633C28.1623 16.6154 28.7821 17.1954 29.4677 17.6892C31.1233 19.0181 32.6589 20.2779 32.5559 23.7987C32.486 25.6828 32.6766 27.5676 33.1221 29.3991C33.7655 32.3158 33.9799 33.1442 28.9272 37.1654C28.2305 37.6566 27.4602 38.0324 26.6453 38.2786C25.1852 38.7505 23.8179 39.4746 22.6049 40.4187C21.5459 41.3932 20.5861 42.4714 19.7397 43.6374L19.6711 43.7237H17.3977C17.7237 43.3267 18.0411 42.9298 18.35 42.5242C19.2774 41.2721 20.3263 40.1158 21.4811 39.0725C22.8411 37.9964 24.3806 37.1724 26.0277 36.639C26.6645 36.4355 27.2707 36.1451 27.8292 35.7761C31.9812 32.4366 31.8525 31.8412 31.3892 29.7356C30.9122 27.7598 30.7101 25.7269 30.7888 23.6951C30.866 21.0373 29.665 20.0708 28.361 19.0267C27.5569 18.4301 26.8331 17.731 26.2079 16.947C25.8852 16.441 25.6583 15.8793 25.5387 15.2902C25.35 14.6344 25.1527 13.9268 24.8782 13.7628C24.0203 13.2192 22.6049 13.1415 21.1294 13.0638C19.976 13.037 18.8274 12.9042 17.698 12.6669C8.55335 10.4406 5.37932 13.8319 0.841309 20.2262V17.1973L0.867043 17.2663ZM0.867043 43.7582H2.41974C1.91763 43.4969 1.39894 43.2691 0.867043 43.0765V43.7582Z" fill="#627590"/>
</g>
<defs>
<clipPath id="clip0_589_2967">
<rect width="189" height="52" fill="white"/>
</clipPath>
</defs>
</svg>
