<svg width="161" height="33" viewBox="0 0 161 33" fill="none" xmlns="http://www.w3.org/2000/svg">
<path fill-rule="evenodd" clip-rule="evenodd" d="M31.8934 32.5421V0.0546875H0V32.5421H31.8934ZM1.81039 30.698V1.89877H30.083V30.698H1.81039Z" fill="white"/>
<path fill-rule="evenodd" clip-rule="evenodd" d="M52.6686 20.0488V25.7224H51.7415L50.4859 24.6739C49.919 25.1826 49.2556 25.5673 48.5368 25.8042C47.7314 26.0729 46.8877 26.2036 46.0403 26.1909C44.8353 26.2071 43.6415 25.9532 42.5436 25.4473C41.4159 24.8894 40.4103 24.1054 39.5871 23.1421C38.728 22.2062 38.045 21.1173 37.5723 19.9298C37.1179 18.7662 36.8899 17.5237 36.9008 16.2714C36.8907 15.0337 37.1189 13.8059 37.5723 12.6575C38.0594 11.4708 38.7517 10.3828 39.6163 9.44525C40.4496 8.49141 41.4624 7.71764 42.5947 7.16984C43.7039 6.66693 44.9065 6.41332 46.1206 6.42625C46.8635 6.42386 47.6024 6.53927 48.3105 6.76832C49.0247 7.00123 49.6993 7.34483 50.3107 7.78703L51.3181 6.80549H52.2598L52.3766 12.0106H51.3765C50.9483 10.6371 50.1964 9.39121 49.1865 8.3819C48.303 7.62245 47.1737 7.22488 46.0184 7.26651C44.5584 7.26651 43.6167 7.74986 43.0984 8.70166C42.5801 9.65345 42.3319 12.0627 42.3319 15.907C42.3319 17.937 42.3319 19.4465 42.4049 20.4504C42.4104 21.1828 42.4886 21.9127 42.6385 22.6291C42.7802 23.424 43.1846 24.1455 43.7846 24.6739C44.4378 25.1287 45.2213 25.3485 46.0111 25.2986C47.3322 25.2923 48.5982 24.7583 49.5369 23.8114C50.5898 22.7996 51.296 21.4703 51.5517 20.0191L52.6686 20.0488ZM62.8374 24.0047C62.3305 24.6355 61.6921 25.1435 60.9686 25.4919C60.205 25.821 59.3813 25.9807 58.5523 25.9604C57.7564 26.0026 56.9742 25.737 56.3623 25.2168C56.0936 24.9421 55.885 24.6126 55.7503 24.2499C55.6157 23.8872 55.5581 23.4995 55.5813 23.1124C55.5934 22.4798 55.7826 21.8638 56.1266 21.337C56.4706 20.8101 56.955 20.3941 57.5231 20.138C59.1574 19.3302 60.9643 18.9518 62.779 19.0375V16.2863C62.8089 16.059 62.7891 15.8278 62.7209 15.6092C62.6528 15.3907 62.538 15.1902 62.3848 15.0222C61.9235 14.7648 61.3974 14.6534 60.8737 14.7024C60.5012 14.685 60.129 14.7432 59.7787 14.8734C59.6743 14.9081 59.5827 14.9743 59.5162 15.0634C59.4497 15.1524 59.4114 15.2599 59.4064 15.3717C59.4675 15.5717 59.556 15.7619 59.6692 15.9368C59.8331 16.2291 59.9211 16.5593 59.9247 16.896C59.9384 17.1309 59.901 17.366 59.8152 17.5846C59.7294 17.8031 59.5973 17.9996 59.4283 18.1601C59.0263 18.4808 58.5213 18.6372 58.0121 18.5988C57.7847 18.6143 57.5565 18.5821 57.3418 18.504C57.127 18.426 56.9303 18.3039 56.7639 18.1452C56.6086 17.965 56.49 17.7553 56.4148 17.5281C56.3396 17.3009 56.3094 17.0608 56.3259 16.8216C56.3302 16.3704 56.4628 15.93 56.7076 15.5539C56.9525 15.1778 57.2991 14.882 57.7056 14.7024C58.931 14.1423 60.2697 13.8874 61.611 13.9588C62.2884 13.9524 62.9651 14.0071 63.6331 14.1224C64.1405 14.2054 64.6327 14.3658 65.0931 14.5983C65.4763 14.7738 65.7956 15.0678 66.0056 15.4386C66.2159 16.0155 66.303 16.6315 66.2611 17.2455V23.1198C66.2415 23.3856 66.3167 23.6496 66.4727 23.8634C66.5653 23.9484 66.6739 24.0133 66.7919 24.0542C66.9098 24.0951 67.0347 24.1111 67.1589 24.1014C67.3045 24.095 67.4458 24.0488 67.5677 23.9675C67.6572 23.9021 67.7592 23.8565 67.867 23.8337C67.9031 23.8336 67.9388 23.8416 67.9716 23.857C68.0044 23.8724 68.0335 23.8949 68.0568 23.9229C68.0857 23.9504 68.1084 23.9839 68.1235 24.0211C68.1386 24.0583 68.1458 24.0983 68.1444 24.1386C68.1444 24.4955 67.8743 24.8821 67.3341 25.306C66.7965 25.7196 66.1391 25.9393 65.4654 25.9306C64.8801 25.9442 64.3072 25.7584 63.8375 25.4027C63.3713 25.0522 63.0221 24.5641 62.8374 24.0047ZM62.7498 19.8778H62.414C61.5752 19.8056 60.7338 19.9812 59.9904 20.3834C59.7458 20.5869 59.5544 20.8489 59.4334 21.146C59.3124 21.4431 59.2655 21.7662 59.2969 22.0863C59.2465 22.6983 59.3761 23.3118 59.6692 23.8486C59.8091 24.0344 59.993 24.1809 60.2036 24.2746C60.4143 24.3682 60.6449 24.4059 60.8737 24.384C61.1255 24.3942 61.3764 24.349 61.6095 24.2515C61.8426 24.154 62.0522 24.0064 62.2242 23.8188C62.5818 23.4111 62.7702 22.878 62.7498 22.3316V19.8927V19.8778ZM74.2618 21.1196C74.2056 22.1789 74.5013 23.2267 75.1013 24.0939C75.3421 24.4468 75.6646 24.7338 76.0402 24.9297C76.4158 25.1255 76.8329 25.2241 77.2547 25.2168C77.4738 25.2423 77.6956 25.2217 77.9065 25.1565C78.1174 25.0913 78.313 24.9827 78.4811 24.8375C78.7592 24.4185 78.8833 23.9129 78.8315 23.4099V16.7547C78.8774 16.238 78.7679 15.7194 78.5176 15.2675C78.386 15.1155 78.2206 14.9976 78.0352 14.9239C77.8498 14.8502 77.6498 14.8227 77.4518 14.8437C77.0058 14.8291 76.5628 14.9226 76.1592 15.1165C75.7556 15.3104 75.4031 15.5992 75.1305 15.9591C74.517 16.8209 74.2106 17.8702 74.2618 18.9334V21.1047V21.1196ZM68.8379 25.6927V24.8227H70.3782V7.69036H68.8379V6.82038C69.7212 6.82038 70.6118 6.746 71.517 6.68651C72.4222 6.62703 73.3347 6.56012 74.2618 6.47089V16.2045C74.6334 15.5341 75.1691 14.9731 75.8167 14.576C76.4537 14.2048 77.178 14.0171 77.9117 14.0332C78.6246 14.017 79.3322 14.162 79.9835 14.4578C80.6348 14.7535 81.2137 15.1926 81.6785 15.7434C82.683 16.9501 83.2043 18.4979 83.1385 20.0786C83.1844 21.645 82.6442 23.1707 81.6274 24.3468C81.166 24.897 80.5913 25.3369 79.944 25.6351C79.2967 25.9332 78.5928 26.0824 77.8825 26.0719C77.1473 26.0886 76.4212 25.9037 75.7802 25.5365C75.133 25.1446 74.5991 24.5853 74.2326 23.9155V25.7224L68.8379 25.6927ZM86.1168 9.42294C86.1125 9.15684 86.1621 8.89268 86.2626 8.64701C86.3631 8.40135 86.5123 8.17945 86.7009 7.99524C86.8855 7.80414 87.1061 7.65295 87.3494 7.55074C87.5927 7.44852 87.8538 7.39739 88.117 7.40038C88.3734 7.39502 88.628 7.44453 88.8644 7.54572C89.1008 7.64691 89.3137 7.79751 89.4894 7.98779C89.6735 8.17584 89.8183 8.39999 89.9149 8.64667C90.0115 8.89335 90.058 9.15744 90.0515 9.42294C90.0561 9.69106 90.0081 9.95741 89.9103 10.2064C89.8125 10.4554 89.667 10.682 89.4821 10.8729C89.3052 11.0661 89.0901 11.2189 88.8511 11.3214C88.612 11.424 88.3544 11.4739 88.0951 11.4678C87.8326 11.4737 87.5718 11.4239 87.3292 11.3215C87.0866 11.2191 86.8676 11.0663 86.6862 10.8729C86.5014 10.682 86.3558 10.4554 86.258 10.2064C86.1603 9.95741 86.1123 9.69106 86.1168 9.42294ZM84.5182 25.6927V24.8227H86.1972V15.2527H84.343V14.3827C85.3723 14.3827 86.3723 14.3083 87.3286 14.2488C88.2849 14.1893 89.2266 14.115 90.1245 14.0332V24.8524H91.8911V25.7224L84.5182 25.6927ZM92.4751 24.8227H94.1906V15.156H92.3072V14.2563C93.3073 14.2563 94.2855 14.2563 95.2272 14.2042C96.1688 14.1522 97.1397 14.1224 98.0887 14.0555V16.9332C98.5273 16.039 99.1801 15.2717 99.9867 14.7024C100.786 14.2234 101.703 13.9862 102.629 14.0183C103.083 13.9641 103.544 14.0018 103.983 14.1294C104.423 14.257 104.834 14.472 105.192 14.7619C105.673 15.2899 105.922 16.3904 105.922 18.0857V24.7781H107.579V25.648H100.651V24.7781H102.111V16.8142C102.146 16.4093 102.049 16.004 101.834 15.6616C101.722 15.5364 101.584 15.4396 101.429 15.3788C101.274 15.3181 101.108 15.2953 100.943 15.3122C100.548 15.3434 100.166 15.4738 99.8325 15.6918C99.4988 15.9098 99.2232 16.2085 99.0304 16.5614C98.4582 17.3957 98.157 18.3917 98.169 19.4093V24.8524H99.629V25.7224H92.5481V24.8524L92.4751 24.8227ZM108.06 24.8227H109.798V15.2527H107.951V14.3827H109.834V13.8175C109.731 11.8536 110.371 9.92401 111.623 8.42651C112.246 7.75716 113.003 7.2331 113.844 6.89038C114.684 6.54766 115.588 6.39441 116.492 6.44114C117.555 6.3879 118.612 6.64593 119.536 7.18473C119.877 7.37807 120.16 7.66059 120.358 8.00309C120.556 8.34559 120.66 8.73564 120.66 9.13293C120.665 9.37107 120.622 9.60775 120.533 9.82793C120.444 10.0481 120.311 10.247 120.142 10.4119C119.969 10.5855 119.764 10.7213 119.538 10.8108C119.312 10.9004 119.07 10.9418 118.828 10.9324C118.596 10.9465 118.364 10.9104 118.147 10.8264C117.93 10.7424 117.733 10.6126 117.569 10.4454C117.404 10.2781 117.277 10.0773 117.194 9.85623C117.112 9.63513 117.077 9.39876 117.09 9.16268C117.1 8.88115 117.151 8.60273 117.244 8.33728C117.318 8.1409 117.37 7.93623 117.397 7.72753C117.398 7.65201 117.375 7.57811 117.334 7.51568C117.292 7.45324 117.233 7.40526 117.163 7.37807C116.949 7.29597 116.721 7.25804 116.492 7.26651C116.074 7.23741 115.656 7.32782 115.286 7.52752C114.916 7.72722 114.608 8.02829 114.397 8.39678C113.88 9.56181 113.657 10.8397 113.747 12.1147C113.747 12.3824 113.747 12.6501 113.747 12.9327C113.747 13.2152 113.747 13.3565 113.747 13.3788V14.4273H116.711C117.747 14.4273 118.675 14.4273 119.478 14.3381C120.281 14.2488 121.032 14.1893 121.667 14.0778V24.897H123.281V25.767H116.251V24.897H117.799V15.2527H113.74V24.8524H115.141V25.7224H108.09V24.8524L108.06 24.8227ZM129.165 18.6509H132.931V16.4201C132.953 16.1771 132.924 15.9321 132.846 15.7014C132.768 15.4707 132.643 15.2594 132.479 15.0816C132.058 14.7666 131.538 14.621 131.019 14.6727C130.513 14.6311 130.01 14.7851 129.61 15.1039C129.444 15.2765 129.317 15.4833 129.236 15.7104C129.155 15.9374 129.124 16.1794 129.143 16.4201V18.6509H129.165ZM136.129 21.8557L136.786 22.0788C136.42 23.27 135.691 24.3117 134.705 25.0532C133.65 25.7382 132.414 26.0757 131.165 26.0198C129.441 26.1092 127.748 25.5359 126.42 24.4137C125.835 23.8772 125.373 23.2159 125.068 22.4769C124.762 21.7378 124.621 20.9392 124.653 20.138C124.633 19.3158 124.786 18.4987 125.102 17.7418C125.418 16.985 125.89 16.306 126.485 15.7509C127.743 14.5775 129.402 13.9529 131.106 14.0109C131.842 13.9685 132.578 14.0741 133.273 14.3216C133.968 14.5691 134.609 14.9537 135.158 15.4534C135.657 15.9705 136.045 16.5881 136.297 17.2668C136.548 17.9455 136.657 18.6702 136.618 19.3945V19.5432H129.165V22.3986C129.085 23.196 129.264 23.998 129.676 24.6814C129.908 24.9116 130.188 25.0863 130.494 25.1931C130.801 25.2998 131.127 25.3358 131.449 25.2986C132.477 25.3352 133.488 25.0327 134.333 24.436C135.171 23.784 135.797 22.8901 136.129 21.8706V21.8557ZM137.873 24.8301H139.53V7.69036H137.705V6.82038C138.727 6.82038 139.72 6.73858 140.684 6.67909C141.647 6.61961 142.582 6.54525 143.472 6.47089V24.8524H145.268V25.7224H137.881V24.8524L137.873 24.8301ZM155.605 21.1121V18.9409C155.657 17.8763 155.348 16.8258 154.729 15.9665C154.462 15.6091 154.116 15.3215 153.719 15.1276C153.321 14.9336 152.884 14.8388 152.444 14.8511C152.239 14.8277 152.032 14.8539 151.839 14.9276C151.646 15.0012 151.473 15.1203 151.334 15.275C151.082 15.8034 150.978 16.3929 151.035 16.9778V23.0232C150.979 23.6264 151.088 24.2338 151.349 24.7781C151.48 24.941 151.648 25.0679 151.84 25.1471C152.031 25.2264 152.239 25.2554 152.444 25.2316C152.884 25.2439 153.321 25.1492 153.719 24.9552C154.116 24.7612 154.462 24.4736 154.729 24.1162C155.347 23.2564 155.656 22.2063 155.605 21.1419V21.1121ZM155.605 25.6852V23.8783C155.225 24.5427 154.688 25.0999 154.043 25.4993C153.396 25.8664 152.666 26.0512 151.926 26.0347C151.215 26.0452 150.512 25.8961 149.864 25.5979C149.217 25.2997 148.642 24.8598 148.181 24.3096C147.159 23.1362 146.616 21.6093 146.662 20.0414C146.607 18.4559 147.142 16.9077 148.159 15.7063C148.624 15.1554 149.203 14.7163 149.854 14.4206C150.505 14.1248 151.213 13.9799 151.926 13.996C152.666 13.98 153.398 14.1675 154.043 14.5388C154.69 14.939 155.227 15.4992 155.605 16.1673V7.69036H153.415V6.82038C154.597 6.82038 155.7 6.746 156.707 6.68651C157.715 6.62703 158.634 6.55268 159.459 6.47089V24.8524H160.999V25.7224L155.605 25.6852Z" fill="white"/>
<path fill-rule="evenodd" clip-rule="evenodd" d="M21.351 31.6055C21.351 31.6055 21.351 31.5534 21.3875 31.5311C21.9788 30.0439 29.1181 29.9621 31.1329 23.2178C32.0089 21.3068 32.0089 17.9309 31.7826 15.8563C31.5563 13.7816 30.8482 10.7404 29.5926 9.16395C29.359 8.85164 29.1254 8.55421 28.8626 8.25677C28.1326 7.36447 28.1326 7.1637 28.337 6.02601C28.3479 5.88494 28.3479 5.74322 28.337 5.60215C28.337 4.26369 27.3953 2.9178 26.4828 2.02549C25.5909 1.10233 24.4672 0.446433 23.2344 0.129349C23.1081 0.118342 22.9811 0.118342 22.8547 0.129349C11.7662 0.709349 6.84601 0.411904 4.32024 1.09601C3.63012 1.36978 3.00541 1.79064 2.48796 2.33037C1.80177 2.89549 0.714087 4.13728 0.816286 5.46087C0.954984 5.55754 1.00608 7.27522 1.18128 7.29009C1.96841 5.21024 3.27726 3.37703 4.97724 1.97344C6.67812 0.679591 9.1528 1.05882 11.7881 0.954722C16.1096 0.783697 20.8108 0.895231 22.8547 1.97344H22.9715C23.8343 2.22661 24.6154 2.70911 25.2345 3.37139C25.782 3.91421 26.5339 4.79908 26.5339 5.60215C26.5339 5.63933 26.5339 5.66909 26.5339 5.70627V5.75088C26.2273 7.80319 26.1981 7.84036 27.4537 9.41677L28.1326 10.2942C29.1619 11.655 29.7313 14.4137 29.9138 16.0942C31.6439 29.3078 20.3071 28.6832 18.2339 31.0775C18.2339 31.1668 18.504 31.4047 18.7668 31.6426L21.351 31.6055Z" fill="white"/>
<path fill-rule="evenodd" clip-rule="evenodd" d="M0.948998 17.7158L1.2483 19.203C2.28045 18.679 3.21243 17.9714 4.00037 17.1135C5.099 15.9956 6.04215 14.7296 6.80354 13.351C7.1794 12.4602 7.7633 11.6765 8.50442 11.0682C9.48261 10.4287 10.9134 10.4807 12.023 10.5922C13.587 10.6617 15.1311 10.9778 16.6 11.5292C17.0561 11.7262 17.4412 12.062 17.7026 12.4907C17.9639 12.9193 18.0888 13.4198 18.06 13.9235C18.0965 14.9256 18.3667 15.9044 18.8484 16.7789C19.0325 17.1299 19.1677 17.5053 19.2499 17.8943C19.4908 19.3815 17.8994 20.601 16.8336 21.3371C15.1588 22.5419 13.584 23.8849 12.1252 25.3525C11.5801 25.9129 11.0024 26.4393 10.3951 26.9289C9.9804 27.3098 9.43439 27.5077 8.87672 27.4792C8.69145 27.4479 8.5148 27.3769 8.35843 27.271C7.05346 26.4535 5.66265 25.7875 4.21206 25.2856C3.64267 25.0625 3.06598 24.8766 2.48199 24.6981C2.22941 24.6376 1.98448 24.5478 1.75199 24.4305H0.737305V25.2707C1.65907 25.8729 2.6526 26.3527 3.69376 26.6984C5.03796 27.1566 6.32819 27.7651 7.54083 28.5127C8.06842 28.9388 8.72982 29.1555 9.40231 29.1225C10.709 28.9812 12.2566 27.3304 13.1618 26.4456C14.565 25.0361 16.0787 23.7454 17.6877 22.5863C19.0382 21.6494 21.1406 20.073 20.9143 18.1248C20.7783 17.4153 20.5319 16.7325 20.1843 16.1022C19.8059 15.4183 19.5862 14.6552 19.5419 13.8715C19.5939 13.0731 19.3957 12.2786 18.9759 11.6024C18.5561 10.9262 17.9363 10.4033 17.2059 10.1089C15.5853 9.48356 13.8781 9.1222 12.1471 9.03815C10.6871 8.88943 8.98621 8.89687 7.67953 9.74456C6.71485 10.4827 5.95925 11.4679 5.48955 12.5999C4.79731 13.8463 3.94005 14.9898 2.94187 15.9982C2.36113 16.6643 1.69009 17.2427 0.948998 17.7158Z" fill="white"/>
<path fill-rule="evenodd" clip-rule="evenodd" d="M8.5413 16.3179C8.14722 17.1363 7.65696 17.9028 7.08131 18.6007C6.59222 19.2328 5.65782 20.3556 5.70892 21.2033C5.71934 21.3951 5.76907 21.5825 5.85492 21.7535C6.30751 22.564 7.877 22.4971 8.62889 22.4971C10.3079 22.393 10.7167 21.9543 11.6584 20.6679C12.1899 19.9145 12.7939 19.2171 13.4614 18.5858C13.7511 18.3991 13.9853 18.1353 14.1387 17.823C14.292 17.5106 14.3588 17.1616 14.3318 16.8134C14.3047 16.4653 14.1849 16.1313 13.9852 15.8474C13.7855 15.5635 13.5136 15.3405 13.1986 15.2025C12.7029 14.9398 12.1579 14.7878 11.6 14.7564C10.9947 14.6627 10.3758 14.7653 9.83087 15.0495C9.28592 15.3337 8.84247 15.7852 8.56319 16.3402L8.5413 16.3179ZM11.4978 16.0353C11.8693 16.0586 12.2322 16.1599 12.5635 16.3328C12.7628 16.4176 12.9223 16.5774 13.0088 16.7789C13.1037 17.0912 12.7679 17.411 12.5635 17.5969C11.8387 18.2866 11.1811 19.0461 10.5999 19.8648C9.98668 20.7125 9.62898 21.0992 8.53399 21.1661C8.25106 21.1806 7.97124 21.2331 7.7018 21.3223C7.5047 21.3966 7.27841 21.5379 7.08131 21.3669C7.01759 21.3038 6.97865 21.2192 6.97181 21.1289C6.97181 20.7646 7.8405 19.7012 8.06679 19.4038C8.73019 18.619 9.28975 17.749 9.73118 16.8161C10.0086 16.1394 10.8627 15.9907 11.4978 16.0353Z" fill="white"/>
<path fill-rule="evenodd" clip-rule="evenodd" d="M5.75254 16.3377C6.25115 15.7763 6.71673 15.1854 7.14683 14.568C8.57032 12.5975 9.43171 11.4077 12.9868 12.3372C13.3495 12.4143 13.7023 12.5341 14.038 12.6941C14.4103 12.9008 14.7581 13.1503 15.0745 13.4377L15.33 13.6533C16.352 14.4936 18.104 15.9436 17.6368 17.7059C17.0601 19.8772 15.5271 21.0298 13.8263 22.3087C13.4102 22.621 12.9795 22.9482 12.6072 23.2531L12.4831 23.3572C12.3809 23.5728 12.2714 23.8108 11.1837 24.6287C10.5219 25.1719 9.78363 25.6106 8.99371 25.93C8.6308 26.084 8.23247 26.1302 7.84488 26.063C7.45728 25.9959 7.09629 25.8183 6.80373 25.5508C5.92532 24.8642 5.00622 24.2335 4.05166 23.6621C3.92993 23.5831 3.81514 23.4935 3.70856 23.3944C3.4105 23.1166 3.187 22.7659 3.05925 22.3755C2.9315 21.9851 2.90373 21.568 2.97857 21.1636C3.14634 20.2493 3.49938 19.3807 4.01516 18.6131C4.52175 17.8178 5.09839 17.0711 5.73794 16.3823L5.75254 16.3377ZM8.35862 15.4826C7.89434 16.1421 7.39475 16.7751 6.86213 17.3787C6.28067 18.0038 5.7554 18.6807 5.29264 19.4013C4.89808 19.9785 4.62243 20.6311 4.48235 21.3198C4.44675 21.4761 4.44874 21.6388 4.48814 21.7942C4.52754 21.9495 4.60319 22.0929 4.70866 22.2121L4.81815 22.3013C5.84869 22.9241 6.84313 23.6068 7.79652 24.3462C7.89662 24.4312 8.01844 24.4855 8.14772 24.5027C8.277 24.5198 8.40839 24.499 8.52652 24.4428C9.15293 24.1692 9.73791 23.8062 10.2639 23.3646C11.045 22.7772 11.0742 22.7251 11.0961 22.6731C11.215 22.4092 11.4048 22.1849 11.6436 22.0262C12.1035 21.6544 12.5123 21.3495 12.9138 21.0446C14.3738 19.9367 15.7169 18.9329 16.1549 17.2746C16.3739 16.4716 15.0964 15.4231 14.3591 14.8134L14.1037 14.5977C13.8832 14.3827 13.6381 14.1954 13.3737 14.04C13.1389 13.9357 12.8943 13.856 12.6437 13.8021C10.0157 13.1552 9.4025 14.0252 8.32941 15.4826H8.35862Z" fill="white"/>
<path fill-rule="evenodd" clip-rule="evenodd" d="M0.737157 13.5364C1.69345 12.4805 2.45264 11.5659 3.09503 10.7851C6.3289 6.88128 7.05889 6.00384 15.0742 6.60615C17.1547 6.7623 18.3811 6.96307 19.4542 7.71409C20.5273 8.46512 21.1988 9.63254 22.2646 11.7741C22.4403 12.0846 22.6591 12.3676 22.9143 12.6143C23.6443 13.3579 24.2867 14.1015 23.8487 15.7151C23.4381 17.0165 23.4254 18.4142 23.8122 19.7231C24.2356 21.3069 24.4619 22.1769 21.4032 24.6679C20.9233 25.01 20.3937 25.2734 19.8338 25.4487C18.8827 25.7577 17.9929 26.2361 17.2058 26.8615C16.5128 27.5103 15.8822 28.2249 15.3224 28.9956C14.6376 29.9505 13.8518 30.8258 12.9791 31.6056H9.40216C10.3043 31.4817 11.1568 31.1117 11.8695 30.5348C12.7206 29.8014 13.4805 28.9649 14.1325 28.0438C14.7541 27.1816 15.4611 26.3868 16.2422 25.6718C17.1589 24.9371 18.1972 24.3755 19.3082 24.0136C19.71 23.8828 20.0948 23.703 20.4543 23.4782C22.7464 21.6118 22.6004 21.0838 22.3449 20.1172C21.8814 18.5509 21.8967 16.8782 22.3887 15.321C22.4667 15.0187 22.4534 14.6994 22.3505 14.4049C22.2477 14.1104 22.06 13.8544 21.812 13.6702C21.4532 13.3214 21.1503 12.9174 20.9141 12.4731C19.9578 10.562 19.3447 9.49871 18.5782 8.97076C17.8117 8.44281 16.797 8.27922 14.9939 8.13794C7.73048 7.59512 7.09539 8.36101 4.27032 11.7815C3.59872 12.592 2.81033 13.5364 1.81754 14.6369C1.44525 15.0459 1.08755 15.4474 0.759056 15.8415V13.5364H0.737157ZM4.94191 31.6056H8.59187C8.3449 31.5808 8.1006 31.5335 7.86188 31.4643C6.67419 31.0259 5.58816 30.3424 4.67182 29.4566C3.48216 28.6011 2.12502 28.0177 0.693359 27.7464V29.3154C1.77237 29.5328 2.79452 29.9787 3.69362 30.6241C4.11701 30.9513 4.51851 31.2859 4.94191 31.6056Z" fill="white"/>
<path fill-rule="evenodd" clip-rule="evenodd" d="M0.737719 8.7788C4.38768 3.86368 7.54854 1.43959 15.4325 3.38036C16.298 3.56026 17.1774 3.66228 18.0604 3.68523C19.5204 3.75959 20.9001 3.84138 21.9659 4.51061C22.6289 5.07412 23.0612 5.86981 23.1777 6.74137C23.2466 7.05982 23.3571 7.36744 23.5062 7.656C23.9649 8.21795 24.4923 8.71774 25.0757 9.14318C26.4846 10.2883 27.7912 11.3739 27.7036 14.4078C27.6442 16.0314 27.8063 17.6555 28.1854 19.2337C28.7329 21.747 28.9154 22.4608 24.6158 25.926C24.0229 26.3492 23.3674 26.6731 22.674 26.8852C21.4314 27.2918 20.268 27.9159 19.2357 28.7293C18.3346 29.5691 17.5178 30.4982 16.7976 31.5029L16.7392 31.5772H14.8047C15.0821 31.2352 15.3522 30.8932 15.615 30.5437C16.4042 29.4647 17.2967 28.4684 18.2794 27.5693C19.4368 26.6421 20.7468 25.932 22.1484 25.4724C22.6903 25.297 23.2061 25.0468 23.6814 24.7288C27.2145 21.8511 27.105 21.338 26.7108 19.5237C26.3049 17.8211 26.1329 16.0693 26.1999 14.3186C26.2656 12.0283 25.2436 11.1955 24.134 10.2957C23.4497 9.78165 22.8338 9.17927 22.3017 8.50368C22.0271 8.06761 21.8341 7.58359 21.7323 7.076C21.5717 6.51087 21.4038 5.90111 21.1702 5.75983C20.4402 5.29137 19.2357 5.22445 17.9801 5.15753C16.9986 5.13442 16.0212 5.01993 15.0602 4.81548C7.27845 2.89702 4.57748 5.81933 0.71582 11.3293V8.71933L0.737719 8.7788ZM0.737719 31.607H2.059C1.63172 31.3818 1.19034 31.1856 0.737719 31.0196V31.607Z" fill="white"/>
</svg>
