<?xml version="1.0" encoding="utf-8"?>
<!-- Generator: Adobe Illustrator 23.0.1, SVG Export Plug-In . SVG Version: 6.00 Build 0)  -->
<svg version="1.1" id="Layer_1" xmlns="http://www.w3.org/2000/svg" xmlns:xlink="http://www.w3.org/1999/xlink" x="0px" y="0px"
	 viewBox="0 0 189 52" style="enable-background:new 0 0 189 52;" xml:space="preserve">
<style type="text/css">
	.st0{fill:none;}
	.st1{fill-rule:evenodd;clip-rule:evenodd;fill:#B3522C;}
</style>
<rect class="st0" width="189" height="52"/>
<g>
	<path class="st1" d="M37.5,44.8V7.1H0v37.7H37.5z M2.1,42.7V9.3h33.2v33.4H2.1z"/>
	<path class="st1" d="M61.9,30.3v6.6h-1.1l-1.5-1.2c-0.7,0.6-1.4,1-2.3,1.3c-0.9,0.3-1.9,0.5-2.9,0.4c-1.4,0-2.8-0.3-4.1-0.9
		c-1.3-0.6-2.5-1.6-3.5-2.7c-1-1.1-1.8-2.3-2.4-3.7c-0.5-1.4-0.8-2.8-0.8-4.2c0-1.4,0.3-2.9,0.8-4.2c0.6-1.4,1.4-2.6,2.4-3.7
		c1-1.1,2.2-2,3.5-2.6c1.3-0.6,2.7-0.9,4.1-0.9c0.9,0,1.7,0.1,2.6,0.4c0.8,0.3,1.6,0.7,2.4,1.2l1.2-1.1h1.1l0.1,6h-1.2
		c-0.5-1.6-1.4-3-2.6-4.2c-1-0.9-2.4-1.3-3.7-1.3c-1.7,0-2.8,0.6-3.4,1.7c-0.6,1.1-0.9,3.9-0.9,8.4c0,2.4,0,4.1,0.1,5.3
		c0,0.9,0.1,1.7,0.3,2.5c0.2,0.9,0.6,1.8,1.3,2.4c0.8,0.5,1.7,0.8,2.6,0.7c1.6,0,3-0.6,4.1-1.7c1.2-1.2,2.1-2.7,2.4-4.4L61.9,30.3z
		 M73.8,34.9c-0.6,0.7-1.3,1.3-2.2,1.7c-0.9,0.4-1.9,0.6-2.8,0.5c-0.9,0-1.9-0.3-2.6-0.9c-0.3-0.3-0.6-0.7-0.7-1.1
		c-0.2-0.4-0.2-0.9-0.2-1.3c0-0.7,0.2-1.4,0.6-2.1c0.4-0.6,1-1.1,1.6-1.4c1.9-0.9,4-1.4,6.2-1.3V26c0-0.3,0-0.5-0.1-0.8
		c-0.1-0.3-0.2-0.5-0.4-0.7c-0.5-0.3-1.2-0.4-1.8-0.4c-0.4,0-0.9,0-1.3,0.2c-0.1,0-0.2,0.1-0.3,0.2c-0.1,0.1-0.1,0.2-0.1,0.4
		c0.1,0.2,0.2,0.5,0.3,0.7c0.2,0.3,0.3,0.7,0.3,1.1c0,0.3,0,0.5-0.1,0.8c-0.1,0.3-0.3,0.5-0.5,0.7c-0.5,0.4-1.1,0.6-1.7,0.5
		c-0.3,0-0.5,0-0.8-0.1c-0.3-0.1-0.5-0.2-0.7-0.4c-0.2-0.2-0.3-0.5-0.4-0.7c-0.1-0.3-0.1-0.5-0.1-0.8c0-0.5,0.2-1,0.4-1.5
		c0.3-0.4,0.7-0.8,1.2-1c1.4-0.6,3-0.9,4.6-0.9c0.8,0,1.6,0.1,2.4,0.2c0.6,0.1,1.2,0.3,1.7,0.6c0.5,0.2,0.8,0.5,1.1,1
		c0.2,0.7,0.3,1.4,0.3,2.1v6.8c0,0.3,0.1,0.6,0.2,0.9c0.1,0.1,0.2,0.2,0.4,0.2s0.3,0.1,0.4,0.1c0.2,0,0.3-0.1,0.5-0.2
		c0.1-0.1,0.2-0.1,0.4-0.2c0,0,0.1,0,0.1,0c0,0,0.1,0,0.1,0.1c0,0,0.1,0.1,0.1,0.1c0,0,0,0.1,0,0.1c0,0.4-0.3,0.9-1,1.4
		c-0.6,0.5-1.4,0.7-2.2,0.7c-0.7,0-1.4-0.2-1.9-0.6C74.5,36.2,74.1,35.6,73.8,34.9z M73.7,30.1h-0.4c-1-0.1-2,0.1-2.8,0.6
		c-0.3,0.2-0.5,0.5-0.7,0.9c-0.1,0.3-0.2,0.7-0.2,1.1c-0.1,0.7,0.1,1.4,0.4,2c0.2,0.2,0.4,0.4,0.6,0.5c0.2,0.1,0.5,0.2,0.8,0.1
		c0.3,0,0.6,0,0.9-0.2c0.3-0.1,0.5-0.3,0.7-0.5c0.4-0.5,0.6-1.1,0.6-1.7V30.1L73.7,30.1z M87.3,31.6c-0.1,1.2,0.3,2.4,1,3.5
		c0.3,0.4,0.7,0.7,1.1,1c0.4,0.2,0.9,0.3,1.4,0.3c0.3,0,0.5,0,0.8-0.1c0.2-0.1,0.5-0.2,0.7-0.4c0.3-0.5,0.5-1.1,0.4-1.7v-7.7
		c0.1-0.6-0.1-1.2-0.4-1.7c-0.2-0.2-0.3-0.3-0.6-0.4c-0.2-0.1-0.5-0.1-0.7-0.1c-0.5,0-1,0.1-1.5,0.3c-0.5,0.2-0.9,0.6-1.2,1
		c-0.7,1-1.1,2.2-1,3.5V31.6L87.3,31.6z M80.9,36.9v-1h1.8V16h-1.8v-1c1,0,2.1-0.1,3.1-0.2c1.1-0.1,2.1-0.1,3.2-0.3v11.3
		c0.4-0.8,1.1-1.4,1.8-1.9c0.7-0.4,1.6-0.6,2.5-0.6c0.8,0,1.7,0.1,2.4,0.5c0.8,0.3,1.4,0.9,2,1.5c1.2,1.4,1.8,3.2,1.7,5
		c0.1,1.8-0.6,3.6-1.8,5c-0.5,0.6-1.2,1.1-2,1.5c-0.8,0.3-1.6,0.5-2.4,0.5c-0.9,0-1.7-0.2-2.5-0.6c-0.8-0.5-1.4-1.1-1.8-1.9v2.1
		L80.9,36.9z M101.2,18c0-0.3,0.1-0.6,0.2-0.9c0.1-0.3,0.3-0.5,0.5-0.8c0.2-0.2,0.5-0.4,0.8-0.5c0.3-0.1,0.6-0.2,0.9-0.2
		c0.3,0,0.6,0.1,0.9,0.2c0.3,0.1,0.5,0.3,0.7,0.5c0.2,0.2,0.4,0.5,0.5,0.8c0.1,0.3,0.2,0.6,0.2,0.9c0,0.3-0.1,0.6-0.2,0.9
		c-0.1,0.3-0.3,0.6-0.5,0.8c-0.2,0.2-0.5,0.4-0.7,0.5c-0.3,0.1-0.6,0.2-0.9,0.2c-0.3,0-0.6-0.1-0.9-0.2c-0.3-0.1-0.5-0.3-0.8-0.5
		c-0.2-0.2-0.4-0.5-0.5-0.8C101.3,18.6,101.2,18.3,101.2,18z M99.3,36.9v-1h2V24.8h-2.2v-1c1.2,0,2.4-0.1,3.5-0.2
		c1.1-0.1,2.2-0.2,3.3-0.3v12.6h2.1v1L99.3,36.9z M108.7,35.9h2V24.7h-2.2v-1c1.2,0,2.3,0,3.4-0.1c1.1-0.1,2.2-0.1,3.4-0.2v3.3
		c0.5-1,1.3-1.9,2.2-2.6c0.9-0.6,2-0.8,3.1-0.8c0.5-0.1,1.1,0,1.6,0.1c0.5,0.1,1,0.4,1.4,0.7c0.6,0.6,0.9,1.9,0.9,3.9v7.8h1.9v1
		h-8.1v-1h1.7v-9.2c0-0.5-0.1-0.9-0.3-1.3c-0.1-0.1-0.3-0.3-0.5-0.3c-0.2-0.1-0.4-0.1-0.6-0.1c-0.5,0-0.9,0.2-1.3,0.4
		s-0.7,0.6-0.9,1c-0.7,1-1,2.1-1,3.3v6.3h1.7v1h-8.3L108.7,35.9L108.7,35.9z M127,35.9h2V24.8h-2.2v-1h2.2v-0.7
		c-0.1-2.3,0.6-4.5,2.1-6.3c0.7-0.8,1.6-1.4,2.6-1.8c1-0.4,2-0.6,3.1-0.5c1.3-0.1,2.5,0.2,3.6,0.9c0.4,0.2,0.7,0.6,1,0.9
		c0.2,0.4,0.4,0.9,0.4,1.3c0,0.3,0,0.6-0.2,0.8c-0.1,0.3-0.3,0.5-0.5,0.7c-0.2,0.2-0.4,0.4-0.7,0.5c-0.3,0.1-0.6,0.2-0.8,0.1
		c-0.3,0-0.5,0-0.8-0.1c-0.3-0.1-0.5-0.2-0.7-0.4c-0.2-0.2-0.3-0.4-0.4-0.7c-0.1-0.3-0.1-0.5-0.1-0.8c0-0.3,0.1-0.6,0.2-1
		c0.1-0.2,0.1-0.5,0.2-0.7c0-0.1,0-0.2-0.1-0.2c0-0.1-0.1-0.1-0.2-0.2c-0.3-0.1-0.5-0.1-0.8-0.1c-0.5,0-1,0.1-1.4,0.3
		c-0.4,0.2-0.8,0.6-1,1c-0.6,1.4-0.9,2.8-0.8,4.3c0,0.3,0,0.6,0,0.9s0,0.5,0,0.5v1.2h3.5c1.2,0,2.3,0,3.3-0.1
		c0.9-0.1,1.8-0.2,2.6-0.3V36h1.9v1h-8.3v-1h1.8V24.8h-4.8v11.1h1.6v1H127L127,35.9L127,35.9z M151.8,28.7h4.4v-2.6
		c0-0.3,0-0.6-0.1-0.8c-0.1-0.3-0.2-0.5-0.4-0.7c-0.5-0.4-1.1-0.5-1.7-0.5c-0.6,0-1.2,0.1-1.7,0.5c-0.2,0.2-0.3,0.4-0.4,0.7
		c-0.1,0.3-0.1,0.5-0.1,0.8L151.8,28.7L151.8,28.7z M160,32.4l0.8,0.3c-0.4,1.4-1.3,2.6-2.4,3.5c-1.2,0.8-2.7,1.2-4.2,1.1
		c-2,0.1-4-0.6-5.6-1.9c-0.7-0.6-1.2-1.4-1.6-2.2c-0.4-0.9-0.5-1.8-0.5-2.7c0-1,0.2-1.9,0.5-2.8c0.4-0.9,0.9-1.7,1.6-2.3
		c1.5-1.4,3.4-2.1,5.4-2c0.9,0,1.7,0.1,2.5,0.4c0.8,0.3,1.6,0.7,2.2,1.3c0.6,0.6,1,1.3,1.3,2.1c0.3,0.8,0.4,1.6,0.4,2.5v0.2h-8.8
		v3.3c-0.1,0.9,0.1,1.9,0.6,2.6c0.3,0.3,0.6,0.5,1,0.6c0.4,0.1,0.7,0.2,1.1,0.1c1.2,0,2.4-0.3,3.4-1C158.8,34.7,159.6,33.6,160,32.4
		L160,32.4z M162,35.9h1.9V16h-2.1v-1c1.2,0,2.4-0.1,3.5-0.2c1.1-0.1,2.2-0.2,3.3-0.2v21.3h2.1v1H162L162,35.9L162,35.9z
		 M182.9,31.6v-2.5c0.1-1.2-0.3-2.5-1-3.5c-0.3-0.4-0.7-0.7-1.2-1s-1-0.3-1.5-0.3c-0.2,0-0.5,0-0.7,0.1c-0.2,0.1-0.4,0.2-0.6,0.4
		c-0.3,0.6-0.4,1.3-0.4,2v7c-0.1,0.7,0.1,1.4,0.4,2c0.2,0.2,0.4,0.3,0.6,0.4c0.2,0.1,0.5,0.1,0.7,0.1c0.5,0,1-0.1,1.5-0.3
		c0.5-0.2,0.9-0.6,1.2-1C182.6,34.1,182.9,32.9,182.9,31.6L182.9,31.6z M182.9,36.9v-2.1c-0.4,0.8-1.1,1.4-1.8,1.9
		c-0.8,0.4-1.6,0.6-2.5,0.6c-0.8,0-1.7-0.2-2.4-0.5c-0.8-0.3-1.4-0.9-2-1.5c-1.2-1.4-1.8-3.1-1.8-5c-0.1-1.8,0.6-3.6,1.8-5
		c0.5-0.6,1.2-1.1,2-1.5c0.8-0.3,1.6-0.5,2.4-0.5c0.9,0,1.7,0.2,2.5,0.6c0.8,0.5,1.4,1.1,1.8,1.9V16h-2.6v-1c1.4,0,2.7-0.1,3.9-0.2
		c1.2-0.1,2.3-0.2,3.2-0.3v21.3h1.8v1L182.9,36.9z"/>
	<path class="st1" d="M25.1,43.8C25.1,43.8,25.1,43.7,25.1,43.8c0.7-1.8,9.1-1.9,11.5-9.7c1-2.2,1-6.1,0.8-8.5
		c-0.3-2.4-1.1-5.9-2.6-7.8c-0.3-0.4-0.5-0.7-0.9-1.1c-0.9-1-0.9-1.3-0.6-2.6c0-0.2,0-0.3,0-0.5c0-1.6-1.1-3.1-2.2-4.2
		c-1-1.1-2.4-1.8-3.8-2.2c-0.1,0-0.3,0-0.4,0C13.8,7.9,8,7.6,5.1,8.4C4.3,8.7,3.5,9.2,2.9,9.8c-0.8,0.7-2.1,2.1-2,3.6
		c0.2,0.1,0.2,2.1,0.4,2.1c0.9-2.4,2.5-4.5,4.5-6.2c2-1.5,4.9-1.1,8-1.2c5.1-0.2,10.6-0.1,13,1.2H27c1,0.3,1.9,0.9,2.7,1.6
		c0.6,0.6,1.5,1.7,1.5,2.6c0,0,0,0.1,0,0.1v0.1c-0.4,2.4-0.4,2.4,1.1,4.3l0.8,1c1.2,1.6,1.9,4.8,2.1,6.7c2,15.3-11.3,14.6-13.7,17.4
		c0,0.1,0.3,0.4,0.6,0.7L25.1,43.8z"/>
	<path class="st1" d="M1.1,27.6l0.4,1.7c1.2-0.6,2.3-1.4,3.2-2.4C6,25.6,7.1,24.2,8,22.6c0.4-1,1.1-1.9,2-2.6
		c1.1-0.7,2.8-0.7,4.1-0.6c1.8,0.1,3.7,0.4,5.4,1.1c0.5,0.2,1,0.6,1.3,1.1c0.3,0.5,0.5,1.1,0.4,1.7c0,1.2,0.4,2.3,0.9,3.3
		c0.2,0.4,0.4,0.8,0.5,1.3c0.3,1.7-1.6,3.1-2.8,4c-2,1.4-3.8,3-5.5,4.7c-0.6,0.7-1.3,1.3-2,1.8c-0.5,0.4-1.1,0.7-1.8,0.6
		c-0.2,0-0.4-0.1-0.6-0.2C8.3,37.8,6.7,37,5,36.4c-0.7-0.3-1.3-0.5-2-0.7c-0.3-0.1-0.6-0.2-0.9-0.3H0.9v1c1.1,0.7,2.3,1.3,3.5,1.7
		c1.6,0.5,3.1,1.2,4.5,2.1c0.6,0.5,1.4,0.7,2.2,0.7c1.5-0.2,3.4-2.1,4.4-3.1c1.6-1.6,3.4-3.1,5.3-4.5c1.6-1.1,4.1-2.9,3.8-5.2
		c-0.2-0.8-0.4-1.6-0.9-2.3C23.3,25,23,24.1,23,23.2c0.1-0.9-0.2-1.8-0.7-2.6c-0.5-0.8-1.2-1.4-2.1-1.7c-1.9-0.7-3.9-1.1-5.9-1.2
		c-1.7-0.2-3.7-0.2-5.2,0.8c-1.1,0.9-2,2-2.6,3.3c-0.8,1.4-1.8,2.8-3,3.9C2.8,26.4,2,27.1,1.1,27.6z"/>
	<path class="st1" d="M10,26c-0.5,0.9-1,1.8-1.7,2.6c-0.6,0.7-1.7,2-1.6,3c0,0.2,0.1,0.4,0.2,0.6c0.5,0.9,2.4,0.9,3.3,0.9
		c2-0.1,2.5-0.6,3.6-2.1c0.6-0.9,1.3-1.7,2.1-2.4c0.3-0.2,0.6-0.5,0.8-0.9c0.2-0.4,0.3-0.8,0.2-1.2c0-0.4-0.2-0.8-0.4-1.1
		c-0.2-0.3-0.6-0.6-0.9-0.7c-0.6-0.3-1.2-0.5-1.9-0.5c-0.7-0.1-1.4,0-2.1,0.3C10.9,24.9,10.4,25.4,10,26L10,26z M13.5,25.7
		c0.4,0,0.9,0.1,1.3,0.3c0.2,0.1,0.4,0.3,0.5,0.5c0.1,0.4-0.3,0.7-0.5,0.9c-0.9,0.8-1.6,1.7-2.3,2.6c-0.7,1-1.1,1.4-2.4,1.5
		c-0.3,0-0.7,0.1-1,0.2c-0.2,0.1-0.5,0.3-0.7,0.1c-0.1-0.1-0.1-0.2-0.1-0.3c0-0.4,1-1.7,1.3-2c0.8-0.9,1.4-1.9,2-3
		C11.8,25.8,12.8,25.6,13.5,25.7z"/>
	<path class="st1" d="M6.8,26c0.6-0.7,1.1-1.3,1.6-2.1c1.7-2.3,2.7-3.7,6.9-2.6c0.4,0.1,0.8,0.2,1.2,0.4c0.4,0.2,0.8,0.5,1.2,0.9
		l0.3,0.3c1.2,1,3.3,2.7,2.7,4.7c-0.7,2.5-2.5,3.9-4.5,5.3c-0.5,0.4-1,0.7-1.4,1.1l-0.1,0.1c-0.1,0.3-0.2,0.5-1.5,1.5
		c-0.8,0.6-1.6,1.1-2.6,1.5c-0.4,0.2-0.9,0.2-1.4,0.2C8.8,37.3,8.3,37,8,36.7c-1-0.8-2.1-1.5-3.2-2.2c-0.1-0.1-0.3-0.2-0.4-0.3
		C4,33.9,3.7,33.5,3.6,33c-0.2-0.5-0.2-0.9-0.1-1.4c0.2-1.1,0.6-2.1,1.2-3C5.3,27.8,6,26.9,6.8,26L6.8,26z M9.8,25.1
		c-0.5,0.8-1.1,1.5-1.8,2.2c-0.7,0.7-1.3,1.5-1.8,2.3c-0.5,0.7-0.8,1.4-1,2.2c0,0.2,0,0.4,0,0.6c0,0.2,0.1,0.3,0.3,0.5L5.7,33
		c1.2,0.7,2.4,1.5,3.5,2.4c0.1,0.1,0.3,0.2,0.4,0.2c0.2,0,0.3,0,0.4-0.1c0.7-0.3,1.4-0.7,2-1.3c0.9-0.7,1-0.7,1-0.8
		c0.1-0.3,0.4-0.6,0.6-0.8c0.5-0.4,1-0.8,1.5-1.1c1.7-1.3,3.3-2.5,3.8-4.4c0.3-0.9-1.2-2.1-2.1-2.9L16.6,24
		c-0.3-0.2-0.5-0.5-0.9-0.6c-0.3-0.1-0.6-0.2-0.9-0.3C11.8,22.3,11.1,23.4,9.8,25.1L9.8,25.1z"/>
	<path class="st1" d="M0.9,22.8c1.1-1.2,2-2.3,2.8-3.2c3.8-4.5,4.7-5.5,14.1-4.8c2.4,0.2,3.9,0.4,5.1,1.3c1.3,0.9,2.1,2.2,3.3,4.7
		c0.2,0.4,0.5,0.7,0.8,1c0.9,0.9,1.6,1.7,1.1,3.6c-0.5,1.5-0.5,3.1,0,4.7c0.5,1.8,0.8,2.8-2.8,5.7c-0.6,0.4-1.2,0.7-1.8,0.9
		c-1.1,0.4-2.2,0.9-3.1,1.6c-0.8,0.8-1.6,1.6-2.2,2.5c-0.8,1.1-1.7,2.1-2.8,3H11c1.1-0.1,2.1-0.6,2.9-1.2c1-0.9,1.9-1.8,2.7-2.9
		c0.7-1,1.6-1.9,2.5-2.8c1.1-0.9,2.3-1.5,3.6-1.9c0.5-0.2,0.9-0.4,1.3-0.6c2.7-2.2,2.5-2.8,2.2-3.9c-0.5-1.8-0.5-3.8,0.1-5.6
		c0.1-0.4,0.1-0.7,0-1.1c-0.1-0.3-0.3-0.6-0.6-0.9c-0.4-0.4-0.8-0.9-1.1-1.4c-1.1-2.2-1.8-3.5-2.7-4.1c-0.9-0.6-2.1-0.8-4.2-1
		C9.1,15.9,8.3,16.8,5,20.8c-0.8,0.9-1.7,2-2.9,3.3c-0.4,0.5-0.9,0.9-1.2,1.4L0.9,22.8L0.9,22.8z M5.8,43.8h4.3
		c-0.3,0-0.6-0.1-0.9-0.2c-1.4-0.5-2.7-1.3-3.7-2.3c-1.4-1-3-1.7-4.7-2v1.8c1.3,0.3,2.5,0.8,3.5,1.5C4.8,43,5.3,43.4,5.8,43.8z"/>
	<path class="st1" d="M0.9,17.3c4.3-5.7,8-8.5,17.3-6.3c1,0.2,2.1,0.3,3.1,0.4c1.7,0.1,3.3,0.2,4.6,1c0.8,0.7,1.3,1.6,1.4,2.6
		c0.1,0.4,0.2,0.7,0.4,1.1c0.5,0.7,1.2,1.2,1.8,1.7c1.7,1.3,3.2,2.6,3.1,6.1c-0.1,1.9,0.1,3.8,0.6,5.6c0.6,2.9,0.9,3.7-4.2,7.8
		c-0.7,0.5-1.5,0.9-2.3,1.1c-1.5,0.5-2.8,1.2-4,2.1c-1.1,1-2,2.1-2.9,3.2l-0.1,0.1h-2.3c0.3-0.4,0.6-0.8,1-1.2
		c0.9-1.3,2-2.4,3.1-3.5c1.4-1.1,2.9-1.9,4.5-2.4c0.6-0.2,1.2-0.5,1.8-0.9c4.2-3.3,4-3.9,3.6-6c-0.5-2-0.7-4-0.6-6
		c0.1-2.7-1.1-3.6-2.4-4.7c-0.8-0.6-1.5-1.3-2.2-2.1c-0.3-0.5-0.5-1.1-0.7-1.7c-0.2-0.7-0.4-1.4-0.7-1.5c-0.9-0.5-2.3-0.6-3.7-0.7
		c-1.2,0-2.3-0.2-3.4-0.4c-9.1-2.2-12.3,1.2-16.9,7.6L0.9,17.3L0.9,17.3z M0.9,43.8h1.6c-0.5-0.3-1-0.5-1.6-0.7V43.8z"/>
</g>
</svg>
