<svg width="588" height="588" viewBox="0 0 588 588" fill="none" xmlns="http://www.w3.org/2000/svg">
<path id="seal of approval" fill-rule="evenodd" clip-rule="evenodd" d="M46.5864 230.978L57.1672 227.73L65.8414 234.605L66.0227 223.538L75.2417 217.413L64.7725 213.821L61.7961 203.161L55.1446 212.008L44.0859 211.544L50.4444 220.604L46.5864 230.978ZM519.241 240.971L528.127 234.372L538.6 237.951L535.071 227.461L541.713 218.607L530.645 218.721L524.275 209.669L520.964 220.231L510.387 223.491L519.409 229.904L519.241 240.971ZM48.2267 350.962L47.8452 348.703L39.6746 347.306C39.3369 347.098 39.0258 346.651 38.7397 345.962C38.4536 345.274 38.2233 344.415 38.0497 343.386C37.4413 339.786 38.3745 336.701 40.85 334.13C43.3247 331.559 47.1879 329.829 52.4414 328.941C55.3422 328.451 57.8805 328.324 60.0561 328.562C62.23 328.799 64.0663 329.319 65.5622 330.125C67.0582 330.93 68.2216 331.943 69.0508 333.163C69.88 334.383 70.4222 335.746 70.6765 337.252C70.8063 338.024 70.8784 338.785 70.893 339.539C70.9068 340.292 70.8492 340.85 70.722 341.212L62.914 345.647L63.3041 347.961C63.9906 347.996 64.8344 348.015 65.8355 348.016C66.8365 348.017 67.853 347.995 68.8858 347.954C69.9169 347.911 70.8965 347.841 71.8245 347.741C72.7525 347.641 73.5095 347.541 74.0981 347.442C74.4736 346.094 74.6703 344.407 74.6884 342.383C74.7056 340.359 74.5088 338.135 74.0998 335.711C73.6659 333.139 72.8745 330.75 71.7274 328.545C70.5803 326.339 69.0499 324.492 67.1355 323.002C65.2211 321.511 62.9174 320.456 60.2254 319.834C57.5316 319.212 54.4409 319.196 50.9506 319.785C47.4242 320.381 44.4838 321.368 42.1294 322.75C39.7742 324.129 37.926 325.83 36.5872 327.85C35.2468 329.871 34.4099 332.185 34.0756 334.792C33.7423 337.399 33.8325 340.226 34.3472 343.275C34.6883 345.295 35.1875 347.243 35.8431 349.114C36.4996 350.987 37.3408 352.498 38.3659 353.648C39.1006 353.523 39.9237 353.365 40.8363 353.173C41.7479 352.982 42.6648 352.76 43.5859 352.51C44.507 352.26 45.3706 352.001 46.1748 351.733C46.9799 351.465 47.6631 351.207 48.2267 350.962ZM85.6985 389.593C86.1487 390.258 86.6583 390.922 87.2271 391.583C87.7951 392.245 88.4249 392.804 89.1149 393.26L91.1015 392.509L86.2037 379.545L84.218 380.295C84.0444 380.998 83.9628 381.835 83.9722 382.808C83.9808 383.779 84.0487 384.699 84.1776 385.567L64.5745 392.973C62.832 393.631 61.2956 393.992 59.9672 394.056C58.6362 394.12 57.4711 393.932 56.4692 393.496C55.4673 393.058 54.6201 392.423 53.9275 391.589C53.2332 390.755 52.6704 389.764 52.2365 388.614C51.7493 387.324 51.4683 386.105 51.3936 384.96C51.3188 383.813 51.5001 382.739 51.9383 381.737C52.3757 380.736 53.0975 379.825 54.1028 379.008C55.1081 378.19 56.464 377.46 58.1722 376.814L78.2986 369.211C79.1424 370.604 80.1485 371.737 81.3146 372.612L83.3012 371.861L77.2193 355.761L75.2327 356.511C75.0858 357.282 75.0265 358.101 75.0557 358.967C75.0832 359.832 75.1769 360.633 75.3359 361.37L54.9492 369.071C50.3487 370.809 47.4831 373.345 46.3532 376.678C45.2232 380.012 45.5403 384.014 47.3044 388.685C48.924 392.971 51.336 395.853 54.5427 397.33C57.7486 398.806 61.5826 398.703 66.043 397.017L85.6985 389.593ZM89.9649 422.833C89.8291 421.06 89.7656 419.386 89.7733 417.81C89.7793 416.235 89.9735 414.807 90.3567 413.53C90.7382 412.253 91.5356 411.248 92.748 410.516C94.0876 409.709 95.3885 409.557 96.6508 410.063C97.9122 410.569 98.9501 411.494 99.7621 412.84C100.245 413.641 100.633 414.466 100.928 415.314C101.223 416.165 101.391 416.839 101.431 417.339L96.21 423.504L97.3932 425.466C97.9483 425.303 98.6288 425.08 99.433 424.79C100.237 424.501 101.085 424.174 101.975 423.811C102.865 423.447 103.748 423.056 104.626 422.635C105.504 422.215 106.271 421.828 106.928 421.475C106.695 419.789 106.207 418.026 105.469 416.189C104.73 414.35 103.773 412.457 102.599 410.512C101.637 408.917 100.559 407.544 99.3652 406.394C98.1699 405.245 96.8957 404.392 95.5398 403.84C94.1839 403.287 92.7592 403.07 91.2641 403.189C89.7699 403.308 88.2404 403.838 86.6774 404.781C84.8592 405.878 83.5617 407.172 82.7867 408.662C82.0099 410.152 81.5219 411.742 81.3217 413.428C81.1214 415.116 81.0879 416.81 81.2237 418.513C81.3586 420.215 81.4377 421.842 81.4609 423.395C81.4832 424.948 81.3217 426.339 80.9771 427.57C80.6308 428.8 79.8686 429.771 78.6889 430.484C77.0615 431.465 75.4426 431.647 73.8307 431.032C72.2196 430.415 70.8843 429.231 69.8265 427.476C69.1915 426.424 68.8324 425.487 68.7507 424.666C68.6682 423.845 68.6975 423.153 68.8375 422.591L74.6873 416.386L73.5041 414.424C72.8339 414.611 72.0675 414.856 71.2056 415.159C70.3438 415.46 69.4467 415.796 68.5153 416.162C67.583 416.528 66.6559 416.902 65.7339 417.284C64.8111 417.667 63.9733 418.062 63.2214 418.474C63.1458 418.997 63.1965 419.696 63.3744 420.568C63.5514 421.439 63.8074 422.404 64.1434 423.465C64.4785 424.524 64.8944 425.611 65.3928 426.725C65.8903 427.837 66.4462 428.905 67.0623 429.927C69.5834 434.105 72.3622 436.748 75.3997 437.852C78.4371 438.956 81.5502 438.546 84.7406 436.621C86.4944 435.564 87.7386 434.289 88.4715 432.8C89.2045 431.31 89.6702 429.721 89.8687 428.029C90.0663 426.339 90.0981 424.606 89.9649 422.833ZM126.029 463.565C126.717 463.162 127.537 462.644 128.492 462.01C129.446 461.375 130.423 460.695 131.423 459.971C132.422 459.248 133.395 458.521 134.343 457.794C135.289 457.066 136.101 456.409 136.774 455.821L113.371 429C112.725 429.564 111.97 430.272 111.107 431.124C110.244 431.976 109.386 432.849 108.533 433.741C107.68 434.633 106.867 435.515 106.095 436.387C105.323 437.257 104.706 437.996 104.242 438.597L105.748 440.324L115.3 436.736L119.562 441.62L95.6469 462.489C94.8967 461.856 94.0916 461.287 93.228 460.779C92.3654 460.273 91.5757 459.835 90.8617 459.47L89.2617 460.866L101.901 475.349L103.5 473.953C103.291 473.147 102.973 472.301 102.545 471.413C102.116 470.526 101.654 469.656 101.158 468.803L125.073 447.935L129.335 452.819L124.487 461.797L126.029 463.565ZM158.345 478.877C157.865 477.451 156.918 476.194 155.5 475.104C154.141 474.06 152.748 473.519 151.321 473.48C149.895 473.441 148.46 473.795 147.017 474.541C145.574 475.288 144.123 476.382 142.665 477.821C141.205 479.261 139.75 480.926 138.298 482.817C136.845 484.707 135.647 486.571 134.706 488.408C133.763 490.244 133.162 491.99 132.901 493.644C132.638 495.3 132.748 496.839 133.226 498.264C133.705 499.69 134.639 500.936 136.027 502.003C137.297 502.978 138.631 503.475 140.028 503.491C141.424 503.508 142.852 503.148 144.31 502.412C145.768 501.677 147.241 500.601 148.729 499.185C150.217 497.767 151.688 496.113 153.141 494.222C154.593 492.333 155.798 490.474 156.755 488.649C157.711 486.823 158.335 485.095 158.626 483.463C158.917 481.83 158.823 480.302 158.345 478.877ZM164.619 492.861C163.758 495.325 162.444 497.709 160.674 500.014C158.903 502.316 156.937 504.202 154.778 505.667C152.619 507.132 150.361 508.098 148.005 508.566C145.648 509.034 143.233 508.952 140.759 508.319C138.286 507.686 135.837 506.438 133.415 504.578C130.993 502.716 129.158 500.672 127.91 498.444C126.662 496.217 125.953 493.898 125.784 491.49C125.614 489.081 125.96 486.644 126.82 484.181C127.679 481.717 128.994 479.333 130.765 477.028C132.535 474.726 134.501 472.84 136.66 471.375C138.819 469.91 141.084 468.95 143.456 468.493C145.826 468.037 148.25 468.125 150.723 468.758C153.197 469.39 155.645 470.636 158.067 472.498C160.489 474.36 162.325 476.405 163.573 478.632C164.821 480.859 165.521 483.172 165.676 485.569C165.831 487.967 165.478 490.398 164.619 492.861ZM212.271 504.243L195.022 521.293L191.243 525.596L191.192 525.574L191.919 520.017L193.473 495.768L179.667 489.545L178.795 491.481C179.203 492.115 179.737 492.722 180.394 493.305C181.051 493.888 181.687 494.399 182.306 494.841L169.421 523.42C168.646 523.235 167.776 523.148 166.81 523.162C165.843 523.176 165.026 523.196 164.361 523.222L163.488 525.158L175.918 530.763L176.791 528.827C176.28 528.147 175.703 527.478 175.06 526.82C174.416 526.162 173.802 525.62 173.219 525.193L182.636 504.307L185.502 497.814L185.96 498.021L185.107 504.809L183.61 534.231L185.954 535.287L207.155 514.504L211.294 509.81L211.701 509.994L208.759 515.839L199.159 537.134C198.335 536.966 197.546 536.856 196.794 536.803C196.041 536.75 195.249 536.74 194.416 536.774L193.544 538.71L208.775 545.577L209.649 543.641C209.262 543.139 208.798 542.604 208.259 542.033C207.718 541.464 207.123 540.949 206.471 540.492L219.494 511.608C220.234 511.778 220.993 511.886 221.77 511.929C222.548 511.972 223.3 511.955 224.031 511.875L224.904 509.94L212.271 504.243ZM231.811 513.398C232.352 513.894 233.005 514.366 233.768 514.812C234.53 515.26 235.258 515.634 235.957 515.935L229.392 546.874C228.523 546.842 227.676 546.89 226.848 547.02C226.021 547.149 225.262 547.311 224.574 547.508L224.133 549.585L253.706 555.861C253.876 555.059 254.034 554.179 254.18 553.219C254.327 552.26 254.453 551.306 254.559 550.357C254.665 549.409 254.738 548.482 254.778 547.576C254.817 546.67 254.837 545.856 254.839 545.132L252.598 544.658L248.228 550.985L237.569 548.723L240.584 534.511L247.253 535.925L248.742 540.754L250.491 541.125C251.075 539.269 251.6 537.248 252.064 535.062C252.528 532.875 252.858 530.869 253.055 529.045L251.306 528.674L248.007 532.373L241.338 530.957L244.18 517.565L254.402 519.734L255.548 526.718L257.789 527.193C258.405 525.724 258.989 524.135 259.544 522.425C260.096 520.713 260.583 519.046 261.005 517.421L232.252 511.321L231.811 513.398ZM293.352 530.542C293.386 529.164 293.228 527.977 292.879 526.98C292.529 525.985 292.025 525.162 291.367 524.511C290.709 523.861 289.935 523.376 289.043 523.055C288.152 522.735 287.182 522.562 286.134 522.534C284.973 522.505 284.034 522.594 283.318 522.799L282.926 538.385L286.24 538.468C288.149 538.516 289.796 537.878 291.177 536.552C292.559 535.227 293.284 533.223 293.352 530.542ZM304.132 555.252L306.769 557.095L306.721 558.994L297.392 558.76L295.036 556.868C293.374 554.79 291.915 552.394 290.66 549.677C289.406 546.962 288.309 544.298 287.368 541.683L282.843 541.569L282.515 554.653C283.366 554.86 284.124 555.119 284.787 555.432C285.45 555.744 286.094 556.056 286.72 556.367L286.667 558.49L269.461 558.057L269.514 555.935C270.343 555.508 271.135 555.184 271.886 554.96C272.637 554.738 273.386 554.561 274.135 554.43L274.93 522.812C273.078 522.355 271.564 521.777 270.39 521.076L270.443 518.953L276.365 519.103C277.11 519.121 277.957 519.124 278.908 519.11C279.859 519.097 280.856 519.076 281.9 519.046C282.944 519.017 284.006 518.987 285.089 518.958C286.169 518.93 287.213 518.928 288.219 518.953C290.267 519.005 292.151 519.286 293.872 519.798C295.592 520.309 297.063 521.048 298.287 522.015C299.512 522.982 300.45 524.176 301.104 525.597C301.758 527.018 302.061 528.663 302.014 530.535C301.947 533.23 301.239 535.422 299.892 537.11C298.545 538.798 296.725 540.044 294.433 540.849C295.863 543.217 297.387 545.634 299.001 548.099C300.617 550.564 302.326 552.949 304.132 555.252ZM326.826 520.872C326.381 520.157 325.843 519.584 325.209 519.154C324.574 518.725 323.871 518.416 323.098 518.23C322.324 518.042 321.565 517.976 320.822 518.029C320.313 518.166 319.834 518.469 319.384 518.936C318.934 519.404 318.559 519.947 318.26 520.564C317.96 521.184 317.786 521.843 317.741 522.541C317.694 523.243 317.804 523.914 318.071 524.556C318.915 524.717 319.721 524.928 320.484 525.19C321.248 525.455 321.906 525.854 322.46 526.386C322.655 527.375 322.402 528.383 321.702 529.406C321.001 530.429 319.952 531.215 318.555 531.759L319.865 534.189C321.127 533.774 322.274 533.173 323.304 532.39C324.335 531.609 325.193 530.725 325.881 529.74C326.567 528.756 327.07 527.719 327.387 526.63C327.705 525.54 327.803 524.496 327.681 523.498C327.554 522.462 327.269 521.587 326.826 520.872ZM368.373 531.547C367.155 530.419 365.765 529.517 364.202 528.844C362.638 528.172 360.987 527.646 359.25 527.266C357.511 526.889 355.889 526.471 354.381 526.013C352.873 525.557 351.562 524.963 350.447 524.23C349.331 523.5 348.597 522.448 348.243 521.077C347.852 519.562 348.078 518.273 348.925 517.208C349.77 516.143 350.954 515.414 352.475 515.02C353.381 514.787 354.283 514.651 355.181 514.611C356.078 514.571 356.773 514.603 357.263 514.707L361.678 521.474L363.896 520.901C363.901 520.322 363.879 519.607 363.832 518.753C363.785 517.899 363.714 516.995 363.621 516.037C363.526 515.081 363.406 514.121 363.253 513.16C363.1 512.199 362.95 511.354 362.799 510.622C361.117 510.364 359.289 510.327 357.316 510.509C355.343 510.692 353.256 511.067 351.057 511.636C349.252 512.102 347.629 512.743 346.186 513.558C344.742 514.373 343.561 515.352 342.644 516.493C341.727 517.634 341.112 518.937 340.797 520.404C340.483 521.87 340.555 523.487 341.011 525.255C341.542 527.31 342.411 528.924 343.618 530.092C344.824 531.263 346.207 532.185 347.767 532.859C349.326 533.534 350.94 534.05 352.61 534.407C354.28 534.765 355.862 535.154 357.356 535.576C358.851 535.998 360.138 536.551 361.218 537.234C362.298 537.917 363.011 538.925 363.357 540.259C363.832 542.099 363.543 543.703 362.492 545.071C361.441 546.439 359.924 547.38 357.94 547.892C356.75 548.199 355.75 548.276 354.94 548.119C354.129 547.962 353.475 547.738 352.976 547.442L348.703 540.062L346.485 540.635C346.472 541.33 346.488 542.135 346.531 543.048C346.574 543.96 346.638 544.914 346.723 545.913C346.808 546.91 346.9 547.906 347.004 548.899C347.107 549.892 347.247 550.808 347.425 551.647C347.906 551.869 348.59 552.02 349.476 552.099C350.361 552.178 351.36 552.209 352.471 552.19C353.582 552.173 354.743 552.084 355.953 551.926C357.162 551.767 358.343 551.538 359.498 551.241C364.223 550.02 367.549 548.113 369.476 545.518C371.402 542.923 371.901 539.822 370.97 536.214C370.456 534.232 369.592 532.675 368.373 531.547ZM434.831 510.609C434.279 509.83 433.738 509.109 433.21 508.445C432.681 507.783 432.204 507.229 431.78 506.784L429.791 507.92L431.289 516.072C431.21 516.461 430.897 516.907 430.349 517.413C429.801 517.918 429.074 518.43 428.168 518.946C424.997 520.756 421.779 520.942 418.513 519.501C415.247 518.063 412.294 515.031 409.653 510.403C408.195 507.847 407.202 505.508 406.677 503.384C406.152 501.261 406.01 499.358 406.251 497.675C406.492 495.994 407.044 494.554 407.904 493.355C408.764 492.156 409.856 491.179 411.183 490.421C411.863 490.033 412.553 489.703 413.256 489.432C413.959 489.16 414.503 489.022 414.886 489.017L421.737 494.823L423.776 493.659C423.571 493.003 423.3 492.205 422.955 491.264C422.612 490.324 422.242 489.377 421.848 488.421C421.453 487.468 421.05 486.572 420.637 485.734C420.225 484.899 419.87 484.222 419.574 483.703C418.179 483.814 416.527 484.209 414.621 484.889C412.714 485.57 410.694 486.519 408.558 487.737C406.293 489.03 404.323 490.595 402.647 492.43C400.97 494.266 399.762 496.339 399.022 498.649C398.281 500.959 398.081 503.486 398.424 506.227C398.767 508.97 399.815 511.878 401.569 514.952C403.341 518.059 405.28 520.48 407.386 522.216C409.492 523.952 411.725 525.103 414.083 525.665C416.441 526.228 418.903 526.218 421.465 525.635C424.028 525.051 426.651 523.994 429.337 522.462C431.116 521.446 432.773 520.308 434.305 519.047C435.839 517.786 436.967 516.479 437.694 515.119C437.325 514.473 436.892 513.754 436.399 512.963C435.905 512.173 435.382 511.388 434.831 510.609ZM479.737 479.311C478.938 479.613 478.166 479.989 477.423 480.439L456.635 456.603C457.126 455.976 457.595 455.296 458.041 454.56C458.487 453.826 458.814 453.096 459.022 452.37L457.627 450.769L444.866 461.898L446.262 463.498C446.875 463.409 447.526 463.262 448.213 463.058C448.9 462.854 449.602 462.539 450.317 462.112L459.205 472.304L448.045 482.037L439.157 471.845C439.616 471.297 440.009 470.683 440.332 470.005C440.656 469.328 440.906 468.665 441.082 468.016L439.686 466.416L426.926 477.544L428.321 479.145C428.934 479.055 429.649 478.854 430.462 478.538C431.275 478.226 432.068 477.83 432.839 477.354L453.629 501.192C453.165 501.794 452.715 502.483 452.279 503.258C451.844 504.033 451.496 504.755 451.239 505.424L452.636 507.025L465.396 495.895L464.001 494.296C463.254 494.404 462.556 494.567 461.907 494.786C461.259 495.006 460.605 495.305 459.945 495.681L450.432 484.774L461.592 475.041L471.106 485.949C470.642 486.551 470.255 487.185 469.946 487.849C469.638 488.516 469.382 489.158 469.181 489.778L470.576 491.378L483.337 480.25L481.941 478.648C481.272 478.788 480.537 479.009 479.737 479.311ZM505.297 446.582C505.296 445.185 504.919 443.763 504.166 442.313C503.412 440.866 502.319 439.406 500.883 437.934C499.448 436.464 497.777 435.014 495.869 433.584C493.961 432.155 492.089 430.973 490.251 430.039C488.414 429.105 486.678 428.503 485.041 428.23C483.406 427.96 481.879 428.073 480.46 428.569C479.04 429.065 477.795 430.028 476.724 431.459C475.696 432.831 475.171 434.23 475.149 435.657C475.127 437.084 475.499 438.515 476.264 439.948C477.028 441.383 478.139 442.819 479.597 444.26C481.054 445.701 482.737 447.136 484.645 448.566C486.553 449.996 488.432 451.171 490.279 452.089C492.128 453.009 493.881 453.589 495.539 453.829C497.197 454.071 498.735 453.943 500.154 453.447C501.573 452.951 502.807 452.003 503.858 450.601C504.818 449.319 505.298 447.979 505.297 446.582ZM510.273 438.543C510.769 440.895 510.716 443.309 510.114 445.791C509.511 448.272 508.295 450.736 506.463 453.18C504.631 455.625 502.61 457.485 500.398 458.76C498.185 460.036 495.877 460.774 493.47 460.971C491.063 461.17 488.623 460.855 486.149 460.025C483.675 459.197 481.275 457.91 478.949 456.168C476.624 454.425 474.716 452.484 473.224 450.342C471.732 448.202 470.745 445.949 470.259 443.583C469.773 441.218 469.832 438.793 470.433 436.312C471.036 433.831 472.253 431.368 474.085 428.923C475.915 426.478 477.938 424.618 480.15 423.343C482.362 422.068 484.666 421.339 487.061 421.154C489.457 420.971 491.891 421.293 494.365 422.123C496.84 422.953 499.24 424.238 501.565 425.98C503.89 427.723 505.799 429.664 507.29 431.806C508.782 433.948 509.776 436.193 510.273 438.543ZM529.042 409.196C528.439 409.787 527.901 410.377 527.424 410.969L499.372 396.361C499.616 395.648 499.799 394.873 499.922 394.033C500.044 393.194 500.08 392.382 500.025 391.598L498.142 390.617L490.09 406.081L491.972 407.061C492.596 406.673 493.229 406.182 493.871 405.594C494.514 405.004 495.057 404.405 495.5 403.795L523.554 418.403C523.079 419.88 522.861 421.467 522.9 423.166L524.783 424.147L532.836 408.683L530.953 407.703C530.28 408.109 529.642 408.607 529.042 409.196ZM545.482 364.212C544.589 363.947 543.678 363.705 542.749 363.486C541.819 363.268 540.937 363.085 540.102 362.937C539.266 362.79 538.542 362.692 537.93 362.64L537.19 364.808L543.71 369.926C543.908 370.268 543.969 370.811 543.894 371.553C543.817 372.294 543.611 373.159 543.274 374.145C542.095 377.602 539.806 379.871 536.405 380.953C533.005 382.038 528.784 381.719 523.741 379.999C520.956 379.048 518.663 377.951 516.864 376.708C515.065 375.464 513.698 374.132 512.765 372.71C511.833 371.291 511.292 369.847 511.144 368.378C510.996 366.91 511.168 365.455 511.661 364.009C511.914 363.268 512.214 362.564 512.56 361.894C512.905 361.226 513.222 360.763 513.505 360.505L522.484 360.321L523.242 358.1C522.655 357.742 521.922 357.325 521.042 356.847C520.163 356.37 519.259 355.905 518.331 355.45C517.404 354.996 516.508 354.591 515.645 354.238C514.781 353.884 514.067 353.612 513.503 353.418C512.531 354.426 511.555 355.815 510.575 357.587C509.597 359.358 508.71 361.408 507.916 363.735C507.074 366.203 506.633 368.681 506.592 371.165C506.551 373.651 507.018 376.004 507.991 378.226C508.965 380.448 510.488 382.473 512.56 384.301C514.632 386.13 517.343 387.617 520.693 388.76C524.077 389.914 527.135 390.446 529.862 390.353C532.59 390.261 535.024 389.645 537.165 388.504C539.305 387.366 541.143 385.729 542.678 383.596C544.211 381.462 545.478 378.932 546.477 376.006C547.139 374.067 547.626 372.118 547.941 370.158C548.255 368.199 548.234 366.471 547.88 364.971C547.176 364.731 546.376 364.478 545.482 364.212ZM555.072 319.432C554.106 319.344 553.147 319.276 552.194 319.226C551.24 319.177 550.31 319.161 549.405 319.176C548.498 319.19 547.684 319.219 546.962 319.261L546.621 321.527L553.201 325.509L551.584 336.285L537.216 334.13L538.227 327.387L542.958 325.611L543.223 323.842C541.335 323.371 539.285 322.97 537.075 322.638C534.865 322.307 532.843 322.098 531.01 322.01L530.745 323.779L534.636 326.849L533.624 333.591L520.085 331.561L521.634 321.226L528.538 319.662L528.877 317.396C527.374 316.87 525.752 316.382 524.011 315.932C522.271 315.483 520.576 315.097 518.93 314.774L514.57 343.843L516.67 344.158C517.133 343.587 517.564 342.907 517.964 342.12C518.366 341.332 518.695 340.582 518.953 339.866L550.231 344.558C550.251 345.428 550.351 346.27 550.529 347.088C550.708 347.906 550.916 348.653 551.154 349.329L553.254 349.644L557.738 319.748C556.928 319.626 556.039 319.521 555.072 319.432ZM446.977 131.864C447.057 132 447.227 132.21 447.486 132.495C447.744 132.78 448.009 133.072 448.28 133.369C448.551 133.668 448.815 133.96 449.075 134.245C449.332 134.529 449.529 134.739 449.665 134.875C451.238 136.449 452.901 137.459 454.652 137.907C456.403 138.354 458.186 138.374 460.007 137.966C461.823 137.558 463.642 136.77 465.46 135.603C467.277 134.436 469.029 133.01 470.711 131.327C472.202 129.834 473.47 128.226 474.514 126.501C475.559 124.777 476.27 123.02 476.65 121.229C477.028 119.438 476.981 117.653 476.506 115.876C476.03 114.099 475.005 112.422 473.43 110.85C472.942 110.362 472.439 109.886 471.923 109.425C471.408 108.964 470.946 108.585 470.539 108.286L446.977 131.864ZM463.136 100.352C462.755 99.5649 462.47 98.8319 462.28 98.154L463.826 96.6064L468.551 101.327C469.011 101.788 469.595 102.345 470.301 102.996C471.006 103.647 471.747 104.318 472.521 105.01C473.294 105.702 474.048 106.373 474.781 107.024C475.514 107.675 476.125 108.244 476.613 108.733C478.975 111.094 480.774 113.516 482.009 115.998C483.244 118.481 483.91 120.964 484.006 123.447C484.102 125.93 483.614 128.4 482.543 130.857C481.471 133.313 479.782 135.695 477.479 138.002C475.226 140.256 472.852 141.98 470.355 143.174C467.858 144.37 465.308 144.967 462.703 144.968C460.097 144.969 457.437 144.333 454.723 143.058C452.009 141.783 449.308 139.803 446.62 137.117C446.267 136.765 445.812 136.268 445.256 135.631C444.7 134.994 444.102 134.315 443.465 133.597C442.827 132.877 442.188 132.158 441.551 131.439C440.911 130.721 440.335 130.104 439.82 129.588L435.34 125.111L436.886 123.564C437.619 123.754 438.372 124.032 439.146 124.398C439.92 124.764 440.673 125.204 441.405 125.721L464.439 102.672C463.95 101.911 463.517 101.139 463.136 100.352ZM410.453 103.223C409.817 102.929 409.099 102.671 408.298 102.448C407.495 102.226 406.602 102.057 405.613 101.939L404.379 103.746L430.48 121.571C431.051 120.8 431.68 119.88 432.363 118.813C433.045 117.745 433.722 116.65 434.395 115.53C435.067 114.41 435.683 113.319 436.244 112.261C436.804 111.203 437.27 110.267 437.641 109.451L435.692 108.12L426.695 114.454L417.519 108.189L435.961 81.1847C436.786 81.6091 437.685 81.9786 438.655 82.2922C439.626 82.6067 440.563 82.8173 441.466 82.9221L442.699 81.1159L427.107 70.4663L425.873 72.2733C426.463 73.6524 427.449 75.0006 428.83 76.3144L410.453 103.223ZM372.563 85.0691C371.702 85.0141 370.902 85.0073 370.167 85.0502L369.258 87.0403L397.589 99.9781C397.94 99.2099 398.296 98.3601 398.658 97.4278C399.021 96.4972 399.361 95.5649 399.681 94.6352C399.999 93.7055 400.28 92.7896 400.524 91.8882C400.766 90.986 400.97 90.1723 401.134 89.4445L398.985 88.4641L393.173 93.8473L382.962 89.1841L389.18 75.5692L395.568 78.4855L395.982 83.6754L397.659 84.441C398.662 82.7053 399.643 80.79 400.599 78.6943C401.556 76.6003 402.336 74.6575 402.943 72.8668L401.269 72.103L397.123 75.082L390.734 72.1648L396.592 59.3344L406.385 63.806L405.972 71.0865L408.119 72.0669C409.068 70.7273 410.011 69.2597 410.953 67.6641C411.892 66.0676 412.755 64.5003 413.542 62.9613L385.998 50.3818L385.089 52.3727C385.523 52.9923 386.073 53.6126 386.739 54.2339C387.405 54.8534 388.054 55.3939 388.69 55.851L375.155 85.4928C374.287 85.2659 373.423 85.125 372.563 85.0691ZM362.894 82.9095C362.348 82.3106 361.717 81.7684 361 81.2795C360.282 80.7915 359.576 80.367 358.882 80.0044L367.977 48.7146C368.746 48.8186 369.568 48.8469 370.44 48.8005C371.314 48.7558 372.14 48.6261 372.921 48.413L373.532 46.313L356.284 41.2983L355.674 43.3992C356.193 43.9509 356.815 44.4913 357.54 45.0215C358.264 45.5517 358.98 45.9787 359.685 46.3044L350.589 77.5942C349.003 77.4129 347.355 77.5134 345.646 77.8958L345.035 79.9958L362.284 85.0096L362.894 82.9095ZM325.421 74.0197C323.987 72.925 322.412 72.1379 320.697 71.6602L322.646 57.9817L330.454 59.0936L332.377 63.9621L334.087 64.2053C334.32 63.3864 334.541 62.4481 334.75 61.3921C334.958 60.3369 335.162 59.2414 335.363 58.1063C335.52 57.0056 335.648 55.8997 335.749 54.7887C335.849 53.6794 335.892 52.6199 335.881 51.6095L334.172 51.3663L330.982 55.3885L323.174 54.2766L325.309 39.2869L336.366 40.8627L338.029 47.9611L340.367 48.2945C340.626 47.5564 340.886 46.7504 341.147 45.8756C341.407 45.0018 341.65 44.1064 341.878 43.1888C342.106 42.2719 342.321 41.3723 342.525 40.4907C342.728 39.6082 342.883 38.7876 342.992 38.0263L313.184 33.7808L312.875 35.9461C313.363 36.3267 313.919 36.7151 314.541 37.1138C315.162 37.5134 315.896 37.8691 316.743 38.1836L312.148 70.4426C311.36 70.5251 310.605 70.6592 309.88 70.8473C309.156 71.0338 308.465 71.2555 307.808 71.5107L307.5 73.6769L325.111 76.185L325.421 74.0197ZM260.807 37.7472C261.592 38.0952 262.374 38.4062 263.154 38.6769L264.551 70.0294C263.681 70.337 262.843 70.71 262.037 71.1482C261.23 71.5881 260.492 72.0521 259.823 72.5419L259.921 74.727L274.126 74.0946L274.029 71.9095C273.356 71.4781 272.54 71.0631 271.582 70.6636C270.622 70.2657 269.756 69.9873 268.98 69.8284L267.912 45.8457L267.188 41.2676L267.361 41.2598L269.859 45.5862L291.468 74.0129L296.356 73.7955L294.745 37.6157C295.501 37.3519 296.31 36.9816 297.173 36.5013C298.035 36.0209 298.817 35.4788 299.52 34.8704L299.42 32.6277L285.157 33.2636L285.257 35.5071C285.931 35.9763 286.71 36.4102 287.591 36.8115C288.474 37.2136 289.382 37.547 290.316 37.8116L291.17 56.9791L291.678 61.9017L291.448 61.912L288.581 57.0839L271.009 33.8943L258.586 34.4476L258.684 36.6327C259.316 37.0271 260.024 37.3983 260.807 37.7472ZM229.949 43.5376C230.838 43.6647 231.671 43.7043 232.446 43.6579L239.181 75.5388C237.696 76.1283 236.291 76.9936 234.964 78.1364L235.416 80.2768L252.99 76.5639L252.537 74.4244C251.775 74.1537 250.961 73.9724 250.099 73.8796C249.236 73.7885 248.413 73.7464 247.63 73.7542L240.895 41.8732C241.621 41.6017 242.359 41.2408 243.108 40.788C243.854 40.3351 244.524 39.8325 245.112 39.2757L244.66 37.1353L227.086 40.849L227.539 42.9885C228.255 43.2291 229.06 43.413 229.949 43.5376ZM194.789 55.0965L199.829 68.5164L201.554 67.8676C202.165 67.6382 202.766 67.3821 203.356 67.0986C203.946 66.815 204.499 66.5375 205.01 66.2625C206.196 65.1618 206.993 63.8472 207.404 62.3194C207.814 60.7917 207.729 59.2553 207.149 57.7112C206.298 55.4471 205.081 54.0087 203.498 53.3935C201.914 52.7791 200.187 52.8221 198.319 53.5232C197.528 53.8205 196.852 54.0963 196.292 54.3472C195.73 54.599 195.229 54.8482 194.789 55.0965ZM207.504 69.9662C206.387 70.1613 205.218 70.4869 203.998 70.9458L201.141 72.0181L206.343 85.8685C206.886 85.7877 207.45 85.6794 208.034 85.5411C208.618 85.4045 209.466 85.1269 210.581 84.7076C212.845 83.8578 214.37 82.5165 215.157 80.6828C215.945 78.8492 215.92 76.8205 215.084 74.5916C214.571 73.2262 213.933 72.1857 213.172 71.4665C212.41 70.7481 211.554 70.2704 210.604 70.0315C209.654 69.7952 208.62 69.7737 207.504 69.9662ZM182.105 58.3245L181.336 56.2769L190.013 53.0177C191.378 52.5056 192.651 51.9651 193.832 51.3989C195.014 50.8326 196.394 50.2526 197.976 49.658C199.7 49.011 201.418 48.5092 203.129 48.1535C204.841 47.7969 206.446 47.7067 207.947 47.8811C209.447 48.0555 210.794 48.5848 211.987 49.469C213.181 50.354 214.121 51.7116 214.809 53.5444C215.241 54.6941 215.436 55.8412 215.394 56.9832C215.352 58.1269 215.104 59.2147 214.651 60.2458C214.197 61.276 213.571 62.2289 212.773 63.1028C211.974 63.9784 211.04 64.738 209.971 65.385L210.051 65.6007C211.255 65.3128 212.515 65.1478 213.831 65.104C215.147 65.061 216.414 65.2406 217.632 65.6445C218.849 66.0483 219.967 66.7039 220.985 67.6139C222.003 68.523 222.803 69.75 223.383 71.2941C224.111 73.2351 224.308 75.0679 223.971 76.7933C223.635 78.5179 222.909 80.1032 221.791 81.5476C220.674 82.992 219.257 84.2731 217.544 85.3867C215.831 86.5012 213.969 87.4369 211.957 88.1922C211.203 88.4758 210.368 88.7688 209.457 89.0704C208.545 89.3711 207.633 89.6727 206.723 89.9743C205.81 90.2751 204.925 90.5663 204.068 90.8482C203.209 91.1291 202.493 91.3783 201.919 91.594L195.505 94.0034L194.736 91.9549C195.27 91.3036 195.869 90.6892 196.534 90.1109C197.199 89.5344 197.877 89.0755 198.568 88.7318L187.111 58.2274C186.339 58.3546 185.506 58.4302 184.615 58.4585C183.724 58.486 182.887 58.4413 182.105 58.3245ZM158.169 96.4126L166.837 91.0551L157.873 83.6681L154.34 80.0317L154.242 80.0927L155.828 85.0678L158.169 96.4126ZM156.522 112.591L149.637 73.1939L153.26 70.9556L185.073 94.946C185.807 94.6736 186.575 94.4579 187.38 94.299C188.185 94.14 188.933 94.0738 189.624 94.0962L190.774 95.9573L175.445 105.431L174.295 103.569C174.734 102.892 175.232 102.202 175.789 101.496C176.346 100.792 176.91 100.172 177.483 99.6375L169.83 93.6056L158.958 100.324L160.881 109.897C162.503 109.164 164.216 108.761 166.019 108.685L167.169 110.545L155.072 118.02L153.923 116.159C154.243 115.511 154.63 114.876 155.083 114.258C155.536 113.64 156.016 113.085 156.522 112.591ZM113.401 128.703C115.888 131.422 118.387 133.415 120.898 134.68C123.409 135.947 125.914 136.594 128.412 136.623C130.91 136.654 133.38 136.084 135.822 134.915C138.265 133.746 140.66 132.088 143.011 129.937C144.568 128.513 145.974 126.992 147.227 125.378C148.481 123.763 149.317 122.19 149.739 120.66C149.221 120.094 148.623 119.471 147.948 118.788C147.272 118.107 146.568 117.436 145.837 116.779C145.105 116.121 144.398 115.52 143.716 114.973C143.035 114.427 142.43 113.979 141.902 113.629L140.16 115.222L143.52 123.074C143.529 123.482 143.316 124.002 142.88 124.634C142.444 125.267 141.83 125.946 141.038 126.671C138.261 129.21 135.071 130.129 131.461 129.425C127.853 128.721 124.196 126.346 120.491 122.295C118.444 120.058 116.916 117.933 115.904 115.918C114.894 113.904 114.318 112.024 114.179 110.279C114.038 108.535 114.265 106.962 114.857 105.562C115.449 104.162 116.325 102.932 117.486 101.869C118.081 101.325 118.7 100.837 119.344 100.403C119.988 99.9698 120.503 99.7078 120.887 99.6158L129.091 103.892L130.875 102.26C130.521 101.646 130.066 100.906 129.506 100.039C128.948 99.1725 128.361 98.3055 127.748 97.4342C127.135 96.5655 126.526 95.7578 125.921 95.0111C125.315 94.2644 124.805 93.6638 124.39 93.2109C123.013 93.6397 121.444 94.4113 119.683 95.5283C117.921 96.6454 116.107 98.0589 114.237 99.7688C112.256 101.582 110.632 103.603 109.364 105.828C108.097 108.054 107.355 110.412 107.135 112.9C106.916 115.391 107.29 117.974 108.258 120.652C109.225 123.33 110.94 126.014 113.401 128.703ZM197.224 197.729L242.304 245.244C242.383 245.33 242.482 245.38 242.588 245.4C242.745 245.429 242.907 245.386 243.035 245.267C243.242 245.067 243.249 244.74 243.058 244.542L197.978 197.019C197.778 196.812 197.452 196.806 197.246 196.997C197.04 197.197 197.033 197.524 197.224 197.729ZM183.347 182.359C183.142 182.558 183.134 182.871 183.325 183.083L186.415 186.342C186.492 186.421 186.592 186.47 186.699 186.492C186.854 186.519 187.024 186.477 187.145 186.356C187.352 186.165 187.359 185.839 187.167 185.633L184.071 182.38C183.879 182.166 183.553 182.16 183.347 182.359ZM189.972 189.324C189.765 189.524 189.752 189.85 189.949 190.056L193.003 193.273C193.082 193.351 193.18 193.401 193.288 193.421C193.437 193.45 193.6 193.407 193.728 193.287C193.934 193.096 193.94 192.768 193.75 192.569L190.695 189.347C190.504 189.14 190.178 189.133 189.972 189.324ZM196.312 179.817C196.39 179.916 196.497 179.973 196.617 179.995C196.76 180.023 196.908 179.987 197.036 179.888C197.257 179.711 197.292 179.384 197.108 179.164L180.926 159.177C180.748 158.956 180.428 158.921 180.202 159.098C179.982 159.276 179.946 159.604 180.13 159.822L196.312 179.817ZM250.053 211.936C249.787 210.606 249.531 209.274 249.287 207.941L238.062 184.388C237.941 184.134 237.636 184.021 237.379 184.148C237.118 184.269 237.011 184.573 237.131 184.83L250.053 211.936ZM239.297 163.65C239.361 163.828 239.516 163.94 239.679 163.976C239.765 163.99 239.864 163.983 239.957 163.948C240.221 163.848 240.354 163.55 240.255 163.288L238.713 159.261C238.608 158.993 238.31 158.864 238.046 158.963C237.777 159.062 237.649 159.362 237.749 159.624L239.297 163.65ZM235.369 152.737C235.454 152.751 235.553 152.744 235.645 152.707C235.908 152.609 236.042 152.31 235.943 152.048L228.269 132.046C228.168 131.777 227.871 131.649 227.601 131.748C227.338 131.848 227.203 132.145 227.31 132.415L234.978 152.416C235.042 152.587 235.198 152.707 235.369 152.737ZM206.065 150.209C206.144 150.342 206.272 150.429 206.413 150.457C206.533 150.477 206.655 150.457 206.77 150.394C207.01 150.251 207.095 149.938 206.953 149.689L203.546 143.776C203.403 143.527 203.084 143.441 202.841 143.584C202.593 143.726 202.509 144.045 202.651 144.286L206.065 150.209ZM116.335 276.729C116.307 276.999 116.492 277.241 116.754 277.289C116.761 277.297 116.776 277.297 116.79 277.297L148.596 280.646C148.618 280.298 148.641 279.957 148.665 279.619L116.897 276.275C116.618 276.24 116.364 276.445 116.335 276.729ZM120.941 303.37L116.077 303.626C115.794 303.639 115.581 303.88 115.594 304.166C115.601 304.406 115.786 304.605 116.014 304.648C116.05 304.661 116.092 304.661 116.135 304.661L120.998 304.406C121.283 304.378 121.488 304.15 121.473 303.867C121.46 303.582 121.219 303.354 120.941 303.37ZM157.084 207.92L144.297 199.605C144.055 199.449 143.735 199.521 143.58 199.754C143.423 199.996 143.494 200.315 143.729 200.472L156.515 208.771C156.58 208.814 156.643 208.836 156.708 208.85C156.906 208.885 157.112 208.8 157.233 208.624C157.382 208.388 157.318 208.069 157.084 207.92ZM143.677 267.852C143.727 267.569 143.542 267.298 143.266 267.249L113.885 261.796C113.6 261.747 113.339 261.931 113.282 262.208C113.231 262.491 113.415 262.761 113.693 262.811L143.081 268.264C143.358 268.313 143.628 268.129 143.677 267.852ZM135 302.645L127.545 303.027C127.262 303.042 127.041 303.283 127.055 303.566C127.07 303.809 127.247 304.007 127.474 304.036C127.511 304.051 127.552 304.065 127.595 304.065L135.05 303.668C135.335 303.638 135.554 303.412 135.541 303.128C135.526 302.843 135.277 302.616 135 302.645ZM193.709 208.681C193.878 208.709 194.063 208.652 194.183 208.516C194.376 208.304 194.361 207.984 194.149 207.793L161.047 177.966C160.835 177.781 160.507 177.794 160.316 178.008C160.123 178.221 160.146 178.547 160.352 178.732L193.46 208.56C193.531 208.625 193.617 208.659 193.709 208.681ZM121.677 250.371L158.033 260.123C158.332 259.846 158.631 259.57 158.935 259.3L121.946 249.386C121.677 249.3 121.385 249.47 121.321 249.741C121.243 250.016 121.4 250.302 121.677 250.371ZM130.771 224.562L180.232 246.603C180.274 246.616 180.309 246.63 180.345 246.638C180.579 246.679 180.813 246.559 180.912 246.34C181.025 246.076 180.912 245.779 180.651 245.658L131.189 223.626C130.933 223.52 130.628 223.626 130.507 223.882C130.395 224.144 130.515 224.449 130.771 224.562ZM147.12 243.791C146.849 243.684 146.559 243.833 146.467 244.102C146.374 244.372 146.509 244.658 146.779 244.756L155.839 247.966C155.868 247.979 155.895 247.987 155.918 247.987C156.166 248.037 156.414 247.893 156.499 247.653C156.592 247.384 156.45 247.093 156.187 246.999L147.12 243.791ZM228.661 189.347C228.74 189.48 228.868 189.567 229.01 189.595C229.131 189.616 229.251 189.601 229.358 189.539C229.599 189.396 229.683 189.076 229.543 188.835L210.499 155.833C210.357 155.592 210.045 155.506 209.797 155.649C209.555 155.791 209.469 156.102 209.612 156.351L228.661 189.347ZM174.983 207.146C175.168 207.18 175.368 207.11 175.488 206.953C175.658 206.727 175.616 206.399 175.389 206.229L169.964 202.069C169.744 201.898 169.417 201.941 169.247 202.161C169.069 202.388 169.111 202.715 169.338 202.885L174.763 207.046C174.828 207.096 174.905 207.131 174.983 207.146ZM164.716 226.275C164.468 226.14 164.155 226.233 164.019 226.482C163.884 226.73 163.977 227.043 164.226 227.176L169.529 230.053C169.578 230.08 169.63 230.102 169.679 230.11C169.891 230.152 170.118 230.053 170.225 229.847C170.359 229.598 170.267 229.285 170.019 229.151L164.716 226.275ZM180.351 210.688C180.179 210.91 180.223 211.234 180.45 211.406L226.535 246.784C226.983 246.7 227.439 246.617 227.9 246.536L181.074 210.588C180.847 210.419 180.528 210.461 180.351 210.688ZM217.262 247.633C217.19 247.741 217.172 247.865 217.19 247.986C217.468 248.009 217.764 248.022 218.079 248.022C218.29 248.022 218.526 247.997 218.748 247.986L217.973 247.484C217.737 247.327 217.419 247.393 217.262 247.633ZM208.404 241.256L172.398 217.86C172.157 217.713 171.837 217.775 171.681 218.017C171.524 218.251 171.595 218.571 171.837 218.727L207.842 242.123C207.907 242.159 207.963 242.18 208.035 242.193C208.234 242.23 208.439 242.151 208.56 241.966C208.717 241.732 208.646 241.413 208.404 241.256ZM148.636 290.795L138.287 290.526C138.002 290.511 137.76 290.738 137.754 291.023C137.747 291.278 137.932 291.499 138.173 291.54C138.201 291.548 138.23 291.548 138.258 291.548L148.731 291.826C148.696 291.484 148.664 291.141 148.636 290.795ZM181.572 235.427L176.516 232.679C176.267 232.545 175.955 232.637 175.819 232.886C175.686 233.142 175.777 233.454 176.026 233.588L181.081 236.329C181.131 236.358 181.181 236.372 181.237 236.385C181.451 236.422 181.671 236.322 181.784 236.123C181.92 235.875 181.826 235.562 181.572 235.427ZM189.906 240.538C189.771 240.787 189.864 241.098 190.113 241.233L196.683 244.801C197.544 244.856 198.385 244.926 199.205 245.005L190.601 240.332C190.353 240.189 190.041 240.282 189.906 240.538ZM234.91 227.504C234.989 227.602 235.095 227.667 235.215 227.688C235.358 227.71 235.507 227.681 235.635 227.583C235.856 227.405 235.89 227.077 235.706 226.858L206.744 191.072C206.566 190.853 206.24 190.816 206.02 190.994C205.8 191.172 205.764 191.498 205.941 191.719L234.91 227.504ZM226.476 202.866C226.604 202.887 226.747 202.866 226.86 202.781C227.094 202.625 227.158 202.298 226.995 202.063L204.587 169.452C204.423 169.218 204.104 169.154 203.868 169.316C203.642 169.481 203.578 169.799 203.735 170.033L226.143 202.645C226.227 202.766 226.348 202.837 226.476 202.866ZM209.263 222.696C209.434 222.726 209.619 222.676 209.74 222.533C209.93 222.319 209.917 222.001 209.703 221.809L205.08 217.648C204.876 217.457 204.549 217.477 204.357 217.684C204.166 217.896 204.179 218.223 204.393 218.415L209.016 222.575C209.085 222.64 209.171 222.682 209.263 222.696ZM244.829 217.024C244.95 217.045 245.071 217.024 245.186 216.966C245.427 216.824 245.511 216.504 245.371 216.257L234.201 196.894C234.058 196.645 233.739 196.56 233.497 196.701C233.25 196.844 233.165 197.164 233.307 197.406L244.489 216.775C244.568 216.91 244.695 216.994 244.829 217.024ZM246.75 183.094C246.755 182.176 246.77 181.263 246.804 180.358L242.838 170.013C242.732 169.749 242.434 169.614 242.171 169.715C241.902 169.821 241.774 170.119 241.873 170.383L246.75 183.094ZM250.342 162.033C250.545 161.537 250.757 161.042 250.977 160.552L247.596 149.129C247.517 148.853 247.227 148.698 246.956 148.782C246.68 148.861 246.524 149.145 246.609 149.422L250.342 162.033ZM217.375 229.4C217.182 229.612 217.203 229.94 217.416 230.132L234.778 245.77C235.063 245.762 235.348 245.751 235.635 245.751C235.869 245.751 236.093 245.771 236.326 245.776L218.106 229.364C217.892 229.179 217.564 229.186 217.375 229.4ZM231.835 210.007C231.601 210.17 231.537 210.49 231.7 210.725L253.614 242.624C253.628 242.028 253.645 241.446 253.663 240.872L232.545 210.141C232.389 209.9 232.069 209.842 231.835 210.007ZM163.447 250.111C163.353 250.38 163.496 250.672 163.76 250.771L168.278 252.372C168.661 252.139 169.046 251.91 169.432 251.686L164.107 249.798C163.828 249.713 163.546 249.841 163.447 250.111ZM249.651 244.885C249.424 245.062 249.395 245.389 249.572 245.609L250.745 247.058C251.308 247.185 251.86 247.322 252.401 247.468L250.368 244.957C250.182 244.736 249.87 244.708 249.651 244.885ZM253.938 233.15C253.952 232.446 253.956 231.758 253.94 231.092L252.869 229.235C252.72 228.992 252.407 228.909 252.159 229.05C251.917 229.185 251.833 229.498 251.976 229.746L253.938 233.15ZM220.132 297.501C219.914 294.691 220.226 290.815 220.74 288.053C220.951 286.915 219.102 285.965 218.719 287.432C217.991 290.234 217.907 295.172 218.94 297.75C219.337 298.746 220.243 298.971 220.132 297.501ZM310.535 449.358C310.252 449.402 310.053 449.656 310.081 449.942L313.887 478.853C313.916 479.081 314.099 479.265 314.313 479.293C314.355 479.308 314.412 479.307 314.469 479.307C314.752 479.265 314.952 479.009 314.91 478.726L311.104 449.799C311.075 449.515 310.806 449.316 310.535 449.358ZM290.923 150.035C294.445 146.024 289.078 146.416 287.551 149.39C285.685 153.109 283.973 166.018 288.84 171.372C287.699 163.873 287.232 156.741 290.923 150.035ZM244.853 303.998C242.674 298.728 242.517 291.727 244.678 286.8C247.29 280.852 261.027 284.696 265.025 287.605C262.481 282.138 246.575 277.892 242.708 285.632C240.348 290.357 239.546 299.081 242.906 304.576C244.027 306.408 245.632 305.885 244.853 303.998ZM288.697 259.173C287.633 259.331 286.522 259.419 285.381 259.201C280.017 258.247 276.117 257.254 274.264 257.734C272.68 258.146 273.388 259.381 274.046 259.569C276.644 260.312 284.25 261.308 285.159 261.386C286.469 261.56 287.747 261.604 289.12 261.332C293.003 260.627 297.642 259.569 301.743 258.885C299.381 256.421 292.211 259.002 288.697 259.173ZM321.95 441.858C321.588 441.801 321.224 441.744 320.859 441.683L325.957 465.703C326.001 465.915 326.171 466.071 326.371 466.114C326.44 466.114 326.512 466.114 326.568 466.1C326.854 466.043 327.024 465.773 326.967 465.489L321.95 441.858ZM359.736 439.607C359.207 439.295 358.677 438.984 358.148 438.671L362.047 446.858C362.132 447.014 362.275 447.099 362.416 447.128C362.53 447.141 362.643 447.141 362.742 447.086C362.998 446.985 363.099 446.673 362.983 446.417L359.736 439.607ZM346.778 440.955C346.449 441.047 346.121 441.14 345.785 441.226L352.231 458.032C352.288 458.202 352.444 458.33 352.615 458.36C352.7 458.373 352.799 458.373 352.899 458.33C353.155 458.231 353.296 457.934 353.182 457.663L346.778 440.955ZM213.564 302.523C213.887 302.583 213.561 302.009 213.508 300.093C213.413 295.857 213.876 291.346 214.578 286.183C214.709 285.223 212.715 284.713 212.467 285.972C211.86 289.076 211.208 296.864 212.295 300.227C212.695 301.468 213.262 302.451 213.564 302.523ZM240.307 398.878C240.455 399.71 240.854 400.325 241.509 399.069C242.331 396.529 242.68 392.213 241.902 389.993C240.895 388.788 239.646 388.311 239.831 390.423C240.116 392.595 240.159 398.156 240.307 398.878ZM237.091 403.208C236.879 397.258 237.309 394.344 236.607 390.548C236.386 389.346 234.996 388.702 234.717 390.071C234.314 392.081 233.775 399.499 236.983 405.665C237.268 405.789 237.218 405.165 237.091 403.208ZM399.047 358.737C399.397 357.736 399.571 356.736 399.67 355.734C399.449 356.75 399.212 357.763 398.953 358.771C398.989 358.787 399.036 358.781 399.047 358.737ZM394.959 462.947C395.795 462.446 396.62 461.925 397.449 461.412C394.886 459.959 392.331 458.488 389.775 457.05C389.702 457.013 389.754 456.797 389.812 456.811C392.729 458.123 395.656 459.403 398.579 460.714C399.665 460.029 400.743 459.329 401.817 458.622C399.313 457.172 396.831 455.654 394.368 454.146C394.348 454.141 394.382 454.088 394.382 454.088C397.307 455.262 400.251 456.44 403.171 457.736C404.006 457.177 404.832 456.6 405.661 456.027C402.549 454.262 399.477 452.293 396.406 450.445L396.411 450.428C400.007 451.907 403.655 453.27 407.236 454.939C408.318 454.173 409.391 453.393 410.46 452.605C406.66 450.591 402.921 448.17 399.2 445.915L399.204 445.896C403.206 447.532 407.261 449.036 411.217 450.951C411.367 449.892 411.511 448.853 411.643 447.793C408.31 445.946 405.055 443.848 401.79 441.893C401.775 441.869 401.784 441.831 401.803 441.835C405.127 443.205 408.512 444.488 411.865 445.99C411.995 444.763 412.122 443.536 412.269 442.312C409.665 440.782 407.068 439.132 404.47 437.582L404.479 437.544C407.127 438.63 409.79 439.657 412.449 440.788C412.599 439.463 412.77 438.143 412.918 436.837C410.679 435.498 408.46 434.081 406.222 432.742L406.232 432.705C408.505 433.637 410.806 434.537 413.094 435.498C413.309 433.897 413.545 432.305 413.783 430.711C411.906 429.584 410.044 428.395 408.165 427.286C408.15 427.264 408.159 427.223 408.179 427.229C410.09 428.035 412.034 428.789 413.988 429.585C414.2 428.274 414.429 426.967 414.702 425.652C414.834 424.918 414.983 424.213 415.131 423.505C413.892 422.736 412.652 421.965 411.424 421.238C411.404 421.234 411.412 421.195 411.432 421.2C412.708 421.73 413.988 422.243 415.269 422.754C415.694 420.547 416.134 418.363 416.558 416.154C415.926 415.774 415.294 415.397 414.665 415C414.648 414.996 414.657 414.956 414.676 414.96C415.311 415.237 415.971 415.498 416.631 415.757C419.066 403.057 421.344 390.318 423.706 377.58C425.978 365.469 428.815 352.988 428.924 340.444C428.781 338.016 420.88 335.78 417.379 335.232C415.689 334.972 414.018 334.717 412.363 334.218C410.903 333.768 409.48 332.903 408.04 332.281C409.056 342.196 407.37 353.57 405.818 363.265C404.009 374.731 400.448 385.493 398.002 396.687C395.405 408.771 393.386 421.117 390.77 433.198C390.014 436.71 389.288 443.196 386.422 450.02C385.749 451.634 384.938 453.729 383.953 455.351C384.449 455.777 384.922 456.387 385.57 456.954C387.31 458.564 389.068 459.666 390.953 460.839C392.237 461.622 393.596 462.278 394.959 462.947ZM389.82 465.913C389.797 465.899 389.773 465.886 389.75 465.872C388.341 465.041 386.877 464.259 385.571 463.079C384.546 462.163 383.135 459.744 381.996 459.407C382.729 459.779 383.477 460.72 384.202 461.635C384.643 462.193 385.06 462.719 385.414 463.038C386.501 464.017 387.726 464.73 388.911 465.421L389.547 465.792C389.624 465.838 389.707 465.886 389.785 465.932C389.797 465.926 389.808 465.92 389.82 465.913ZM156.606 273.691C156.597 273.716 156.583 273.74 156.573 273.765C155.363 280.513 154.991 293.042 157.53 297.883C159.175 300.818 162.279 304.791 167.695 307.006C168.054 307.201 168.431 307.373 168.817 307.537C168.521 307.404 168.231 307.263 167.947 307.11C162.708 304.971 159.442 301.101 157.616 297.838C155.07 292.978 155.382 280.692 156.606 273.691ZM207.69 421.929C212.05 421.19 215.961 419.24 220.052 418.535C224.328 417.519 228.87 418.556 232.696 417.317C236.613 415.951 240.49 414.105 244.232 412.272C247.975 410.416 251.613 408.476 255.104 406.502C258.598 404.529 261.948 402.522 265.086 400.481C268.184 398.437 271.238 396.346 273.538 394.154C275.793 391.919 277.297 389.19 278.102 386.491C279.026 382.511 279.415 379.352 277.619 375.146C277.068 373.737 275.978 372.119 274.726 371.038C273.659 370.138 272.816 369.679 272.353 369.339C272.309 369.31 272.284 369.287 272.246 369.259C269.778 370.461 266.948 371.457 264.63 372.314C263.375 373.872 261.895 375.161 259.957 376.468C252.942 380.46 242.946 382.182 235.787 383.064C232.971 383.279 229.837 383.645 227.312 384.064C221.516 385.061 215.363 386.316 209.039 387.27C206.577 387.64 204.088 387.97 201.569 388.204C196.695 390.264 192.241 392.268 191.368 396.101C190.871 399.984 191.569 404.136 192.509 407.563C193.536 411.228 195.131 414.92 197.682 417.76C200.175 420.626 203.867 422.247 207.69 421.929ZM189.185 408.272C190.489 413.022 192.262 416.617 194.762 419.571C196.298 421.371 198.133 422.808 200.067 423.724C200.36 423.864 200.661 423.991 200.966 424.111C200.742 424.017 200.519 423.922 200.3 423.817C198.162 422.806 196.34 421.285 194.883 419.581C191.966 416.13 190.328 412.089 189.244 408.148C188.284 403.934 187.353 399.239 188.163 395.3C188.146 395.375 188.128 395.446 188.111 395.523C187.304 399.385 188.242 404.129 189.185 408.272ZM179.557 371.334C180.072 375.01 180.791 377.816 181.89 380.43C182.648 382.195 183.483 383.569 184.516 384.751C185.444 385.851 186.684 386.757 187.974 387.309C186.677 386.706 185.506 385.785 184.644 384.77C183.452 383.405 182.62 381.881 181.966 380.356C180.674 377.296 180.033 374.191 179.606 371.184C179.2 368.163 179.032 365.236 179.103 362.363C179.112 361.603 179.188 360.867 179.32 360.151C179.157 360.939 179.063 361.744 179.054 362.565C178.985 365.438 179.154 368.387 179.557 371.334ZM280.337 343.648C279.533 342.641 278.563 341.757 277.429 341.039C276.546 340.488 275.868 340.09 275.375 339.79C274.788 340.225 274.205 340.682 273.626 341.166C270.928 343.328 267.796 345.11 264.507 346.775C261.325 348.413 258.032 349.967 254.572 351.303C252.836 351.963 251.061 352.575 249.184 353.032C243.777 354.324 238.618 352.847 232.446 353.22L192.615 352.562C191.18 352.542 189.832 352.475 188.553 352.366C187.369 353.532 186.918 353.862 184.721 356.231C183.078 358.099 182.444 360.413 182.391 362.557C182.33 365.236 182.498 368.085 182.898 370.945C183.307 373.798 183.951 376.721 185.123 379.359C186.308 382.005 188.05 384.243 190.661 384.75C193.437 385.374 196.682 385.267 199.828 385.042C202.999 384.801 206.195 384.371 209.356 383.884C215.7 382.907 221.893 381.618 227.921 380.621C230.906 380.141 233.943 379.967 236.729 379.642C243.263 378.581 249.026 377.778 254.558 375.469C258.331 373.721 262.446 371.553 264.933 368.572C266.608 366.292 266.944 365.336 267.229 365.759C267.423 366.076 267.354 367.33 266.783 368.814C269.314 367.965 273.016 366.005 274.536 365.071C275.096 364.576 275.669 364.076 276.236 363.571C274.527 364.791 272.552 366.072 270.481 366.095C269.928 366.051 269.062 365.91 268.787 364.799C269.256 362.027 269.31 359.02 269.044 356.388C268.618 352.94 268.132 350.376 267.182 347.279C267.105 347.165 267.219 347.101 267.296 347.027C271.058 344.312 275.709 342.711 280.337 343.648ZM271.177 363.831C271.18 363.835 271.184 363.831 271.184 363.835L271.341 363.798C271.307 363.808 272.052 363.694 273.073 363.355C274.697 362.95 277.319 361.817 279.06 360.836C279.889 359.911 280.608 358.943 281.122 357.904C283.17 353.762 283.302 349.767 282.004 346.514C279.038 344.895 272.668 345.765 269.673 347.824C269.646 347.848 269.67 347.824 269.666 347.831L269.663 347.834C270.462 350.718 270.989 353.826 271.264 356.481C271.307 359.146 271.677 361.522 271.177 363.831ZM269.719 305.216C271.74 304.857 273.777 305.377 275.813 306.004C274.193 303.505 272.658 300.54 271.281 297.514C271.406 300.406 271.069 302.746 269.719 305.216ZM192.68 349.26L233.098 349.935C238.042 350.049 243.907 350.851 249.196 349.626C250.894 349.163 252.586 348.555 254.257 347.888C257.597 346.548 260.857 344.981 263.995 343.33C266.804 341.842 270.003 340.097 272.604 337.768C274.551 336.251 276.971 334.677 279.468 333.64C282.435 332.515 283.53 329.337 283.482 325.741C283.56 322.942 283.318 320.2 282.687 317.941C282.334 316.816 281.82 315.703 281.188 314.629C277.28 313.856 274.43 313.845 270.725 314.802L270.564 314.86C270.476 316.377 270.942 318.23 271.188 319.589C271.594 322.405 272.597 327.641 272.235 332.756C272.235 333.605 270.003 333.538 269.986 332.421C270.215 328.414 269.768 323.892 269.044 320.082C268.818 317.911 267.848 315.629 268.607 313.856C268.831 313.249 269.577 312.849 269.946 312.752C272.805 311.762 278.129 312.093 280.539 313.605C279.466 312.026 278.145 310.57 276.669 309.372C275.46 308.429 273.668 307.512 272.057 306.938C270.703 306.509 269.789 306.235 269.245 306.025C268.707 306.882 268.047 307.763 267.234 308.697C266.163 309.664 264.901 310.12 263.609 310.433C257.064 311.792 250.311 310.449 243.074 310.926C233.122 311.846 223.201 313.793 214.024 313.836C208.627 313.377 204.394 312.685 198.842 311.919C192.768 311.101 187.051 310.295 181.27 309.581C181.258 309.604 181.253 309.623 181.241 309.647C173.175 314.057 173.441 329.527 174.149 336.542C175.78 346.471 182.046 348.67 192.68 349.26ZM172.311 316.124C169.035 325.355 170.184 338.632 172.852 344.137C174.185 346.74 176.158 348.653 178.892 349.988C176.24 348.641 174.277 346.714 172.932 344.081C170.147 338.334 169.21 325.303 172.311 316.124ZM380.021 447.591C379.839 449.802 379.681 451.713 380.676 457.674C380.825 458.632 381.147 459.156 381.661 459.277C381.741 459.299 381.821 459.334 381.903 459.37C381.254 459.186 380.884 458.552 380.728 457.531C379.216 448.465 380.35 448.696 380.225 443.126C380 443 379.778 442.872 379.555 442.744C379.406 442.666 379.256 442.578 379.108 442.49C371.075 437.928 363.232 433.337 355.634 428.763C355.624 428.771 355.615 428.782 355.605 428.79C363.309 433.422 371.156 438.01 378.936 442.427C379.036 442.485 379.132 442.543 379.23 442.59L380.168 443.128L380.172 443.31C380.216 445.211 380.117 446.42 380.021 447.591ZM401.209 346.811C401.233 346.629 401.261 346.452 401.286 346.27C401.787 342.523 402.159 338.763 402.155 335.016C395.297 331.938 388.812 328.847 382.855 325.779C382.872 327.04 382.852 328.32 382.769 329.637C382.644 335.609 381.661 333.376 380.939 329.664C379.899 318.994 378.442 313.59 374.851 307.313C372.595 303.705 370.041 299.888 367.292 295.914C361.78 287.97 355.487 279.317 348.402 270.577C344.844 266.243 341.105 261.803 336.926 257.866C332.17 253.992 327.158 250.394 323.017 246.494C314.062 238.039 306.651 227.711 301.418 216.604C299.653 212.877 298.135 209.066 296.841 205.223C293.68 205.754 289.708 205.688 287.15 204.618C286.331 204.276 286.284 203.806 286.444 203.655C286.609 203.495 287.015 203.464 287.495 203.451C289.836 203.399 293.882 203.311 296.171 203.166C295.794 201.968 295.434 200.768 295.101 199.567C295.012 199.269 294.943 198.967 294.862 198.667C294.588 198.709 294.326 198.75 294.068 198.788C293.987 198.799 293.906 198.808 293.825 198.822C292.473 199.026 291.094 199.325 289.707 199.392C288.636 199.443 288.727 198.785 289.247 198.264C290.385 197.2 291.922 196.902 293.221 196.657C293.594 196.579 293.972 196.522 294.33 196.479C293.951 194.705 293.68 192.926 293.5 191.151C291.31 191.755 289.268 193.217 287.28 194.032C285.75 194.663 285.851 193.911 286.405 193.15C286.979 192.364 289.14 190.733 290.687 190.008C291.163 189.709 292.446 189.192 293.312 188.895C293.159 186.562 293.123 184.252 293.141 182.003C293.211 176.3 293.681 170.799 294.262 165.542C294.557 162.914 294.883 160.344 295.212 157.847C295.598 153.63 296.914 147.79 294.44 146.021C293.758 145.689 292.242 145.081 293.577 144.733C293.696 144.724 293.8 144.734 293.914 144.733C287.935 138.439 277.286 144.526 272.411 148.726C266.917 153.695 261.953 160.206 259.368 167.688C257.059 175.421 257.005 184.359 257.492 191.858C257.985 204.562 261.993 214.919 264.144 226.61C264.702 230.524 264.453 234.062 264.336 237.418C263.647 247.776 264.033 258.795 263.98 268.422C260.07 258.94 260.684 244.943 261.124 235.398C261.207 232.165 261.365 228.772 260.576 225.587C256.4 208.29 251.468 185.912 255.489 169.38C251.471 185.346 255.933 206.72 260.515 225.71C261.265 228.726 261.176 231.902 261.09 234.975L261.074 235.597C260.781 241.957 260.34 251.558 261.629 259.839L261.733 260.512L261.146 260.167C260.7 259.904 260.195 259.639 259.644 259.382L259.209 259.179L259.466 258.941C259.463 258.935 259.455 258.926 259.451 258.92C258.77 258.807 257.69 258.479 256.451 258.141C246.016 255.237 235.625 255.547 223.447 257.403C215.381 259.171 207.773 255.489 198.824 254.969C194.451 254.489 190.044 254.466 186.087 255.449C177.588 257.678 169.559 263.031 163.004 269.717C161.54 271.389 160.131 273.1 159.61 275.175C158.778 281.763 158.983 289.017 160.165 295.025C162.363 299.499 167.045 303.386 171.388 305.111C180.078 306.215 191.346 307.417 201.124 308.9C205.917 309.391 211.082 310.599 215.65 310.525C225.511 310.381 234.702 307.958 244.147 307.572C250.037 307.434 257.22 308.448 263.688 307.001C265.077 306.602 266.128 305.212 266.786 303.494C268.585 298.516 269.37 288.087 264.057 282.962C261.631 280.26 258.055 277.958 253.924 276.343C249.788 274.718 245.09 273.762 240.253 273.524C235.309 273.282 230.234 273.255 225.189 273.121C220.332 272.963 215.17 272.681 210.326 271.107C199.922 268.117 185.3 265.81 173.543 268.154C183.2 260.822 201.626 266.341 212.089 268.18C216.03 269.271 220.164 269.688 224.453 269.808C224.062 267.603 222.855 265.564 221.598 264.045C220.739 263.099 221.232 262.769 222.248 263.014C224.415 263.894 226.253 266.865 226.693 269.857C231.353 269.964 236.105 270.006 240.827 270.254C241.469 270.289 242.11 270.337 242.749 270.396C242.687 267.144 242.401 264.531 242.559 262.195C244.502 262.806 244.862 266.609 244.915 268.331C244.951 269.173 244.963 270.004 244.967 270.659C252.708 271.737 259.974 274.65 264.956 279.211C264.557 276.042 265.039 273.545 265.074 271.473C266.272 275.608 267.655 281.377 269.803 286.026C271.968 290.651 277.825 303.269 281.068 307.565C282.933 309.851 284.32 312.623 285.398 315.298C286.488 318.007 287.344 320.759 288.12 323.491C289.664 328.955 290.851 334.37 292.275 339.347C296.216 350.646 302.895 362.306 312.102 368.625C314.565 370.139 314.646 370.559 314.236 370.828C313.857 371.043 313.035 370.909 311.199 370.217C301.552 364.608 295.292 356.039 291.261 346.598C291.079 346.165 290.914 345.724 290.748 345.284C287.182 363.138 289.142 378.067 293.409 395.216C285.135 389.425 283.641 354.423 288.874 339.434C288.86 339.379 288.843 339.325 288.828 339.27C287.978 336.192 287.202 333.012 286.387 329.809C286.242 330.644 286.046 331.495 285.747 332.376C285.035 334.302 283.659 335.884 281.531 336.377C279.829 336.986 278.19 337.859 276.59 338.932C277.128 339.046 277.73 339.215 278.366 339.465C286.331 343.308 287.23 351.685 284.203 359.077C282.47 362.954 278.587 365.414 275.379 367.43C274.772 367.873 274.086 368.292 273.352 368.69C274.047 368.812 274.923 369.084 275.835 369.578C278.775 371.522 280.494 373.64 281.651 377.262C282.558 381.397 281.894 386.156 280.477 389.617C279.232 392.614 277.137 395.595 274.294 397.901C268.817 402.335 262.332 406.208 255.364 410.132C251.873 412.075 248.244 413.985 244.489 415.814C242.12 416.947 239.737 418.071 237.243 419.095C237.81 419.266 238.43 419.446 239.115 419.634C252.709 423.118 266.457 425.44 279.48 426.182C285.451 426.756 291.013 426.004 296.343 425.78C302.21 425.696 308.121 427.736 313.266 429.226C322.799 432.214 333.449 433.194 342.659 431.472C351.731 429.542 357.128 424.689 360.163 416.476C361.016 413.72 361.176 412.76 361.546 413.085C361.854 413.391 362.147 414.999 361.932 416.955C361.27 420.703 359.902 423.694 358.082 426.096C364.256 429.853 370.388 433.449 376.488 436.91C379.337 433.61 381.563 429.918 383.285 425.983C383.006 427.326 382.602 428.689 382.077 430.029C381.789 431.403 381.741 432.216 381.566 432.773C382.113 432.47 382.645 432.143 383.162 431.792C384.025 430.08 384.955 428.342 386.358 427.13C386.411 427.083 386.494 427.163 386.462 427.217C386.078 428.137 385.687 428.992 385.292 429.867C386.902 428.045 388.041 425.697 389.687 423.987C391.04 416.245 392.475 407.987 393.814 400.222C392.358 403.649 392.461 407.53 391.132 411.029C389.98 414.034 389.077 417.467 387.085 420.025C387.024 420.114 386.823 420.002 386.846 419.904C387.703 416.398 389.398 413.276 390.065 409.701C390.429 407.747 390.963 405.853 391.313 403.875C391.611 402.193 392.88 401.113 393.736 399.688C393.768 399.634 393.852 399.633 393.906 399.668C394.648 395.348 395.413 390.931 396.167 386.574C396.157 385.149 396.432 383.729 396.603 382.326C396.769 380.942 396.838 379.525 397.378 378.222C397.428 378.088 397.518 378.059 397.616 378.082C399.146 369.259 400.563 360.903 401.736 354.008C401.618 352.257 401.32 350.567 401.274 348.772C401.258 348.121 401.233 347.466 401.209 346.811ZM402.949 345.83C402.936 346.227 402.923 346.628 402.912 347.016C403.187 345.268 403.458 343.693 403.683 342.324C403.616 342.089 403.569 341.853 403.518 341.634C403.466 342.375 403.351 343.11 403.029 343.859C403.029 343.859 402.964 343.863 402.902 343.869C402.931 344.526 402.967 345.153 402.949 345.83ZM403.979 331.585C403.92 331.671 403.859 331.754 403.807 331.844C403.798 331.86 403.791 331.878 403.781 331.894C403.876 331.93 403.973 331.961 404.067 331.998C404.121 331.893 404.18 331.787 404.234 331.681C404.147 331.649 404.065 331.618 403.979 331.585ZM385.94 468.028C384.947 467.427 383.901 466.733 382.899 465.831C382.31 465.301 381.775 464.624 381.256 463.97C380.97 463.61 380.521 463.043 380.245 462.765C379.138 462.349 377.429 461.233 376.971 458.291C375.899 451.867 376.083 449.639 376.277 447.279C376.33 446.646 376.38 446.032 376.408 445.31C369.448 441.352 362.444 437.264 355.546 433.136C351.916 435.752 347.301 437.584 341.789 438.594L341.72 438.606L341.65 438.616C338.627 439.043 335.58 439.259 332.596 439.259C325.534 439.259 318.538 438.119 309.919 435.565C308.96 435.304 308.019 435.035 307.087 434.769C303.383 433.71 299.884 432.709 296.487 432.709C296.171 432.709 295.855 432.719 295.547 432.736C292.408 433.094 288.917 433.276 285.167 433.276C282.895 433.276 280.535 433.208 278.153 433.076L278.117 433.075L278.081 433.072C262.776 431.904 249.325 429.699 236.958 426.328L236.824 426.292L236.694 426.244C234.871 425.584 232.699 425.071 230.231 424.711C228.792 424.849 227.39 424.908 226.032 424.968C223.918 425.058 221.922 425.145 220.078 425.508L220.044 425.514L220.009 425.52C218.388 425.805 216.745 426.379 215.006 426.988C212.437 427.886 209.779 428.815 206.892 428.888C206.749 428.891 206.605 428.893 206.462 428.893C203.652 428.893 200.882 428.279 198.463 427.123C196.019 425.965 193.813 424.245 191.897 422.001C189.071 418.66 186.999 414.49 185.562 409.254L185.541 409.181L185.525 409.107C184.494 404.577 183.474 399.359 184.445 394.719C184.809 393.059 185.283 391.713 185.976 390.538C184.352 389.755 182.846 388.599 181.663 387.202C180.389 385.741 179.331 384.01 178.421 381.887C176.828 378.096 176.18 374.346 175.83 371.844C175.4 368.706 175.22 365.564 175.291 362.503C175.33 359.346 176.254 356.343 177.984 353.715C174.135 352.022 171.339 349.42 169.508 345.846L169.491 345.811L169.474 345.777C167.359 341.411 166.253 333.857 166.656 326.534C166.858 322.841 167.59 316.916 170.052 311.903C168.621 311.547 167.31 311.052 166.104 310.415C159.789 307.778 156.174 303.148 154.249 299.713L154.225 299.672L154.203 299.629C151.105 293.721 151.59 280.269 152.893 273.037L152.954 272.698L153.082 272.377C154.595 268.574 157.521 265.407 159.901 263.073L159.925 263.05L159.949 263.028C168.038 255.393 177.904 250.195 187.731 248.39L187.842 248.369L187.956 248.357C189.194 248.213 190.509 248.13 191.868 248.11L191.892 248.109C192.161 248.106 192.431 248.103 192.7 248.103C196.304 248.103 199.804 248.49 202.744 248.867C206.738 249.369 210.514 250.157 214.165 250.918L215.736 251.246C216.445 251.388 217.213 251.458 218.084 251.458C220.405 251.458 223.019 250.956 225.789 250.425C228.962 249.817 232.244 249.187 235.636 249.187C236.331 249.187 237.016 249.214 237.674 249.269C237.931 249.266 238.191 249.264 238.453 249.264C246.188 249.264 252.33 250.464 257.161 252.923C256.811 246.502 257.103 240.13 257.317 235.464L257.334 234.873C257.413 232.053 257.494 229.135 256.861 226.593C251.853 205.838 247 182.256 252.842 165.074L252.855 165.033L252.87 164.993C255.758 157.143 260.772 149.98 267.792 143.686C269.413 142.254 271.085 140.96 272.78 139.828C276.5 137.373 281.291 135.965 285.926 135.965C288.197 135.965 290.32 136.301 292.236 136.966L292.296 136.986L292.356 137.01C295.14 138.092 297.003 140.251 297.835 141.938C298.02 142.29 298.171 142.615 298.293 142.907C300.835 144.727 302.204 148.162 302.186 152.79L302.185 152.881L302.18 152.974C302.087 154.579 301.896 156.046 301.693 157.601C301.634 158.053 301.573 158.512 301.512 159.011C301.118 161.979 300.817 164.413 300.567 166.666C299.868 173.049 299.541 177.987 299.505 182.663C299.491 187.502 299.7 193.169 301.368 198.512L301.381 198.554L301.393 198.597C302.976 204.165 305.041 209.601 307.532 214.754C312.638 225.325 319.845 235.032 328.375 242.822L328.403 242.849L328.432 242.877C330.547 244.899 332.96 246.727 335.294 248.494C337.781 250.377 340.351 252.324 342.638 254.564C347.093 259.019 351.051 263.784 354.674 268.28C361.11 276.339 367.435 284.932 374.01 294.546C379.588 301.92 383.495 310.721 385.117 319.515C388.492 321.19 396.434 324.806 406.45 328.497C406.575 328.424 406.701 328.349 406.822 328.275C407.954 327.598 409.506 326.668 411.532 326.668C412.051 326.668 412.572 326.731 413.083 326.854C414.402 327.174 415.804 327.302 417.289 327.438C417.65 327.471 418.011 327.504 418.363 327.538L418.936 327.592C419.988 327.692 421.115 327.799 422.278 327.992C424.192 324.217 427.141 323.029 428.965 322.655L429.334 322.587H429.67C432.32 322.587 460.176 331.59 464.622 333.376C468.338 334.881 474.224 336.735 480.453 338.696C482.098 339.214 483.71 339.725 485.288 340.229C488.875 325.265 490.733 309.777 490.733 294.001C490.733 241.45 470.269 192.046 433.112 154.888C395.953 117.73 346.55 97.2671 293.999 97.2671C284.221 97.2671 274.552 97.9777 265.049 99.3705L265.657 104.065C265.691 104.349 265.492 104.604 265.224 104.64C265.166 104.648 265.109 104.648 265.06 104.64C264.846 104.597 264.669 104.426 264.64 104.2L264.031 99.5286C243.834 102.597 224.407 108.76 206.312 117.786L228.06 163.401C228.188 163.665 228.074 163.971 227.818 164.091C227.72 164.14 227.606 164.153 227.506 164.134C227.35 164.104 227.207 164.005 227.13 163.848L205.39 118.244C187.608 127.231 171.137 139.001 156.503 153.311L173.402 171.126C173.601 171.332 173.593 171.66 173.381 171.857C173.261 171.971 173.09 172.015 172.933 171.985C172.835 171.971 172.742 171.915 172.664 171.838L155.769 154.028C155.476 154.317 155.178 154.597 154.887 154.888C140.786 168.989 129.096 184.858 120.009 201.99L160.749 224.116C160.997 224.251 161.091 224.562 160.955 224.812C160.85 225.011 160.621 225.11 160.409 225.075C160.36 225.06 160.309 225.046 160.259 225.018L119.536 202.9C110.295 220.545 103.809 239.516 100.309 259.278L101.953 259.581C102.236 259.639 102.421 259.909 102.371 260.185C102.315 260.462 102.044 260.647 101.768 260.598L100.126 260.294C98.234 271.319 97.2656 282.585 97.2656 294.001C97.2656 302.659 97.8327 311.23 98.9266 319.677L149.587 313.019C149.865 312.99 150.126 313.189 150.163 313.473C150.198 313.729 150 314.013 149.722 314.042L99.0649 320.699C101.744 340.561 107.395 359.716 115.817 377.632L130.743 370.517C130.999 370.389 131.304 370.503 131.432 370.759C131.553 371.013 131.447 371.326 131.184 371.453L116.26 378.568C124.739 396.353 135.954 412.895 149.678 427.684L160.501 417.408C160.707 417.208 161.033 417.222 161.232 417.435C161.424 417.634 161.417 417.959 161.211 418.159L150.375 428.433C151.853 430.011 153.351 431.576 154.887 433.112C167.652 445.878 181.864 456.673 197.151 465.345L216.247 430.196C216.615 430.066 216.981 429.939 217.34 429.816C217.424 429.964 217.44 430.15 217.353 430.316L198.052 465.842C215.546 475.645 234.431 482.676 254.162 486.713L263.745 435.054C264.086 435.098 264.425 435.143 264.767 435.186L255.173 486.926C267.822 489.444 280.811 490.735 293.999 490.735C301.168 490.735 308.275 490.341 315.304 489.589L314.443 483.07C314.413 482.787 314.613 482.531 314.882 482.487C315.167 482.445 315.421 482.644 315.465 482.928L316.329 489.475C336.694 487.189 356.36 481.788 374.767 473.495C374.755 473.476 374.733 473.462 374.724 473.442L366.303 455.762C366.175 455.507 366.288 455.209 366.544 455.081C366.799 454.953 367.111 455.066 367.225 455.322L375.66 472.987C375.673 473.016 375.672 473.047 375.68 473.077C379.145 471.494 382.569 469.815 385.94 468.028ZM470.557 357.675C467.341 356.288 463.708 354.658 460.352 353.857C456.392 352.911 457.646 352.921 453.685 351.975C446.58 350.289 444.798 349.286 437.633 348.029C437.475 348.001 437.464 348.225 437.617 348.272C444.645 350.363 446.508 351.457 453.618 353.125C457.309 353.986 455.786 353.891 459.497 354.756C463.093 355.593 466.927 357.582 470.556 357.768C470.596 357.768 470.612 357.7 470.557 357.675ZM470.174 362.017C465.591 360.396 461.295 358.783 456.655 357.654C452.132 356.554 452.46 356.137 447.897 355.637C447.755 355.622 447.707 355.91 447.839 355.963C452.273 357.609 451.869 357.831 456.381 358.89C461.029 359.979 465.459 361.458 470.166 362.046L470.174 362.017ZM446.875 354.845C445.506 354.095 444.049 353.974 442.65 353.618C441.287 353.283 439.925 352.596 438.506 352.743C438.466 352.744 438.43 352.982 438.486 353.007C439.784 353.79 441.448 354.25 442.817 354.555C444.226 354.882 445.406 354.948 446.871 354.863L446.875 354.845ZM442.351 345.516C441.807 345.377 441.28 345.251 440.752 345.126C439.702 344.864 438.689 344.353 437.579 344.511C437.556 344.516 437.519 344.847 437.535 344.872C438.499 345.493 439.551 345.497 440.547 345.725C441.078 345.84 441.623 345.971 442.155 346.079C442.702 346.2 442.856 345.646 442.351 345.516ZM464.82 352.076C461.852 351.377 460.585 349.69 457.613 349.002C451.794 347.634 450.966 346.785 445.107 345.841C444.908 345.804 444.872 346.135 445.065 346.191C450.619 347.889 450.967 348.591 456.579 349.879C459.551 350.569 461.144 351.845 464.115 352.525C467.188 353.217 467.672 352.745 464.82 352.076ZM437.258 340.966C444.39 343.052 446.302 344.199 453.506 345.897C457.136 346.764 455.489 346.578 459.126 347.416C462.684 348.235 466.488 350.267 470.061 350.42C470.104 350.419 470.117 350.36 470.08 350.341C466.907 348.943 463.285 347.789 459.99 346.995C456.089 346.053 457.113 345.563 453.228 344.646C446.042 342.952 444.527 342.044 437.293 340.728C437.135 340.7 437.102 340.918 437.258 340.966ZM437.928 332.961C444.342 335.029 445.636 335.914 452.136 337.458C458.44 338.952 459.498 340.576 465.873 341.429C466.054 341.45 466.105 341.144 465.917 341.078C459.692 338.983 458.013 337.892 451.701 336.435C445.191 334.931 444.49 333.888 437.937 332.923C437.917 332.918 437.911 332.945 437.928 332.961ZM436.872 336.761C443.437 338.723 444.793 339.694 451.413 341.254C455.103 342.126 453.678 341.869 457.371 342.73C459.073 343.126 464.512 345.218 466.211 345.613C468.303 346.102 468.98 345.77 467.125 345.327C465.431 344.912 459.997 342.789 458.284 342.369C454.597 341.48 455.855 341.212 452.169 340.332C445.262 338.683 443.865 337.616 436.92 336.391C436.684 336.345 436.621 336.691 436.872 336.761ZM432.352 332.557C432.362 332.517 432.319 332.528 432.326 332.579C433.238 341.894 431.518 352.197 429.948 361.198C429.204 365.35 428.814 369.485 428.416 373.742C427.955 378.612 423.666 396.862 423.246 401.723C423.257 401.766 426.723 390.866 426.733 390.828C427.245 386.525 429.822 381.146 430.365 376.884C431.098 371.14 431.703 364.41 432.688 358.725C434.075 350.839 435.884 337.081 432.352 332.557ZM394.715 468.359L394.68 468.379C394.874 468.485 395.064 468.593 395.258 468.698C394 469.439 392.733 470.163 391.457 470.877C391.254 470.762 391.062 470.65 390.862 470.536C361.522 486.689 328.425 495.285 294.002 495.285C240.238 495.285 189.69 474.346 151.673 436.329C113.656 398.313 92.7188 347.765 92.7188 294.001C92.7188 240.235 113.656 189.689 151.673 151.672C189.69 113.654 240.238 92.7173 294.002 92.7173C347.767 92.7173 398.314 113.654 436.331 151.672C474.349 189.689 495.285 240.235 495.285 294.001C495.285 333.088 484.21 370.47 463.558 402.578C449.388 424.98 430.923 444.395 409.303 459.647C409.349 459.416 409.389 459.187 409.434 458.955C409.024 459.244 408.606 459.522 408.194 459.808C408.361 459.895 408.531 459.978 408.698 460.066C408.162 460.442 407.624 460.815 407.084 461.185C406.915 461.099 406.748 461.004 406.578 460.918C405.658 461.541 404.731 462.154 403.801 462.761C403.985 462.85 404.171 462.932 404.355 463.021C403.835 463.365 403.314 463.71 402.79 464.052C402.615 463.957 402.44 463.857 402.264 463.762C401.432 464.295 400.594 464.817 399.756 465.336C399.914 465.451 400.077 465.557 400.233 465.678C398.601 466.702 396.953 467.703 395.289 468.68C395.099 468.576 394.908 468.465 394.715 468.359ZM581.045 294.002C581.045 217.329 551.188 145.247 496.972 91.0325C442.758 36.8169 370.675 6.95947 294.003 6.95947C217.332 6.95947 145.249 36.8169 91.034 91.0325C36.8184 145.247 6.96094 217.329 6.96094 294.002C6.96094 370.673 36.8184 442.756 91.034 496.971C145.249 551.186 217.332 581.043 294.003 581.043C370.675 581.043 442.758 551.186 496.972 496.971C551.188 442.756 581.045 370.673 581.045 294.002ZM588 294C588 372.53 557.418 446.36 501.889 501.889C446.36 557.418 372.53 588 294 588C215.47 588 141.64 557.418 86.1103 501.889C30.5809 446.36 0 372.53 0 294C0 215.47 30.5809 141.64 86.1103 86.1112C141.64 30.5818 215.47 0 294 0C372.53 0 446.36 30.5818 501.889 86.1112C557.418 141.64 588 215.47 588 294ZM257.008 333.29C258.864 329.53 258.112 323.026 257.306 319.545C256.924 317.887 255.04 317.719 255.524 320.143C255.944 323.274 256.766 328.836 257.008 333.29ZM264.567 394.448C267.099 395.71 275.322 391.451 277.063 385.986C273.821 389.57 268.935 393.209 267.092 391.793C267.189 384.945 266.977 380.33 265.749 375.625C264.48 373.41 263.07 375.201 263.507 377.252C264.681 382.797 264.711 389.843 264.567 394.448ZM250.544 342.511C253.582 340.252 253.428 327.242 251.861 319.898C251.477 318.844 249.759 318.703 249.785 320.536C250.484 327.89 250.658 338.734 250.544 342.511ZM263.739 354.5C262.729 354.056 261.98 354.513 261.695 354.755C261.648 354.792 261.648 354.801 261.651 354.825C262.118 359.5 261.923 363.31 261.621 368.083C261.755 368.264 262.144 368.144 262.669 367.26C264.713 363.877 264.35 358.014 263.84 354.573C263.826 354.549 263.759 354.506 263.739 354.5ZM247.373 454.923C247.103 454.881 246.82 455.024 246.742 455.293L244.589 463.345C244.513 463.615 244.675 463.898 244.946 463.984H244.988C245.25 464.041 245.506 463.871 245.577 463.615L247.735 455.563C247.813 455.28 247.65 455.009 247.373 454.923ZM160.755 356.201L153.42 359.709C153.164 359.822 153.058 360.135 153.178 360.391C153.25 360.546 153.392 360.645 153.548 360.674C153.654 360.703 153.762 360.689 153.868 360.633L161.195 357.138C161.458 357.011 161.565 356.712 161.444 356.443C161.316 356.187 161.011 356.088 160.755 356.201ZM143.999 365.332C144.261 365.204 144.366 364.906 144.246 364.65C144.119 364.395 143.814 364.295 143.558 364.409L138.467 366.823C138.211 366.95 138.105 367.249 138.225 367.519C138.296 367.662 138.437 367.775 138.595 367.803C138.701 367.817 138.807 367.803 138.913 367.76L143.999 365.332ZM166.808 366.271C166.659 366.03 166.347 365.944 166.105 366.087L138.974 381.75C138.727 381.892 138.641 382.205 138.784 382.459C138.86 382.587 138.988 382.673 139.139 382.7C139.252 382.73 139.379 382.7 139.486 382.644L166.616 366.981C166.864 366.839 166.95 366.526 166.808 366.271ZM164.734 342.643L127.248 357.026C126.978 357.128 126.845 357.425 126.95 357.695C127.014 357.864 127.163 357.978 127.334 358.007C127.425 358.036 127.525 358.022 127.618 357.978L165.014 343.642C164.918 343.317 164.825 342.985 164.734 342.643ZM144.272 326.524C144.335 326.538 144.4 326.538 144.471 326.524L163.561 322.473C163.607 322.112 163.657 321.749 163.71 321.388L144.257 325.515C143.981 325.572 143.797 325.857 143.86 326.125C143.902 326.339 144.072 326.496 144.272 326.524ZM134.953 328.029C134.897 327.743 134.619 327.56 134.342 327.63L119.587 330.755C119.311 330.826 119.134 331.095 119.19 331.379C119.232 331.578 119.404 331.736 119.602 331.778H119.801L134.555 328.625C134.84 328.568 135.017 328.298 134.953 328.029ZM143.985 338.338C144.042 338.536 144.204 338.663 144.389 338.693C144.467 338.721 144.546 338.707 144.631 338.693L163.273 333.172C163.251 332.821 163.23 332.471 163.214 332.117L144.332 337.698C144.063 337.784 143.906 338.068 143.985 338.338ZM176.784 386.234L154.387 404.371C154.167 404.541 154.13 404.869 154.309 405.095C154.393 405.194 154.499 405.25 154.614 405.28C154.763 405.308 154.912 405.266 155.034 405.167L177.334 387.119C177.146 386.83 176.961 386.537 176.784 386.234ZM194.814 440.994C194.658 441.234 194.728 441.548 194.964 441.704C195.026 441.747 195.084 441.774 195.154 441.79C195.353 441.818 195.56 441.732 195.681 441.562L201.976 431.874C201.614 431.801 201.255 431.718 200.899 431.628L194.814 440.994ZM173.167 424.251C172.983 424.463 172.998 424.79 173.21 424.974C173.28 425.045 173.366 425.088 173.458 425.103C173.629 425.13 173.814 425.074 173.935 424.946L183.565 414.253C183.43 413.893 183.307 413.515 183.179 413.145L173.167 424.251ZM275.366 436.393C275.083 436.365 274.827 436.562 274.799 436.833L273.472 449.429C273.443 449.699 273.627 449.941 273.89 449.983C273.905 449.983 273.918 449.983 273.932 449.997C274.216 450.025 274.464 449.813 274.501 449.527L275.814 436.946C275.848 436.677 275.664 436.449 275.366 436.393ZM285.727 447.013C285.721 447.254 285.904 447.467 286.139 447.511C286.168 447.525 286.196 447.525 286.224 447.525C286.509 447.525 286.743 447.297 286.75 447.027L287.025 436.688C286.684 436.693 286.341 436.698 285.996 436.7L285.727 447.013ZM248.328 449.387C248.25 449.655 248.413 449.941 248.691 450.01C248.704 450.01 248.718 450.025 248.733 450.025C248.996 450.069 249.25 449.912 249.321 449.642L253.643 433.527C253.304 433.467 252.966 433.409 252.63 433.348L248.328 449.387ZM272.959 459.24C272.675 459.212 272.419 459.411 272.39 459.696L271.468 468.386C271.439 468.656 271.623 468.898 271.887 468.939C271.902 468.939 271.915 468.939 271.929 468.954C272.213 468.981 272.469 468.769 272.497 468.485L273.414 459.809C273.442 459.523 273.242 459.297 272.959 459.24ZM151.466 301.772L144.854 302.117C144.57 302.132 144.351 302.373 144.364 302.657C144.378 302.898 144.555 303.097 144.784 303.14C144.826 303.154 144.868 303.154 144.905 303.154L152.075 302.778C151.857 302.435 151.656 302.1 151.466 301.772ZM297.105 436.169L298.833 469.21C298.847 469.451 299.024 469.65 299.251 469.693C299.295 469.706 299.33 469.706 299.371 469.706C299.657 469.693 299.877 469.451 299.862 469.153L298.138 436.243C297.791 436.208 297.447 436.183 297.105 436.169ZM229.203 432.091C228.941 431.977 228.635 432.091 228.522 432.36L218.836 454.101C218.715 454.372 218.836 454.67 219.085 454.784C219.129 454.811 219.163 454.811 219.205 454.826C219.434 454.868 219.668 454.755 219.767 454.527L229.452 432.773C229.572 432.517 229.452 432.204 229.203 432.091ZM239.001 438.17C238.9 438.426 239.043 438.723 239.314 438.823C239.334 438.823 239.364 438.836 239.39 438.836C239.633 438.894 239.873 438.751 239.959 438.509L242.527 431.266C242.196 431.188 241.86 431.115 241.53 431.036L239.001 438.17ZM241.747 234.306C241.569 234.077 241.243 234.05 241.023 234.234C240.803 234.404 240.768 234.732 240.945 234.951L245.497 240.575C245.574 240.674 245.687 240.732 245.801 240.752C245.943 240.781 246.1 240.744 246.221 240.645C246.441 240.468 246.475 240.149 246.298 239.922L241.747 234.306ZM373.86 255.181C373.731 254.925 373.42 254.826 373.163 254.94L355.219 263.502C355.442 263.773 355.667 264.046 355.888 264.317L373.619 255.871C373.874 255.75 373.974 255.445 373.86 255.181ZM374.582 262.69C374.468 262.427 374.183 262.3 373.913 262.392L361.19 267.27C360.934 267.377 360.793 267.675 360.907 267.939C360.964 268.108 361.119 268.228 361.289 268.256C361.375 268.278 361.474 268.27 361.56 268.236L374.284 263.358C374.539 263.251 374.68 262.961 374.582 262.69ZM383.231 241.386C383.09 241.137 382.778 241.051 382.536 241.194L351.516 259.098C351.744 259.361 351.968 259.626 352.194 259.89L383.046 242.089C383.288 241.948 383.373 241.627 383.231 241.386ZM386.474 266.561C386.388 266.292 386.103 266.142 385.834 266.214L362.754 273.045C362.976 273.337 363.199 273.631 363.422 273.924L386.119 267.2C386.388 267.122 386.557 266.838 386.474 266.561ZM353.513 251.58C353.356 251.343 353.03 251.28 352.802 251.444L347.754 254.913C347.991 255.167 348.233 255.421 348.467 255.676L353.385 252.296C353.626 252.132 353.683 251.813 353.513 251.58ZM435.871 251.402L393.071 264.076C392.802 264.154 392.645 264.438 392.73 264.709C392.786 264.907 392.943 265.034 393.128 265.063C393.199 265.078 393.284 265.078 393.37 265.063L436.169 252.389C436.44 252.31 436.595 252.02 436.511 251.751C436.425 251.474 436.142 251.325 435.871 251.402ZM433.226 226.302L387.927 247.907C387.671 248.028 387.558 248.333 387.686 248.597C387.755 248.745 387.898 248.853 388.054 248.88C388.153 248.902 388.267 248.887 388.366 248.838L433.667 227.231C433.921 227.11 434.037 226.805 433.921 226.551C433.795 226.287 433.482 226.181 433.226 226.302ZM435.597 298.362C435.313 298.362 435.086 298.59 435.07 298.874C435.07 299.13 435.242 299.342 435.496 299.386H435.568L442.214 299.569C442.499 299.584 442.725 299.356 442.74 299.074C442.74 298.789 442.526 298.562 442.228 298.534L435.597 298.362ZM393.593 273.094C393.537 272.817 393.267 272.639 392.983 272.704L366.68 278.287C366.904 278.59 367.128 278.895 367.352 279.199L393.209 273.712C393.48 273.647 393.665 273.379 393.593 273.094ZM423.43 288.089C423.415 287.806 423.174 287.592 422.89 287.599L375.117 290.102C375.344 290.43 375.573 290.761 375.801 291.093L422.932 288.636C423.216 288.614 423.443 288.373 423.43 288.089ZM394.651 297.796C394.651 297.512 394.438 297.284 394.139 297.27L379.781 296.892C380.002 297.243 380.232 297.588 380.447 297.945L394.111 298.307C394.41 298.307 394.637 298.08 394.651 297.796ZM378.667 283.426C378.625 283.142 378.368 282.943 378.085 282.978L370.781 283.94C371.006 284.255 371.232 284.568 371.458 284.887L378.213 284C378.497 283.965 378.696 283.702 378.667 283.426ZM464.906 285.923C464.891 285.638 464.65 285.426 464.352 285.44L433.409 287.051C433.125 287.066 432.912 287.307 432.926 287.591C432.94 287.84 433.111 288.031 433.338 288.074C433.38 288.081 433.424 288.081 433.466 288.081L464.409 286.463C464.694 286.448 464.92 286.206 464.906 285.923ZM413.39 297.766C413.106 297.766 412.864 297.993 412.864 298.278C412.85 298.534 413.035 298.761 413.276 298.789C413.305 298.803 413.332 298.803 413.362 298.818L429.522 299.243C429.805 299.243 430.034 299.017 430.047 298.732C430.047 298.447 429.834 298.207 429.551 298.207L413.39 297.766ZM444.629 274.23L385.511 282.005C385.228 282.041 385.028 282.297 385.058 282.581C385.1 282.807 385.27 282.978 385.484 283.02C385.526 283.028 385.582 283.028 385.639 283.02L444.77 275.246C445.055 275.216 445.253 274.955 445.211 274.676C445.168 274.393 444.912 274.194 444.629 274.23ZM453.539 232.402C453.438 232.134 453.155 232.005 452.887 232.104L384.098 258.49C383.827 258.596 383.699 258.886 383.8 259.155C383.871 259.327 384.027 259.448 384.197 259.475C384.283 259.497 384.382 259.491 384.467 259.455L453.253 233.062C453.509 232.964 453.638 232.665 453.539 232.402ZM325.034 196.893C324.749 196.794 324.466 196.942 324.367 197.204L315.551 222.084C315.785 222.455 316.02 222.826 316.26 223.193L325.346 197.553C325.431 197.284 325.289 196.985 325.034 196.893ZM403.79 203.788L426.112 185.725C426.341 185.548 426.368 185.229 426.184 185.001C426.013 184.782 425.686 184.746 425.459 184.931L403.137 202.994C402.923 203.178 402.881 203.49 403.066 203.717C403.15 203.818 403.251 203.874 403.379 203.896C403.519 203.924 403.677 203.889 403.79 203.788ZM350.585 216.831C350.755 216.866 350.954 216.797 351.082 216.639L354.93 211.619C355.115 211.393 355.073 211.073 354.846 210.895C354.617 210.732 354.292 210.767 354.121 210.994L350.272 216.008C350.102 216.235 350.144 216.561 350.373 216.732C350.442 216.782 350.499 216.817 350.585 216.831ZM334.801 213.018C334.559 212.883 334.249 212.976 334.106 213.225L323.473 232.805C323.712 233.083 323.947 233.366 324.189 233.641L335.014 213.714C335.142 213.459 335.056 213.154 334.801 213.018ZM352.957 179.59C352.716 179.456 352.404 179.548 352.261 179.796L336.968 207.984C336.826 208.232 336.924 208.546 337.167 208.673C337.224 208.7 337.266 208.716 337.323 208.73C337.535 208.765 337.763 208.666 337.862 208.474L353.17 180.286C353.312 180.037 353.213 179.725 352.957 179.59ZM323.189 221.104C322.92 220.99 322.622 221.111 322.508 221.367L319.57 227.962C319.803 228.273 320.05 228.572 320.286 228.881L323.445 221.786C323.559 221.53 323.445 221.226 323.189 221.104ZM312.289 212.868C312.02 212.783 311.735 212.953 311.651 213.23L311.297 214.553C311.53 215.015 311.765 215.476 312.006 215.935L312.659 213.501C312.729 213.224 312.56 212.94 312.289 212.868ZM400.027 306.601C400.055 306.331 399.842 306.047 399.573 306.047L383.859 304.392C384.023 304.746 384.164 305.108 384.322 305.466L399.458 307.055C399.744 307.097 399.998 306.885 400.027 306.601ZM349.727 203.504C349.471 203.349 349.158 203.419 349.003 203.66L328.453 235.285C328.298 235.526 328.369 235.846 328.612 236.003C328.667 236.038 328.738 236.066 328.795 236.072C328.993 236.109 329.207 236.03 329.32 235.846L349.869 204.221C350.024 203.979 349.953 203.66 349.727 203.504ZM365.724 243.203C365.811 243.316 365.924 243.387 366.052 243.415C366.18 243.437 366.321 243.415 366.434 243.331L415.838 209.384C416.08 209.221 416.136 208.901 415.981 208.667C415.81 208.433 415.498 208.376 415.257 208.532L365.853 242.486C365.626 242.641 365.569 242.961 365.724 243.203ZM391.793 213.502L398.765 207.871C398.992 207.693 399.021 207.367 398.836 207.148C398.664 206.928 398.339 206.892 398.112 207.069L391.167 212.699C390.941 212.883 390.911 213.204 391.083 213.43C391.167 213.53 391.281 213.588 391.394 213.601C391.537 213.63 391.679 213.601 391.793 213.502ZM384.56 218.698C384.375 218.486 384.05 218.442 383.836 218.627L343.84 250.999C344.098 251.232 344.355 251.467 344.607 251.708L384.476 219.423C384.703 219.246 384.73 218.92 384.56 218.698ZM346.577 220.822L337.745 232.331C337.574 232.552 337.617 232.878 337.844 233.048C337.915 233.1 337.986 233.134 338.057 233.148C338.242 233.183 338.439 233.112 338.568 232.957L347.401 221.447C347.572 221.22 347.528 220.893 347.302 220.723C347.074 220.553 346.748 220.595 346.577 220.822ZM335.249 236.421C335.037 236.252 334.71 236.286 334.541 236.513L331.254 240.794C331.505 241.026 331.757 241.257 332.016 241.484L335.35 237.138C335.52 236.918 335.476 236.591 335.249 236.421ZM358.313 207.225L383.233 174.769C383.403 174.542 383.362 174.215 383.135 174.045C382.907 173.875 382.58 173.91 382.41 174.138L357.503 206.6C357.332 206.828 357.375 207.148 357.601 207.325C357.658 207.374 357.744 207.403 357.815 207.416C358 207.453 358.198 207.381 358.313 207.225ZM354.527 234.063C354.328 233.849 354.002 233.849 353.803 234.035L340.042 247.098C339.86 247.28 339.841 247.565 339.989 247.769L340.222 247.953C340.248 247.962 340.272 247.975 340.299 247.979C340.454 248.006 340.61 247.965 340.738 247.852L354.512 234.787C354.712 234.588 354.726 234.261 354.527 234.063ZM362.494 214.82C362.281 214.635 361.969 214.651 361.769 214.864L335.344 244.207C335.614 244.417 335.889 244.628 336.164 244.838L362.537 215.552C362.722 215.34 362.708 215.012 362.494 214.82ZM270.06 137.532L267.288 116.447C267.252 116.164 266.99 115.972 266.713 116.014C266.429 116.043 266.23 116.298 266.266 116.583L269.109 138.214C269.425 137.981 269.742 137.755 270.06 137.532ZM314.515 164.223C314.8 164.273 315.069 164.089 315.126 163.812L316.773 154.958C316.816 154.674 316.631 154.404 316.362 154.354C316.078 154.306 315.808 154.49 315.752 154.766L314.104 163.627C314.062 163.904 314.246 164.174 314.515 164.223ZM317.777 146.688C318.063 146.73 318.332 146.545 318.375 146.276L319.625 139.572C319.666 139.296 319.497 139.026 319.213 138.969C318.928 138.919 318.659 139.104 318.617 139.381L317.366 146.084C317.309 146.367 317.494 146.631 317.777 146.688ZM305.621 152.988L305.611 153.172C305.55 154.233 305.446 155.24 305.329 156.22C305.369 156.156 305.399 156.085 305.41 156.005L309.016 121.703C309.058 121.42 308.846 121.171 308.562 121.142C308.277 121.115 308.021 121.313 307.993 121.589L305.191 148.197C305.468 149.545 305.629 151.068 305.622 152.805L305.621 152.988ZM330.86 180.406C330.888 180.419 330.917 180.427 330.945 180.427C331.186 180.477 331.442 180.333 331.527 180.092L341.51 151.926C341.594 151.657 341.454 151.366 341.198 151.266C340.914 151.167 340.63 151.316 340.531 151.572L330.548 179.753C330.447 180.016 330.59 180.314 330.86 180.406ZM332.262 138.378C332.262 138.378 332.276 138.378 332.29 138.386C332.559 138.428 332.815 138.272 332.886 138.01L335.911 126.741C335.982 126.464 335.827 126.18 335.542 126.109C335.273 126.024 334.987 126.208 334.918 126.471L331.891 137.739C331.822 138.016 331.978 138.301 332.262 138.378ZM304.334 166.242L304.675 162.976C304.691 162.814 304.628 162.666 304.521 162.56C304.335 164.032 304.175 165.372 304.031 166.647C304.192 166.575 304.315 166.431 304.334 166.242ZM313.935 206.72C313.95 206.72 313.963 206.727 313.977 206.727C314.233 206.776 314.504 206.613 314.574 206.35L330.748 146.005C330.82 145.735 330.65 145.451 330.381 145.372C330.11 145.295 329.839 145.465 329.77 145.742L313.581 206.086C313.495 206.358 313.666 206.641 313.935 206.72ZM319.881 135.271C320.164 135.321 320.435 135.136 320.492 134.86L326.768 101.07C326.81 100.784 326.625 100.531 326.356 100.473C326.072 100.423 325.803 100.6 325.745 100.878L319.483 134.675C319.44 134.951 319.625 135.222 319.881 135.271ZM175.75 403.659C175.827 403.745 175.92 403.787 176.027 403.817C176.182 403.845 176.354 403.802 176.474 403.674L180.63 399.733C180.615 399.266 180.61 398.799 180.618 398.332L175.764 402.935C175.559 403.134 175.552 403.462 175.75 403.659ZM303.347 173.786C303.226 175.341 303.136 176.81 303.07 178.224L303.496 174.187C303.512 174.032 303.449 173.891 303.347 173.786ZM164.516 381.423C164.595 381.537 164.716 381.607 164.844 381.635C164.978 381.664 165.113 381.635 165.234 381.549L173.088 376.153C173.008 375.776 172.936 375.412 172.869 375.054L164.652 380.698C164.418 380.869 164.353 381.182 164.516 381.423ZM258.575 148.355C258.851 148.017 259.129 147.681 259.414 147.348L254.542 124.385C254.485 124.107 254.209 123.929 253.931 123.986C253.654 124.051 253.477 124.32 253.534 124.597L258.575 148.355ZM387.251 313.572L424.804 320.54C425.379 320.233 425.943 319.987 426.478 319.794L386.906 312.448C387.02 312.824 387.144 313.198 387.251 313.572ZM162.074 312.393C162.124 312.408 162.181 312.408 162.23 312.393L162.282 312.386C162.079 312.276 161.881 312.162 161.684 312.048C161.744 312.225 161.893 312.357 162.074 312.393ZM281.346 126.906C281.38 126.913 281.422 126.913 281.466 126.913C281.75 126.899 281.963 126.657 281.949 126.375L281.664 120.871C281.651 120.587 281.409 120.374 281.124 120.389C280.841 120.403 280.628 120.645 280.641 120.929L280.92 126.423C280.934 126.665 281.111 126.864 281.346 126.906ZM307.356 205.659L313.932 170.19C313.989 169.913 313.804 169.644 313.521 169.595C313.251 169.545 312.981 169.728 312.924 170.005L306.668 203.729C306.897 204.372 307.114 205.022 307.356 205.659ZM461.409 213.913C461.508 213.928 461.621 213.92 461.721 213.871L468.637 210.568C468.906 210.443 469.006 210.137 468.892 209.881C468.765 209.625 468.452 209.512 468.197 209.639L461.28 212.948C461.024 213.068 460.911 213.374 461.024 213.63C461.111 213.778 461.253 213.885 461.409 213.913ZM404.605 270.757C404.648 270.969 404.818 271.119 405.018 271.161C405.075 271.167 405.146 271.167 405.215 271.154L460.911 259.333C461.194 259.275 461.378 258.999 461.309 258.722C461.252 258.444 460.982 258.267 460.698 258.324L405.003 270.146C404.72 270.217 404.535 270.481 404.605 270.757ZM439.745 223.768C439.817 223.923 439.96 224.022 440.115 224.051C440.229 224.074 440.328 224.059 440.442 224.01L454.814 217.157C455.083 217.03 455.182 216.724 455.068 216.468C454.941 216.212 454.629 216.1 454.373 216.227L439.987 223.085C439.733 223.207 439.632 223.519 439.745 223.768ZM484.404 330.54L479.505 329.631C479.221 329.59 478.95 329.773 478.909 330.043C478.852 330.328 479.037 330.597 479.32 330.653L484.206 331.562C484.49 331.605 484.758 331.421 484.815 331.151C484.858 330.867 484.674 330.597 484.404 330.54ZM464.148 313.361C464.191 313.091 463.979 312.821 463.694 312.807L407.773 306.899C407.503 306.871 407.247 307.07 407.218 307.354C407.19 307.624 407.376 307.865 407.632 307.923H407.673L463.595 313.814C463.864 313.844 464.12 313.644 464.148 313.361ZM454.658 273.434C454.687 273.662 454.856 273.832 455.07 273.876C455.128 273.881 455.184 273.881 455.241 273.876L486.013 269.835C486.297 269.792 486.496 269.536 486.454 269.252C486.41 268.97 486.154 268.777 485.87 268.812L455.099 272.852C454.815 272.888 454.616 273.151 454.658 273.434ZM390.104 237.421C390.188 237.556 390.316 237.642 390.459 237.67C390.572 237.691 390.7 237.677 390.814 237.613L441.525 208.346C441.765 208.203 441.851 207.884 441.708 207.644C441.567 207.395 441.255 207.309 441.013 207.451L390.289 236.719C390.048 236.86 389.962 237.172 390.104 237.421ZM326.653 192.541C326.909 192.584 327.151 192.448 327.235 192.207L329.124 186.904C329.21 186.633 329.067 186.343 328.812 186.243C328.527 186.144 328.245 186.293 328.144 186.556L326.27 191.859C326.17 192.13 326.313 192.42 326.582 192.519C326.597 192.527 326.624 192.535 326.653 192.541ZM472.563 328.342L452.851 324.677C452.582 324.635 452.312 324.82 452.256 325.103C452.226 325.296 452.313 325.485 452.463 325.6C452.615 325.649 452.766 325.697 452.918 325.746L472.362 329.364C472.646 329.406 472.918 329.221 472.973 328.952C473.016 328.666 472.831 328.398 472.563 328.342ZM380.522 128.889C380.565 128.909 380.62 128.931 380.664 128.939C380.876 128.981 381.104 128.882 381.217 128.675L384.91 121.845C385.052 121.596 384.967 121.284 384.711 121.156C384.455 121.013 384.143 121.099 384.014 121.355L380.309 128.185C380.181 128.433 380.266 128.746 380.522 128.889ZM384.822 148.526L352.5 198.278C352.345 198.519 352.416 198.832 352.658 198.988C352.714 199.03 352.77 199.052 352.842 199.066C353.04 199.102 353.253 199.017 353.367 198.84L385.688 149.095C385.843 148.853 385.773 148.534 385.531 148.377C385.29 148.22 384.977 148.292 384.822 148.526ZM325.236 216.497C325.28 216.511 325.323 216.525 325.351 216.532C325.593 216.574 325.82 216.454 325.918 216.235L361.661 135.986C361.774 135.732 361.661 135.427 361.405 135.306C361.136 135.191 360.838 135.312 360.738 135.568L324.982 215.816C324.867 216.078 324.982 216.383 325.236 216.497ZM355.103 175.67C355.147 175.691 355.204 175.714 355.246 175.72C355.459 175.763 355.686 175.662 355.799 175.458L378.634 133.425C378.762 133.176 378.676 132.863 378.422 132.727C378.18 132.592 377.867 132.685 377.725 132.934L354.891 174.967C354.763 175.215 354.849 175.529 355.103 175.67ZM372.172 204.094C372.243 204.158 372.327 204.202 372.428 204.215C372.598 204.251 372.782 204.194 372.896 204.051L407.331 165.845C407.516 165.632 407.502 165.305 407.288 165.115C407.076 164.93 406.749 164.942 406.564 165.156L372.128 203.362C371.945 203.576 371.958 203.902 372.172 204.094ZM361.783 227.174C361.869 227.261 361.952 227.309 362.067 227.331C362.223 227.359 362.393 227.317 362.507 227.196L409.566 182.557C409.78 182.365 409.78 182.038 409.596 181.84C409.397 181.626 409.071 181.62 408.857 181.818L361.798 226.45C361.598 226.642 361.584 226.969 361.783 227.174ZM414.417 177.26C414.218 177.055 414.218 176.735 414.43 176.537L433.09 158.827C433.304 158.63 433.63 158.643 433.814 158.85C434.014 159.056 434.014 159.382 433.801 159.573L415.142 177.275C415.013 177.402 414.842 177.445 414.686 177.417C414.588 177.388 414.487 177.346 414.417 177.26Z" fill="#725A5A"/>
</svg>
