<svg width="16" height="16" viewBox="0 0 16 16" fill="none" xmlns="http://www.w3.org/2000/svg">
<path fill-rule="evenodd" clip-rule="evenodd" d="M7.9998 15.2008C9.90936 15.2008 11.7407 14.4422 13.091 13.0919C14.4412 11.7417 15.1998 9.91034 15.1998 8.00078C15.1998 6.09122 14.4412 4.25987 13.091 2.90961C11.7407 1.55935 9.90936 0.800781 7.9998 0.800781C6.09025 0.800781 4.2589 1.55935 2.90864 2.90961C1.55837 4.25987 0.799805 6.09122 0.799805 8.00078C0.799805 9.91034 1.55837 11.7417 2.90864 13.0919C4.2589 14.4422 6.09025 15.2008 7.9998 15.2008ZM11.3361 6.83708C11.5 6.66734 11.5908 6.44 11.5887 6.20402C11.5867 5.96804 11.492 5.74231 11.3251 5.57544C11.1583 5.40858 10.9325 5.31392 10.6966 5.31187C10.4606 5.30982 10.2332 5.40054 10.0635 5.56448L7.0998 8.52818L5.9361 7.36448C5.76636 7.20054 5.53902 7.10982 5.30304 7.11187C5.06707 7.11392 4.84133 7.20858 4.67447 7.37544C4.5076 7.54231 4.41295 7.76804 4.4109 8.00402C4.40885 8.24 4.49956 8.46734 4.6635 8.63708L6.4635 10.4371C6.63228 10.6058 6.86116 10.7006 7.0998 10.7006C7.33845 10.7006 7.56733 10.6058 7.7361 10.4371L11.3361 6.83708Z" fill="#6086C2"/>
</svg>
