<svg width="374" height="663" viewBox="0 0 374 663" fill="none" xmlns="http://www.w3.org/2000/svg">
<rect width="374" height="663" rx="24" fill="url(#paint0_linear_3707_33402)"/>
<mask id="mask0_3707_33402" style="mask-type:alpha" maskUnits="userSpaceOnUse" x="0" y="0" width="374" height="663">
<rect opacity="0.6" width="374" height="663" rx="24" fill="url(#paint1_linear_3707_33402)"/>
</mask>
<g mask="url(#mask0_3707_33402)">
<path opacity="0.6" d="M487.5 -182.08C487.5 4.21448 439.67 172.849 362.366 294.894C285.058 416.945 178.32 492.341 60.5 492.341C-57.3195 492.341 -164.058 416.945 -241.366 294.894C-318.67 172.849 -366.5 4.21448 -366.5 -182.08C-366.5 -368.374 -318.67 -537.008 -241.366 -659.053C-164.058 -781.104 -57.3195 -856.5 60.5 -856.5C178.32 -856.5 285.058 -781.104 362.366 -659.053C439.67 -537.008 487.5 -368.374 487.5 -182.08Z" stroke="white" stroke-opacity="0.6"/>
<path opacity="0.6" d="M520.5 -96.9312C520.5 89.3629 472.67 257.997 395.366 380.042C318.058 502.093 211.32 577.489 93.5 577.489C-24.3195 577.489 -131.058 502.093 -208.366 380.042C-285.67 257.997 -333.5 89.3629 -333.5 -96.9312C-333.5 -283.225 -285.67 -451.86 -208.366 -573.904C-131.058 -695.956 -24.3195 -771.352 93.5 -771.352C211.32 -771.352 318.058 -695.956 395.366 -573.904C472.67 -451.86 520.5 -283.225 520.5 -96.9312Z" stroke="white" stroke-opacity="0.6"/>
<path opacity="0.6" d="M387.5 -191.157C387.5 -24.6128 344.707 126.141 275.546 235.243C206.381 344.351 110.893 411.742 5.5 411.742C-99.8933 411.742 -195.381 344.351 -264.546 235.243C-333.707 126.141 -376.5 -24.6128 -376.5 -191.157C-376.5 -357.7 -333.707 -508.454 -264.546 -617.556C-195.381 -726.664 -99.8933 -794.055 5.5 -794.055C110.893 -794.055 206.381 -726.664 275.546 -617.556C344.707 -508.454 387.5 -357.7 387.5 -191.157Z" stroke="white" stroke-opacity="0.6"/>
</g>
<defs>
<linearGradient id="paint0_linear_3707_33402" x1="6.84308e-07" y1="-98.6607" x2="460.073" y2="-52.7954" gradientUnits="userSpaceOnUse">
<stop stop-color="#B3522C"/>
<stop offset="1" stop-color="#CC7654"/>
</linearGradient>
<linearGradient id="paint1_linear_3707_33402" x1="6.84308e-07" y1="-98.6607" x2="460.073" y2="-52.7954" gradientUnits="userSpaceOnUse">
<stop stop-color="#CC7654"/>
<stop offset="1" stop-color="#DCA189"/>
</linearGradient>
</defs>
</svg>
