<?xml version="1.0" encoding="utf-8"?>
<!-- Generator: Adobe Illustrator 24.2.0, SVG Export Plug-In . SVG Version: 6.00 Build 0)  -->
<svg version="1.1" id="Layer_1" xmlns="http://www.w3.org/2000/svg" xmlns:xlink="http://www.w3.org/1999/xlink" x="0px" y="0px"
	 viewBox="0 0 83.58 59.1" style="enable-background:new 0 0 83.58 59.1;" xml:space="preserve">
<style type="text/css">
	.st0{fill:none;stroke:#FFFFFF;stroke-width:0.9;stroke-linecap:round;stroke-linejoin:round;stroke-miterlimit:10;}
</style>
<g id="Affordable_Elegance_2_">
	<path class="st0" d="M39.58,35.63"/>
	<path class="st0" d="M42.83,35.63"/>
	<polyline class="st0" points="26.63,20.86 61.89,20.86 61.89,35.63 42.38,35.63 	"/>
	<path class="st0" d="M24.49,20.86"/>
	<polyline class="st0" points="40.2,35.63 21.69,35.63 21.69,20.86 24.49,20.86 	"/>
	<line class="st0" x1="21.69" y1="25.65" x2="61.89" y2="25.65"/>
	<line class="st0" x1="34.45" y1="20.86" x2="34.45" y2="35.63"/>
	<line class="st0" x1="49.26" y1="20.86" x2="49.26" y2="35.63"/>
	<g>
		<line class="st0" x1="21.8" y1="29.06" x2="34.33" y2="29.06"/>
		<line class="st0" x1="21.8" y1="31.91" x2="34.33" y2="31.91"/>
	</g>
	<line class="st0" x1="58.05" y1="34.2" x2="58.05" y2="35.63"/>
	<path class="st0" d="M58.05,34.2"/>
	<path class="st0" d="M58.05,32.49"/>
	<line class="st0" x1="58.05" y1="25.92" x2="58.05" y2="32.49"/>
	<line class="st0" x1="53.66" y1="25.92" x2="53.66" y2="35.63"/>
	<line class="st0" x1="27.34" y1="23.27" x2="28.79" y2="23.27"/>
	<line class="st0" x1="41.19" y1="23.27" x2="42.64" y2="23.27"/>
	<line class="st0" x1="54.73" y1="23.27" x2="56.18" y2="23.27"/>
	<polyline class="st0" points="55.6,35.63 57.62,38.73 59.43,38.73 58.34,35.63 	"/>
	<polyline class="st0" points="27.98,35.63 25.97,38.73 24.15,38.73 25.24,35.63 	"/>
</g>
</svg>
