<?xml version="1.0" encoding="utf-8"?>
<!-- Generator: Adobe Illustrator 24.2.0, SVG Export Plug-In . SVG Version: 6.00 Build 0)  -->
<svg version="1.1" id="Layer_1" xmlns="http://www.w3.org/2000/svg" xmlns:xlink="http://www.w3.org/1999/xlink" x="0px" y="0px"
	 viewBox="0 0 83.58 59.1" style="enable-background:new 0 0 83.58 59.1;" xml:space="preserve">
<style type="text/css">
	.st0{fill:none;stroke:#FFFFFF;stroke-width:0.9;stroke-linecap:round;stroke-linejoin:round;stroke-miterlimit:10;}
</style>
<g id="Extensive_Collection_2_">
	<path class="st0" d="M52.02,27.2c0,0-0.37,2.57-1.35,3.18c-0.77,0.48-5.76,2.42-7.91,3.24c-0.63,0.24-1.32,0.24-1.95,0
		c-2.14-0.82-7.14-2.76-7.91-3.24c-0.98-0.61-1.35-3.18-1.35-3.18"/>
	<g>
		<g>
			<g>
				<path class="st0" d="M41.79,18.25c-0.33,0-0.66,0.06-0.97,0.18c-2.14,0.82-7.12,2.76-7.89,3.23c-0.89,0.57-0.88,1.24-0.89,1.72
					c0,0.43,0,0.91,0.89,1.48c0.76,0.48,5.75,2.41,7.89,3.23c0.31,0.12,0.64,0.18,0.97,0.18"/>
			</g>
		</g>
		<g>
			<g>
				<path class="st0" d="M41.79,18.25c0.33,0,0.66,0.06,0.97,0.18c2.14,0.82,7.12,2.76,7.89,3.23c0.89,0.57,0.88,1.24,0.89,1.72
					c0,0.43,0,0.91-0.89,1.48c-0.76,0.48-5.75,2.41-7.89,3.23c-0.31,0.12-0.64,0.18-0.97,0.18"/>
			</g>
		</g>
	</g>
	<path class="st0" d="M52.02,32.74c0,0-0.37,2.57-1.35,3.18c-0.77,0.48-5.76,2.42-7.91,3.24c-0.63,0.24-1.32,0.24-1.95,0
		c-2.14-0.82-7.14-2.76-7.91-3.24c-0.98-0.61-1.35-3.18-1.35-3.18"/>
</g>
</svg>
