<?xml version="1.0" encoding="utf-8"?>
<!-- Generator: Adobe Illustrator 24.2.0, SVG Export Plug-In . SVG Version: 6.00 Build 0)  -->
<svg version="1.1" id="Layer_1" xmlns="http://www.w3.org/2000/svg" xmlns:xlink="http://www.w3.org/1999/xlink" x="0px" y="0px"
	 viewBox="0 0 83.58 59.1" style="enable-background:new 0 0 83.58 59.1;" xml:space="preserve">
<style type="text/css">
	.st0{fill:none;stroke:#FFFFFF;stroke-width:0.9;stroke-linecap:round;stroke-linejoin:round;stroke-miterlimit:10;}
	.st1{fill:none;stroke:#FFFFFF;stroke-width:0.9;stroke-miterlimit:10;}
</style>
<g id="Heirloom_Quality">
	<path class="st0" d="M34.32,21.51c1.42-2.67,4.23-4.48,7.47-4.48c4.67,0,8.46,3.79,8.46,8.46s-3.79,8.46-8.46,8.46
		s-8.46-3.79-8.46-8.46c0-0.57,0.06-1.13,0.16-1.67"/>
	<circle class="st1" cx="41.79" cy="25.48" r="11.11"/>
	<polygon class="st0" points="41.79,20.32 42.93,23.84 46.64,23.84 43.64,26.01 44.79,29.53 41.79,27.36 38.8,29.53 39.94,26.01 
		36.95,23.84 40.65,23.84 	"/>
	<path class="st0" d="M41.79,36.81"/>
	<g>
		<polyline class="st0" points="39.41,36.6 34.42,45.23 33.33,40.53 28.81,41.99 33.67,33.57 		"/>
		<line class="st0" x1="50.54" y1="34.66" x2="49.91" y2="33.57"/>
		<polyline class="st0" points="44.23,36.68 49.16,45.23 50.26,40.53 54.77,41.99 51.71,36.68 		"/>
	</g>
</g>
</svg>
