<?xml version="1.0" encoding="utf-8"?>
<!-- Generator: Adobe Illustrator 24.2.0, SVG Export Plug-In . SVG Version: 6.00 Build 0)  -->
<svg version="1.1" id="Layer_1" xmlns="http://www.w3.org/2000/svg" xmlns:xlink="http://www.w3.org/1999/xlink" x="0px" y="0px"
	 viewBox="0 0 83.58 59.1" style="enable-background:new 0 0 83.58 59.1;" xml:space="preserve">
<style type="text/css">
	.st0{fill:none;stroke:#FFFFFF;stroke-width:0.7;stroke-linecap:round;stroke-linejoin:round;stroke-miterlimit:10;}
	.st1{fill:none;stroke:#FFFFFF;stroke-width:0.9;stroke-linecap:round;stroke-linejoin:round;stroke-miterlimit:10;}
	.st2{fill:#FFFFFF;}
</style>
<g id="Stellar_Service">
	<g>
		<polygon class="st0" points="43.29,16.05 44.41,19.49 48.02,19.49 45.1,21.61 46.22,25.05 43.29,22.93 40.37,25.05 41.49,21.61 
			38.56,19.49 42.18,19.49 		"/>
		<polyline class="st0" points="47.96,21.88 49.48,21.88 50.44,18.9 51.41,21.88 54.55,21.88 52.01,23.72 52.98,26.7 50.44,24.86 
			47.91,26.7 48.88,23.72 47.81,22.95 		"/>
		<polyline class="st0" points="38.62,21.88 37.11,21.88 36.14,18.9 35.17,21.88 32.04,21.88 34.57,23.72 33.61,26.7 36.14,24.86 
			38.68,26.7 37.71,23.72 38.77,22.95 		"/>
	</g>
	<g>
		<g>
			<path class="st1" d="M34.96,39.36h1.69c0,0,5.73,2.08,6.81,2.08c1.08,0,13.73-6.83,13.73-6.83s-1.03-2.23-2.55-1.76
				c-1.52,0.47-7.34,2.91-7.34,2.91"/>
			<path class="st1" d="M34.96,31.38h2.64c0,0,1.28-0.02,4.07,1.49c0.48,0.26,1.01,0.4,1.56,0.4l2.98,0c0.49,0,0.97,0.18,1.3,0.55
				c0.17,0.19,0.31,0.43,0.31,0.7c0,0.76-0.23,1.51-1.7,1.51c-1.47,0-4.41,0-4.41,0"/>
		</g>
		<g>
			<polyline class="st1" points="27.83,30.13 32.94,30.13 32.94,40.98 27.83,40.98 			"/>
			<circle class="st2" cx="30.62" cy="39.12" r="0.6"/>
		</g>
	</g>
</g>
</svg>
