<?xml version="1.0" encoding="utf-8"?>
<!-- Generator: Adobe Illustrator 24.2.0, SVG Export Plug-In . SVG Version: 6.00 Build 0)  -->
<svg version="1.1" id="Layer_1" xmlns="http://www.w3.org/2000/svg" xmlns:xlink="http://www.w3.org/1999/xlink" x="0px" y="0px"
	 viewBox="0 0 59.1 41.79" style="enable-background:new 0 0 59.1 41.79;" xml:space="preserve">
<style type="text/css">
	.st0{fill:#FFFFFF;}
	.st1{fill:none;stroke:#FFFFFF;stroke-width:0.9;stroke-linecap:round;stroke-linejoin:round;stroke-miterlimit:10;}
</style>
<g>
	<circle class="st0" cx="41.29" cy="19.25" r="0.56"/>
	<g>
		<path class="st1" d="M20.58,21.11"/>
		<polyline class="st1" points="20.58,21.11 18.14,25.33 15.36,23.73 20.47,14.88 23.25,16.48 21.69,19.17 		"/>
		<path class="st1" d="M40.34,17.84"/>
		<polyline class="st1" points="39.99,17.22 38.63,14.88 35.86,16.48 40.97,25.33 43.74,23.73 42.57,21.7 		"/>
		<g>
			<path class="st1" d="M27.01,33.59l-0.36-0.33c-0.41-0.38-0.43-1.03-0.05-1.44l1.36-1.45c0.38-0.41,1.03-0.43,1.44-0.05l0.36,0.33
				c0.41,0.38,0.43,1.03,0.05,1.44l-1.36,1.45C28.07,33.95,27.42,33.97,27.01,33.59z"/>
			<path class="st1" d="M24.73,32.11l-0.15-0.14c-0.47-0.44-0.49-1.18-0.05-1.64l2.37-2.53c0.44-0.47,1.18-0.49,1.64-0.05l0.15,0.14
				c0.47,0.44,0.49,1.18,0.05,1.64l-2.37,2.53C25.94,32.53,25.2,32.55,24.73,32.11z"/>
			<g>
				<path class="st1" d="M21.32,28.53L21,28.23c-0.42-0.39-0.44-1.06-0.05-1.48l1.83-1.95c0.39-0.42,1.06-0.44,1.48-0.05l0.32,0.3
					c0.42,0.39,0.44,1.06,0.05,1.48l-1.83,1.95C22.41,28.9,21.74,28.92,21.32,28.53z"/>
				<path class="st1" d="M22.69,30.45L22.69,30.45c-0.51-0.48-0.53-1.28-0.06-1.79l3.09-3.3c0.48-0.51,1.28-0.53,1.79-0.06l0,0
					c0.51,0.48,0.53,1.28,0.06,1.79l-3.09,3.3C24,30.9,23.2,30.92,22.69,30.45z"/>
			</g>
		</g>
		<path class="st1" d="M18.92,24.31c0,0,2.27,0.93,2.44,1.87"/>
		<path class="st1" d="M36.31,17.67c0,0-1.1,0.57-2.11,0.57c-1.01,0-2.61-1.76-5.36-1.03c-2.75,0.73-4.21,0.39-3.39,2.34
			c0.82,1.95,3.55,0.94,4.11,0.94s1.32-0.41,2.99,1.03c1.67,1.44,4.59,3.33,5.77,4.79c0.49,0.56,0.66,1.25-0.02,1.93
			c-0.68,0.68-1.37,0.58-3.55-1.14"/>
		<path class="st1" d="M37.2,28.63c0,0,0.76,0.8-0.39,1.66c-0.89,0.69-1.95,0.32-3.5-1.31"/>
		<path class="st1" d="M35.23,30.5c0,0,0.55,0.83-0.53,1.7c-0.82,0.64-2.23-0.17-3.3-1.59"/>
		<path class="st1" d="M32.76,31.96c0,0,0.67,0.6-0.33,1.42c-0.71,0.55-1.74,0.32-2.66-0.9"/>
		<path class="st1" d="M22.86,17.44c0.39,0.87,2.37,1.16,2.37,1.16"/>
		<path class="st1" d="M38.22,26c0,0,1.3-1.7,2.22-1.52"/>
		<line class="st1" x1="24.01" y1="11.47" x2="25.77" y2="14.17"/>
		<line class="st1" x1="35.05" y1="11.47" x2="33.28" y2="14.17"/>
		<line class="st1" x1="29.56" y1="10.64" x2="29.56" y2="13.35"/>
	</g>
	<circle class="st0" cx="29.56" cy="8.01" r="0.53"/>
</g>
</svg>
